<?xml version="1.0" encoding="UTF-8"?>
<svg width="180px" height="180px" viewBox="0 0 180 180" version="1.1" xmlns="http://www.w3.org/2000/svg" xmlns:xlink="http://www.w3.org/1999/xlink">
    <!-- Generator: Sketch 40.1 (33804) - http://www.bohemiancoding.com/sketch -->
    <title>abacus</title>
    <desc>Created with Sketch.</desc>
    <defs></defs>
    <g id="iconos" stroke="none" stroke-width="1" fill="none" fill-rule="evenodd">
        <g id="abacus">
            <path d="M8,157.996018 C8,165.728996 14.2706067,172 22.0039823,172 L157.996018,172 C165.728996,172 172,165.729393 172,157.996018 L172,22.0039823 C172,14.2710039 165.729393,8 157.996018,8 L22.0039823,8 C14.2710039,8 8,14.2706067 8,22.0039823 L8,157.996018 Z M22.0039823,0 L157.996018,0 C170.148482,0 180,9.85353626 180,22.0039823 L180,157.996018 C180,170.148482 170.146464,180 157.996018,180 L22.0039823,180 C9.85151844,180 0,170.146464 0,157.996018 L0,22.0039823 C0,9.85151844 9.85353626,0 22.0039823,0 Z" id="Rectangle" fill="#000000"></path>
            <g id="Group" transform="translate(8.000000, 38.000000)" fill="#000000">
                <path d="M13.4716715,26 L10.5,26 L3.5,26 L0,26 L0,18 L3.5,18 L10.5,18 L13.2834558,18 C14.9549422,7.79055651 23.8176801,0 34.5,0 C45.1823199,0 54.0450578,7.79055651 55.7165442,18 L58.7818182,18 L103.218182,18 L107,18 L107,26 L103.218182,26 L58.7818182,26 L55.5283285,26 C53.4596987,35.7138165 44.830739,43 34.5,43 C24.169261,43 15.5403013,35.7138165 13.4716715,26 Z M21,21.5 C21,14.0441559 27.0441559,8 34.5,8 C41.9558441,8 48,14.0441559 48,21.5 C48,28.9558441 41.9558441,35 34.5,35 C27.0441559,35 21,28.9558441 21,21.5 Z" id="Combined-Shape"></path>
                <path d="M160.8,26 L164,26 L164,18 L160.8,18 L151.2,18 L148,18 L148,26 L151.2,26 L160.8,26 Z M149,21.5 C149,9.62587788 139.374122,0 127.5,0 C115.625878,0 106,9.62587788 106,21.5 C106,33.3741221 115.625878,43 127.5,43 C139.374122,43 149,33.3741221 149,21.5 Z M114,21.5 C114,14.0441559 120.044156,8 127.5,8 C134.955844,8 141,14.0441559 141,21.5 C141,28.9558441 134.955844,35 127.5,35 C120.044156,35 114,28.9558441 114,21.5 Z" id="Combined-Shape"></path>
            </g>
            <g id="Group-2" transform="translate(8.000000, 100.000000)">
                <path d="M25.5555556,26 L30,26 L30,18 L25.5555556,18 L4.44444444,18 L0,18 L0,26 L4.44444444,26 L25.5555556,26 Z M69,21.5 C69,9.62587788 59.3741221,0 47.5,0 C35.6258779,0 26,9.62587788 26,21.5 C26,33.3741221 35.6258779,43 47.5,43 C59.3741221,43 69,33.3741221 69,21.5 Z M34,21.5 C34,14.0441559 40.0441559,8 47.5,8 C54.9558441,8 61,14.0441559 61,21.5 C61,28.9558441 54.9558441,35 47.5,35 C40.0441559,35 34,28.9558441 34,21.5 Z" id="Combined-Shape" fill="#000000"></path>
                <path d="M159.714286,26 L164,26 L164,18 L159.714286,18 L153.285714,18 L149,18 L149,26 L153.285714,26 L159.714286,26 Z M153,21.5 C153,9.62587788 143.374122,0 131.5,0 C119.625878,0 110,9.62587788 110,21.5 C110,33.3741221 119.625878,43 131.5,43 C143.374122,43 153,33.3741221 153,21.5 Z M118,21.5 C118,14.0441559 124.044156,8 131.5,8 C138.955844,8 145,14.0441559 145,21.5 C145,28.9558441 138.955844,35 131.5,35 C124.044156,35 118,28.9558441 118,21.5 Z" id="Combined-Shape" fill="#000000"></path>
                <path d="M111,21.5 C111,9.62587788 101.374122,0 89.5,0 C77.6258779,0 68,9.62587788 68,21.5 C68,33.3741221 77.6258779,43 89.5,43 C101.374122,43 111,33.3741221 111,21.5 Z M76,21.5 C76,14.0441559 82.0441559,8 89.5,8 C96.9558441,8 103,14.0441559 103,21.5 C103,28.9558441 96.9558441,35 89.5,35 C82.0441559,35 76,28.9558441 76,21.5 Z" id="Oval-10-Copy-3" fill="#090909"></path>
            </g>
        </g>
    </g>
</svg>