<?xml version="1.0" encoding="UTF-8"?>
<svg width="180px" height="180px" viewBox="0 0 180 180" version="1.1" xmlns="http://www.w3.org/2000/svg" xmlns:xlink="http://www.w3.org/1999/xlink">
    <!-- Generator: Sketch 40.1 (33804) - http://www.bohemiancoding.com/sketch -->
    <title>alarm</title>
    <desc>Created with Sketch.</desc>
    <defs></defs>
    <g id="iconos" stroke="none" stroke-width="1" fill="none" fill-rule="evenodd">
        <g id="alarm">
            <path d="" id="Path-13" stroke="#979797"></path>
            <path d="M28.4821282,144.751391 C29.2780491,144.250706 30.1464221,143.641992 31.0681091,142.918571 C33.6352698,140.903638 36.1781597,138.353014 38.5359259,135.216542 C45.7239668,125.654489 49.7222575,112.760929 48.9951412,96.2796261 C47.2829722,57.4704617 59.0265528,37 90,37 C122.387643,37 136.171406,58.7094271 133.016804,97.0904222 C131.524393,115.248086 135.43539,128.502019 143.05705,137.393957 C145.411149,140.140406 147.95793,142.262723 150.534417,143.837243 C151.4648,144.40581 152.34391,144.867906 153.153119,145.233977 C153.688652,145.476242 154.116537,145.642642 154.418861,145.743416 L156,136 L25,136 L27.2793793,145.450217 C27.5566198,145.308216 27.9637821,145.077463 28.4821282,144.751391 Z M25,146 L156,146 C161.672025,146 162.962095,138.050235 157.581139,136.256584 C156.833486,135.923257 156.319159,135.652905 155.748917,135.304424 C154.037903,134.258805 152.297184,132.808205 150.649616,130.886043 C144.831277,124.097981 141.702274,113.494136 142.983196,97.9095778 C146.563585,54.3481836 129.199659,27 90,27 C69.859075,27 55.7032876,34.6699273 47.4755046,49.0119342 C40.6345068,60.9366093 38.1319123,76.9335861 39.0048588,96.7203739 C39.6297148,110.883777 36.338317,121.49777 30.5425516,129.207718 C28.7269009,131.623029 26.7982726,133.557523 24.8939151,135.05223 C23.8156904,135.898515 23.0423497,136.384995 22.7206207,136.549783 C18.0480201,138.943066 19.7501429,146 25,146 Z" id="Path-14" fill="#000000"></path>
            <path d="" id="Path-15" stroke="#979797"></path>
            <path d="M85.1728344,27.4425037 C85.0937745,25.1374333 85.2767921,22.2932479 85.914521,19.6894614 C86.8841388,15.7306041 88.3730459,14 90.6929012,14 C92.9552204,14 94.3384989,15.6585601 95.1930942,19.5678218 C95.731987,22.0329334 95.8588943,24.7526615 95.7418628,27.0846974 C95.7291977,27.3370691 95.7177353,27.4989694 95.7126309,27.5562576 C95.4675587,30.3067849 97.4986315,32.7351982 100.249159,32.9802703 C102.999686,33.2253425 105.428099,31.1942698 105.673172,28.4437424 C105.689406,28.2615398 105.709951,27.9713464 105.729294,27.5859093 C105.886899,24.4453829 105.721734,20.9057467 104.962384,17.4321782 C103.221011,9.46643991 98.6618706,4 90.6929012,4 C82.781468,4 78.1404561,9.39439588 76.2016055,17.3105386 C75.3081078,20.9586049 75.0709669,24.6438949 75.1787111,27.7852848 C75.1867958,28.0210028 75.1955405,28.1988433 75.2027269,28.3133045 C75.3757601,31.0693017 77.7502085,33.1632077 80.5062057,32.9901744 C83.2622029,32.8171411 85.3561089,30.4426927 85.1830756,27.6866955 C85.1816977,27.6647495 85.1775961,27.5813336 85.1728344,27.4425037 Z" id="Path-16" fill="#000000"></path>
            <path d="M68.8407585,147.448943 C68.4203362,151.457732 68.5724878,155.829735 69.7335407,160.058947 C72.3350635,169.535164 79.3950161,175.5 91.2265894,175.5 C103.055707,175.5 110.122859,169.538514 112.7412,160.06566 C113.912699,155.827311 114.071071,151.446584 113.655189,147.434444 C113.578528,146.694866 113.498578,146.138547 113.438013,145.798533 C113.050603,143.623629 110.973437,142.174578 108.798533,142.561987 C106.623629,142.949397 105.174578,145.026563 105.561987,147.201467 C105.589675,147.356904 105.642106,147.72174 105.697824,148.259272 C106.019661,151.364132 105.895262,154.805123 105.030332,157.93434 C103.32985,164.086486 99.2832381,167.5 91.2265894,167.5 C83.172397,167.5 79.136143,164.089836 77.4481066,157.941053 C76.591195,154.819697 76.4717068,151.386259 76.7971229,148.283368 C76.8543342,147.737851 76.9082085,147.367083 76.9367333,147.208612 C77.3280889,145.034414 75.8828098,142.954622 73.708612,142.563267 C71.5344142,142.171911 69.4546223,143.61719 69.0632667,145.791388 C69.0012619,146.135859 68.9193417,146.699641 68.8407585,147.448943 Z" id="Path-17" fill="#000000"></path>
        </g>
    </g>
</svg>