<?xml version="1.0" encoding="UTF-8"?>
<svg width="152px" height="152px" viewBox="0 0 152 152" version="1.1" xmlns="http://www.w3.org/2000/svg" xmlns:xlink="http://www.w3.org/1999/xlink">
    <!-- Generator: Sketch 43.1 (39012) - http://www.bohemiancoding.com/sketch -->
    <title>albums</title>
    <desc>Created with Sketch.</desc>
    <defs></defs>
    <g id="Page-1" stroke="none" stroke-width="1" fill="none" fill-rule="evenodd">
        <g id="albums" fill-rule="nonzero" fill="#000000">
            <g id="media" transform="translate(25.000000, 36.000000)">
                <g id="music-note" transform="translate(52.510597, 34.045089)" stroke="#000000" stroke-width="2">
                    <path d="M70.3993343,0.32412294 L30.6033311,9.29195133 C29.7422903,9.48475962 29.1164078,10.4129299 29.1164078,11.4980371 L29.1164078,62.6101749 C28.6243845,62.1976548 28.0817117,61.8075543 27.4956251,61.4443572 C24.5145427,59.5969846 20.5964453,58.579136 16.4540431,58.579136 C12.311641,58.579136 8.39354359,59.5969846 5.4124612,61.4443572 C2.03341876,63.5383451 0.173860069,66.5022124 0.173860069,69.7889215 C0.173860069,73.0756306 2.03341876,76.0439819 5.4124612,78.1334855 C8.39354359,79.9808587 12.311641,80.998707 16.4540431,80.998707 C20.5964453,80.998707 24.5145427,79.9808587 27.4956251,78.1334855 C30.8746675,76.039498 32.7342262,73.0756306 32.7342262,69.7889215 L32.7342262,32.0042049 L68.9124108,23.7224154 L68.9124108,53.6423465 C68.4203875,53.2298264 67.8777148,52.8397259 67.2916282,52.4765289 C64.3105457,50.6291562 60.3924484,49.6113076 56.2500463,49.6113076 C52.1076441,49.6113076 48.1895467,50.6291562 45.2084643,52.4765289 C41.8294218,54.5705168 39.9698631,57.534384 39.9698631,60.8210932 C39.9698631,64.1078022 41.8294218,67.0761534 45.2084643,69.1656575 C48.1895467,71.0130301 52.1076441,72.0308786 56.2500463,72.0308786 C60.3924484,72.0308786 64.3105457,71.0130301 67.2916282,69.1656575 C70.6706707,67.0716695 72.5302293,64.1078022 72.5302293,60.8210932 L72.5302293,2.53020872 C72.5302293,1.86658942 72.2914533,1.23435752 71.879022,0.808385673 C71.4702085,0.382413824 70.9275357,0.203057257 70.3993343,0.32412294 Z M16.4576609,76.5147925 C9.21117058,76.5147925 3.79529635,72.9635328 3.79529635,69.7889215 C3.79529635,66.6143102 9.21117058,63.0630503 16.4576609,63.0630503 C23.7041513,63.0630503 29.1200256,66.6143102 29.1200256,69.7889215 C29.1200256,72.9635328 23.7041513,76.5147925 16.4576609,76.5147925 L16.4576609,76.5147925 Z M32.7378441,27.4440642 L32.7378441,14.1109367 L68.9160287,5.95918072 L68.9160287,19.9053821 L33.4779854,28.1871716 L32.7378441,27.4440642 Z M56.2536641,67.5469644 C49.0071737,67.5469644 43.5912995,63.9957044 43.5912995,60.8210932 C43.5912995,57.6464819 49.0071737,54.0952219 56.2536641,54.0952219 C63.5001545,54.0952219 68.9160287,57.6464819 68.9160287,60.8210932 C68.9160287,63.9957044 63.5001545,67.5469644 56.2536641,67.5469644 L56.2536641,67.5469644 Z" id="Shape"></path>
                </g>
                <path d="M23.028159,36.8672852 C23.1163843,36.7648686 23.1979098,36.6568222 23.2722236,36.5438245 C23.2819763,36.528995 23.4132408,36.3735782 23.6116273,36.2107628 C23.9105724,35.9654191 24.1684016,35.866102 24.4202434,35.8892987 C25.0160027,35.944173 25.9055383,36.4935224 27.0919334,37.9158308 C29.2093022,40.4542359 34.7013711,46.7524443 42.5753974,55.7000726 C42.6614352,55.7978399 42.6614352,55.7978399 42.7474754,55.8956035 C46.3625146,60.0031507 50.2354028,64.3916243 54.1082397,68.7720069 C55.4636928,70.3050954 56.7223403,71.7276876 57.8519286,73.0036372 C58.2473159,73.4502559 58.5983403,73.8466546 58.9009696,74.1883168 C59.2077011,74.5345766 59.2077011,74.5345766 59.2724509,74.6076442 C60.4190557,75.9015413 62.3932866,76.0172201 63.6820192,74.8660204 C64.9707517,73.7148207 65.0859691,71.7326783 63.9393643,70.4387812 C63.8750679,70.3662249 63.8750679,70.3662249 63.5688302,70.0205224 C63.2665556,69.6792615 62.9158914,69.2832685 62.520871,68.8370652 C61.3921514,67.5620965 60.1343986,66.1405157 58.7798822,64.6084861 C54.9099492,60.2313887 51.0400674,55.8463211 47.4285214,51.7427434 C47.342579,51.6450908 47.342579,51.6450908 47.2566398,51.5474356 C39.4301306,42.6538032 33.9467312,36.3655368 31.8809954,33.8890318 C27.7432568,28.928509 23.1322129,28.5037939 19.6581928,31.3549157 C19.2270094,31.7087872 18.853528,32.0844671 18.5321665,32.4649582 C18.3244705,32.7108697 18.1675403,32.9235772 18.0593866,33.0880301 L18.3034511,32.7645694 L1.46174397,52.3153252 C0.333332402,53.6252458 0.476235968,55.6055705 1.78092803,56.7385042 C3.08562009,57.8714379 5.05804028,57.7279616 6.18645186,56.418041 L23.028159,36.8672852 Z" id="Path-124"></path>
                <path d="M86.9271676,15.8389572 C86.9271676,7.63081952 80.2997167,0.976809176 72.1243417,0.976809176 C63.9489667,0.976809176 57.3215157,7.63081952 57.3215157,15.8389572 C57.3215157,24.047095 63.9489667,30.7011053 72.1243417,30.7011053 C80.2997167,30.7011053 86.9271676,24.047095 86.9271676,15.8389572 Z M62.5025048,15.8389572 C62.5025048,10.5036678 66.810348,6.178561 72.1243417,6.178561 C77.4383356,6.178561 81.7461785,10.5036678 81.7461785,15.8389572 C81.7461785,21.1742467 77.4383356,25.4993535 72.1243417,25.4993535 C66.810348,25.4993535 62.5025048,21.1742467 62.5025048,15.8389572 Z" id="Oval-3-Copy"></path>
            </g>
            <path d="M121,21.0155249 C125.509416,21.015523 125.538102,21.0154557 126.565988,21.0130448 C128.058296,20.9413443 129.792003,21.1541719 131.550119,21.9272656 C135.008333,23.4479416 137.1652,26.6778699 137.165201,31.3448138 C137.165201,37.4049313 137.165201,37.4049313 137.165201,46.409055 C137.165201,51.9791619 137.165201,49.0067323 137.165201,53.8798837 C137.165201,56.6904878 137.165201,54.3379058 137.165201,56.3570098 L137.165201,58.2270064 C137.165201,60.1759491 135.591577,61.7558794 133.650413,61.7558793 C131.709249,61.7558792 130.135625,60.1759488 130.135626,58.227006 L130.135626,56.3570095 L130.135626,53.8798836 L130.135626,46.409055 L130.135626,31.3448149 C130.135625,29.5136592 129.659716,28.8009814 128.729974,28.3921471 C128.126787,28.1269085 127.406481,28.0384848 126.629679,28.0732711 L120.600409,28.0732711 L105.301602,28.0732711 L80.2573049,28.0732711 L51.3475279,28.0732711 L34.696034,28.0732711 C32.0118025,28.0732711 30.7883734,28.9482031 30.1247286,30.6105597 C29.9006443,31.1718658 29.7565278,31.806569 29.6868899,32.4665637 C29.6371835,32.9376572 29.6308721,33.3551483 29.6489885,33.697242 C29.660779,33.8147611 29.6666853,33.9328006 29.6666853,34.0509144 L29.6666853,40.0302546 C29.6666853,46.4229094 29.6666853,46.4229094 29.6666852,55.1687133 C29.6666852,66.5629579 29.6666852,66.5629579 29.6666852,79.1103166 L29.6666852,107.135137 C29.6666852,118.194259 29.6666852,118.194259 29.6666853,123.346803 C29.6666855,126.004529 30.4156185,127.279544 31.688626,127.964467 C32.1220799,128.197681 32.6140351,128.354358 33.1183214,128.439374 C33.436555,128.493023 33.6815221,128.507657 33.9050019,128.503253 L65.0173003,128.503253 C65.0173003,128.503253 68.7232583,128.439378 68.7232583,131.601294 C68.7232583,134.763211 66.9584639,135.561 65.0173003,135.561 C65.0173003,135.561 34.0183903,135.559282 33.9568833,135.560934 C33.4230213,135.573155 32.7419103,135.532466 31.9542645,135.39968 C30.7394688,135.194883 29.5271017,134.80877 28.3682736,134.185279 C24.7955914,132.263049 22.6371104,128.588363 22.6371102,123.346804 C22.6371101,121.964795 22.6371101,120.953466 22.6371101,119.999998 L10.9917708,120 C4.92118343,120 0,115.072139 0,109.005998 L0,10.994002 C0,7.95809219 1.23275022,5.20959169 3.22474752,3.22006864 C5.21674482,1.23054559 7.96798919,0 11.0049775,0 L109.995023,0 C116.072904,0 121,4.92924542 121,11.0008444 L121,20.3627155 L114,20.3627155 L114,11.0008444 C114,8.79405247 112.205724,7 109.995023,7 L11.0049775,7 C8.79369935,7 7,8.79147141 7,10.994002 L7,109.005998 C7,111.208984 8.79001394,113 10.9917708,113 L19.9419028,113 L19.9419028,120 L10.9917708,120 C4.92118343,120 0,115.072139 0,109.005998 L0,10.994002 C0,7.95809219 1.23275022,5.20959169 3.22474752,3.22006864 C5.21674482,1.23054559 7.96798919,0 11.0049775,0 L109.995023,0 C116.072904,0 121,4.92924542 121,11.0008444 L121,21.0155249 Z M114,21.015525 L114,11.0008444 C114,8.79405247 112.205724,7 109.995023,7 L11.0049775,7 C8.79369935,7 7,8.79147141 7,10.994002 L7,109.005998 C7,111.208984 8.79001394,113 10.9917708,113 L22.63711,113 C22.63711,111.465069 22.63711,109.567619 22.63711,107.135137 C22.63711,94.1071568 22.63711,94.1071568 22.63711,79.1103166 C22.63711,66.5629579 22.63711,66.5629579 22.6371101,55.1687133 C22.6371101,46.4229094 22.6371101,46.4229094 22.6371101,40.0302545 C22.6371102,35.1641194 22.6371102,35.1641194 22.6371102,34.0509144 L22.6548069,34.4045867 C22.6462465,34.319262 22.6370636,34.2023255 22.6290675,34.0562548 C22.5288306,32.2251594 22.7522478,30.1077181 23.5997767,27.9847527 C25.3081226,23.7055365 29.0696013,21.015525 34.696034,21.015525 L51.3475279,21.015525 L80.2573049,21.015525 L105.301602,21.015525 L114,21.015525 Z" id="Rectangle-5"></path>
        </g>
    </g>
</svg>