<?xml version="1.0" encoding="UTF-8"?>
<svg width="180px" height="180px" viewBox="0 0 180 180" version="1.1" xmlns="http://www.w3.org/2000/svg" xmlns:xlink="http://www.w3.org/1999/xlink">
    <!-- Generator: Sketch 40.1 (33804) - http://www.bohemiancoding.com/sketch -->
    <title>apartament</title>
    <desc>Created with Sketch.</desc>
    <defs></defs>
    <g id="iconos" stroke="none" stroke-width="1" fill="none" fill-rule="evenodd">
        <g id="apartament" fill="#000000">
            <path d="M40,140.997184 C40,140.443769 39.556676,140 39.0028165,140 L55.9971835,140 C55.443769,140 55,140.443324 55,140.997184 L55,124.002816 C55,124.556231 55.443324,125 55.9971835,125 L39.0028165,125 C39.556231,125 40,124.556676 40,124.002816 L40,140.997184 Z M39.0028165,120 L55.9971835,120 C58.207878,120 60,121.797938 60,124.002816 L60,140.997184 C60,143.207878 58.2020617,145 55.9971835,145 L39.0028165,145 C36.792122,145 35,143.202062 35,140.997184 L35,124.002816 C35,121.792122 36.7979383,120 39.0028165,120 Z" id="Rectangle-6"></path>
            <path d="M126,140.997184 C126,140.443769 125.556676,140 125.002816,140 L141.997184,140 C141.443769,140 141,140.443324 141,140.997184 L141,124.002816 C141,124.556231 141.443324,125 141.997184,125 L125.002816,125 C125.556231,125 126,124.556676 126,124.002816 L126,140.997184 Z M125.002816,120 L141.997184,120 C144.207878,120 146,121.797938 146,124.002816 L146,140.997184 C146,143.207878 144.202062,145 141.997184,145 L125.002816,145 C122.792122,145 121,143.202062 121,140.997184 L121,124.002816 C121,121.792122 122.797938,120 125.002816,120 Z" id="Rectangle-6-Copy"></path>
            <path d="M40,93.9971835 C40,93.443769 39.556676,93 39.0028165,93 L55.9971835,93 C55.443769,93 55,93.443324 55,93.9971835 L55,77.0028165 C55,77.556231 55.443324,78 55.9971835,78 L39.0028165,78 C39.556231,78 40,77.556676 40,77.0028165 L40,93.9971835 Z M39.0028165,73 L55.9971835,73 C58.207878,73 60,74.7979383 60,77.0028165 L60,93.9971835 C60,96.207878 58.2020617,98 55.9971835,98 L39.0028165,98 C36.792122,98 35,96.2020617 35,93.9971835 L35,77.0028165 C35,74.792122 36.7979383,73 39.0028165,73 Z" id="Rectangle-6"></path>
            <path d="M126,93.9971835 C126,93.443769 125.556676,93 125.002816,93 L141.997184,93 C141.443769,93 141,93.443324 141,93.9971835 L141,77.0028165 C141,77.556231 141.443324,78 141.997184,78 L125.002816,78 C125.556231,78 126,77.556676 126,77.0028165 L126,93.9971835 Z M125.002816,73 L141.997184,73 C144.207878,73 146,74.7979383 146,77.0028165 L146,93.9971835 C146,96.207878 144.202062,98 141.997184,98 L125.002816,98 C122.792122,98 121,96.2020617 121,93.9971835 L121,77.0028165 C121,74.792122 122.797938,73 125.002816,73 Z" id="Rectangle-6-Copy-2"></path>
            <path d="M83,93.9971835 C83,93.443769 82.556676,93 82.0028165,93 L98.9971835,93 C98.443769,93 98,93.443324 98,93.9971835 L98,77.0028165 C98,77.556231 98.443324,78 98.9971835,78 L82.0028165,78 C82.556231,78 83,77.556676 83,77.0028165 L83,93.9971835 Z M82.0028165,73 L98.9971835,73 C101.207878,73 103,74.7979383 103,77.0028165 L103,93.9971835 C103,96.207878 101.202062,98 98.9971835,98 L82.0028165,98 C79.792122,98 78,96.2020617 78,93.9971835 L78,77.0028165 C78,74.792122 79.7979383,73 82.0028165,73 Z" id="Rectangle-6-Copy-4"></path>
            <path d="M40,46.9971835 C40,46.443769 39.556676,46 39.0028165,46 L55.9971835,46 C55.443769,46 55,46.443324 55,46.9971835 L55,30.0028165 C55,30.556231 55.443324,31 55.9971835,31 L39.0028165,31 C39.556231,31 40,30.556676 40,30.0028165 L40,46.9971835 Z M39.0028165,26 L55.9971835,26 C58.207878,26 60,27.7979383 60,30.0028165 L60,46.9971835 C60,49.207878 58.2020617,51 55.9971835,51 L39.0028165,51 C36.792122,51 35,49.2020617 35,46.9971835 L35,30.0028165 C35,27.792122 36.7979383,26 39.0028165,26 Z" id="Rectangle-6"></path>
            <path d="M126,46.9971835 C126,46.443769 125.556676,46 125.002816,46 L141.997184,46 C141.443769,46 141,46.443324 141,46.9971835 L141,30.0028165 C141,30.556231 141.443324,31 141.997184,31 L125.002816,31 C125.556231,31 126,30.556676 126,30.0028165 L126,46.9971835 Z M125.002816,26 L141.997184,26 C144.207878,26 146,27.7979383 146,30.0028165 L146,46.9971835 C146,49.207878 144.202062,51 141.997184,51 L125.002816,51 C122.792122,51 121,49.2020617 121,46.9971835 L121,30.0028165 C121,27.792122 122.797938,26 125.002816,26 Z" id="Rectangle-6-Copy-3"></path>
            <path d="M83,46.9971835 C83,46.443769 82.556676,46 82.0028165,46 L98.9971835,46 C98.443769,46 98,46.443324 98,46.9971835 L98,30.0028165 C98,30.556231 98.443324,31 98.9971835,31 L82.0028165,31 C82.556231,31 83,30.556676 83,30.0028165 L83,46.9971835 Z M82.0028165,26 L98.9971835,26 C101.207878,26 103,27.7979383 103,30.0028165 L103,46.9971835 C103,49.207878 101.202062,51 98.9971835,51 L82.0028165,51 C79.792122,51 78,49.2020617 78,46.9971835 L78,30.0028165 C78,27.792122 79.7979383,26 82.0028165,26 Z" id="Rectangle-6-Copy-5"></path>
            <path d="M24,167.000553 C24,170.318864 26.68359,173 30.0046471,173 L149.995353,173 C153.317345,173 156,170.317149 156,167.000553 L156,12.999447 C156,9.68113594 153.31641,7 149.995353,7 L30.0046471,7 C26.6826545,7 24,9.6828515 24,12.999447 L24,167.000553 Z M30.0046471,0 L149.995353,0 C157.177621,0 163,5.81036222 163,12.999447 L163,167.000553 C163,174.179949 157.186531,180 149.995353,180 L30.0046471,180 C22.8223788,180 17,174.189638 17,167.000553 L17,12.999447 C17,5.82005069 22.8134691,0 30.0046471,0 Z" id="Rectangle-10"></path>
            <g id="Group" transform="translate(70.000000, 120.000000)">
                <path d="M41,18 L41,53 L34,53 L34,18 L34,7 C33.8840793,6.98088359 7,7 7,7 C7.54838075,7 7,19 7,19 L0,19 L0,6.00031854 C0,2.68643412 2.69012451,0 6.00566089,0 L34.9943391,0 C38.311174,0 41,2.6880479 41,6.00031854 L41,18 Z M0,19 L7,19 L7,53 L0,53 L0,19 Z" id="Combined-Shape"></path>
            </g>
        </g>
    </g>
</svg>