<?xml version="1.0" encoding="UTF-8"?>
<svg width="128px" height="128px" viewBox="0 0 128 128" version="1.1" xmlns="http://www.w3.org/2000/svg" xmlns:xlink="http://www.w3.org/1999/xlink">
    <!-- Generator: Sketch 47.1 (45422) - http://www.bohemiancoding.com/sketch -->
    <title>apps</title>
    <desc>Created with Sketch.</desc>
    <defs></defs>
    <g id="iconos" stroke="none" stroke-width="1" fill="none" fill-rule="evenodd">
        <g id="apps" fill-rule="nonzero" fill="#000000">
            <path d="M27.4285714,10.0787402 C17.8907015,10.0787402 10.1587302,17.7498298 10.1587302,27.2125984 L10.1587302,100.787402 C10.1587302,110.25017 17.8907015,117.92126 27.4285714,117.92126 L100.571429,117.92126 C110.109299,117.92126 117.84127,110.25017 117.84127,100.787402 L117.84127,27.2125984 C117.84127,17.7498298 110.109299,10.0787402 100.571429,10.0787402 L27.4285714,10.0787402 Z M27.4285714,0 L100.571429,0 C115.71981,-3.24499832e-15 128,12.1834953 128,27.2125984 L128,100.787402 C128,115.816505 115.71981,128 100.571429,128 L27.4285714,128 C12.2801897,128 2.25569122e-15,115.816505 0,100.787402 L0,27.2125984 C-2.25569122e-15,12.1834953 12.2801897,3.35689481e-15 27.4285714,0 Z" id="Rectangle-27"></path>
            <path d="M48.450173,78 L79.4469277,78 L63.9485503,41.7259331 L48.450173,78 Z M44.1775952,88 L38.5991939,101.056289 C37.5142347,103.595645 34.5761474,104.774665 32.0367922,103.689706 C29.4974371,102.604747 28.3184162,99.6666595 29.4033755,97.1273044 L59.3506411,27.0355075 C61.0799001,22.9881642 66.8172006,22.9881642 68.5464596,27.0355075 L98.4937252,97.1273044 C99.5786844,99.6666595 98.3996636,102.604747 95.8603085,103.689706 C93.3209533,104.774665 90.382866,103.595645 89.2979067,101.056289 L83.7195055,88 L44.1775952,88 Z" id="Combined-Shape"></path>
        </g>
    </g>
</svg>