<?xml version="1.0" encoding="UTF-8"?>
<svg width="180px" height="180px" viewBox="0 0 180 180" version="1.1" xmlns="http://www.w3.org/2000/svg" xmlns:xlink="http://www.w3.org/1999/xlink">
    <!-- Generator: Sketch 40.1 (33804) - http://www.bohemiancoding.com/sketch -->
    <title>apps</title>
    <desc>Created with Sketch.</desc>
    <defs></defs>
    <g id="iconos" stroke="none" stroke-width="1" fill="none" fill-rule="evenodd">
        <g id="apps">
            <g id="solar-system" transform="translate(24.000000, 9.000000)"></g>
            <g id="Group-4" fill="#000000">
                <path d="M91,0 C67.2261117,0 42.5,9.5 25.5,27.5 C8.5,45.5 0,67.2261117 0,91 C0,114.773888 10.6908351,137.688468 27.5,154.5 C44.3115319,171.309165 67.2261117,180 91,180 C106.222787,180 121.248165,176.088734 134.449516,168.691793 C135.818128,167.924404 136.912901,165 135.5,163 C134.087099,161 131.368612,160.732138 130,161.5 C117.645096,168.423537 105.251835,172 91,172 C45.0575372,172 8,136.942463 8,91 C8,45.0575372 45.0575372,7.68085106 91,7.68085106 C107.176983,7.68085106 121.654362,12.9895451 134.449516,21 C157.992466,35.7391531 172,61.2345204 172,91 C172,105.251835 168.427324,117.641309 161.5,130 C160.732612,131.368138 160.5,134 163,135.5 C165.5,137 167.732612,135.368612 168.5,134 C175.902149,120.794862 180,106.220894 180,91 C180,67.2261117 170.809165,43.3115319 154,26.5 C137.188468,9.69083511 114.773888,0 91,0 Z" id="Fill-3"></path>
            </g>
            <path d="M153.293856,137.804495 C144.751473,137.804495 137.804495,144.751473 137.804495,153.293856 C137.804495,161.834787 144.751473,168.783218 153.293856,168.783218 C161.834787,168.783218 168.783218,161.834787 168.783218,153.293856 C168.783218,144.751473 161.834787,137.804495 153.293856,137.804495 L153.293856,137.804495 Z M153.293856,162.974707 C147.954383,162.974707 143.613005,158.631878 143.613005,153.293856 C143.613005,147.954383 147.954383,143.613005 153.293856,143.613005 C158.631878,143.613005 162.974707,147.954383 162.974707,153.293856 C162.974707,158.631878 158.631878,162.974707 153.293856,162.974707 L153.293856,162.974707 Z" id="Fill-5" fill="#000000"></path>
            <path d="M93.671608,37.0721993 C92.8308642,35.2517199 90.7337641,34.4864954 88.9876039,35.3630225 C87.2414437,36.2395496 86.5074587,38.4259053 87.3482025,40.2463847 L127.264187,126.677263 C128.104931,128.497742 130.202031,129.262967 131.948191,128.38644 C133.694351,127.509912 134.428336,125.323557 133.587592,123.503077 L93.671608,37.0721993 Z" id="Line" fill="#000000"></path>
            <path d="M64.9643521,102.224858 L53.671608,126.677263 C52.8308642,128.497742 50.7337641,129.262967 48.9876039,128.38644 C47.2414437,127.509912 46.5074587,125.323557 47.3482025,123.503077 L87.2641869,37.0721993 C88.1049307,35.2517199 90.2020308,34.4864954 91.948191,35.3630225 C93.6943512,36.2395496 94.4283362,38.4259053 93.5875924,40.2463847 L68.3434831,94.9079587 L116.744121,94.9079587 L120.253219,94.9079587 L120.253219,102.224858 L116.744121,102.224858 L65.862207,102.224858 L64.9643521,102.224858 L64.9643521,102.224858 Z" id="Combined-Shape" fill="#000000"></path>
        </g>
    </g>
</svg>