<?xml version="1.0" encoding="UTF-8"?>
<svg width="180px" height="180px" viewBox="0 0 180 180" version="1.1" xmlns="http://www.w3.org/2000/svg" xmlns:xlink="http://www.w3.org/1999/xlink">
    <!-- Generator: Sketch 40.1 (33804) - http://www.bohemiancoding.com/sketch -->
    <title>arrow-circle-left</title>
    <desc>Created with Sketch.</desc>
    <defs></defs>
    <g id="iconos" stroke="none" stroke-width="1" fill="none" fill-rule="evenodd">
        <g id="arrow-circle-left">
            <path d="M179,90 C179,40.8466573 139.153343,1 90,1 C40.8466573,1 1,40.8466573 1,90 C1,139.153343 40.8466573,179 90,179 C139.153343,179 179,139.153343 179,90 Z M9,90 C9,45.2649353 45.2649353,9 90,9 C134.735065,9 171,45.2649353 171,90 C171,134.735065 134.735065,171 90,171 C45.2649353,171 9,134.735065 9,90 Z" id="Oval-8" fill="#151515"></path>
            <path d="M107.442478,135.092575 C106.235292,135.092575 105.028106,134.607475 104.103855,133.647175 L66.3793039,94.047175 C64.540232,92.116675 64.540232,88.978375 66.3793039,87.047875 L104.103855,47.447875 C105.942927,45.517375 108.932597,45.517375 110.771669,47.447875 C112.610741,49.378375 112.610741,52.516675 110.771669,54.447175 L76.385741,90.542575 L110.771669,126.637975 C112.610741,128.568475 112.610741,131.706775 110.771669,133.637275 C109.847418,134.607475 108.640232,135.082675 107.433046,135.082675 L107.442478,135.092575 Z" id="Shape" fill="#000000"></path>
        </g>
    </g>
</svg>