<?xml version="1.0" encoding="UTF-8"?>
<svg width="128px" height="128px" viewBox="0 0 128 128" version="1.1" xmlns="http://www.w3.org/2000/svg" xmlns:xlink="http://www.w3.org/1999/xlink">
    <!-- Generator: Sketch 47.1 (45422) - http://www.bohemiancoding.com/sketch -->
    <title>bank</title>
    <desc>Created with Sketch.</desc>
    <defs></defs>
    <g id="iconos" stroke="none" stroke-width="1" fill="none" fill-rule="evenodd">
        <g id="bank" fill-rule="nonzero">
            <path d="M63.5,10.8265591 L23.0958202,35 L103.90418,35 L63.5,10.8265591 Z M66.0670837,0.709302943 L124.567084,35.7093029 C128.921648,38.3145979 127.074425,45 122,45 L5,45 C-0.0744254894,45 -1.92164821,38.3145979 2.43291629,35.7093029 L60.9329163,0.709302943 C62.5136486,-0.236434314 64.4863514,-0.236434314 66.0670837,0.709302943 Z" id="Triangle-4" fill="#070707"></path>
            <path d="M21.5,54.287234 L21.5,89.712766 C21.5,92.3566823 23.7385763,94.5 26.5,94.5 C29.2614237,94.5 31.5,92.3566823 31.5,89.712766 L31.5,54.287234 C31.5,51.6433177 29.2614237,49.5 26.5,49.5 C23.7385763,49.5 21.5,51.6433177 21.5,54.287234 Z" id="Line" fill="#000000"></path>
            <path d="M46.5,54.287234 L46.5,89.712766 C46.5,92.3566823 48.7385763,94.5 51.5,94.5 C54.2614237,94.5 56.5,92.3566823 56.5,89.712766 L56.5,54.287234 C56.5,51.6433177 54.2614237,49.5 51.5,49.5 C48.7385763,49.5 46.5,51.6433177 46.5,54.287234 Z" id="Line-Copy" fill="#000000"></path>
            <path d="M71.5,54.287234 L71.5,89.712766 C71.5,92.3566823 73.7385763,94.5 76.5,94.5 C79.2614237,94.5 81.5,92.3566823 81.5,89.712766 L81.5,54.287234 C81.5,51.6433177 79.2614237,49.5 76.5,49.5 C73.7385763,49.5 71.5,51.6433177 71.5,54.287234 Z" id="Line-Copy-2" fill="#000000"></path>
            <path d="M96.5,54.287234 L96.5,89.712766 C96.5,92.3566823 98.7385763,94.5 101.5,94.5 C104.261424,94.5 106.5,92.3566823 106.5,89.712766 L106.5,54.287234 C106.5,51.6433177 104.261424,49.5 101.5,49.5 C98.7385763,49.5 96.5,51.6433177 96.5,54.287234 Z" id="Line-Copy-3" fill="#000000"></path>
            <path d="M20.2749371,103.624125 C21.2222389,102.586955 22.5621251,101.996094 23.9667969,101.996094 L106.884766,101.996094 C108.332798,101.996094 109.709715,102.623856 110.659361,103.717004 L124.993345,120.217004 C127.805094,123.453637 125.506142,128.496094 121.21875,128.496094 L8.89648438,128.496094 C4.55024536,128.496094 2.27354841,123.333266 5.20462462,120.124125 L20.2749371,103.624125 Z M20.2349006,118.496094 L110.251891,118.496094 L104.60517,111.996094 L26.1716904,111.996094 L20.2349006,118.496094 Z" id="Path-37" fill="#000000"></path>
        </g>
    </g>
</svg>