<?xml version="1.0" encoding="UTF-8"?>
<svg width="180px" height="180px" viewBox="0 0 180 180" version="1.1" xmlns="http://www.w3.org/2000/svg" xmlns:xlink="http://www.w3.org/1999/xlink">
    <!-- Generator: Sketch 40.1 (33804) - http://www.bohemiancoding.com/sketch -->
    <title>birthday</title>
    <desc>Created with Sketch.</desc>
    <defs></defs>
    <g id="iconos" stroke="none" stroke-width="1" fill="none" fill-rule="evenodd">
        <g id="birthday" fill="#000000">
            <path d="M3.87644496,141.260313 C5.03328238,143.680804 6.62946231,146.093182 8.73800464,148.342885 C14.4653537,154.453664 22.8235058,158.212933 34.1367611,158.4992 C44.6368664,158.208469 52.3977418,154.151103 57.7952011,147.596986 C59.7549283,145.217296 61.2583541,142.674054 62.3694435,140.127014 C63.0448172,138.578801 63.4454332,137.348302 63.6295382,136.589359 L58.8225276,136.773062 C59.0606992,137.505534 59.5481673,138.693546 60.3307896,140.187468 C61.6167385,142.642173 63.2894195,145.091772 65.398855,147.381426 C71.4339013,153.932071 79.7674719,157.875 90.6,157.875 C101.163274,157.875 109.124133,153.899699 114.708186,147.302687 C116.657148,145.000177 118.171233,142.539155 119.307798,140.074122 C119.998907,138.575215 120.417159,137.383506 120.61455,136.648034 L115.822528,136.773062 C116.065608,137.520629 116.561226,138.738857 117.352605,140.273329 C118.654911,142.798478 120.339326,145.31933 122.453807,147.676928 C128.285672,154.179319 136.219414,158.208947 146.429006,158.498992 C156.324142,157.40948 163.878722,153.86827 169.614543,148.631916 C172.075961,146.384836 174.034779,143.973413 175.544299,141.552717 C176.467713,140.071915 177.045759,138.889311 177.330953,138.153692 C177.830048,136.866343 177.191042,135.418143 175.903692,134.919047 C174.616343,134.419952 173.168143,135.058958 172.669047,136.346308 C172.636244,136.43092 172.542886,136.6456 172.383532,136.971617 C172.101727,137.548151 171.742846,138.199469 171.301621,138.907027 C170.023815,140.956139 168.351773,143.014524 166.243443,144.939264 C161.271452,149.478301 154.694087,152.56144 146.220237,153.515703 C137.801817,153.251884 131.13187,149.864151 126.176047,144.338525 C124.363647,142.317742 122.91349,140.147473 121.796423,137.9815 C121.408348,137.229029 121.090922,136.534588 120.840045,135.917933 C120.696302,135.564614 120.61023,135.32768 120.577472,135.226938 C119.808027,132.860588 116.430452,132.948712 115.78545,135.351966 C115.760676,135.444271 115.691939,135.668228 115.573879,136.00461 C115.366829,136.594551 115.099624,137.259593 114.767202,137.980565 C113.810017,140.056548 112.530352,142.136542 110.891814,144.072313 C106.225867,149.584676 99.6367265,152.875 90.6,152.875 C81.2200281,152.875 74.1973487,149.552304 69.076145,143.993574 C67.280893,142.044946 65.8527928,139.95353 64.7598354,137.867219 C64.3806203,137.143348 64.0717008,136.475746 63.8286881,135.883498 C63.6900383,135.545593 63.607847,135.320352 63.5774724,135.226938 C62.798262,132.830557 59.3645081,132.96178 58.7704618,135.410641 C58.7472155,135.50647 58.6820146,135.738246 58.5687651,136.086094 C58.3702715,136.69577 58.111449,137.38295 57.7865183,138.127815 C56.8512103,140.271897 55.5815009,142.419777 53.9355358,144.418467 C49.4276595,149.892366 43.0007042,153.252362 34.1299602,153.500981 C24.2899445,153.248439 17.1996466,150.059417 12.3861394,144.923658 C10.6470861,143.06818 9.33300431,141.08215 8.38768799,139.104232 C8.06125277,138.42122 7.80533155,137.792839 7.6127754,137.237444 C7.50471077,136.92575 7.44504415,136.722946 7.42633737,136.647599 C7.09364048,135.30757 5.73762813,134.490966 4.397599,134.823663 C3.05756987,135.15636 2.24096574,136.512372 2.57366263,137.852401 C2.75802864,138.594986 3.16867067,139.779413 3.87644496,141.260313 Z" id="Path-10"></path>
            <path d="M7,171.999575 C7,172.551867 7.44779485,173 7.99587851,173 L172.004121,173 C172.555609,173 173,172.555181 173,171.999575 L173,120.000425 C173,119.448133 172.552205,119 172.004121,119 L7.99587851,119 C7.44439055,119 7,119.444819 7,120.000425 L7,171.999575 Z M7.99587851,112 L172.004121,112 C176.420123,112 180,115.584064 180,120.000425 L180,171.999575 C180,176.418088 176.42469,180 172.004121,180 L7.99587851,180 C3.57987675,180 0,176.415936 0,171.999575 L0,120.000425 C0,115.581912 3.57531048,112 7.99587851,112 Z" id="Rectangle-16"></path>
            <path d="M33.3770333,85.7605614 C34.5338707,88.1811296 36.1300506,90.5935848 38.2385929,92.8433602 C43.965942,98.9543349 52.3240941,102.713724 63.6373494,103 C74.1374547,102.709259 81.89833,98.651764 87.2957894,92.0974371 C89.2555166,89.7176706 90.7589423,87.1743475 91.8700318,84.6272261 C92.5454055,83.0789631 92.9460215,81.8484255 93.1301265,81.0894578 L88.3231159,81.2731667 C88.5612874,82.0056623 89.0487556,83.1937124 89.8313779,84.687682 C91.1173268,87.1424659 92.7900078,89.5921434 94.8994433,91.88187 C100.93449,98.4327251 109.26806,102.37578 120.100588,102.37578 C130.663862,102.37578 138.624722,98.4003523 144.208774,91.8031284 C146.157737,89.5005451 145.323116,81.2731667 145.323116,81.2731667 C145.566196,82.020758 146.061814,83.2390247 146.853194,84.7735457 C148.155499,87.2987753 145.931041,77.4486942 145.286038,79.8520252 C145.261265,79.9443335 145.192527,80.1682972 145.074468,80.5046902 C144.867417,81.0946501 144.600212,81.7597133 144.26779,82.4807087 C143.310606,84.5567577 142.03094,86.636818 140.392403,88.5726516 C135.726455,94.0851902 129.137315,97.37562 120.100588,97.37562 C110.720616,97.37562 103.697937,94.0528173 98.5767333,88.49391 C96.7814813,86.5452198 95.3533811,84.4537362 94.2604237,82.3673592 C93.8812086,81.6434649 93.5722891,80.9758407 93.3292764,80.3835739 C93.1906266,80.0456586 93.1084353,79.8204102 93.0780607,79.7269933 C92.2988503,77.3305352 88.8650964,77.4617626 88.2710501,79.9107022 C88.2478038,80.0065343 88.1826028,80.2383178 88.0693534,80.5861763 C87.8708598,81.1958719 87.6120373,81.8830744 87.2871066,82.627963 C86.3517986,84.7721136 85.0820892,86.9200623 83.4361241,88.9188163 C78.9282478,94.3928909 72.5012925,97.7529939 63.6305485,98.0016213 C53.7905328,97.7490712 46.7002349,94.5599464 41.8867277,89.4240238 C40.1476744,87.5684865 38.8335926,85.5823923 37.8882763,83.6044111 C37.5618411,82.9213776 37.3059198,82.2929764 37.1133637,81.7375636 C37.0052991,81.4258598 36.9456324,81.2230489 36.9269257,81.1476997 C36.5942288,79.8076277 35.2382164,78.9909975 33.8981873,79.323705 C32.5581582,79.6564125 31.741554,81.0124683 32.0742509,82.3525403 C32.2586169,83.0951494 32.669259,84.2796135 33.3770333,85.7605614 Z" id="Path-10"></path>
            <path d="M37,75.5060244 C37,73.0184141 39.0162124,71 41.4935899,71 L139.50641,71 C141.985417,71 144,73.0183559 144,75.5060244 L144,113.493976 L151,113.493976 L151,75.5060244 C151,69.1552918 145.854346,64 139.50641,64 L41.4935899,64 C35.1485079,64 30,69.15413 30,75.5060244 L30,113.493976 L37,113.493976 L37,75.5060244 Z" id="Rectangle-17"></path>
            <path d="M64.4530891,36.4768955 C63.8928076,36.9624882 63.2951397,37.3111443 62.7055876,37.543706 C62.3818732,37.6714023 62.1645136,37.7278183 62.1107094,37.7363387 L62.9629833,37.749078 C62.9694505,37.7502916 62.9224249,37.7394927 62.8301212,37.7138682 C62.6424222,37.6617608 62.4244465,37.589183 62.1842946,37.4937128 C61.4796845,37.2136017 60.7708286,36.8127849 60.1139058,36.2758861 C58.2100154,34.7198484 57.0611872,32.3342459 57.0611872,28.6932881 C57.0611872,23.5287796 59.4264024,16.5265978 64.7243693,7.51356494 L60.3385987,7.29601446 C65.0599693,16.5812468 67.1722983,23.7279019 67.1722983,28.944335 C67.1722983,32.6499808 66.1345158,35.0196128 64.4530891,36.4768955 Z M70,37.7414281 C73.9651618,31.6087468 72.8728157,21.0254135 64.7837757,5.11719075 L62.6902596,1 L60.3980051,4.89964027 C50.9509074,20.9712774 49.962634,31.8046957 55,38.0969148 L55,64.7345735 L60,64.7345735 L60,41.952075 C60.1458711,42.0163 60.2919424,42.0774218 60.4380798,42.1355174 C61.1632044,42.4237839 61.75683,42.588581 62.1593911,42.6641272 L62.5862565,42.7442345 L63.011665,42.6768665 C63.4023052,42.6150044 63.9627234,42.4695471 64.639009,42.2027714 C64.7594714,42.1552523 64.8798324,42.1052477 65,42.0527013 L65,64.7345735 L70,64.7345735 L70,37.7414281 Z" id="Combined-Shape"></path>
            <path d="M92.4530891,36.4768955 C91.8928076,36.9624882 91.2951397,37.3111443 90.7055876,37.543706 C90.3818732,37.6714023 90.1645136,37.7278183 90.1107094,37.7363387 L90.9629833,37.749078 C90.9694505,37.7502916 90.9224249,37.7394927 90.8301212,37.7138682 C90.6424222,37.6617608 90.4244465,37.589183 90.1842946,37.4937128 C89.4796845,37.2136017 88.7708286,36.8127849 88.1139058,36.2758861 C86.2100154,34.7198484 85.0611872,32.3342459 85.0611872,28.6932881 C85.0611872,23.5287796 87.4264024,16.5265978 92.7243693,7.51356494 L88.3385987,7.29601446 C93.0599693,16.5812468 95.1722983,23.7279019 95.1722983,28.944335 C95.1722983,32.6499808 94.1345158,35.0196128 92.4530891,36.4768955 Z M98,37.7414281 C101.965162,31.6087468 100.872816,21.0254135 92.7837757,5.11719075 L90.6902596,1 L88.3980051,4.89964027 C78.9509074,20.9712774 77.962634,31.8046957 83,38.0969148 L83,64.7345735 L88,64.7345735 L88,41.952075 C88.1458711,42.0163 88.2919424,42.0774218 88.4380798,42.1355174 C89.1632044,42.4237839 89.75683,42.588581 90.1593911,42.6641272 L90.5862565,42.7442345 L91.011665,42.6768665 C91.4023052,42.6150044 91.9627234,42.4695471 92.639009,42.2027714 C92.7594714,42.1552523 92.8798324,42.1052477 93,42.0527013 L93,64.7345735 L98,64.7345735 L98,37.7414281 Z" id="Combined-Shape-Copy"></path>
            <path d="M121.453089,36.4768955 C120.892808,36.9624882 120.29514,37.3111443 119.705588,37.543706 C119.381873,37.6714023 119.164514,37.7278183 119.110709,37.7363387 L119.962983,37.749078 C119.96945,37.7502916 119.922425,37.7394927 119.830121,37.7138682 C119.642422,37.6617608 119.424447,37.589183 119.184295,37.4937128 C118.479685,37.2136017 117.770829,36.8127849 117.113906,36.2758861 C115.210015,34.7198484 114.061187,32.3342459 114.061187,28.6932881 C114.061187,23.5287796 116.426402,16.5265978 121.724369,7.51356494 L117.338599,7.29601446 C122.059969,16.5812468 124.172298,23.7279019 124.172298,28.944335 C124.172298,32.6499808 123.134516,35.0196128 121.453089,36.4768955 Z M127,37.7414281 C130.965162,31.6087468 129.872816,21.0254135 121.783776,5.11719075 L119.69026,1 L117.398005,4.89964027 C107.950907,20.9712774 106.962634,31.8046957 112,38.0969148 L112,64.7345735 L117,64.7345735 L117,41.952075 C117.145871,42.0163 117.291942,42.0774218 117.43808,42.1355174 C118.163204,42.4237839 118.75683,42.588581 119.159391,42.6641272 L119.586257,42.7442345 L120.011665,42.6768665 C120.402305,42.6150044 120.962723,42.4695471 121.639009,42.2027714 C121.759471,42.1552523 121.879832,42.1052477 122,42.0527013 L122,64.7345735 L127,64.7345735 L127,37.7414281 Z" id="Combined-Shape-Copy-2"></path>
        </g>
    </g>
</svg>