<?xml version="1.0" encoding="UTF-8"?>
<svg width="180px" height="180px" viewBox="0 0 180 180" version="1.1" xmlns="http://www.w3.org/2000/svg" xmlns:xlink="http://www.w3.org/1999/xlink">
    <!-- Generator: Sketch 40.1 (33804) - http://www.bohemiancoding.com/sketch -->
    <title>block-page</title>
    <desc>Created with Sketch.</desc>
    <defs></defs>
    <g id="iconos" stroke="none" stroke-width="1" fill="none" fill-rule="evenodd">
        <g id="block-page">
            <path d="M16.9064748,8.00977185 L16.9064748,8.00977185 L16.9064748,170.990228 C16.9064748,172.107859 17.932798,173 19.206127,173 L160.793873,173 C162.06478,173 163.093525,172.104549 163.093525,170.990228 L163.093525,8.00977185 C163.093525,6.89214149 162.067202,6 160.793873,6 L19.206127,6 C17.9352203,6 16.9064748,6.89545146 16.9064748,8.00977185 L16.9064748,8.00977185 Z M10,8.00977185 C10,3.58609701 14.1158652,0 19.206127,0 L160.793873,0 C165.878277,0 170,3.57559286 170,8.00977185 L170,170.990228 C170,175.413903 165.884135,179 160.793873,179 L19.206127,179 C14.1217235,179 10,175.424407 10,170.990228 L10,8.00977185 L10,8.00977185 Z" id="Rectangle-2" fill="#090909"></path>
            <path d="M38.9795918,27.9964905 L38.9795918,27.9964905 L38.9795918,50.0035095 C38.9795918,48.3401065 37.4221215,47 35.4896817,47 L142.510318,47 C140.582673,47 139.020408,48.3399412 139.020408,50.0035095 L139.020408,27.9964905 C139.020408,29.6598935 140.577879,31 142.510318,31 L35.4896817,31 C37.4173272,31 38.9795918,29.6600588 38.9795918,27.9964905 L38.9795918,27.9964905 Z M32,27.9964905 C32,26.3415745 33.5681561,25 35.4896817,25 L142.510318,25 C144.437616,25 146,26.3504982 146,27.9964905 L146,50.0035095 C146,51.6584255 144.431844,53 142.510318,53 L35.4896817,53 C33.5623837,53 32,51.6495018 32,50.0035095 L32,27.9964905 L32,27.9964905 Z" id="Rectangle-3" fill="#000000"></path>
            <path d="M62.4843073,76.5606761 L62.4843073,76.5606761 L36.6641302,76.5606761 C38.6157511,76.5606761 40.188058,75.3905377 40.188058,73.9386821 L40.188058,154.344038 C40.188058,152.895785 38.6159451,151.722044 36.6641302,151.722044 L62.4843073,151.722044 C60.5326864,151.722044 58.9603795,152.892183 58.9603795,154.344038 L58.9603795,73.9386821 C58.9603795,75.3869357 60.5324924,76.5606761 62.4843073,76.5606761 L62.4843073,76.5606761 Z M62.4843073,71.3168597 C64.4259708,71.3168597 66,72.4950264 66,73.9386821 L66,154.344038 C66,155.792031 64.4155009,156.965861 62.4843073,156.965861 L36.6641302,156.965861 C34.7224667,156.965861 33.1484375,155.787694 33.1484375,154.344038 L33.1484375,73.9386821 C33.1484375,72.4906896 34.7329366,71.3168597 36.6641302,71.3168597 L62.4843073,71.3168597 L62.4843073,71.3168597 Z" id="Rectangle-3" fill="#000000"></path>
            <path d="M142.626763,76.5948155 L142.626763,76.5948155 L85.3732366,76.5948155 C87.2227233,76.5948155 88.7322285,75.4198951 88.7322285,73.9728216 L88.7322285,154.378178 C88.7322285,152.926072 87.2287685,151.756184 85.3732366,151.756184 L142.626763,151.756184 C140.777277,151.756184 139.267772,152.931104 139.267772,154.378178 L139.267772,73.9728216 C139.267772,75.4249276 140.771231,76.5948155 142.626763,76.5948155 L142.626763,76.5948155 Z M142.626763,71.3509991 C144.489751,71.3509991 146,72.5291659 146,73.9728216 L146,154.378178 C146,155.82617 144.496688,157 142.626763,157 L85.3732366,157 C83.5102495,157 82,155.821833 82,154.378178 L82,73.9728216 C82,72.524829 83.5033121,71.3509991 85.3732366,71.3509991 L142.626763,71.3509991 L142.626763,71.3509991 Z" id="Rectangle-3-Copy" fill="#000000"></path>
        </g>
    </g>
</svg>