<?xml version="1.0" encoding="UTF-8" standalone="no"?>
<svg width="180px" height="180px" viewBox="0 0 180 180" version="1.1" xmlns="http://www.w3.org/2000/svg" xmlns:xlink="http://www.w3.org/1999/xlink">
    <!-- Generator: Sketch 3.6 (26304) - http://www.bohemiancoding.com/sketch -->
    <title>box-o</title>
    <desc>Created with Sketch.</desc>
    <defs></defs>
    <g id="iconos" stroke="none" stroke-width="1" fill="none" fill-rule="evenodd">
        <g id="box-o" fill="#000000">
            <path d="M21.4950072,138.412009 L88.9770008,166.198712 C89.640631,166.471972 90.3354065,166.553649 90.9998902,166.469341 C91.6547535,166.552456 92.3393415,166.474339 92.9951051,166.210076 L159.995105,139.210076 C161.927733,138.431255 162.919728,136.313809 162.333333,134.356462 L162.333333,73.5 C162.333333,71.290861 160.542472,69.5 158.333333,69.5 C156.124194,69.5 154.333333,71.290861 154.333333,73.5 L154.333333,132.866524 L94,157.179957 L94,67.5 C94,65.290861 92.209139,63.5 90,63.5 C87.790861,63.5 86,65.290861 86,67.5 L86,156.321229 L26.3333333,131.752602 L26.3333333,72.5 C26.3333333,70.290861 24.5424723,68.5 22.3333333,68.5 C20.1241943,68.5 18.3333333,70.290861 18.3333333,72.5 L18.3333333,134.5 C18.3333333,136.421602 19.6883439,138.026724 21.4950072,138.412009 L21.4950072,138.412009 Z" id="Combined-Shape"></path>
            <path d="M72.8389808,86.8832522 L11.0436873,60.9113173 L25.602248,43.0250856 C26.9968143,41.3117613 26.7384099,38.7923183 25.0250856,37.397752 C23.3117613,36.0031857 20.7923183,36.2615901 19.397752,37.9749144 L1.93389684,59.4305079 C1.45871661,59.8270927 1.0688086,60.3402127 0.812453293,60.9501615 C-0.0434988589,62.9867373 0.913585719,65.3315946 2.95016153,66.1875467 L71.9501615,95.1875467 C72.6212071,95.4695804 73.3257223,95.5547758 73.9994165,95.469374 C75.4277092,95.6482714 76.9045697,95.0478939 77.7836208,93.784258 L93.7836208,70.784258 C95.0451816,68.9707643 94.5977516,66.47794 92.784258,65.2163792 C90.9707643,63.9548184 88.47794,64.4022484 87.2163792,66.215742 L72.8389808,86.8832522 L72.8389808,86.8832522 Z" id="Combined-Shape"></path>
            <path d="M91.9999611,71.4693742 C91.3501165,71.5518214 90.6708548,71.4754903 90.0192555,71.2158304 L23.5192555,44.7158304 C21.4670591,43.8980379 20.466377,41.571452 21.2841696,39.5192555 C22.1019621,37.4670591 24.428548,36.466377 26.4807445,37.2841696 L92.0038684,63.3948881 L155.529364,38.2801571 C157.583777,37.4679475 159.907633,38.4749519 160.719843,40.5293644 C161.532052,42.5837769 160.525048,44.9076333 158.470636,45.7198429 L93.9706356,71.2198429 C93.3219176,71.4763128 92.6463335,71.5513897 91.9999611,71.4693742 L91.9999611,71.4693742 Z" id="Combined-Shape"></path>
            <path d="M90.7318979,15.6940651 L160.182138,37.1786716 C162.292599,37.8315481 163.474205,40.0716762 162.821328,42.1821376 C162.168452,44.292599 159.928324,45.474205 157.817862,44.8213284 L89.4968272,23.6860441 L25.6763434,43.323116 C23.5648947,43.9727926 21.3265605,42.7877921 20.676884,40.6763434 C20.0272074,38.5648947 21.2122079,36.3265605 23.3236566,35.676884 L88.273873,15.692202 C88.6723759,15.5635004 89.0931169,15.4965384 89.5215283,15.4990003 C89.937429,15.5011489 90.3451885,15.5685246 90.7318979,15.6940651 L90.7318979,15.6940651 Z" id="Combined-Shape"></path>
            <path d="M110.772235,94.8842508 L175.548451,67.6881294 C175.70162,67.6238218 175.848689,67.5510927 175.989343,67.4707061 C176.636349,67.3915599 177.273105,67.1528249 177.839206,66.7447055 C179.631208,65.4527975 180.036613,62.9527951 178.744706,61.1607937 L163.244706,39.6607937 C161.952798,37.8687923 159.452795,37.4633865 157.660794,38.7552945 C155.868792,40.0472025 155.463387,42.5472049 156.755294,44.3392063 L169.241953,61.6594106 L109.238313,86.8517785 L93.7549339,65.1750472 C92.4708979,63.3773969 89.9726976,62.9610302 88.1750472,64.2450661 C86.3773969,65.5291021 85.9610302,68.0273024 87.2450661,69.8249528 L104.745066,94.3249528 C106.029102,96.1226031 108.527302,96.5389698 110.324953,95.2549339 C110.485082,95.1405558 110.634251,95.0165437 110.772235,94.8842508 L110.772235,94.8842508 Z" id="Combined-Shape"></path>
        </g>
    </g>
</svg>