<?xml version="1.0" encoding="utf-8"?>
<!-- Generator: Adobe Illustrator 19.2.0, SVG Export Plug-In . SVG Version: 6.00 Build 0)  -->
<svg version="1.1" id="Capa_1" xmlns="http://www.w3.org/2000/svg" xmlns:xlink="http://www.w3.org/1999/xlink" x="0px" y="0px"
	 viewBox="0 0 32 32" style="enable-background:new 0 0 32 32;" xml:space="preserve">
<g>
	<path d="M30.7,8.9l-5.9-7.3c-0.1-0.2-0.4-0.3-0.6-0.3H8.8c-0.2,0-0.5,0.1-0.6,0.3L2.3,8.9C2.2,9,2.2,9.2,2.2,9.3V30
		c0,0.4,0.3,0.8,0.8,0.8h27.2c0.4,0,0.8-0.3,0.8-0.8V9.3C30.9,9.2,30.8,9,30.7,8.9L30.7,8.9z M28.6,8.7H17.3v-6h6.6L28.6,8.7z
		 M9.2,2.8h6.6v6H4.4L9.2,2.8z M3.7,29.2v-19h25.6v19H3.7z M3.7,29.2"/>
	<path d="M19.6,20.9l-2.3,2.3v-8.6c0-0.4-0.3-0.8-0.8-0.8c-0.4,0-0.8,0.3-0.8,0.8v8.6L13.4,21c-0.3-0.3-0.8-0.3-1.1,0
		c-0.3,0.3-0.3,0.8,0,1.1l3.6,3.6l0.1,0.1c0,0,0,0,0,0c0,0,0,0,0,0c0,0,0,0,0,0c0,0,0,0,0.1,0c0,0,0,0,0,0c0,0,0,0,0.1,0h0
		c0,0,0,0,0.1,0h0c0,0,0,0,0.1,0h0c0,0,0,0,0.1,0c0,0,0.1,0,0.1,0c0,0,0.1,0,0.1,0c0,0,0,0,0.1,0h0c0,0,0,0,0.1,0h0c0,0,0,0,0.1,0h0
		c0,0,0,0,0.1,0c0,0,0,0,0,0c0,0,0,0,0.1,0c0,0,0,0,0,0c0,0,0,0,0,0c0,0,0,0,0,0c0,0,0,0,0.1-0.1l3.6-3.6c0.3-0.3,0.3-0.8,0-1.1
		C20.4,20.6,19.9,20.6,19.6,20.9L19.6,20.9z M19.6,20.9"/>
</g>
</svg>
