<?xml version="1.0" encoding="UTF-8"?>
<svg width="180px" height="180px" viewBox="0 0 180 180" version="1.1" xmlns="http://www.w3.org/2000/svg" xmlns:xlink="http://www.w3.org/1999/xlink">
    <!-- Generator: Sketch 47.1 (45422) - http://www.bohemiancoding.com/sketch -->
    <title>boxs</title>
    <desc>Created with Sketch.</desc>
    <defs></defs>
    <g id="iconos" stroke="none" stroke-width="1" fill="none" fill-rule="evenodd">
        <g id="boxs" fill-rule="nonzero" fill="#000000">
            <path d="M23,17 C19.6862915,17 17,19.6862915 17,23 L17,60 C17,63.3137085 19.6862915,66 23,66 L60,66 C63.3137085,66 66,63.3137085 66,60 L66,23 C66,19.6862915 63.3137085,17 60,17 L23,17 Z M23,1 L60,1 C72.1502645,1 82,10.8497355 82,23 L82,60 C82,72.1502645 72.1502645,82 60,82 L23,82 C10.8497355,82 1,72.1502645 1,60 L1,23 C1,10.8497355 10.8497355,1 23,1 Z" id="Rectangle"></path>
            <path d="M23,114 C19.6862915,114 17,116.686292 17,120 L17,157 C17,160.313708 19.6862915,163 23,163 L60,163 C63.3137085,163 66,160.313708 66,157 L66,120 C66,116.686292 63.3137085,114 60,114 L23,114 Z M23,98 L60,98 C72.1502645,98 82,107.849736 82,120 L82,157 C82,169.150264 72.1502645,179 60,179 L23,179 C10.8497355,179 1,169.150264 1,157 L1,120 C1,107.849736 10.8497355,98 23,98 Z" id="Rectangle-Copy-2"></path>
            <path d="M120,17 C116.686292,17 114,19.6862915 114,23 L114,60 C114,63.3137085 116.686292,66 120,66 L157,66 C160.313708,66 163,63.3137085 163,60 L163,23 C163,19.6862915 160.313708,17 157,17 L120,17 Z M120,1 L157,1 C169.150264,1 179,10.8497355 179,23 L179,60 C179,72.1502645 169.150264,82 157,82 L120,82 C107.849736,82 98,72.1502645 98,60 L98,23 C98,10.8497355 107.849736,1 120,1 Z" id="Rectangle-Copy"></path>
            <path d="M120,114 C116.686292,114 114,116.686292 114,120 L114,157 C114,160.313708 116.686292,163 120,163 L157,163 C160.313708,163 163,160.313708 163,157 L163,120 C163,116.686292 160.313708,114 157,114 L120,114 Z M120,98 L157,98 C169.150264,98 179,107.849736 179,120 L179,157 C179,169.150264 169.150264,179 157,179 L120,179 C107.849736,179 98,169.150264 98,157 L98,120 C98,107.849736 107.849736,98 120,98 Z" id="Rectangle-Copy-3"></path>
        </g>
    </g>
</svg>