<?xml version="1.0" encoding="UTF-8"?>
<svg width="180px" height="180px" viewBox="0 0 180 180" version="1.1" xmlns="http://www.w3.org/2000/svg" xmlns:xlink="http://www.w3.org/1999/xlink">
    <!-- Generator: Sketch 40.1 (33804) - http://www.bohemiancoding.com/sketch -->
    <title>boxs</title>
    <desc>Created with Sketch.</desc>
    <defs></defs>
    <g id="iconos" stroke="none" stroke-width="1" fill="none" fill-rule="evenodd">
        <g id="boxs" fill="#000000">
            <path d="M10.25,59.9341042 C10.25,66.7211156 15.754891,72.2265625 22.5424583,72.2265625 L59.4575417,72.2265625 C66.2445531,72.2265625 71.75,66.7216715 71.75,59.9341042 L71.75,23.0190208 C71.75,16.2320094 66.245109,10.7265625 59.4575417,10.7265625 L22.5424583,10.7265625 C15.7554469,10.7265625 10.25,16.2314535 10.25,23.0190208 L10.25,59.9341042 Z M22.5424583,0.4765625 L59.4575417,0.4765625 C71.9073976,0.4765625 82,10.5724607 82,23.0190208 L82,59.9341042 C82,72.3839601 71.9041018,82.4765625 59.4575417,82.4765625 L22.5424583,82.4765625 C10.0926024,82.4765625 0,72.3806643 0,59.9341042 L0,23.0190208 C0,10.5691649 10.0958982,0.4765625 22.5424583,0.4765625 Z" id="Rectangle-19"></path>
            <path d="M10.25,156.842897 C10.25,163.629908 15.754891,169.135355 22.5424583,169.135355 L59.4575417,169.135355 C66.2445531,169.135355 71.75,163.630464 71.75,156.842897 L71.75,119.927813 C71.75,113.140802 66.245109,107.635355 59.4575417,107.635355 L22.5424583,107.635355 C15.7554469,107.635355 10.25,113.140246 10.25,119.927813 L10.25,156.842897 Z M22.5424583,97.385355 L59.4575417,97.385355 C71.9073976,97.385355 82,107.481253 82,119.927813 L82,156.842897 C82,169.292753 71.9041018,179.385355 59.4575417,179.385355 L22.5424583,179.385355 C10.0926024,179.385355 0,169.289457 0,156.842897 L0,119.927813 C0,107.477957 10.0958982,97.385355 22.5424583,97.385355 Z" id="Rectangle-19-Copy-2"></path>
            <path d="M108.25,59.9341042 C108.25,66.7211156 113.754891,72.2265625 120.542458,72.2265625 L157.457542,72.2265625 C164.244553,72.2265625 169.75,66.7216715 169.75,59.9341042 L169.75,23.0190208 C169.75,16.2320094 164.245109,10.7265625 157.457542,10.7265625 L120.542458,10.7265625 C113.755447,10.7265625 108.25,16.2314535 108.25,23.0190208 L108.25,59.9341042 Z M120.542458,0.4765625 L157.457542,0.4765625 C169.907398,0.4765625 180,10.5724607 180,23.0190208 L180,59.9341042 C180,72.3839601 169.904102,82.4765625 157.457542,82.4765625 L120.542458,82.4765625 C108.092602,82.4765625 98,72.3806643 98,59.9341042 L98,23.0190208 C98,10.5691649 108.095898,0.4765625 120.542458,0.4765625 Z" id="Rectangle-19-Copy"></path>
            <path d="M108.25,156.842897 C108.25,163.629908 113.754891,169.135355 120.542458,169.135355 L157.457542,169.135355 C164.244553,169.135355 169.75,163.630464 169.75,156.842897 L169.75,119.927813 C169.75,113.140802 164.245109,107.635355 157.457542,107.635355 L120.542458,107.635355 C113.755447,107.635355 108.25,113.140246 108.25,119.927813 L108.25,156.842897 Z M120.542458,97.385355 L157.457542,97.385355 C169.907398,97.385355 180,107.481253 180,119.927813 L180,156.842897 C180,169.292753 169.904102,179.385355 157.457542,179.385355 L120.542458,179.385355 C108.092602,179.385355 98,169.289457 98,156.842897 L98,119.927813 C98,107.477957 108.095898,97.385355 120.542458,97.385355 Z" id="Rectangle-19-Copy-3"></path>
        </g>
    </g>
</svg>