<?xml version="1.0" encoding="UTF-8"?>
<svg width="128px" height="128px" viewBox="0 0 128 128" version="1.1" xmlns="http://www.w3.org/2000/svg" xmlns:xlink="http://www.w3.org/1999/xlink">
    <!-- Generator: Sketch 47.1 (45422) - http://www.bohemiancoding.com/sketch -->
    <title>boxs</title>
    <desc>Created with Sketch.</desc>
    <defs></defs>
    <g id="iconos" stroke="none" stroke-width="1" fill="none" fill-rule="evenodd">
        <g id="boxs" fill-rule="nonzero" fill="#161616">
            <path d="M19.5,11 C14.8055796,11 11,14.8055796 11,19.5 L11,39.5 C11,44.1944204 14.8055796,48 19.5,48 L39.5,48 C44.1944204,48 48,44.1944204 48,39.5 L48,19.5 C48,14.8055796 44.1944204,11 39.5,11 L19.5,11 Z M19.5,0 L39.5,0 C50.2695526,-2.49800181e-15 59,8.73044738 59,19.5 L59,39.5 C59,50.2695526 50.2695526,59 39.5,59 L19.5,59 C8.73044738,59 1.22124533e-15,50.2695526 0,39.5 L0,19.5 C-1.22124533e-15,8.73044738 8.73044738,2.44249065e-15 19.5,0 Z" id="Rectangle-24"></path>
            <path d="M19.5,80 C14.8055796,80 11,83.8055796 11,88.5 L11,108.5 C11,113.19442 14.8055796,117 19.5,117 L39.5,117 C44.1944204,117 48,113.19442 48,108.5 L48,88.5 C48,83.8055796 44.1944204,80 39.5,80 L19.5,80 Z M19.5,69 L39.5,69 C50.2695526,69 59,77.7304474 59,88.5 L59,108.5 C59,119.269553 50.2695526,128 39.5,128 L19.5,128 C8.73044738,128 1.22124533e-15,119.269553 0,108.5 L0,88.5 C-1.22124533e-15,77.7304474 8.73044738,69 19.5,69 Z" id="Rectangle-24-Copy-2"></path>
            <path d="M88.5,11 C83.8055796,11 80,14.8055796 80,19.5 L80,39.5 C80,44.1944204 83.8055796,48 88.5,48 L108.5,48 C113.19442,48 117,44.1944204 117,39.5 L117,19.5 C117,14.8055796 113.19442,11 108.5,11 L88.5,11 Z M88.5,0 L108.5,0 C119.269553,-2.49800181e-15 128,8.73044738 128,19.5 L128,39.5 C128,50.2695526 119.269553,59 108.5,59 L88.5,59 C77.7304474,59 69,50.2695526 69,39.5 L69,19.5 C69,8.73044738 77.7304474,2.44249065e-15 88.5,0 Z" id="Rectangle-24-Copy"></path>
            <path d="M88.5,80 C83.8055796,80 80,83.8055796 80,88.5 L80,108.5 C80,113.19442 83.8055796,117 88.5,117 L108.5,117 C113.19442,117 117,113.19442 117,108.5 L117,88.5 C117,83.8055796 113.19442,80 108.5,80 L88.5,80 Z M88.5,69 L108.5,69 C119.269553,69 128,77.7304474 128,88.5 L128,108.5 C128,119.269553 119.269553,128 108.5,128 L88.5,128 C77.7304474,128 69,119.269553 69,108.5 L69,88.5 C69,77.7304474 77.7304474,69 88.5,69 Z" id="Rectangle-24-Copy-3"></path>
        </g>
    </g>
</svg>