<?xml version="1.0" encoding="UTF-8"?>
<svg width="180px" height="180px" viewBox="0 0 180 180" version="1.1" xmlns="http://www.w3.org/2000/svg" xmlns:xlink="http://www.w3.org/1999/xlink">
    <!-- Generator: Sketch 47.1 (45422) - http://www.bohemiancoding.com/sketch -->
    <title>boxs</title>
    <desc>Created with Sketch.</desc>
    <defs></defs>
    <g id="iconos" stroke="none" stroke-width="1" fill="none" fill-rule="evenodd">
        <g id="boxs" fill-rule="nonzero" fill="#000000">
            <path d="M22,16 C18.6862915,16 16,18.6862915 16,22 L16,59 C16,62.3137085 18.6862915,65 22,65 L59,65 C62.3137085,65 65,62.3137085 65,59 L65,22 C65,18.6862915 62.3137085,16 59,16 L22,16 Z M22,0 L59,0 C71.1502645,-2.77555756e-15 81,9.8497355 81,22 L81,59 C81,71.1502645 71.1502645,81 59,81 L22,81 C9.8497355,81 2.88657986e-15,71.1502645 0,59 L0,22 C-2.77555756e-15,9.8497355 9.8497355,2.88657986e-15 22,0 Z" id="Rectangle"></path>
            <path d="M22,115 C18.6862915,115 16,117.686292 16,121 L16,158 C16,161.313708 18.6862915,164 22,164 L59,164 C62.3137085,164 65,161.313708 65,158 L65,121 C65,117.686292 62.3137085,115 59,115 L22,115 Z M22,99 L59,99 C71.1502645,99 81,108.849736 81,121 L81,158 C81,170.150264 71.1502645,180 59,180 L22,180 C9.8497355,180 2.88657986e-15,170.150264 0,158 L0,121 C-2.77555756e-15,108.849736 9.8497355,99 22,99 Z" id="Rectangle-Copy-2"></path>
            <path d="M121,16 C117.686292,16 115,18.6862915 115,22 L115,59 C115,62.3137085 117.686292,65 121,65 L158,65 C161.313708,65 164,62.3137085 164,59 L164,22 C164,18.6862915 161.313708,16 158,16 L121,16 Z M121,0 L158,0 C170.150264,-2.77555756e-15 180,9.8497355 180,22 L180,59 C180,71.1502645 170.150264,81 158,81 L121,81 C108.849736,81 99,71.1502645 99,59 L99,22 C99,9.8497355 108.849736,2.88657986e-15 121,0 Z" id="Rectangle-Copy"></path>
            <path d="M121,115 C117.686292,115 115,117.686292 115,121 L115,158 C115,161.313708 117.686292,164 121,164 L158,164 C161.313708,164 164,161.313708 164,158 L164,121 C164,117.686292 161.313708,115 158,115 L121,115 Z M121,99 L158,99 C170.150264,99 180,108.849736 180,121 L180,158 C180,170.150264 170.150264,180 158,180 L121,180 C108.849736,180 99,170.150264 99,158 L99,121 C99,108.849736 108.849736,99 121,99 Z" id="Rectangle-Copy-3"></path>
        </g>
    </g>
</svg>