<?xml version="1.0" encoding="UTF-8"?>
<svg width="128px" height="128px" viewBox="0 0 128 128" version="1.1" xmlns="http://www.w3.org/2000/svg" xmlns:xlink="http://www.w3.org/1999/xlink">
    <!-- Generator: Sketch 47.1 (45422) - http://www.bohemiancoding.com/sketch -->
    <title>boxs</title>
    <desc>Created with Sketch.</desc>
    <defs></defs>
    <g id="iconos" stroke="none" stroke-width="1" fill="none" fill-rule="evenodd">
        <g id="boxs" fill-rule="nonzero" fill="#000000">
            <path d="M15,10 C12.2385763,10 10,12.2385763 10,15 L10,43 C10,45.7614237 12.2385763,48 15,48 L43,48 C45.7614237,48 48,45.7614237 48,43 L48,15 C48,12.2385763 45.7614237,10 43,10 L15,10 Z M15,0 L43,0 C51.2842712,-1.33226763e-15 58,6.71572875 58,15 L58,43 C58,51.2842712 51.2842712,58 43,58 L15,58 C6.71572875,58 3.10862447e-15,51.2842712 1.77635684e-15,43 L0,15 C-1.33226763e-15,6.71572875 6.71572875,3.10862447e-15 15,0 Z" id="Rectangle-26"></path>
            <path d="M15,80 C12.2385763,80 10,82.2385763 10,85 L10,113 C10,115.761424 12.2385763,118 15,118 L43,118 C45.7614237,118 48,115.761424 48,113 L48,85 C48,82.2385763 45.7614237,80 43,80 L15,80 Z M15,70 L43,70 C51.2842712,70 58,76.7157288 58,85 L58,113 C58,121.284271 51.2842712,128 43,128 L15,128 C6.71572875,128 3.10862447e-15,121.284271 1.77635684e-15,113 L0,85 C-1.33226763e-15,76.7157288 6.71572875,70 15,70 Z" id="Rectangle-26-Copy-2"></path>
            <path d="M85,10 C82.2385763,10 80,12.2385763 80,15 L80,43 C80,45.7614237 82.2385763,48 85,48 L113,48 C115.761424,48 118,45.7614237 118,43 L118,15 C118,12.2385763 115.761424,10 113,10 L85,10 Z M85,0 L113,0 C121.284271,-1.33226763e-15 128,6.71572875 128,15 L128,43 C128,51.2842712 121.284271,58 113,58 L85,58 C76.7157288,58 70,51.2842712 70,43 L70,15 C70,6.71572875 76.7157288,3.10862447e-15 85,0 Z" id="Rectangle-26-Copy"></path>
            <path d="M85,80 C82.2385763,80 80,82.2385763 80,85 L80,113 C80,115.761424 82.2385763,118 85,118 L113,118 C115.761424,118 118,115.761424 118,113 L118,85 C118,82.2385763 115.761424,80 113,80 L85,80 Z M85,70 L113,70 C121.284271,70 128,76.7157288 128,85 L128,113 C128,121.284271 121.284271,128 113,128 L85,128 C76.7157288,128 70,121.284271 70,113 L70,85 C70,76.7157288 76.7157288,70 85,70 Z" id="Rectangle-26-Copy-3"></path>
        </g>
    </g>
</svg>