<?xml version="1.0" encoding="UTF-8"?>
<svg width="180px" height="180px" viewBox="0 0 180 180" version="1.1" xmlns="http://www.w3.org/2000/svg" xmlns:xlink="http://www.w3.org/1999/xlink">
    <!-- Generator: Sketch 43.2 (39069) - http://www.bohemiancoding.com/sketch -->
    <title>btn-off</title>
    <desc>Created with Sketch.</desc>
    <defs></defs>
    <g id="iconos" stroke="none" stroke-width="1" fill="none" fill-rule="evenodd">
        <g id="btn-off" fill-rule="nonzero" fill="#000000">
            <path d="M8,91.5 C8,110.557021 23.4445447,126 42.5007431,126 L137.499257,126 C156.553044,126 172,110.553506 172,91.5 C172,72.4429792 156.555455,57 137.499257,57 L42.5007431,57 C23.446956,57 8,72.4464939 8,91.5 Z M0,91.5 C0,68.0278981 19.0289958,49 42.5007431,49 L137.499257,49 C160.971769,49 180,68.0227373 180,91.5 C180,114.972102 160.971004,134 137.499257,134 L42.5007431,134 C19.0282308,134 0,114.977263 0,91.5 Z" id="Rectangle-21"></path>
            <path d="M43.5,116.419355 C29.2949363,116.419355 17.75,105.279504 17.75,91.5 C17.75,77.720496 29.2949363,66.5806452 43.5,66.5806452 C57.7050637,66.5806452 69.25,77.720496 69.25,91.5 C69.25,105.279504 57.7050637,116.419355 43.5,116.419355 Z M43.5,110.176334 C54.2418719,110.176334 62.9233871,101.799433 62.9233871,91.5 C62.9233871,81.2005669 54.2418719,72.8236663 43.5,72.8236663 C32.7581281,72.8236663 24.0766129,81.2005669 24.0766129,91.5 C24.0766129,101.799433 32.7581281,110.176334 43.5,110.176334 Z" id="Oval-11"></path>
        </g>
    </g>
</svg>