<svg id="Capa_1" data-name="Capa 1" xmlns="http://www.w3.org/2000/svg" viewBox="0 0 29.56 26.46"><title>bubble</title><path d="M2,29.23a0.78,0.78,0,0,1-.4-1.45,9.66,9.66,0,0,0,4.11-4.95,10.66,10.66,0,0,1-4.49-8.39,9.56,9.56,0,0,1,1.2-4.61,12,12,0,0,1,3.21-3.7A16.92,16.92,0,0,1,16,2.77,16.92,16.92,0,0,1,26.38,6.13a11.92,11.92,0,0,1,3.21,3.7,9.5,9.5,0,0,1,0,9.22,12,12,0,0,1-3.21,3.7A16.92,16.92,0,0,1,16,26.12a18.37,18.37,0,0,1-4.69-.6,32.27,32.27,0,0,1-3.41,2A13.93,13.93,0,0,1,2,29.23H2ZM16,4.33C8.71,4.33,2.77,8.87,2.77,14.44A9.27,9.27,0,0,0,7.06,21.9a0.78,0.78,0,0,1,.3.84,10.74,10.74,0,0,1-2.46,4.34,26.44,26.44,0,0,0,5.82-3,0.78,0.78,0,0,1,.66-0.11,16.8,16.8,0,0,0,4.62.64c7.29,0,13.23-4.54,13.23-10.11S23.29,4.33,16,4.33Z" transform="translate(-1.22 -2.77)"/></svg>