<?xml version="1.0" encoding="UTF-8"?>
<svg width="128px" height="128px" viewBox="0 0 128 128" version="1.1" xmlns="http://www.w3.org/2000/svg" xmlns:xlink="http://www.w3.org/1999/xlink">
    <!-- Generator: Sketch 47.1 (45422) - http://www.bohemiancoding.com/sketch -->
    <title>bubble-w</title>
    <desc>Created with Sketch.</desc>
    <defs></defs>
    <g id="iconos" stroke="none" stroke-width="1" fill="none" fill-rule="evenodd">
        <g id="bubble-w" fill="#000000">
            <path d="M42.1599778,98.9181935 C43.2331193,98.373968 44.5048129,98.2131444 45.7557189,98.5598602 C51.5556048,100.167425 57.7009838,101 64,101 C94.04945,101 118,82.123719 118,59.5 C118,36.876281 94.04945,18 64,18 C33.95055,18 10,36.876281 10,59.5 C10,70.0370106 15.1774847,80.0322346 24.4569569,87.7115389 C26.2601007,89.2037454 26.7485879,91.695415 25.7836331,93.7156795 C24.6606852,99.7496334 22.239176,105.200219 18.5614924,110.033341 C18.7148252,110.007104 18.8681755,109.980327 19.0215175,109.953005 C28.0155137,108.350495 35.3310423,105.197086 39.7074905,100.394102 C40.3896336,99.6454763 41.2469899,99.1516546 42.1599778,98.9181935 Z M15.6557435,93.2930025 C5.67904453,84.0587466 -4.33680869e-19,72.1736803 -4.33680869e-19,59.5 C-4.33680869e-19,30.7612373 28.8798495,8 64,8 C99.1201505,8 128,30.7612373 128,59.5 C128,88.2387627 99.1201505,111 64,111 C57.6437655,111 51.4090819,110.256231 45.444908,108.809616 C39.3557293,114.540565 30.7944031,118.012857 20.7756468,119.797954 C13.7160763,121.055797 5.27210685,121.395187 3.2924766,120.67589 C-0.524285398,119.289072 -1.18325603,114.171419 2.15768474,111.862945 C9.48147619,106.802461 13.9155844,100.664961 15.6557435,93.2930025 Z" id="Combined-Shape" fill-rule="nonzero"></path>
            <path d="M38.9409432,61.6784019 L41.2329532,53.9387161 C41.365824,53.4072328 41.6204892,52.9477282 41.9969565,52.5601883 C42.3734238,52.1726485 42.8052474,51.9788814 43.2924404,51.9788814 C43.9789395,51.9788814 44.6211388,52.1394313 45.2190574,52.4605357 C45.8169761,52.7816402 46.1159309,53.2632896 46.1159309,53.9054985 C46.1159309,54.3705463 46.0494965,54.8909492 45.9166257,55.4667227 L42.2959143,65.7973763 C41.919447,66.8603427 41.5429854,67.6354108 41.1665181,68.1226038 C40.5907446,68.8755384 39.8488937,69.252 38.9409432,69.252 C38.2101538,69.252 37.6122441,69.0194796 37.1471963,68.5544318 C36.7928741,68.1558193 36.4496297,67.5246925 36.1174527,66.6610322 L34.0247479,60.5490057 L32.3306536,65.7973763 C31.8877509,67.2146649 31.4061015,68.1447466 30.8856908,68.5876493 C30.3652801,69.030552 29.7175447,69.252 28.942465,69.252 C28.2781109,69.252 27.6912737,69.0084072 27.1819356,68.5212142 C26.7833231,68.0783115 26.4290063,67.4582571 26.1189744,66.6610322 L22.1993052,55.4002876 C22.0664344,54.9352398 22,54.4259093 22,53.872281 C22,53.2743624 22.2823462,52.8093215 22.8470472,52.4771445 C23.4117481,52.1449675 24.0594836,51.9788814 24.790273,51.9788814 C25.2553208,51.9788814 25.6483911,52.1449675 25.9694955,52.4771445 C26.2906,52.8093215 26.5729462,53.2854348 26.8165427,53.9054985 L29.1417702,61.7116194 L31.5334327,54.1712388 C31.7327389,53.551175 31.9984766,53.0307722 32.3306536,52.6100146 C32.7514112,52.1892571 33.2828864,51.9788814 33.9250953,51.9788814 C34.6337396,51.9788814 35.1873597,52.1671123 35.5859721,52.5435796 C35.9845845,52.8757566 36.2946117,53.4183042 36.5160631,54.1712388 L38.9409432,61.6784019 Z M68.9358547,61.6784019 L71.2278646,53.9387161 C71.3607354,53.4072328 71.6154007,52.9477282 71.9918679,52.5601883 C72.3683352,52.1726485 72.8001589,51.9788814 73.2873518,51.9788814 C73.973851,51.9788814 74.6160503,52.1394313 75.2139689,52.4605357 C75.8118875,52.7816402 76.1108424,53.2632896 76.1108424,53.9054985 C76.1108424,54.3705463 76.044408,54.8909492 75.9115372,55.4667227 L72.2908258,65.7973763 C71.9143585,66.8603427 71.5378968,67.6354108 71.1614296,68.1226038 C70.5856561,68.8755384 69.8438052,69.252 68.9358547,69.252 C68.2050652,69.252 67.6071556,69.0194796 67.1421077,68.5544318 C66.7877856,68.1558193 66.4445412,67.5246925 66.1123641,66.6610322 L64.0196594,60.5490057 L62.3255651,65.7973763 C61.8826624,67.2146649 61.4010129,68.1447466 60.8806023,68.5876493 C60.3601916,69.030552 59.7124561,69.252 58.9373764,69.252 C58.2730224,69.252 57.6861851,69.0084072 57.176847,68.5212142 C56.7782346,68.0783115 56.4239178,67.4582571 56.1138859,66.6610322 L52.1942167,55.4002876 C52.0613459,54.9352398 51.9949115,54.4259093 51.9949115,53.872281 C51.9949115,53.2743624 52.2772577,52.8093215 52.8419586,52.4771445 C53.4066596,52.1449675 54.054395,51.9788814 54.7851845,51.9788814 C55.2502323,51.9788814 55.6433025,52.1449675 55.964407,52.4771445 C56.2855114,52.8093215 56.5678577,53.2854348 56.8114541,53.9054985 L59.1366816,61.7116194 L61.5283442,54.1712388 C61.7276504,53.551175 61.9933881,53.0307722 62.3255651,52.6100146 C62.7463226,52.1892571 63.2777979,51.9788814 63.9200068,51.9788814 C64.6286511,51.9788814 65.1822711,52.1671123 65.5808836,52.5435796 C65.979496,52.8757566 66.2895232,53.4183042 66.5109746,54.1712388 L68.9358547,61.6784019 Z M98.9307661,61.6784019 L101.222776,53.9387161 C101.355647,53.4072328 101.610312,52.9477282 101.986779,52.5601883 C102.363247,52.1726485 102.79507,51.9788814 103.282263,51.9788814 C103.968762,51.9788814 104.610962,52.1394313 105.20888,52.4605357 C105.806799,52.7816402 106.105754,53.2632896 106.105754,53.9054985 C106.105754,54.3705463 106.039319,54.8909492 105.906449,55.4667227 L102.285737,65.7973763 C101.90927,66.8603427 101.532808,67.6354108 101.156341,68.1226038 C100.580568,68.8755384 99.8387167,69.252 98.9307661,69.252 C98.1999767,69.252 97.602067,69.0194796 97.1370192,68.5544318 C96.7826971,68.1558193 96.4394526,67.5246925 96.1072756,66.6610322 L94.0145709,60.5490057 L92.3204765,65.7973763 C91.8775739,67.2146649 91.3959244,68.1447466 90.8755137,68.5876493 C90.3551031,69.030552 89.7073676,69.252 88.9322879,69.252 C88.2679339,69.252 87.6810966,69.0084072 87.1717585,68.5212142 C86.7731461,68.0783115 86.4188293,67.4582571 86.1087974,66.6610322 L82.1891282,55.4002876 C82.0562574,54.9352398 81.9898229,54.4259093 81.9898229,53.872281 C81.9898229,53.2743624 82.2721692,52.8093215 82.8368701,52.4771445 C83.401571,52.1449675 84.0493065,51.9788814 84.7800959,51.9788814 C85.2451438,51.9788814 85.638214,52.1449675 85.9593185,52.4771445 C86.2804229,52.8093215 86.5627691,53.2854348 86.8063656,53.9054985 L89.1315931,61.7116194 L91.5232557,54.1712388 C91.7225619,53.551175 91.9882995,53.0307722 92.3204765,52.6100146 C92.7412341,52.1892571 93.2727094,51.9788814 93.9149183,51.9788814 C94.6235626,51.9788814 95.1771826,52.1671123 95.575795,52.5435796 C95.9744075,52.8757566 96.2844347,53.4183042 96.505886,54.1712388 L98.9307661,61.6784019 Z" id="www"></path>
        </g>
    </g>
</svg>