<?xml version="1.0" encoding="UTF-8"?>
<svg width="128px" height="128px" viewBox="0 0 128 128" version="1.1" xmlns="http://www.w3.org/2000/svg" xmlns:xlink="http://www.w3.org/1999/xlink">
    <!-- Generator: Sketch 47.1 (45422) - http://www.bohemiancoding.com/sketch -->
    <title>bubble-i</title>
    <desc>Created with Sketch.</desc>
    <defs></defs>
    <g id="iconos" stroke="none" stroke-width="1" fill="none" fill-rule="evenodd">
        <g id="bubble-i" fill="#000000">
            <path d="M35,67 C30.581722,67 27,63.418278 27,59 C27,54.581722 30.581722,51 35,51 C39.418278,51 43,54.581722 43,59 C43,63.418278 39.418278,67 35,67 Z M94,67 C89.581722,67 86,63.418278 86,59 C86,54.581722 89.581722,51 94,51 C98.418278,51 102,54.581722 102,59 C102,63.418278 98.418278,67 94,67 Z M65,67 C60.581722,67 57,63.418278 57,59 C57,54.581722 60.581722,51 65,51 C69.418278,51 73,54.581722 73,59 C73,63.418278 69.418278,67 65,67 Z" id="Combined-Shape"></path>
            <path d="M42.1599778,98.9181935 C43.2331193,98.373968 44.5048129,98.2131444 45.7557189,98.5598602 C51.5556048,100.167425 57.7009838,101 64,101 C94.04945,101 118,82.123719 118,59.5 C118,36.876281 94.04945,18 64,18 C33.95055,18 10,36.876281 10,59.5 C10,70.0370106 15.1774847,80.0322346 24.4569569,87.7115389 C26.2601007,89.2037454 26.7485879,91.695415 25.7836331,93.7156795 C24.6606852,99.7496334 22.239176,105.200219 18.5614924,110.033341 C18.7148252,110.007104 18.8681755,109.980327 19.0215175,109.953005 C28.0155137,108.350495 35.3310423,105.197086 39.7074905,100.394102 C40.3896336,99.6454763 41.2469899,99.1516546 42.1599778,98.9181935 Z M15.6557435,93.2930025 C5.67904453,84.0587466 -4.33680869e-19,72.1736803 -4.33680869e-19,59.5 C-4.33680869e-19,30.7612373 28.8798495,8 64,8 C99.1201505,8 128,30.7612373 128,59.5 C128,88.2387627 99.1201505,111 64,111 C57.6437655,111 51.4090819,110.256231 45.444908,108.809616 C39.3557293,114.540565 30.7944031,118.012857 20.7756468,119.797954 C13.7160763,121.055797 5.27210685,121.395187 3.2924766,120.67589 C-0.524285398,119.289072 -1.18325603,114.171419 2.15768474,111.862945 C9.48147619,106.802461 13.9155844,100.664961 15.6557435,93.2930025 Z" id="Combined-Shape" fill-rule="nonzero"></path>
        </g>
    </g>
</svg>