<?xml version="1.0" encoding="UTF-8"?>
<svg width="180px" height="180px" viewBox="0 0 180 180" version="1.1" xmlns="http://www.w3.org/2000/svg" xmlns:xlink="http://www.w3.org/1999/xlink">
    <!-- Generator: Sketch 40.1 (33804) - http://www.bohemiancoding.com/sketch -->
    <title>calendar</title>
    <desc>Created with Sketch.</desc>
    <defs></defs>
    <g id="iconos" stroke="none" stroke-width="1" fill="none" fill-rule="evenodd">
        <g id="calendar" fill="#000000">
            <path d="M56.9645556,11 L57,11 L57,12.3611111 L57,16.6388889 L57,18 L50,18 L50,16.6388889 L50,12.3611111 L50,11 L50.0354444,11 C50.012086,10.8366985 50,10.6697607 50,10.5 L50,4.5 C50,2.56700338 51.5670034,1 53.5,1 C55.4329966,1 57,2.56700338 57,4.5 L57,10.5 C57,10.6697607 56.987914,10.8366985 56.9645556,11 Z" id="Combined-Shape"></path>
            <path d="M91.7925245,128.359634 C90.717127,128.513166 89.6178399,128.5926 88.5,128.5926 C75.747664,128.5926 65.4098532,118.254789 65.4098532,105.502453 C65.4098532,92.7501172 75.747664,82.4123064 88.5,82.4123064 C101.252336,82.4123064 111.590147,92.7501172 111.590147,105.502453 C111.590147,110.953167 109.701478,115.962758 106.542863,119.912504 L86.2011332,152.308593 C85.0263835,154.179491 82.5573985,154.74383 80.6865008,153.56908 C78.815603,152.394331 78.2512636,149.925345 79.4260133,148.054448 L91.7925245,128.359634 Z M101.909644,112.429847 C102.983542,110.35527 103.590147,107.999702 103.590147,105.502453 C103.590147,97.1683952 96.834058,90.4123064 88.5,90.4123064 C80.165942,90.4123064 73.4098532,97.1683952 73.4098532,105.502453 C73.4098532,113.836511 80.165942,120.5926 88.5,120.5926 C93.1274557,120.5926 97.2684258,118.509708 100.036511,115.230322 L101.359374,113.123541 C101.520167,112.867462 101.705208,112.635861 101.909644,112.429847 Z" id="Combined-Shape"></path>
            <path d="M56.9645556,35 L57,35 L57,36.3611111 L57,40.6388889 L57,42 L50,42 L50,40.6388889 L50,36.3611111 L50,35 L50.0354444,35 C50.012086,34.8366985 50,34.6697607 50,34.5 L50,28.5 C50,26.5670034 51.5670034,25 53.5,25 C55.4329966,25 57,26.5670034 57,28.5 L57,34.5 C57,34.6697607 56.987914,34.8366985 56.9645556,35 Z" id="Combined-Shape" transform="translate(53.500000, 33.500000) rotate(-180.000000) translate(-53.500000, -33.500000) "></path>
            <path d="M124.964556,11 L125,11 L125,12.3611111 L125,16.6388889 L125,18 L118,18 L118,16.6388889 L118,12.3611111 L118,11 L118.035444,11 C118.012086,10.8366985 118,10.6697607 118,10.5 L118,4.5 C118,2.56700338 119.567003,1 121.5,1 C123.432997,1 125,2.56700338 125,4.5 L125,10.5 C125,10.6697607 124.987914,10.8366985 124.964556,11 Z" id="Combined-Shape"></path>
            <path d="M124.964556,35 L125,35 L125,36.3611111 L125,40.6388889 L125,42 L118,42 L118,40.6388889 L118,36.3611111 L118,35 L118.035444,35 C118.012086,34.8366985 118,34.6697607 118,34.5 L118,28.5 C118,26.5670034 119.567003,25 121.5,25 C123.432997,25 125,26.5670034 125,28.5 L125,34.5 C125,34.6697607 124.987914,34.8366985 124.964556,35 Z" id="Combined-Shape" transform="translate(121.500000, 33.500000) rotate(-180.000000) translate(-121.500000, -33.500000) "></path>
            <path d="M29.0021824,18 L150.997818,18 C161.492433,18 170,26.5034126 170,37.0021824 L170,158.997818 C170,169.492433 161.496587,178 150.997818,178 L29.0021824,178 C18.5075668,178 10,169.496587 10,158.997818 L10,37.0021824 C10,26.5075668 18.5034126,18 29.0021824,18 Z M17,158.997818 C17,158.997818 16,169.5 29.0021824,171 L150.997818,171 C157.628923,171 163,165.628112 163,158.997818 L163,37.0021824 C163,30.3710773 157.628112,25 150.997818,25 L29.0021824,25 C22.3710773,25 17,30.3718885 17,37.0021824 L17,158.997818 Z M159.593333,67 L163,67 L163,60 L159.593333,60 L20.4066667,60 L17,60 L17,67 L20.4066667,67 L159.593333,67 Z" id="Combined-Shape"></path>
        </g>
    </g>
</svg>