<?xml version="1.0" encoding="UTF-8"?>
<svg width="180px" height="180px" viewBox="0 0 180 180" version="1.1" xmlns="http://www.w3.org/2000/svg" xmlns:xlink="http://www.w3.org/1999/xlink">
    <!-- Generator: Sketch 40.1 (33804) - http://www.bohemiancoding.com/sketch -->
    <title>calendar-day</title>
    <desc>Created with Sketch.</desc>
    <defs></defs>
    <g id="iconos" stroke="none" stroke-width="1" fill="none" fill-rule="evenodd">
        <g id="calendar-day">
            <path d="M56.9645556,11 L57,11 L57,12.3611111 L57,16.6388889 L57,18 L50,18 L50,16.6388889 L50,12.3611111 L50,11 L50.0354444,11 C50.012086,10.8366985 50,10.6697607 50,10.5 L50,4.5 C50,2.56700338 51.5670034,1 53.5,1 C55.4329966,1 57,2.56700338 57,4.5 L57,10.5 C57,10.6697607 56.987914,10.8366985 56.9645556,11 Z" id="Combined-Shape" fill="#000000"></path>
            <path d="M56.9645556,35 L57,35 L57,36.3611111 L57,40.6388889 L57,42 L50,42 L50,40.6388889 L50,36.3611111 L50,35 L50.0354444,35 C50.012086,34.8366985 50,34.6697607 50,34.5 L50,28.5 C50,26.5670034 51.5670034,25 53.5,25 C55.4329966,25 57,26.5670034 57,28.5 L57,34.5 C57,34.6697607 56.987914,34.8366985 56.9645556,35 Z" id="Combined-Shape" fill="#000000" transform="translate(53.500000, 33.500000) rotate(-180.000000) translate(-53.500000, -33.500000) "></path>
            <path d="M124.964556,11 L125,11 L125,12.3611111 L125,16.6388889 L125,18 L118,18 L118,16.6388889 L118,12.3611111 L118,11 L118.035444,11 C118.012086,10.8366985 118,10.6697607 118,10.5 L118,4.5 C118,2.56700338 119.567003,1 121.5,1 C123.432997,1 125,2.56700338 125,4.5 L125,10.5 C125,10.6697607 124.987914,10.8366985 124.964556,11 Z" id="Combined-Shape" fill="#000000"></path>
            <path d="M124.964556,35 L125,35 L125,36.3611111 L125,40.6388889 L125,42 L118,42 L118,40.6388889 L118,36.3611111 L118,35 L118.035444,35 C118.012086,34.8366985 118,34.6697607 118,34.5 L118,28.5 C118,26.5670034 119.567003,25 121.5,25 C123.432997,25 125,26.5670034 125,28.5 L125,34.5 C125,34.6697607 124.987914,34.8366985 124.964556,35 Z" id="Combined-Shape" fill="#000000" transform="translate(121.500000, 33.500000) rotate(-180.000000) translate(-121.500000, -33.500000) "></path>
            <path d="M29.0021824,18 L150.997818,18 C161.492433,18 170,26.5034126 170,37.0021824 L170,158.997818 C170,169.492433 161.496587,178 150.997818,178 L29.0021824,178 C18.5075668,178 10,169.496587 10,158.997818 L10,37.0021824 C10,26.5075668 18.5034126,18 29.0021824,18 Z M17,158.997818 C17,158.997818 16,169.5 29.0021824,171 L150.997818,171 C157.628923,171 163,165.628112 163,158.997818 L163,37.0021824 C163,30.3710773 157.628112,25 150.997818,25 L29.0021824,25 C22.3710773,25 17,30.3718885 17,37.0021824 L17,158.997818 Z M159.593333,67 L163,67 L163,60 L159.593333,60 L20.4066667,60 L17,60 L17,67 L20.4066667,67 L159.593333,67 Z" id="Combined-Shape" fill="#000000"></path>
            <path d="M37.5,111 C39.4329966,111 41,109.432997 41,107.5 C41,105.567003 39.4329966,104 37.5,104 C35.5670034,104 34,105.567003 34,107.5 C34,109.432997 35.5670034,111 37.5,111 Z M37.5,134 C39.4329966,134 41,132.432997 41,130.5 C41,128.567003 39.4329966,127 37.5,127 C35.5670034,127 34,128.567003 34,130.5 C34,132.432997 35.5670034,134 37.5,134 Z M37.5,153 C39.4329966,153 41,151.432997 41,149.5 C41,147.567003 39.4329966,146 37.5,146 C35.5670034,146 34,147.567003 34,149.5 C34,151.432997 35.5670034,153 37.5,153 Z M71.5,87 C73.4329966,87 75,85.4329966 75,83.5 C75,81.5670034 73.4329966,80 71.5,80 C69.5670034,80 68,81.5670034 68,83.5 C68,85.4329966 69.5670034,87 71.5,87 Z M71.8333333,134 C73.76633,134 75.3333333,132.432997 75.3333333,130.5 C75.3333333,128.567003 73.76633,127 71.8333333,127 C69.9003367,127 68.3333333,128.567003 68.3333333,130.5 C68.3333333,132.432997 69.9003367,134 71.8333333,134 Z M71.8333333,153 C73.76633,153 75.3333333,151.432997 75.3333333,149.5 C75.3333333,147.567003 73.76633,146 71.8333333,146 C69.9003367,146 68.3333333,147.567003 68.3333333,149.5 C68.3333333,151.432997 69.9003367,153 71.8333333,153 Z M107.5,87 C109.432997,87 111,85.4329966 111,83.5 C111,81.5670034 109.432997,80 107.5,80 C105.567003,80 104,81.5670034 104,83.5 C104,85.4329966 105.567003,87 107.5,87 Z M107.166667,111 C109.099663,111 110.666667,109.432997 110.666667,107.5 C110.666667,105.567003 109.099663,104 107.166667,104 C105.23367,104 103.666667,105.567003 103.666667,107.5 C103.666667,109.432997 105.23367,111 107.166667,111 Z M107.166667,134 C109.099663,134 110.666667,132.432997 110.666667,130.5 C110.666667,128.567003 109.099663,127 107.166667,127 C105.23367,127 103.666667,128.567003 103.666667,130.5 C103.666667,132.432997 105.23367,134 107.166667,134 Z M106.5,153 C108.432997,153 110,151.432997 110,149.5 C110,147.567003 108.432997,146 106.5,146 C104.567003,146 103,147.567003 103,149.5 C103,151.432997 104.567003,153 106.5,153 Z M142.5,87 C144.432997,87 146,85.4329966 146,83.5 C146,81.5670034 144.432997,80 142.5,80 C140.567003,80 139,81.5670034 139,83.5 C139,85.4329966 140.567003,87 142.5,87 Z M142.5,111 C144.432997,111 146,109.432997 146,107.5 C146,105.567003 144.432997,104 142.5,104 C140.567003,104 139,105.567003 139,107.5 C139,109.432997 140.567003,111 142.5,111 Z M142.5,134 C144.432997,134 146,132.432997 146,130.5 C146,128.567003 144.432997,127 142.5,127 C140.567003,127 139,128.567003 139,130.5 C139,132.432997 140.567003,134 142.5,134 Z" id="Combined-Shape" fill="#070707"></path>
            <path d="M85,107 C85,99.2680135 78.7319865,93 71,93 C63.2680135,93 57,99.2680135 57,107 C57,114.731986 63.2680135,121 71,121 C78.7319865,121 85,114.731986 85,107 Z M63.125,107 C63.125,102.650758 66.6507576,99.125 71,99.125 C75.3492424,99.125 78.875,102.650758 78.875,107 C78.875,111.349242 75.3492424,114.875 71,114.875 C66.6507576,114.875 63.125,111.349242 63.125,107 Z" id="Oval-7" fill="#131313"></path>
        </g>
    </g>
</svg>