<?xml version="1.0" encoding="UTF-8"?>
<svg width="152px" height="152px" viewBox="0 0 152 152" version="1.1" xmlns="http://www.w3.org/2000/svg" xmlns:xlink="http://www.w3.org/1999/xlink">
    <!-- Generator: Sketch 43.1 (39012) - http://www.bohemiancoding.com/sketch -->
    <title>calendar-clock</title>
    <desc>Created with Sketch.</desc>
    <defs></defs>
    <g id="Page-1" stroke="none" stroke-width="1" fill="none" fill-rule="evenodd">
        <g id="calendar-clock" fill-rule="nonzero" fill="#000000">
            <path d="M47.2134007,8.58757062 L47.24375,8.58757062 L47.24375,9.75643439 L47.24375,13.4300063 L47.24375,14.5988701 L41.25,14.5988701 L41.25,13.4300063 L41.25,9.75643439 L41.25,8.58757062 L41.2803493,8.58757062 C41.2603486,8.44733431 41.25,8.30397529 41.25,8.15819209 L41.25,3.00564972 C41.25,1.34567522 42.5917467,0 44.246875,0 C45.9020033,0 47.24375,1.34567522 47.24375,3.00564972 L47.24375,8.15819209 C47.24375,8.30397529 47.2334014,8.44733431 47.2134007,8.58757062 Z" id="Combined-Shape"></path>
            <path d="M47.2134007,29.1977401 L47.24375,29.1977401 L47.24375,30.3666039 L47.24375,34.0401758 L47.24375,35.2090395 L41.25,35.2090395 L41.25,34.0401758 L41.25,30.3666039 L41.25,29.1977401 L41.2803493,29.1977401 C41.2603486,29.0575038 41.25,28.9141448 41.25,28.7683616 L41.25,23.6158192 C41.25,21.9558447 42.5917467,20.6101695 44.246875,20.6101695 C45.9020033,20.6101695 47.24375,21.9558447 47.24375,23.6158192 L47.24375,28.7683616 C47.24375,28.9141448 47.2334014,29.0575038 47.2134007,29.1977401 Z" id="Combined-Shape" transform="translate(44.246875, 27.909605) rotate(-180.000000) translate(-44.246875, -27.909605) "></path>
            <path d="M108.438401,8.58757062 L108.46875,8.58757062 L108.46875,9.75643439 L108.46875,13.4300063 L108.46875,14.5988701 L102.475,14.5988701 L102.475,13.4300063 L102.475,9.75643439 L102.475,8.58757062 L102.505349,8.58757062 C102.485349,8.44733431 102.475,8.30397529 102.475,8.15819209 L102.475,3.00564972 C102.475,1.34567522 103.816746,0 105.471875,0 C107.127004,0 108.46875,1.34567522 108.46875,3.00564972 L108.46875,8.15819209 C108.46875,8.30397529 108.458401,8.44733431 108.438401,8.58757062 Z" id="Combined-Shape"></path>
            <path d="M108.438401,29.1977401 L108.46875,29.1977401 L108.46875,30.3666039 L108.46875,34.0401758 L108.46875,35.2090395 L102.475,35.2090395 L102.475,34.0401758 L102.475,30.3666039 L102.475,29.1977401 L102.505349,29.1977401 C102.485349,29.0575038 102.475,28.9141448 102.475,28.7683616 L102.475,23.6158192 C102.475,21.9558447 103.816746,20.6101695 105.471875,20.6101695 C107.127004,20.6101695 108.46875,21.9558447 108.46875,23.6158192 L108.46875,28.7683616 C108.46875,28.9141448 108.458401,29.0575038 108.438401,29.1977401 Z" id="Combined-Shape" transform="translate(105.471875, 27.909605) rotate(-180.000000) translate(-105.471875, -27.909605) "></path>
            <path d="M23.2706187,14.5988701 L127.729382,14.5988701 C136.715396,14.5988701 144,21.9012357 144,30.9171284 L144,135.681742 C144,144.694067 136.718953,152 127.729382,152 L23.2706187,152 C14.2846041,152 7,144.697634 7,135.681742 L7,30.9171284 C7,21.9048031 14.281047,14.5988701 23.2706187,14.5988701 Z M12.99375,135.681742 C12.99375,135.681742 12.1375,144.700565 23.2706187,145.988701 L127.729382,145.988701 C133.407265,145.988701 138.00625,141.375554 138.00625,135.681742 L138.00625,30.9171284 C138.00625,25.2226201 133.406571,20.6101695 127.729382,20.6101695 L23.2706187,20.6101695 C17.5927349,20.6101695 12.99375,25.2233167 12.99375,30.9171284 L12.99375,135.681742 Z M135.089291,50.6779661 L138.00625,50.6779661 L138.00625,44.6666667 L135.089291,44.6666667 L15.9107084,44.6666667 L12.99375,44.6666667 L12.99375,50.6779661 L15.9107084,50.6779661 L135.089291,50.6779661 Z" id="Combined-Shape"></path>
            <path d="M77.5,134 C57.3416066,134 41,117.658393 41,97.5 C41,77.3416066 57.3416066,61 77.5,61 C97.6583934,61 114,77.3416066 114,97.5 C114,117.658393 97.6583934,134 77.5,134 Z M77.5,128.128205 C94.4154906,128.128205 108.128205,114.415491 108.128205,97.5 C108.128205,80.5845094 94.4154906,66.8717949 77.5,66.8717949 C60.5845094,66.8717949 46.8717949,80.5845094 46.8717949,97.5 C46.8717949,114.415491 60.5845094,128.128205 77.5,128.128205 Z" id="Oval"></path>
            <path d="M77.2577928,85.1105366 C77.2577928,83.3926347 75.8651581,82 74.1472561,82 C72.4293542,82 71.0367195,83.3926347 71.0367195,85.1105366 L71.0367195,99.9630689 C71.0367195,101.71489 72.4827062,103.121168 74.2338482,103.0724 L89.8601955,102.637221 C91.5774317,102.589397 92.9307581,101.158534 92.8829346,99.4412974 C92.8351112,97.7240612 91.4042476,96.3707348 89.6870115,96.4185583 L77.2577928,96.7647007 L77.2577928,85.1105366 Z" id="Path-2"></path>
        </g>
    </g>
</svg>