<?xml version="1.0" encoding="UTF-8"?>
<svg width="180px" height="180px" viewBox="0 0 180 180" version="1.1" xmlns="http://www.w3.org/2000/svg" xmlns:xlink="http://www.w3.org/1999/xlink">
    <!-- Generator: Sketch 43.2 (39069) - http://www.bohemiancoding.com/sketch -->
    <title>cart-go</title>
    <desc>Created with Sketch.</desc>
    <defs></defs>
    <g id="iconos" stroke="none" stroke-width="1" fill="none" fill-rule="evenodd">
        <g id="cart-go">
            <path d="M74.3529412,178 C63.5824706,178 54.8235294,169.229333 54.8235294,158.444444 C54.8235294,147.659556 63.5824706,138.888889 74.3529412,138.888889 C85.1234118,138.888889 93.8823529,147.659556 93.8823529,158.444444 C93.8823529,169.229333 85.1234118,178 74.3529412,178 L74.3529412,178 Z M74.3529412,148.666667 C68.9725882,148.666667 64.5882353,153.056889 64.5882353,158.444444 C64.5882353,163.832 68.9725882,168.222222 74.3529412,168.222222 C79.7332941,168.222222 84.1176471,163.832 84.1176471,158.444444 C84.1176471,153.056889 79.7332941,148.666667 74.3529412,148.666667 L74.3529412,148.666667 Z" id="Shape" fill="#000000"></path>
            <path d="M142.705882,178 C131.935412,178 123.176471,169.229333 123.176471,158.444444 C123.176471,147.659556 131.935412,138.888889 142.705882,138.888889 C153.476353,138.888889 162.235294,147.659556 162.235294,158.444444 C162.235294,169.229333 153.476353,178 142.705882,178 L142.705882,178 Z M142.705882,148.666667 C137.325529,148.666667 132.941176,153.056889 132.941176,158.444444 C132.941176,163.832 137.325529,168.222222 142.705882,168.222222 C148.086235,168.222222 152.470588,163.832 152.470588,158.444444 C152.470588,153.056889 148.086235,148.666667 142.705882,148.666667 L142.705882,148.666667 Z" id="Shape" fill="#000000"></path>
            <path d="M47.7445926,89.0172097 C46.5625179,81.6253169 45.3978494,74.2990803 44.2868997,67.255718 C44.1735226,66.5369129 44.0610146,65.8230045 43.949401,65.1141443 C39.8697902,39.2044539 37.2613656,21.8066023 36.864258,17.4384196 C36.3234451,11.4894767 33.760294,7.23766137 29.8099408,4.7848277 C28.2579654,3.82118283 26.6189755,3.21470351 24.9760429,2.88536751 C23.9634893,2.68239487 23.0948342,2.61000636 22.4234133,2.61367818 L10.7656172,2.36563997 C8.28089818,2.31277361 6.22377877,4.28417971 6.17091241,6.76889874 C6.11804605,9.25361777 8.08945215,11.3107372 10.5741712,11.3636035 L22.3040986,11.6131765 C22.7689749,11.6357447 22.9782817,11.6639451 23.2071271,11.7098186 C23.8520754,11.8391025 24.4890806,12.074815 25.0624311,12.430817 C26.5836837,13.3753855 27.613001,15.0828414 27.9012192,18.2532413 C28.3260417,22.9262886 30.919671,40.2254578 35.0589329,66.5139931 C35.1706726,67.2236543 35.2833059,67.9383577 35.3968076,68.6579525 C37.0415379,79.0854559 38.8035989,90.1305016 40.5656402,101.091207 C41.1823405,104.927365 41.7549973,108.479026 42.2689357,111.658413 C42.448829,112.77129 42.6085383,113.758175 42.7462291,114.608094 C42.8288689,115.118201 42.8857872,115.469188 42.9152494,115.650696 C42.936904,115.784104 42.9645578,115.916468 42.9981267,116.047387 C43.1317182,116.568394 43.3818902,117.315998 43.7790725,118.220893 C44.4178023,119.676101 45.2659846,121.126134 46.3653165,122.49353 C49.6643723,126.597039 54.4772099,129.056715 60.6891019,128.912253 C65.0498409,128.81084 82.0145813,128.783955 107.437244,128.813963 C115.605355,128.823604 124.302461,128.838787 133.209982,128.857998 C138.834454,128.870128 144.20218,128.883125 149.130865,128.896122 C150.855871,128.900671 152.402765,128.904895 153.748764,128.908685 C154.494722,128.910797 154.494722,128.910797 154.98283,128.912205 C157.894436,128.920824 159.915124,126.912093 159.922499,124.426822 C159.929874,121.941552 157.921142,119.920864 155.435872,119.913489 C154.520431,119.910834 154.520431,119.910834 153.774109,119.908721 C152.427584,119.904929 150.880153,119.900704 149.154598,119.896153 C144.224537,119.883153 138.855386,119.870153 133.229392,119.858019 C124.319131,119.838802 115.619171,119.823614 107.447867,119.813969 C81.8833608,119.783794 64.9545844,119.810622 60.4798562,119.914686 C57.1998993,119.990964 54.9955646,118.864404 53.3795667,116.854355 C52.810194,116.146145 52.3575489,115.372313 52.0201649,114.603657 C51.9069281,114.345671 51.8177686,114.113127 51.7514246,113.915558 C51.720737,113.726312 51.6802529,113.476546 51.6303994,113.168817 C51.4928732,112.319914 51.3333307,111.33406 51.1536071,110.222232 C50.6400685,107.045319 50.0678223,103.496205 49.4515501,99.6627091 C49.3591734,99.0880833 49.2667967,98.5132262 49.174437,97.9382393 C49.3186485,97.9279809 49.4765499,97.9167486 49.650654,97.9043638 C53.0088805,97.6655018 56.7531791,97.3993405 60.7883488,97.1127049 C72.3173709,96.2937485 83.8675037,95.4747933 94.6770994,94.7104424 C94.9341284,94.6922681 94.9341284,94.6922681 95.1911655,94.6740943 C117.706187,93.0822002 133.890927,91.9476869 141.00075,91.4672934 C149.912117,90.865174 156.187069,87.866239 159.985796,83.0921634 C161.575609,81.0941556 162.603437,78.9412721 163.177731,76.7760289 C163.383546,76.0000516 163.517997,75.2678349 163.594783,74.5923291 C163.620737,74.3640016 163.638568,74.157266 163.649869,73.9736752 L170.340743,34.5718637 C170.756815,32.1216582 169.107825,29.7980807 166.657619,29.382008 C164.207414,28.9659354 161.883836,30.6149259 161.467764,33.0651314 L154.729295,72.7472264 C154.687029,72.9961223 154.665784,73.2481336 154.665784,73.5005926 C154.665784,73.5567949 154.62483,73.9170784 154.478519,74.4687111 C154.208665,75.4861341 153.717027,76.5159167 152.943225,77.4883973 C150.801625,80.1798677 146.891139,82.0487734 140.394025,82.4877675 C133.270903,82.9690596 117.082465,84.1038322 94.5564173,85.6965059 C94.2993499,85.7146818 94.2993499,85.7146818 94.0422908,85.7328582 C83.2316195,86.4972851 71.6805614,87.316306 60.1506467,88.1353258 C56.1151884,88.4219818 52.3706143,88.6881628 49.0121204,88.9270438 C48.4480184,88.967171 48.0539931,88.9951998 47.7445926,89.0172097 Z" id="Combined-Shape" fill="#010101" fill-rule="nonzero"></path>
            <path d="M107.143425,62.2475179 L107.143425,47.3941184 C107.143425,46.7096923 106.876929,46.0623523 106.382925,45.5868913 C105.907464,45.1114304 105.241581,44.8263916 104.575698,44.8263916 C94.2299056,44.8263916 86.2992173,45.1114304 78.5962747,48.7061528 C71.9398216,51.8059203 66.1777106,57.0742652 60.4907223,65.3472854 C60.7191813,57.797679 61.7081401,48.7824643 65.8349032,41.1565464 C72.3772457,29.060107 85.0437627,23.0692993 104.575698,22.8986088 C105.983538,22.8791149 107.123931,21.7387219 107.123931,20.330882 L107.123931,5.45870179 L141.490722,33.8147164 L107.143425,62.2475179 Z" id="Path" fill="#000000" fill-rule="nonzero"></path>
        </g>
    </g>
</svg>