<?xml version="1.0" encoding="UTF-8" standalone="no"?>
<svg width="180px" height="180px" viewBox="0 0 180 180" version="1.1" xmlns="http://www.w3.org/2000/svg" xmlns:xlink="http://www.w3.org/1999/xlink">
    <!-- Generator: Sketch 3.6 (26304) - http://www.bohemiancoding.com/sketch -->
    <title>cart</title>
    <desc>Created with Sketch.</desc>
    <defs></defs>
    <g id="iconos" stroke="none" stroke-width="1" fill="none" fill-rule="evenodd">
        <g id="cart" fill="#000000">
            <path d="M74.3529412,178 C63.5824706,178 54.8235294,169.229333 54.8235294,158.444444 C54.8235294,147.659556 63.5824706,138.888889 74.3529412,138.888889 C85.1234118,138.888889 93.8823529,147.659556 93.8823529,158.444444 C93.8823529,169.229333 85.1234118,178 74.3529412,178 L74.3529412,178 Z M74.3529412,148.666667 C68.9725882,148.666667 64.5882353,153.056889 64.5882353,158.444444 C64.5882353,163.832 68.9725882,168.222222 74.3529412,168.222222 C79.7332941,168.222222 84.1176471,163.832 84.1176471,158.444444 C84.1176471,153.056889 79.7332941,148.666667 74.3529412,148.666667 L74.3529412,148.666667 Z" id="Shape"></path>
            <path d="M142.705882,178 C131.935412,178 123.176471,169.229333 123.176471,158.444444 C123.176471,147.659556 131.935412,138.888889 142.705882,138.888889 C153.476353,138.888889 162.235294,147.659556 162.235294,158.444444 C162.235294,169.229333 153.476353,178 142.705882,178 L142.705882,178 Z M142.705882,148.666667 C137.325529,148.666667 132.941176,153.056889 132.941176,158.444444 C132.941176,163.832 137.325529,168.222222 142.705882,168.222222 C148.086235,168.222222 152.470588,163.832 152.470588,158.444444 C152.470588,153.056889 148.086235,148.666667 142.705882,148.666667 L142.705882,148.666667 Z" id="Shape"></path>
            <path d="M167.498471,26.1217778 C165.047529,23.2177778 161.346706,21.5555556 157.352941,21.5555556 L37.8036471,21.5555556 L36.8369412,15.728 C35.5577647,8.03288889 28.4490588,2 20.6470588,2 L10.8823529,2 C8.18729412,2 6,4.19022222 6,6.88888889 C6,9.58755556 8.18729412,11.7777778 10.8823529,11.7777778 L20.6470588,11.7777778 C23.6448235,11.7777778 26.7109412,14.3786667 27.1991765,17.3413333 L43.516,115.383111 C44.7951765,123.078222 51.9038824,129.111111 59.7058824,129.111111 L157.352941,129.111111 C160.048,129.111111 162.235294,126.920889 162.235294,124.222222 C162.235294,121.523556 160.048,119.333333 157.352941,119.333333 L59.7058824,119.333333 C56.7081176,119.333333 53.642,116.732444 53.1537647,113.769778 L50.7418824,99.2986667 L148.047176,90.8213333 C155.614824,90.1662222 162.528235,83.7715556 163.778118,76.2622222 L170.330235,36.8871111 C170.984471,32.9368889 169.959176,29.0062222 167.508235,26.112 L167.498471,26.1217778 Z M160.692471,35.2835556 L154.140353,74.6586667 C153.622824,77.7484444 150.322353,80.8088889 147.197647,81.0826667 L49.1307059,89.6186667 L39.4245882,31.3235556 L157.343176,31.3235556 C158.485647,31.3235556 159.442588,31.7146667 160.038235,32.4284444 C160.633882,33.1422222 160.868235,34.1493333 160.682706,35.2737778 L160.692471,35.2835556 Z" id="Shape"></path>
        </g>
    </g>
</svg>