<?xml version="1.0" encoding="UTF-8"?>
<svg width="128px" height="128px" viewBox="0 0 128 128" version="1.1" xmlns="http://www.w3.org/2000/svg" xmlns:xlink="http://www.w3.org/1999/xlink">
    <!-- Generator: Sketch 47.1 (45422) - http://www.bohemiancoding.com/sketch -->
    <title>cart</title>
    <desc>Created with Sketch.</desc>
    <defs></defs>
    <g id="iconos" stroke="none" stroke-width="1" fill="none" fill-rule="evenodd">
        <g id="cart">
            <path d="M98,128 C90.2680135,128 84,121.731986 84,114 C84,106.268014 90.2680135,100 98,100 C105.731986,100 112,106.268014 112,114 C112,121.731986 105.731986,128 98,128 Z M98.5,120 C101.537566,120 104,117.537566 104,114.5 C104,111.462434 101.537566,109 98.5,109 C95.4624339,109 93,111.462434 93,114.5 C93,117.537566 95.4624339,120 98.5,120 Z" id="Oval-2" fill="#000000" fill-rule="nonzero"></path>
            <path d="M54,128 C46.2680135,128 40,121.731986 40,114 C40,106.268014 46.2680135,100 54,100 C61.7319865,100 68,106.268014 68,114 C68,121.731986 61.7319865,128 54,128 Z M54.5,120 C57.5375661,120 60,117.537566 60,114.5 C60,111.462434 57.5375661,109 54.5,109 C51.4624339,109 49,111.462434 49,114.5 C49,117.537566 51.4624339,120 54.5,120 Z" id="Oval-2-Copy" fill="#000000" fill-rule="nonzero"></path>
            <path d="" id="Path-4" stroke="#979797"></path>
            <path d="M26.8455903,13.3986633 L106.539837,13.3987352 C118.064764,13.3351591 123.757948,20.359971 121.520505,31.7599036 C119.904196,39.9951084 118.831289,46.6132576 118.299288,51.60753 C117.23011,61.2566893 111.09971,66.926541 101.210548,67.5409738 C93.9204466,67.993922 73.3011843,69.7556697 39.4476514,72.8192968 C39.8757998,74.7131097 40.3149057,76.6514887 40.7649591,78.634379 C41.8912268,82.1349991 44.095838,83.5978733 48.4982403,83.5656763 C55.1064169,83.5173474 76.9884769,83.5173474 114.184987,83.5655486 C116.909434,83.569079 119.115173,85.7805418 119.111643,88.504989 C119.108112,91.2294361 116.896649,93.4351748 114.172202,93.4316443 C77.0170845,93.3834968 55.1362928,93.3834968 48.5703942,93.4315166 C39.8657623,93.4951779 33.7126839,89.2848284 31.2825309,81.3683141 C31.2465154,81.2509892 31.2148907,81.1323611 31.187723,81.0126775 C23.0494137,45.1604919 18.4816631,23.846894 17.4269387,16.757827 C16.7206989,12.0110133 15.4674136,10.3005387 13.6276662,10.0833023 L7.92816922,10.0833023 C5.20371981,10.0833023 2.99511719,7.8746997 2.99511719,5.15025029 C2.99511719,2.42580089 5.20371981,0.21719826 7.92816922,0.21719826 L13.8536126,0.21719826 C13.9771846,0.21719826 14.1007129,0.22184144 14.2239362,0.231117975 C20.9866073,0.740227466 25.2051237,5.57172626 26.8455903,13.3986633 Z M37.2611854,63.1107931 C72.0024133,59.9641316 93.0820741,58.1608826 100.598728,57.6938582 C105.761798,57.3730667 107.959135,55.3408054 108.490939,50.5417664 C109.055719,45.2393287 110.171854,38.3545327 111.839108,29.8597539 C112.885227,24.529703 111.836573,23.2357705 106.56705,23.2647642 L28.6405724,23.2647642 C30.2922954,31.5638623 33.1697322,44.8671559 37.2611854,63.1107931 Z" id="Combined-Shape" fill="#000000" fill-rule="nonzero"></path>
        </g>
    </g>
</svg>