<?xml version="1.0" encoding="UTF-8"?>
<svg width="152px" height="152px" viewBox="0 0 152 152" version="1.1" xmlns="http://www.w3.org/2000/svg" xmlns:xlink="http://www.w3.org/1999/xlink">
    <!-- Generator: Sketch 43.1 (39012) - http://www.bohemiancoding.com/sketch -->
    <title>cash-registrer</title>
    <desc>Created with Sketch.</desc>
    <defs></defs>
    <g id="Page-1" stroke="none" stroke-width="1" fill="none" fill-rule="evenodd">
        <g id="cash-registrer" fill="#000000">
            <path d="M29,8.009101 C29,3.58579666 32.5843895,0 37.003757,0 L78.996243,0 C83.4165959,0 87,3.58323463 87,8.009101 L87,40.990899 C87,45.4142033 83.4156105,49 78.996243,49 L37.003757,49 C32.5834041,49 29,45.4167654 29,40.990899 L29,8.009101 Z M36,8.009101 L36,40.990899 C36,41.5505867 36.4492127,42 37.003757,42 L78.996243,42 C79.5490446,42 80,41.5487819 80,40.990899 L80,8.009101 C80,7.44941328 79.5507873,7 78.996243,7 L37.003757,7 C36.4509554,7 36,7.45121807 36,8.009101 Z" id="Combined-Shape"></path>
            <path d="M8,144 L144,144 C143.999464,144.000533 144,116 144,116 L8,116 C8.00053587,115.999467 8,144 8,144 Z M64,58.5 L64,47 L71,47 L71,58.5 L123,58.5 C124.353499,58.5 125.585678,59.2803989 126.164189,60.5040353 L149.791899,110.48017 C151.160033,111.914925 152,113.856966 152,115.993578 L152,144.006422 C152,148.421153 148.411138,152 144.001895,152 L7.99810528,152 C3.58087371,152 0,148.417951 0,144.006422 L0,115.993578 C0,113.648655 1.01252439,111.539559 2.62270058,110.07734 L26.0659701,60.5037294 C26.6445468,59.2802595 27.876637,58.5 29.2300141,58.5 L46,58.5 L46,47 L53,47 L53,58.5 L64,58.5 Z M11.3483261,108 L140.876423,108 L120.783279,65.5 L31.4464981,65.5 L11.3483261,108 Z M75,137 C78.8659932,137 82,134.089851 82,130.5 C82,126.910149 78.8659932,124 75,124 C71.1340068,124 68,126.910149 68,130.5 C68,134.089851 71.1340068,137 75,137 Z M41,78.5 C41,76.0147186 43.0136909,74 45.4986844,74 L64.5013156,74 C66.9858704,74 69,76.0197757 69,78.5 C69,80.9852814 66.9863091,83 64.5013156,83 L45.4986844,83 C43.0141296,83 41,80.9802243 41,78.5 Z M78,78.5 C78,76.0147186 80.0136909,74 82.4986844,74 L101.501316,74 C103.98587,74 106,76.0197757 106,78.5 C106,80.9852814 103.986309,83 101.501316,83 L82.4986844,83 C80.0141296,83 78,80.9802243 78,78.5 Z M29,94.5 C29,92.0147186 31.0091636,90 33.5005314,90 L50.9416402,90 C53.4272151,90 55.4421716,92.0197757 55.4421716,94.5 C55.4421716,96.9852814 53.433008,99 50.9416402,99 L33.5005314,99 C31.0149565,99 29,96.9802243 29,94.5 Z M62.9970778,94.5 C62.9970778,92.0147186 65.0062414,90 67.4976092,90 L84.938718,90 C87.4242929,90 89.4392494,92.0197757 89.4392494,94.5 C89.4392494,96.9852814 87.4300858,99 84.938718,99 L67.4976092,99 C65.0120343,99 62.9970778,96.9802243 62.9970778,94.5 Z M96.9941556,94.5 C96.9941556,92.0147186 99.0033192,90 101.494687,90 L118.935796,90 C121.421371,90 123.436327,92.0197757 123.436327,94.5 C123.436327,96.9852814 121.427164,99 118.935796,99 L101.494687,99 C99.0091121,99 96.9941556,96.9802243 96.9941556,94.5 Z M58.8175182,34.5985401 L58.8175182,36.3357664 C58.8175182,36.7445255 58.4343066,37 58,37 C57.540146,37 57.1824818,36.7445255 57.1824818,36.3357664 L57.1824818,34.5985401 C53.6824818,34.4708029 51.6131387,32.580292 51.0255474,29.9233577 C51,29.8211679 51,29.7189781 51,29.6167883 C51,29.0036496 51.4343066,28.6459854 51.9708029,28.5437956 C52.0729927,28.5182482 52.1751825,28.5182482 52.2773723,28.5182482 C52.8138686,28.5182482 53.2481752,28.7992701 53.3759124,29.3613139 C53.8357664,31.3029197 54.8065693,32.350365 57.1824818,32.580292 L57.1824818,25.1715328 C53.5036496,24.4306569 51.4343066,22.8978102 51.4343066,19.7554745 C51.4343066,16.3576642 54.0912409,14.5948905 57.1824818,14.4160584 L57.1824818,13.1642336 C57.1824818,12.7554745 57.5145985,12.5 58,12.5 C58.459854,12.5 58.8175182,12.7554745 58.8175182,13.1642336 L58.8175182,14.4160584 C61.6532847,14.620438 63.6715328,16.2554745 64.310219,18.5036496 C64.3357664,18.6313869 64.3613139,18.7591241 64.3613139,18.8868613 C64.3613139,19.3978102 64.0036496,19.7043796 63.5182482,19.8321168 C63.3649635,19.8576642 63.2372263,19.8832117 63.0839416,19.8832117 C62.6240876,19.8832117 62.2153285,19.6788321 62.0875912,19.1678832 C61.6788321,17.6350365 60.6569343,16.5875912 58.8175182,16.4087591 L58.8175182,23.1788321 C62.4452555,23.9708029 65,25.0693431 65,28.9270073 C65,32.6824818 62.0875912,34.4963504 58.8175182,34.5985401 Z M58.8175182,25.4270073 L58.8175182,32.580292 C61.3467153,32.4014599 62.7007299,31.149635 62.7007299,28.9525547 C62.7007299,26.4233577 61.040146,25.9635036 58.8175182,25.4270073 Z M57.1824818,22.8978102 L57.1824818,16.4087591 C54.959854,16.5620438 53.6569343,17.8905109 53.6569343,19.6532847 C53.6569343,21.3394161 54.4489051,22.3613139 57.1824818,22.8978102 Z" id="Combined-Shape" fill-rule="nonzero"></path>
        </g>
    </g>
</svg>