<?xml version="1.0" encoding="UTF-8"?>
<svg width="180px" height="180px" viewBox="0 0 180 180" version="1.1" xmlns="http://www.w3.org/2000/svg" xmlns:xlink="http://www.w3.org/1999/xlink">
    <!-- Generator: Sketch 43.2 (39069) - http://www.bohemiancoding.com/sketch -->
    <title>catalog</title>
    <desc>Created with Sketch.</desc>
    <defs></defs>
    <g id="iconos" stroke="none" stroke-width="1" fill="none" fill-rule="evenodd">
        <g id="catalog" fill-rule="nonzero" fill="#000000">
            <path d="M4.5,86 L175.503676,86 C177.988958,86 180.003676,83.9852814 180.003676,81.5 C180.003676,79.0147186 177.988958,75 175.503676,75 L4.5,75 C2.01471863,75 0,79.0147186 0,81.5 C0,83.9852814 2.01471863,86 4.5,86 Z" id="Line-Copy"></path>
            <path d="M4.5,180 L175.503676,180 C177.988958,180 180.003676,177.985281 180.003676,175.5 C180.003676,173.014719 177.988958,171 175.503676,171 L4.5,171 C2.01471863,171 0,173.014719 0,175.5 C0,177.985281 2.01471863,180 4.5,180 Z" id="Line-Copy-2"></path>
            <path d="M9,17 L9,48 L39,48 L39,17 L9,17 Z M0,16.009101 C0,11.5857967 3.58817117,8 8.00709688,8 L39.9929031,8 C44.4151006,8 48,11.5832346 48,16.009101 L48,48.990899 C48,53.4142033 44.4118288,57 39.9929031,57 L8.00709688,57 C3.58489938,57 0,53.4167654 0,48.990899 L0,16.009101 Z" id="Rectangle"></path>
            <path d="M9,116 L9,147 L39,147 L39,116 L9,116 Z M0,115.009101 C0,110.585797 3.58817117,107 8.00709688,107 L39.9929031,107 C44.4151006,107 48,110.583235 48,115.009101 L48,147.990899 C48,152.414203 44.4118288,156 39.9929031,156 L8.00709688,156 C3.58489938,156 0,152.416765 0,147.990899 L0,115.009101 Z" id="Rectangle-Copy-3"></path>
            <path d="M75,17 L75,48 L105,48 L105,17 L75,17 Z M66,16.009101 C66,11.5857967 69.5881712,8 74.0070969,8 L105.992903,8 C110.415101,8 114,11.5832346 114,16.009101 L114,48.990899 C114,53.4142033 110.411829,57 105.992903,57 L74.0070969,57 C69.5848994,57 66,53.4167654 66,48.990899 L66,16.009101 Z" id="Rectangle-Copy"></path>
            <path d="M75,147 L105,147 L105,116 L75,116 L75,147 Z M66,115.009101 C66,110.585797 69.5881712,107 74.0070969,107 L105.992903,107 C110.415101,107 114,110.583235 114,115.009101 L114,147.990899 C114,152.414203 110.411829,156 105.992903,156 L74.0070969,156 C69.5848994,156 66,152.416765 66,147.990899 L66,115.009101 Z" id="Rectangle-Copy-4"></path>
            <path d="M141,48 L171,48 L171,17 L141,17 L141,48 Z M132,16.009101 C132,11.5857967 135.588171,8 140.007097,8 L171.992903,8 C176.415101,8 180,11.5832346 180,16.009101 L180,48.990899 C180,53.4142033 176.411829,57 171.992903,57 L140.007097,57 C135.584899,57 132,53.4167654 132,48.990899 L132,16.009101 Z" id="Rectangle-Copy-2"></path>
            <path d="M141,147 L171,147 L171,116 L141,116 L141,147 Z M132,115.009101 C132,110.585797 135.588171,107 140.007097,107 L171.992903,107 C176.415101,107 180,110.583235 180,115.009101 L180,147.990899 C180,152.414203 176.411829,156 171.992903,156 L140.007097,156 C135.584899,156 132,152.416765 132,147.990899 L132,115.009101 Z" id="Rectangle-Copy-5"></path>
        </g>
    </g>
</svg>