<?xml version="1.0" encoding="UTF-8" standalone="no"?>
<svg width="180px" height="180px" viewBox="0 0 180 180" version="1.1" xmlns="http://www.w3.org/2000/svg" xmlns:xlink="http://www.w3.org/1999/xlink">
    <!-- Generator: Sketch 3.6 (26304) - http://www.bohemiancoding.com/sketch -->
    <title>category-v</title>
    <desc>Created with Sketch.</desc>
    <defs></defs>
    <g id="iconos" stroke="none" stroke-width="1" fill="none" fill-rule="evenodd">
        <g id="category-v" fill="#000000">
            <path d="M126,95.9929714 L126,95.9929714 L126,114.007029 C126,114.556855 126.443528,115 126.996941,115 L165.003059,115 C165.552065,115 166,114.552463 166,114.007029 L166,95.9929714 C166,95.4431452 165.556472,95 165.003059,95 L126.996941,95 C126.447935,95 126,95.4475369 126,95.9929714 L126,95.9929714 Z M119,95.9929714 C119,91.5785752 122.584911,88 126.996941,88 L165.003059,88 C169.419647,88 173,91.5743339 173,95.9929714 L173,114.007029 C173,118.421425 169.415089,122 165.003059,122 L126.996941,122 C122.580353,122 119,118.425666 119,114.007029 L119,95.9929714 L119,95.9929714 Z" id="Rectangle-2"></path>
            <path d="M16,15.0028462 L16,15.0028462 L16,63.9971538 C16,64.5484552 16.4514751,65 17.0045615,65 L93.7031817,65 C94.261602,65 94.7077432,64.5537111 94.7077432,63.9971538 L94.7077432,15.0028462 C94.7077432,14.4515448 94.2562681,14 93.7031817,14 L17.0045615,14 C16.4461412,14 16,14.4462889 16,15.0028462 L16,15.0028462 Z M9,15.0028462 C9,10.5829963 12.5774479,7 17.0045615,7 L93.7031817,7 C98.123979,7 101.707743,10.5872694 101.707743,15.0028462 L101.707743,63.9971538 C101.707743,68.4170037 98.1302953,72 93.7031817,72 L17.0045615,72 C12.5837642,72 9,68.4127306 9,63.9971538 L9,15.0028462 L9,15.0028462 Z" id="Rectangle-2"></path>
            <path d="M126,146.992971 L126,146.992971 L126,165.007029 C126,165.556855 126.443528,166 126.996941,166 L165.003059,166 C165.552065,166 166,165.552463 166,165.007029 L166,146.992971 C166,146.443145 165.556472,146 165.003059,146 L126.996941,146 C126.447935,146 126,146.447537 126,146.992971 L126,146.992971 Z M119,146.992971 C119,142.578575 122.584911,139 126.996941,139 L165.003059,139 C169.419647,139 173,142.574334 173,146.992971 L173,165.007029 C173,169.421425 169.415089,173 165.003059,173 L126.996941,173 C122.580353,173 119,169.425666 119,165.007029 L119,146.992971 L119,146.992971 Z" id="Rectangle-2"></path>
            <path d="M32.5,34 L78.5,34 C80.4329966,34 82,32.4329966 82,30.5 C82,28.5670034 80.4329966,27 78.5,27 L32.5,27 C30.5670034,27 29,28.5670034 29,30.5 C29,32.4329966 30.5670034,34 32.5,34 L32.5,34 Z" id="Line"></path>
            <path d="M32.5,51 L78.5,51 C80.4329966,51 82,49.4329966 82,47.5 C82,45.5670034 80.4329966,44 78.5,44 L32.5,44 C30.5670034,44 29,45.5670034 29,47.5 C29,49.4329966 30.5670034,51 32.5,51 L32.5,51 Z" id="Line"></path>
            <path d="M53.5,67 L53.5,141.5 L53.5544243,140.842404 C53.5237454,141.026477 53.488104,141.295768 53.4557347,141.64104 C53.1974036,144.396573 53.4760358,147.492486 54.7451923,150.538462 C57.3349311,156.753835 63.2663597,160.5 72.5,160.5 L122.5,160.5 L122.5,152.5 L72.5,152.5 C66.4211403,152.5 63.4463189,150.621165 62.1298077,147.461538 C61.4410167,145.80844 61.274047,143.953222 61.4208085,142.387766 C61.4347355,142.239211 61.4453904,142.158708 61.4455757,142.157596 L61.5,141.83105 L61.5,141.5 L61.5,67 L53.5,67 L53.5,67 Z" id="Path-257"></path>
            <path d="M120.5,101 L58.5,101 L54.5,101 L54.5,109 L58.5,109 L120.5,109 L124.5,109 L124.5,101 L120.5,101 L120.5,101 Z" id="Line"></path>
        </g>
    </g>
</svg>