<?xml version="1.0" encoding="UTF-8" standalone="no"?>
<svg width="180px" height="180px" viewBox="0 0 180 180" version="1.1" xmlns="http://www.w3.org/2000/svg" xmlns:xlink="http://www.w3.org/1999/xlink">
    <!-- Generator: Sketch 3.6 (26304) - http://www.bohemiancoding.com/sketch -->
    <title>category-o</title>
    <desc>Created with Sketch.</desc>
    <defs></defs>
    <g id="iconos" stroke="none" stroke-width="1" fill="none" fill-rule="evenodd">
        <g id="category-o">
            <path d="M7,129.992971 L7,129.992971 L7,148.007029 C7,148.556855 7.44352785,149 7.99694132,149 L46.0030587,149 C46.5520646,149 47,148.552463 47,148.007029 L47,129.992971 C47,129.443145 46.5564721,129 46.0030587,129 L7.99694132,129 C7.44793545,129 7,129.447537 7,129.992971 L7,129.992971 Z M0,129.992971 C0,125.578575 3.58491065,122 7.99694132,122 L46.0030587,122 C50.4196474,122 54,125.574334 54,129.992971 L54,148.007029 C54,152.421425 50.4150894,156 46.0030587,156 L7.99694132,156 C3.58035259,156 0,152.425666 0,148.007029 L0,129.992971 L0,129.992971 Z" id="Rectangle-2" fill="#000000"></path>
            <path d="M70,129.992971 L70,129.992971 L70,148.007029 C70,148.556855 70.4435279,149 70.9969413,149 L109.003059,149 C109.552065,149 110,148.552463 110,148.007029 L110,129.992971 C110,129.443145 109.556472,129 109.003059,129 L70.9969413,129 C70.4479354,129 70,129.447537 70,129.992971 L70,129.992971 Z M63,129.992971 C63,125.578575 66.5849106,122 70.9969413,122 L109.003059,122 C113.419647,122 117,125.574334 117,129.992971 L117,148.007029 C117,152.421425 113.415089,156 109.003059,156 L70.9969413,156 C66.5803526,156 63,152.425666 63,148.007029 L63,129.992971 L63,129.992971 Z" id="Rectangle-2" fill="#000000"></path>
            <path d="M51,29.0028462 L51,29.0028462 L51,77.9971538 C51,78.5484552 51.4514751,79 52.0045615,79 L128.703182,79 C129.261602,79 129.707743,78.5537111 129.707743,77.9971538 L129.707743,29.0028462 C129.707743,28.4515448 129.256268,28 128.703182,28 L52.0045615,28 C51.4461412,28 51,28.4462889 51,29.0028462 L51,29.0028462 Z M44,29.0028462 C44,24.5829963 47.5774479,21 52.0045615,21 L128.703182,21 C133.123979,21 136.707743,24.5872694 136.707743,29.0028462 L136.707743,77.9971538 C136.707743,82.4170037 133.130295,86 128.703182,86 L52.0045615,86 C47.5837642,86 44,82.4127306 44,77.9971538 L44,29.0028462 L44,29.0028462 Z" id="Rectangle-2" fill="#000000"></path>
            <path d="M133,129.992971 L133,129.992971 L133,148.007029 C133,148.556855 133.443528,149 133.996941,149 L172.003059,149 C172.552065,149 173,148.552463 173,148.007029 L173,129.992971 C173,129.443145 172.556472,129 172.003059,129 L133.996941,129 C133.447935,129 133,129.447537 133,129.992971 L133,129.992971 Z M126,129.992971 C126,125.578575 129.584911,122 133.996941,122 L172.003059,122 C176.419647,122 180,125.574334 180,129.992971 L180,148.007029 C180,152.421425 176.415089,156 172.003059,156 L133.996941,156 C129.580353,156 126,152.425666 126,148.007029 L126,129.992971 L126,129.992971 Z" id="Rectangle-2" fill="#000000"></path>
            <path d="M67.5,48 L113.5,48 C115.432997,48 117,46.4329966 117,44.5 C117,42.5670034 115.432997,41 113.5,41 L67.5,41 C65.5670034,41 64,42.5670034 64,44.5 C64,46.4329966 65.5670034,48 67.5,48 L67.5,48 Z" id="Line" fill="#000000"></path>
            <path d="M67.5,65 L113.5,65 C115.432997,65 117,63.4329966 117,61.5 C117,59.5670034 115.432997,58 113.5,58 L67.5,58 C65.5670034,58 64,59.5670034 64,61.5 C64,63.4329966 65.5670034,65 67.5,65 L67.5,65 Z" id="Line" fill="#000000"></path>
            <path d="M31.5,124.5 L31.5,111.5 L31.5,111.383463 L31.4922481,111.267183 C31.4948195,111.309603 31.4948195,111.309603 31.4950654,111.316788 C31.4770304,110.804214 31.5960512,110.009136 31.9429952,109.315248 C32.5194355,108.162367 33.6013014,107.5 36,107.5 L144.5,107.5 L144.658764,107.5 L144.816875,107.485626 C144.808322,107.486404 144.833773,107.484593 144.889776,107.481816 C145.298303,107.461559 145.829264,107.468985 146.426081,107.526432 C147.265951,107.607275 148.077819,107.775248 148.803899,108.039277 C150.924171,108.810285 151.999999,110.179521 151.999999,113 C151.999999,119.375 151.999999,119.375 151.999999,122.250001 C152,123.875001 152,123.875001 152,124.000004 L159,123.999996 C159,123.874999 159,123.874999 158.999999,122.249999 C158.999999,119.375 158.999999,119.375 158.999999,113 C158.999999,107.070479 155.950827,103.189715 151.1961,101.460723 C148.871025,100.615241 146.543578,100.391209 144.543094,100.490406 C144.389028,100.498046 144.268067,100.506652 144.183125,100.514374 L144.5,100.5 L36,100.5 C30.9611986,100.5 27.4493145,102.650133 25.6820048,106.184752 C24.726577,108.095608 24.4438491,109.984276 24.4993944,111.562932 C24.5037955,111.669622 24.5037955,111.669622 24.5077519,111.732817 L24.5,111.5 L24.5,124.5 L31.5,124.5 L31.5,124.5 Z" id="Path-207" fill="#111111"></path>
            <path d="M95,125.5 L95,83.5 L95,80 L88,80 L88,83.5 L88,125.5 L88,129 L95,129 L95,125.5 L95,125.5 Z" id="Line" fill="#050505"></path>
        </g>
    </g>
</svg>