<?xml version="1.0" encoding="UTF-8"?>
<svg width="128px" height="128px" viewBox="0 0 128 128" version="1.1" xmlns="http://www.w3.org/2000/svg" xmlns:xlink="http://www.w3.org/1999/xlink">
    <!-- Generator: Sketch 47.1 (45422) - http://www.bohemiancoding.com/sketch -->
    <title>category</title>
    <desc>Created with Sketch.</desc>
    <defs></defs>
    <g id="iconos" stroke="none" stroke-width="1" fill="none" fill-rule="evenodd">
        <g id="category" fill-rule="nonzero" fill="#000000">
            <path d="M64,47 C53.5065898,47 45,38.4934102 45,28 C45,17.5065898 53.5065898,9 64,9 C74.4934102,9 83,17.5065898 83,28 C83,38.4934102 74.4934102,47 64,47 Z M64,37 C68.9705627,37 73,32.9705627 73,28 C73,23.0294373 68.9705627,19 64,19 C59.0294373,19 55,23.0294373 55,28 C55,32.9705627 59.0294373,37 64,37 Z" id="Oval-13"></path>
            <path d="M19,119 C8.50658975,119 0,110.49341 0,100 C0,89.5065898 8.50658975,81 19,81 C29.4934102,81 38,89.5065898 38,100 C38,110.49341 29.4934102,119 19,119 Z M19,109 C23.9705627,109 28,104.970563 28,100 C28,95.0294373 23.9705627,91 19,91 C14.0294373,91 10,95.0294373 10,100 C10,104.970563 14.0294373,109 19,109 Z" id="Oval-13-Copy"></path>
            <path d="M64,119 C53.5065898,119 45,110.49341 45,100 C45,89.5065898 53.5065898,81 64,81 C74.4934102,81 83,89.5065898 83,100 C83,110.49341 74.4934102,119 64,119 Z M64,109 C68.9705627,109 73,104.970563 73,100 C73,95.0294373 68.9705627,91 64,91 C59.0294373,91 55,95.0294373 55,100 C55,104.970563 59.0294373,109 64,109 Z" id="Oval-13-Copy-2"></path>
            <path d="M109,119 C98.5065898,119 90,110.49341 90,100 C90,89.5065898 98.5065898,81 109,81 C119.49341,81 128,89.5065898 128,100 C128,110.49341 119.49341,119 109,119 Z M109,109 C113.970563,109 118,104.970563 118,100 C118,95.0294373 113.970563,91 109,91 C104.029437,91 100,95.0294373 100,100 C100,104.970563 104.029437,109 109,109 Z" id="Oval-13-Copy-3"></path>
            <path d="M68,82 L68,46 C68,43.2385763 66.209139,41 64,41 C61.790861,41 60,43.2385763 60,46 L60,82 C60,84.7614237 61.790861,87 64,87 C66.209139,87 68,84.7614237 68,82 Z" id="Line"></path>
            <path d="M23,85.3395098 L23,72 C23,68.6672664 25.610516,66 28.787234,66 L101.212766,66 C104.389484,66 107,68.6672664 107,72 L107,85.2474354 L115,85.2474354 L115,72 C115,64.2870386 108.846728,58 101.212766,58 L28.787234,58 C21.1532718,58 15,64.2870386 15,72 L15,85.3395098 L23,85.3395098 Z" id="Rectangle-28"></path>
        </g>
    </g>
</svg>