<?xml version="1.0" encoding="utf-8"?>
<!-- Generator: Adobe Illustrator 19.2.0, SVG Export Plug-In . SVG Version: 6.00 Build 0)  -->
<svg version="1.1" id="Capa_1" xmlns="http://www.w3.org/2000/svg" xmlns:xlink="http://www.w3.org/1999/xlink" x="0px" y="0px"
	 viewBox="0 0 32 32" style="enable-background:new 0 0 32 32;" xml:space="preserve">
<style type="text/css">
	.st0{fill:#010202;}
</style>
<path class="st0" d="M30,20.9v-2.6c0-1.6-1.3-3.3-2.9-3.3H17v-3.3c2.2-0.4,3.9-2.3,3.9-4.6c0-2.6-2.1-4.7-4.7-4.7s-4.7,2.1-4.7,4.7
	c0,2.2,1.5,4,3.5,4.5V15H4.7C3,15,2,16.7,2,18.3V21c-2,0.5-3.6,2.3-3.6,4.5c0,2.6,2.1,4.7,4.7,4.7c2.6,0,4.7-2.1,4.7-4.7
	c0-2.3-1.6-4.2-3.8-4.6v-2.6C4,17.8,4.1,17,4.7,17H15v3.9c-2.1,0.5-3.7,2.3-3.7,4.6c0,2.6,2.1,4.7,4.7,4.7s4.7-2.1,4.7-4.7
	c0-2.2-1.6-4.1-3.7-4.6V17h10.1c0.5,0,0.9,0.8,0.9,1.3V21c-2,0.5-3.5,2.3-3.5,4.5c0,2.6,2.1,4.7,4.7,4.7s4.7-2.1,4.7-4.7
	C33.8,23.2,32.2,21.3,30,20.9z M13,7.1c0-1.8,1.4-3.2,3.2-3.2s3.2,1.4,3.2,3.2c0,1.8-1.4,3.2-3.2,3.2S13,8.8,13,7.1z M6.3,25.5
	c0,1.8-1.4,3.2-3.2,3.2c-1.8,0-3.2-1.4-3.2-3.2c0-1.8,1.4-3.2,3.2-3.2C4.9,22.3,6.3,23.8,6.3,25.5z M19.2,25.5
	c0,1.8-1.4,3.2-3.2,3.2s-3.2-1.4-3.2-3.2c0-1.8,1.4-3.2,3.2-3.2S19.2,23.8,19.2,25.5z M29.2,28.7c-1.8,0-3.2-1.4-3.2-3.2
	c0-1.8,1.4-3.2,3.2-3.2s3.2,1.4,3.2,3.2C32.3,27.3,30.9,28.7,29.2,28.7z"/>
</svg>
