<?xml version="1.0" encoding="utf-8"?>
<!-- Generator: Adobe Illustrator 19.2.0, SVG Export Plug-In . SVG Version: 6.00 Build 0)  -->
<svg version="1.1" id="Capa_1" xmlns="http://www.w3.org/2000/svg" xmlns:xlink="http://www.w3.org/1999/xlink" x="0px" y="0px"
	 viewBox="0 0 32 32" style="enable-background:new 0 0 32 32;" xml:space="preserve">
<path d="M16,30.9c8.2,0,14.9-6.7,14.9-14.9c0-8.2-6.7-14.9-14.9-14.9C7.8,1.1,1.1,7.8,1.1,16C1.1,24.2,7.8,30.9,16,30.9L16,30.9z
	 M16,2.5c7.4,0,13.5,6,13.5,13.5s-6,13.5-13.5,13.5S2.5,23.4,2.5,16S8.6,2.5,16,2.5L16,2.5z M16,2.9 M15.3,17.6c0,0.3-0.1,0.7-0.2,1
	c-0.2,0.4-0.4,0.7-0.7,1.1c-0.3,0.4-0.8,0.7-1.3,0.9c-0.5,0.2-1.1,0.3-1.8,0.3c-0.5,0-1-0.1-1.5-0.2c-0.4-0.1-0.8-0.3-1.2-0.5
	c-0.4-0.2-0.7-0.5-1-0.8c-0.3-0.3-0.5-0.7-0.7-1.1c-0.2-0.4-0.3-0.8-0.4-1.3c-0.1-0.4-0.1-0.9-0.1-1.4c0-0.8,0.1-1.5,0.4-2.2
	c0.2-0.6,0.6-1.2,1-1.6c0.4-0.5,1-0.8,1.5-1c0.6-0.2,1.2-0.4,1.9-0.4c0.8,0,1.5,0.2,2.2,0.5c0.6,0.3,1.1,0.7,1.5,1.2
	c0.3,0.5,0.5,0.9,0.5,1.4c0,0.2-0.1,0.4-0.2,0.6s-0.4,0.3-0.6,0.3c-0.3,0-0.5-0.1-0.6-0.2c-0.1-0.1-0.3-0.3-0.4-0.6
	c-0.3-0.5-0.6-0.9-0.9-1.1c-0.4-0.2-0.8-0.4-1.3-0.4c-0.8,0-1.5,0.3-2,1c-0.5,0.6-0.7,1.5-0.7,2.7c0,0.8,0.1,1.4,0.3,2
	c0.2,0.5,0.5,0.9,0.9,1.2c0.4,0.3,0.9,0.4,1.4,0.4c0.6,0,1.1-0.1,1.5-0.4c0.4-0.3,0.7-0.7,0.9-1.3c0.1-0.3,0.2-0.5,0.3-0.6
	c0.1-0.2,0.3-0.3,0.6-0.3c0.2,0,0.5,0.1,0.6,0.3C15.2,17.2,15.3,17.4,15.3,17.6z M25.7,17.6c0,0.3-0.1,0.7-0.2,1
	c-0.2,0.4-0.4,0.7-0.7,1.1c-0.3,0.4-0.8,0.7-1.3,0.9c-0.5,0.2-1.1,0.3-1.8,0.3c-0.5,0-1-0.1-1.5-0.2c-0.4-0.1-0.8-0.3-1.2-0.5
	c-0.4-0.2-0.7-0.5-1-0.8c-0.3-0.3-0.5-0.7-0.7-1.1c-0.2-0.4-0.3-0.8-0.4-1.3c-0.1-0.4-0.1-0.9-0.1-1.4c0-0.8,0.1-1.5,0.4-2.2
	c0.2-0.6,0.6-1.2,1-1.6c0.4-0.5,1-0.8,1.5-1c0.6-0.2,1.2-0.4,1.9-0.4c0.8,0,1.5,0.2,2.2,0.5c0.6,0.3,1.1,0.7,1.5,1.2
	c0.3,0.5,0.5,0.9,0.5,1.4c0,0.2-0.1,0.4-0.2,0.6c-0.2,0.2-0.4,0.3-0.6,0.3c-0.3,0-0.5-0.1-0.6-0.2c-0.1-0.1-0.3-0.3-0.4-0.6
	c-0.3-0.5-0.6-0.9-0.9-1.1c-0.4-0.2-0.8-0.4-1.3-0.4c-0.8,0-1.5,0.3-2,1c-0.5,0.6-0.7,1.5-0.7,2.7c0,0.8,0.1,1.4,0.3,2
	c0.2,0.5,0.5,0.9,0.9,1.2c0.4,0.3,0.9,0.4,1.4,0.4c0.6,0,1.1-0.1,1.5-0.4c0.4-0.3,0.7-0.7,0.9-1.3c0.1-0.3,0.2-0.5,0.3-0.6
	c0.1-0.2,0.3-0.3,0.6-0.3c0.2,0,0.5,0.1,0.6,0.3C25.6,17.2,25.7,17.4,25.7,17.6z"/>
</svg>
