<?xml version="1.0" encoding="UTF-8"?>
<svg width="128px" height="128px" viewBox="0 0 128 128" version="1.1" xmlns="http://www.w3.org/2000/svg" xmlns:xlink="http://www.w3.org/1999/xlink">
    <!-- Generator: Sketch 47.1 (45422) - http://www.bohemiancoding.com/sketch -->
    <title>channels</title>
    <desc>Created with Sketch.</desc>
    <defs></defs>
    <g id="iconos" stroke="none" stroke-width="1" fill="none" fill-rule="evenodd">
        <g id="channels">
            <g id="Group" transform="translate(79.000000, 79.000000)"></g>
            <path d="M32.9334375,39.7476228 L40.2523772,32.9334375 L60.5665625,54.7523772 L53.2476228,61.5665625 L32.9334375,39.7476228 Z M89.7173833,32.9345823 L97.0654177,39.7173833 L78.2826167,60.0654177 L70.9345823,53.2826167 L89.7173833,32.9345823 Z M41,96.0710678 L33.9289322,89 L54.5,68.4289322 L61.5710678,75.5 L41,96.0710678 Z M95.0710678,88 L88,95.0710678 L68.4289322,75.5 L75.5,68.4289322 L95.0710678,88 Z" id="Combined-Shape" fill="#000000" fill-rule="nonzero"></path>
            <path d="M25.5,49 C11.9690236,49 1,38.0309764 1,24.5 C1,10.9690236 11.9690236,0 25.5,0 C39.0309764,0 50,10.9690236 50,24.5 C50,38.0309764 39.0309764,49 25.5,49 Z M25.5,39 C33.5081289,39 40,32.5081289 40,24.5 C40,16.4918711 33.5081289,10 25.5,10 C17.4918711,10 11,16.4918711 11,24.5 C11,32.5081289 17.4918711,39 25.5,39 Z" id="Oval-20" fill="#000000" fill-rule="nonzero"></path>
            <path d="M103.5,49 C89.9690236,49 79,38.0309764 79,24.5 C79,10.9690236 89.9690236,0 103.5,0 C117.030976,0 128,10.9690236 128,24.5 C128,38.0309764 117.030976,49 103.5,49 Z M103.5,39 C111.508129,39 118,32.5081289 118,24.5 C118,16.4918711 111.508129,10 103.5,10 C95.4918711,10 89,16.4918711 89,24.5 C89,32.5081289 95.4918711,39 103.5,39 Z" id="Oval-20" fill="#000000" fill-rule="nonzero"></path>
            <path d="M65,85 C53.954305,85 45,76.045695 45,65 C45,53.954305 53.954305,45 65,45 C76.045695,45 85,53.954305 85,65 C85,76.045695 76.045695,85 65,85 Z M65,75 C70.5228475,75 75,70.5228475 75,65 C75,59.4771525 70.5228475,55 65,55 C59.4771525,55 55,59.4771525 55,65 C55,70.5228475 59.4771525,75 65,75 Z" id="Oval-20-Copy" fill="#000000" fill-rule="nonzero"></path>
            <path d="M25.5,128 C11.9690236,128 1,117.030976 1,103.5 C1,89.9690236 11.9690236,79 25.5,79 C39.0309764,79 50,89.9690236 50,103.5 C50,117.030976 39.0309764,128 25.5,128 Z M25.5,118 C33.5081289,118 40,111.508129 40,103.5 C40,95.4918711 33.5081289,89 25.5,89 C17.4918711,89 11,95.4918711 11,103.5 C11,111.508129 17.4918711,118 25.5,118 Z" id="Oval-20" fill="#000000" fill-rule="nonzero"></path>
            <path d="M103.5,128 C89.9690236,128 79,117.030976 79,103.5 C79,89.9690236 89.9690236,79 103.5,79 C117.030976,79 128,89.9690236 128,103.5 C128,117.030976 117.030976,128 103.5,128 Z M103.5,118 C111.508129,118 118,111.508129 118,103.5 C118,95.4918711 111.508129,89 103.5,89 C95.4918711,89 89,95.4918711 89,103.5 C89,111.508129 95.4918711,118 103.5,118 Z" id="Oval-20" fill="#000000" fill-rule="nonzero"></path>
        </g>
    </g>
</svg>