<?xml version="1.0" encoding="UTF-8"?>
<svg width="152px" height="152px" viewBox="0 0 152 152" version="1.1" xmlns="http://www.w3.org/2000/svg" xmlns:xlink="http://www.w3.org/1999/xlink">
    <!-- Generator: Sketch 43.1 (39012) - http://www.bohemiancoding.com/sketch -->
    <title>checked</title>
    <desc>Created with Sketch.</desc>
    <defs></defs>
    <g id="Page-1" stroke="none" stroke-width="1" fill="none" fill-rule="evenodd">
        <g id="checked" fill-rule="nonzero" fill="#000000">
            <path d="M125,33.3701172 C125,38.3406799 131.682131,40.5090438 134,34.7817412 L134,27.0075834 C134,22.5731795 130.420394,19 126.004727,19 L26.9952732,19 C22.5837355,19 19,22.5796057 19,26.9952732 L19,126.004727 C19,130.416265 22.5796057,134 26.9952732,134 L126.004727,134 C130.416265,134 134,130.417989 134,125.999354 L134,79.1083984 C132.478017,72.4929986 125,74.1378357 125,79.1083984 L125,125 L28,125 L28,28 L125,28 L125,33.3701172 Z" id="Rectangle-8"></path>
            <path d="M57.4838243,73.794299 C56.2618738,71.3179512 53.2638108,70.3010612 50.787463,71.5230117 C48.3111153,72.7449621 47.2942253,75.7430251 48.5161757,78.2193729 L63.2271132,108.031873 C64.6423403,110.899906 68.3491809,111.720279 70.8424395,109.717245 L144.057283,50.8979091 C146.210039,49.1684284 146.553171,46.0212538 144.82369,43.868498 C143.09421,41.7157423 139.947035,41.3726101 137.794279,43.1020909 L69.4373214,98.0186988 L57.4838243,73.794299 Z" id="Path-4"></path>
        </g>
    </g>
</svg>