<?xml version="1.0" encoding="UTF-8"?>
<svg width="128px" height="128px" viewBox="0 0 128 128" version="1.1" xmlns="http://www.w3.org/2000/svg" xmlns:xlink="http://www.w3.org/1999/xlink">
    <!-- Generator: Sketch 47.1 (45422) - http://www.bohemiancoding.com/sketch -->
    <title>checkmark-circle</title>
    <desc>Created with Sketch.</desc>
    <defs></defs>
    <g id="iconos" stroke="none" stroke-width="1" fill="none" fill-rule="evenodd">
        <g id="checkmark-circle" fill-rule="nonzero" fill="#000000">
            <path d="M64.5,126 C29.9822031,126 2,98.0177969 2,63.5 C2,28.9822031 29.9822031,1 64.5,1 C99.0177969,1 127,28.9822031 127,63.5 C127,98.0177969 99.0177969,126 64.5,126 Z M64.5,116 C93.4949494,116 117,92.4949494 117,63.5 C117,34.5050506 93.4949494,11 64.5,11 C35.5050506,11 12,34.5050506 12,63.5 C12,92.4949494 35.5050506,116 64.5,116 Z" id="Oval"></path>
            <path d="M49.4444442,77.0008594 L32.4460906,59.7229143 C30.5094611,57.7544308 27.3437415,57.728608 25.375258,59.6652375 C23.4067745,61.601867 23.3809518,64.7675866 25.3175813,66.7360701 L45.8009797,87.5563826 C47.7291795,89.5162977 50.8780363,89.5516818 52.8497913,87.635591 L98.3038928,43.4646925 C100.284268,41.5402249 100.32959,38.3747245 98.4051222,36.3943494 C96.4806546,34.4139743 93.3151541,34.3686523 91.3347791,36.29312 L49.4444442,77.0008594 Z" id="Path-34"></path>
        </g>
    </g>
</svg>