<?xml version="1.0" encoding="UTF-8"?>
<svg width="128px" height="128px" viewBox="0 0 128 128" version="1.1" xmlns="http://www.w3.org/2000/svg" xmlns:xlink="http://www.w3.org/1999/xlink">
    <!-- Generator: Sketch 47.1 (45422) - http://www.bohemiancoding.com/sketch -->
    <title>classification</title>
    <desc>Created with Sketch.</desc>
    <defs></defs>
    <g id="iconos" stroke="none" stroke-width="1" fill="none" fill-rule="evenodd">
        <g id="classification" fill="#000000">
            <path d="M24.6468603,17 C24.6468603,7.61115925 32.2580196,1.25825276e-15 41.6468603,0 L110.64686,0 C120.035701,-1.25825276e-15 127.64686,7.61115925 127.64686,17 L127.64686,111 C127.64686,120.388841 120.035701,128 110.64686,128 C76.089826,128 50.1720503,128 32.8935332,128 C32.372307,128 31.5904677,128 30.5480152,128 C10.8951917,128 0.0659519942,118.114832 0.0659519942,99.7394125 C0.0659519942,76.5106644 0.0659519942,76.4670746 0.0659519942,53.2782789 C-0.831652502,35.7190226 7.86535535,25.9846465 24.5482899,26.3556068 C24.5702494,26.3560951 24.6031062,23.2375595 24.6468603,17 Z M9.06595199,49.8148524 C9.06595199,50.4774495 9.06595199,67.1189695 9.06595199,99.7394125 C9.06595199,112.37811 16.2247545,118 30.5480152,118 L110.64686,118 C114.512854,118 117.64686,114.865993 117.64686,111 L117.64686,17 C117.64686,13.1340068 114.512854,10 110.64686,10 L41.6468603,10 C37.7808671,10 34.6468603,13.1340068 34.6468603,17 L34.6468603,96.3814423 C34.6468603,101.418864 34.7177242,104.560799 29.009285,104.560799 C23.3008457,104.560799 23.4900575,99.142866 23.4900575,96.3814423 C23.4900575,94.5001171 23.4900575,92.7929839 23.4900575,91.2600428 C23.4900575,83.9273282 23.4900575,62.9712469 23.4900575,59.8163899 C23.4900575,56.6202391 24.4970614,36.3474595 23.4900575,36.422544 C15.0161344,37.0543785 9.06595199,38.3629808 9.06595199,49.8148524 Z" id="Rectangle-2" fill-rule="nonzero"></path>
            <path d="M76,40.5 L96,40.5 C102.351275,40.5 107.5,45.6487254 107.5,52 L107.5,70 C107.5,76.3512746 102.351275,81.5 96,81.5 L76,81.5 C69.6487254,81.5 64.5,76.3512746 64.5,70 L64.5,52 C64.5,45.6487254 69.6487254,40.5 76,40.5 Z M76,47.5 C73.5147186,47.5 71.5,49.5147186 71.5,52 L71.5,70 C71.5,72.4852814 73.5147186,74.5 76,74.5 L96,74.5 C98.4852814,74.5 100.5,72.4852814 100.5,70 L100.5,52 C100.5,49.5147186 98.4852814,47.5 96,47.5 L76,47.5 Z M82,54 L90,54 C92.209139,54 94,55.790861 94,58 L94,64 C94,66.209139 92.209139,68 90,68 L82,68 L82,68 C79.790861,68 78,66.209139 78,64 L78,58 C78,55.790861 79.790861,54 82,54 Z" id="Path"></path>
            <path d="M50,32 L104,32 C106.761424,32 109,30.4329966 109,28.5 C109,26.5670034 106.761424,25 104,25 L50,25 C47.2385763,25 45,26.5670034 45,28.5 C45,30.4329966 47.2385763,32 50,32 Z" id="Line" fill-rule="nonzero"></path>
            <path d="M47.8361003,54.1666667 L55.777181,54.1666667 C57.3435159,54.1666667 58.6132813,52.5996633 58.6132813,50.6666667 C58.6132813,48.73367 57.3435159,47.1666667 55.777181,47.1666667 L47.8361003,47.1666667 C46.2697653,47.1666667 45,48.73367 45,50.6666667 C45,52.5996633 46.2697653,54.1666667 47.8361003,54.1666667 Z" id="Line" fill-rule="nonzero"></path>
            <path d="M47.8361003,76.3333333 L55.777181,76.3333333 C57.3435159,76.3333333 58.6132813,74.76633 58.6132813,72.8333333 C58.6132813,70.9003367 57.3435159,69.3333333 55.777181,69.3333333 L47.8361003,69.3333333 C46.2697653,69.3333333 45,70.9003367 45,72.8333333 C45,74.76633 46.2697653,76.3333333 47.8361003,76.3333333 Z" id="Line" fill-rule="nonzero"></path>
            <path d="M50,98.5 L104,98.5 C106.761424,98.5 109,96.9329966 109,95 C109,93.0670034 106.761424,91.5 104,91.5 L50,91.5 C47.2385763,91.5 45,93.0670034 45,95 C45,96.9329966 47.2385763,98.5 50,98.5 Z" id="Line" fill-rule="nonzero"></path>
        </g>
    </g>
</svg>