<?xml version="1.0" encoding="UTF-8"?>
<svg width="128px" height="128px" viewBox="0 0 128 128" version="1.1" xmlns="http://www.w3.org/2000/svg" xmlns:xlink="http://www.w3.org/1999/xlink">
    <!-- Generator: Sketch 47.1 (45422) - http://www.bohemiancoding.com/sketch -->
    <title>classification</title>
    <desc>Created with Sketch.</desc>
    <defs></defs>
    <g id="iconos" stroke="none" stroke-width="1" fill="none" fill-rule="evenodd">
        <g id="classification" fill="#000000">
            <path d="M24.6468603,17 C24.6468603,7.61115925 32.2580196,1.25825276e-15 41.6468603,0 L110.64686,0 C120.035701,-1.25825276e-15 127.64686,7.61115925 127.64686,17 L127.64686,111 C127.64686,120.388841 120.035701,128 110.64686,128 C76.089826,128 50.1720503,128 32.8935332,128 C32.372307,128 31.5904677,128 30.5480152,128 C10.8951917,128 0.0659519942,118.114832 0.0659519942,99.7394125 C0.0659519942,76.5106644 0.0659519942,76.4670746 0.0659519942,53.2782789 C-0.831652502,35.7190226 7.86535535,25.9846465 24.5482899,26.3556068 C24.5702494,26.3560951 24.6031062,23.2375595 24.6468603,17 Z M9.06595199,49.8148524 C9.06595199,50.4774495 9.06595199,67.1189695 9.06595199,99.7394125 C9.06595199,112.37811 16.2247545,118 30.5480152,118 L110.64686,118 C114.512854,118 117.64686,114.865993 117.64686,111 L117.64686,17 C117.64686,13.1340068 114.512854,10 110.64686,10 L41.6468603,10 C37.7808671,10 34.6468603,13.1340068 34.6468603,17 L34.6468603,96.3814423 C34.6468603,101.418864 34.7177242,104.560799 29.009285,104.560799 C23.3008457,104.560799 23.4900575,99.142866 23.4900575,96.3814423 C23.4900575,94.5001171 23.4900575,92.7929839 23.4900575,91.2600428 C23.4900575,83.9273282 23.4900575,62.9712469 23.4900575,59.8163899 C23.4900575,56.6202391 24.4970614,36.3474595 23.4900575,36.422544 C15.0161344,37.0543785 9.06595199,38.3629808 9.06595199,49.8148524 Z" id="Rectangle-2" fill-rule="nonzero"></path>
            <path d="M73.4360465,37.5 L95.0639535,37.5 C101.932192,37.5 107.5,43.339408 107.5,50.5426829 L107.5,70.9573171 C107.5,78.160592 101.932192,84 95.0639535,84 L73.4360465,84 C66.5678077,84 61,78.160592 61,70.9573171 L61,50.5426829 C61,43.339408 66.5678077,37.5 73.4360465,37.5 Z M72.751292,44.4695122 C69.8935395,44.4695122 67.5768734,46.8991864 67.5768734,49.8963415 L67.5768734,71.6036585 C67.5768734,74.6008136 69.8935395,77.0304878 72.751292,77.0304878 L95.748708,77.0304878 C98.6064605,77.0304878 100.923127,74.6008136 100.923127,71.6036585 L100.923127,49.8963415 C100.923127,46.8991864 98.6064605,44.4695122 95.748708,44.4695122 L72.751292,44.4695122 Z M80.519103,53.6554878 L87.980897,53.6554878 C90.190036,53.6554878 91.980897,55.4463488 91.980897,57.6554878 L91.980897,63.8445122 C91.980897,66.0536512 90.190036,67.8445122 87.980897,67.8445122 L80.519103,67.8445122 C78.309964,67.8445122 76.519103,66.0536512 76.519103,63.8445122 L76.519103,57.6554878 C76.519103,55.4463488 78.309964,53.6554878 80.519103,53.6554878 L80.519103,53.6554878 Z" id="Path"></path>
            <path d="M50,28 L104,28 C106.761424,28 109,26.4329966 109,24.5 C109,22.5670034 106.761424,21 104,21 L50,21 C47.2385763,21 45,22.5670034 45,24.5 C45,26.4329966 47.2385763,28 50,28 Z" id="Line" fill-rule="nonzero"></path>
            <path d="M47.2703044,45 L53.6271566,45 C54.8810111,45 55.8974609,43.4329966 55.8974609,41.5 C55.8974609,39.5670034 54.8810111,38 53.6271566,38 L47.2703044,38 C46.0164499,38 45,39.5670034 45,41.5 C45,43.4329966 46.0164499,45 47.2703044,45 Z" id="Line" fill-rule="nonzero"></path>
            <path d="M47.2703044,65 L53.6271566,65 C54.8810111,65 55.8974609,63.4329966 55.8974609,61.5 C55.8974609,59.5670034 54.8810111,58 53.6271566,58 L47.2703044,58 C46.0164499,58 45,59.5670034 45,61.5 C45,63.4329966 46.0164499,65 47.2703044,65 Z" id="Line" fill-rule="nonzero"></path>
            <path d="M47.2703044,84 L53.6271566,84 C54.8810111,84 55.8974609,82.4329966 55.8974609,80.5 C55.8974609,78.5670034 54.8810111,77 53.6271566,77 L47.2703044,77 C46.0164499,77 45,78.5670034 45,80.5 C45,82.4329966 46.0164499,84 47.2703044,84 Z" id="Line" fill-rule="nonzero"></path>
            <path d="M50,101.5 L104,101.5 C106.761424,101.5 109,99.9329966 109,98 C109,96.0670034 106.761424,94.5 104,94.5 L50,94.5 C47.2385763,94.5 45,96.0670034 45,98 C45,99.9329966 47.2385763,101.5 50,101.5 Z" id="Line" fill-rule="nonzero"></path>
        </g>
    </g>
</svg>