<?xml version="1.0" encoding="UTF-8"?>
<svg width="180px" height="180px" viewBox="0 0 180 180" version="1.1" xmlns="http://www.w3.org/2000/svg" xmlns:xlink="http://www.w3.org/1999/xlink">
    <!-- Generator: Sketch 43.2 (39069) - http://www.bohemiancoding.com/sketch -->
    <title>clients</title>
    <desc>Created with Sketch.</desc>
    <defs></defs>
    <g id="iconos" stroke="none" stroke-width="1" fill="none" fill-rule="evenodd">
        <g id="clients" fill="#000000">
            <path d="M89.8684657,86.6240394 L89.8684657,86.6240394 C79.9440364,86.7067165 70.3630897,82.8660375 63.0804133,75.8856109 C56.162935,69.3993661 52.2486175,60.1647603 52.3213166,50.502893 C52.3940157,40.8410257 56.4468183,31.6706698 63.4610606,25.2967757 C70.7000049,18.5818607 80.1015738,14.9099819 89.8208848,15.0016768 L90.1063703,15.0016768 C99.9341237,14.9842207 109.403526,18.8210753 116.608937,25.7401053 C123.525191,32.2785781 127.419551,41.5604334 127.314642,51.2561877 C127.124318,70.9597262 110.280676,86.6240394 89.8208848,86.6240394 L89.8684657,86.6240394 Z M89.8684657,22.5875392 C82.149546,22.5173402 74.6834438,25.4334295 68.9328653,30.7645077 C63.4049382,35.8146091 60.1771116,43.0340149 60.0352351,50.6650816 L60.0352351,50.6650816 C59.9364924,58.3702116 63.0175002,65.7530185 68.5046371,70.9597262 C74.2459355,76.4369713 81.7757541,79.463611 89.5829803,79.4322478 L89.5829803,79.4322478 C105.362843,80.1584694 118.760549,67.5851894 119.606535,51.2561877 C119.767759,43.5644155 116.756786,36.1656531 111.327456,30.9122842 C105.608023,25.4244886 98.0948313,22.3801022 90.2966939,22.3905038 L89.8208848,22.3905038 L89.8684657,22.5875392 Z" id="e5Cc57"></path>
            <path d="M48.0034476,67.339153 C48.0705481,67.3182391 48.0453956,67.3242918 47.9342569,67.3426618 C47.0206243,67.4936755 45.7474149,67.4600284 44.1600784,67.0645094 C41.7083948,66.4536198 39.0389191,65.0891442 36.1911862,62.7434853 C24.5884524,53.1863901 12.5602778,57.8429467 4.62980293,74.8733991 C0.539489074,83.657223 -0.713067812,93.4986613 1.57714502,101.297742 C4.31058971,110.606203 11.731871,116.205616 22.6641933,116.205616 C24.8733323,116.205616 26.6641933,114.414755 26.6641933,112.205616 C26.6641933,109.996477 24.8733323,108.205616 22.6641933,108.205616 C15.2944303,108.205616 10.9896753,104.957646 9.25303663,99.0437039 C7.55710578,93.2683884 8.56070995,85.3829913 11.8820511,78.2505126 C17.8119886,65.5161533 24.0449211,63.1031518 31.1049248,68.9184303 C37.8650471,74.4866984 44.2078473,76.0671433 49.23887,75.235569 C49.7228386,75.1555742 50.1064517,75.063262 50.3839486,74.9767714 C52.4930187,74.3194142 53.6698645,72.0767818 53.0125073,69.9677117 C52.3551501,67.8586416 50.1125177,66.6817958 48.0034476,67.339153 L48.0034476,67.339153 Z" id="Path-175" fill-rule="nonzero"></path>
            <path d="M68.5855314,11.1054443 C68.30565,10.7095289 67.8246687,10.1113067 67.140578,9.37846682 C66.0401618,8.19963355 64.7354937,7.02923863 63.2225715,5.93813109 C55.9327848,0.680794437 46.6884973,-0.915530737 35.9270601,3.31169917 L35.7513298,3.38072827 L35.5840449,3.46826077 C29.0968465,6.86271512 24.6661975,11.3480005 22.1227491,16.6518791 C19.2089869,22.727977 19.0133647,29.1040029 20.3995557,34.9978186 C20.7080057,36.309288 21.027036,37.2970844 21.2652412,37.8969964 L21.1888852,37.6850502 C21.3787331,38.2704592 21.7440751,39.165277 22.3186232,40.2696066 C23.2512937,42.0622774 24.4604391,43.8481959 25.9858935,45.5204639 C30.3624946,50.3182804 36.4172633,53.2180442 44.1887146,53.2180442 C46.1217112,53.2180441 47.6887146,51.6510408 47.6887146,49.7180441 C47.6887145,47.7850475 46.1217111,46.2180441 44.1887145,46.2180442 C38.4693405,46.2180442 34.2567711,44.2005507 31.1574457,40.8029384 C30.0663259,39.6068063 29.1947216,38.319439 28.5284577,37.038824 C28.1436451,36.2991821 27.9234227,35.7597999 27.8474932,35.525666 L27.8127275,35.4184636 L27.7711372,35.3137198 C27.7542012,35.2710672 27.7023202,35.1275597 27.6264144,34.8925367 C27.4880622,34.4641644 27.346909,33.9618746 27.2136277,33.3951887 C26.1617273,28.9227121 26.3093775,24.1102652 28.4345305,19.6786622 C30.3126396,15.7622223 33.6562818,12.3773481 38.8293913,9.67049642 L38.4863762,9.82705803 C46.9105281,6.51794363 53.6805347,7.6870042 59.1279822,11.6156604 C60.2532664,12.4272064 61.2210286,13.2953689 62.0235631,14.1550931 C62.4812428,14.6453876 62.7651453,14.9984923 62.8695576,15.1461922 C63.9853793,16.7246148 66.1694958,17.0996269 67.7479184,15.9838051 C69.326341,14.8679834 69.7013531,12.6838669 68.5855314,11.1054443 L68.5855314,11.1054443 Z" id="Path-173" fill-rule="nonzero"></path>
            <path d="M174.561714,67.4875229 C174.628814,67.4666089 174.603662,67.4726616 174.492523,67.4910316 C173.578891,67.6420453 172.305681,67.6083982 170.718345,67.2128793 C168.266661,66.6019896 165.597185,65.237514 162.749452,62.8918552 C151.146719,53.33476 139.118544,57.9913165 131.188069,75.0217689 C127.097755,83.8055928 125.845199,93.6470312 128.135411,101.446112 C130.868856,110.754572 138.290137,116.353986 149.22246,116.353986 C151.431599,116.353986 153.22246,114.563125 153.22246,112.353986 C153.22246,110.144847 151.431599,108.353986 149.22246,108.353986 C141.852697,108.353986 137.547942,105.106016 135.811303,99.1920737 C134.115372,93.4167583 135.118976,85.5313611 138.440317,78.3988825 C144.370255,65.6645231 150.603187,63.2515217 157.663191,69.0668001 C164.423313,74.6350682 170.766114,76.2155131 175.797136,75.3839389 C176.281105,75.303944 176.664718,75.2116318 176.942215,75.1251413 C179.051285,74.4677841 180.228131,72.2251516 179.570774,70.1160816 C178.913416,68.0070115 176.670784,66.8301657 174.561714,67.4875229 L174.561714,67.4875229 Z" id="Path-175" fill-rule="nonzero" transform="translate(153.376516, 87.176993) scale(-1, 1) translate(-153.376516, -87.176993) "></path>
            <path d="M163.018787,13.2106245 C162.738906,12.814709 162.257925,12.2164869 161.573834,11.483647 C160.473418,10.3048137 159.16875,9.13441879 157.655827,8.04331126 C150.366041,2.7859746 141.121753,1.18964943 130.360316,5.41687933 L130.184586,5.48590844 L130.017301,5.57344094 C123.530102,8.96789528 119.099453,13.4531807 116.556005,18.7570592 C113.642243,24.8331572 113.44662,31.2091831 114.832812,37.1029988 C115.141261,38.4144682 115.460292,39.4022646 115.698497,40.0021766 L115.622141,39.7902304 C115.811989,40.3756393 116.177331,41.2704572 116.751879,42.3747868 C117.68455,44.1674576 118.893695,45.9533761 120.419149,47.6256441 C124.79575,52.4234606 130.850519,55.3232244 138.62197,55.3232243 C140.554967,55.3232243 142.12197,53.7562209 142.12197,51.8232243 C142.12197,49.8902277 140.554967,48.3232243 138.62197,48.3232243 C132.902596,48.3232244 128.690027,46.3057309 125.590702,42.9081185 C124.499582,41.7119865 123.627977,40.4246192 122.961713,39.1440042 C122.576901,38.4043623 122.356679,37.8649801 122.280749,37.6308462 L122.245983,37.5236438 L122.204393,37.4189 C122.187457,37.3762474 122.135576,37.2327399 122.05967,36.9977169 C121.921318,36.5693445 121.780165,36.0670548 121.646884,35.5003688 C120.594983,31.0278923 120.742633,26.2154453 122.867786,21.7838423 C124.745895,17.8674025 128.089538,14.4825283 133.262647,11.7756766 L132.919632,11.9322382 C141.343784,8.6231238 148.113791,9.79218437 153.561238,13.7208405 C154.686522,14.5323866 155.654284,15.4005491 156.456819,16.2602733 C156.914499,16.7505678 157.198401,17.1036725 157.302813,17.2513724 C158.418635,18.8297949 160.602752,19.204807 162.181174,18.0889853 C163.759597,16.9731636 164.134609,14.789047 163.018787,13.2106245 L163.018787,13.2106245 Z" id="Path-173" fill-rule="nonzero" transform="translate(138.830543, 29.161612) scale(-1, 1) translate(-138.830543, -29.161612) "></path>
            <path d="M95.5,140.728291 L105.258541,149.9128 C106.867236,151.426866 109.398734,151.350154 110.9128,149.741459 C112.426866,148.132764 112.350154,145.601266 110.741459,144.0872 L93.7522866,128.097391 C92.9668892,127.351929 91.9531094,126.986263 90.9436589,127.000394 C89.9257553,127.016974 88.9235163,127.413178 88.1610587,128.182087 L72.1715729,144.171573 C70.6094757,145.73367 70.6094757,148.26633 72.1715729,149.828427 C73.73367,151.390524 76.26633,151.390524 77.8284271,149.828427 L87.5,140.156854 L87.5,176 C87.5,178.209139 89.290861,180 91.5,180 C93.709139,180 95.5,178.209139 95.5,176 L95.5,140.728291 Z" id="Combined-Shape" fill-rule="nonzero"></path>
            <path d="M48.5264503,161.141748 C47.8998129,161.06792 47.1903071,160.952186 46.4205015,160.785928 C44.2171233,160.310057 42.0178336,159.532843 39.9965917,158.401913 C35.583302,155.932579 32.609598,152.149116 31.5275335,146.542055 C30.2160076,139.745966 31.2494596,131.460785 34.0034241,122.699468 C35.0397161,119.402663 36.2667598,116.224419 37.5313379,113.424653 C38.430386,111.434168 39.3114795,109.756091 39.5202233,109.472796 C40.2131633,108.532378 40.9346497,107.649459 41.9699467,106.578274 C43.5258932,104.968393 45.2555419,103.541095 47.1291579,102.419764 C52.0601311,99.4686511 57.2483778,98.9963249 63.0111456,101.877709 C73.6513317,107.197802 75.5166406,108.076697 78.4747578,108.985955 C81.595444,109.945182 82.7752092,110.027952 89.960002,110.0998 C93.7409435,110.137609 97.4055434,109.520022 101.299557,108.279189 C104.19521,107.356485 107.074975,106.156462 111.039937,104.296525 C111.764746,103.956522 112.512763,103.601181 113.510309,103.124073 C113.522456,103.118264 115.467623,102.186681 116.036234,101.915397 C118.127531,100.91764 119.716565,100.176091 121.336224,99.4500373 C124.872426,97.8648431 128.824184,98.9968573 133.072782,102.517465 C136.371656,105.251083 139.548363,109.366668 140.568162,111.576233 C141.843859,114.340241 142.659192,116.28625 143.632893,119.17424 C146.53701,127.787839 147.819267,136.948497 146.631223,146.401192 C145.842067,152.680129 143.468876,156.607768 140.026258,158.911057 C138.591381,159.871063 137.040077,160.492933 135.486966,160.836924 C134.576314,161.03862 133.905751,161.101023 133.614958,161.100029 L116.139023,160.90019 C113.929989,160.878639 112.121742,162.651944 112.10019,164.860977 C112.078639,167.070011 113.851944,168.878258 116.060977,168.89981 L133.560977,169.09981 C133.86513,169.100931 134.260033,169.084494 134.757018,169.038245 C135.513822,168.967816 136.338949,168.842096 137.216924,168.647638 C139.688935,168.100124 142.157474,167.110562 144.47483,165.560132 C149.868105,161.951754 153.493906,155.951041 154.568777,147.398808 C155.92241,136.628597 154.475845,126.294097 151.213623,116.61836 C150.129383,113.402508 149.217393,111.225804 147.831838,108.223767 C146.309085,104.92447 142.39293,99.850892 138.177218,96.3575352 C131.820983,91.0904302 124.869501,89.0991204 118.063776,92.1499627 C116.376444,92.9063532 114.734962,93.6723777 112.591416,94.6950619 C112.016446,94.9693801 110.065958,95.9035118 110.058545,95.9070571 C109.077503,96.3762713 108.345815,96.7238549 107.642427,97.0538094 C103.96524,98.7787536 101.368035,99.8610309 98.8706764,100.656818 C95.7476224,101.651984 92.9172946,102.128973 90.039998,102.1002 C83.7113217,102.036913 82.9135495,101.980943 80.8252422,101.339045 C78.5045762,100.625726 76.6161101,99.7359191 66.5888544,94.7222912 C58.2266621,90.5411951 50.1737799,91.2743112 43.0208421,95.5552361 C40.4947722,97.0670507 38.2322187,98.9340993 36.2175533,101.018601 C34.8981447,102.383745 33.9661122,103.52432 33.0797767,104.727204 C31.567509,106.779567 28.4568611,113.666516 26.3715759,120.300532 C23.2549685,130.215542 22.0670586,139.739013 23.6724665,148.057945 C25.2254996,156.10548 29.7132566,161.815282 36.0903033,165.383382 C38.8625531,166.934518 41.7991474,167.97229 44.7316532,168.605633 C46.5085032,168.989386 47.9266135,169.156463 48.8233769,169.196099 L65.9236682,169.09993 C68.1327686,169.086858 69.9130016,167.285432 69.89993,165.076332 C69.8868584,162.867231 68.0854321,161.086998 65.8763318,161.10007 L49.111222,161.199272 C48.917408,161.18413 48.7362394,161.166465 48.5264503,161.141748 Z" id="Path-18" fill-rule="nonzero"></path>
        </g>
    </g>
</svg>