<?xml version="1.0" encoding="UTF-8"?>
<svg width="128px" height="128px" viewBox="0 0 128 128" version="1.1" xmlns="http://www.w3.org/2000/svg" xmlns:xlink="http://www.w3.org/1999/xlink">
    <!-- Generator: Sketch 47.1 (45422) - http://www.bohemiancoding.com/sketch -->
    <title>close-circle</title>
    <desc>Created with Sketch.</desc>
    <defs></defs>
    <g id="iconos" stroke="none" stroke-width="1" fill="none" fill-rule="evenodd">
        <g id="close-circle" fill-rule="nonzero" fill="#000000">
            <path d="M64.5,126 C29.9822031,126 2,98.0177969 2,63.5 C2,28.9822031 29.9822031,1 64.5,1 C99.0177969,1 127,28.9822031 127,63.5 C127,98.0177969 99.0177969,126 64.5,126 Z M64.5,116 C93.4949494,116 117,92.4949494 117,63.5 C117,34.5050506 93.4949494,11 64.5,11 C35.5050506,11 12,34.5050506 12,63.5 C12,92.4949494 35.5050506,116 64.5,116 Z" id="Oval"></path>
            <path d="M34.0324386,42.102224 L87.5324386,93.602224 C89.521892,95.5173053 92.6871427,95.4570148 94.602224,93.4675614 C96.5173053,91.478108 96.4570148,88.3128573 94.4675614,86.397776 L40.9675614,34.897776 C38.978108,32.9826947 35.8128573,33.0429852 33.897776,35.0324386 C31.9826947,37.021892 32.0429852,40.1871427 34.0324386,42.102224 Z" id="Line"></path>
            <path d="M43.7028015,94.3599495 L92.7028015,40.3599495 C94.5584504,38.3149487 94.4049503,35.1528474 92.3599495,33.2971985 C90.3149487,31.4415496 87.1528474,31.5950497 85.2971985,33.6400505 L36.2971985,87.6400505 C34.4415496,89.6850513 34.5950497,92.8471526 36.6400505,94.7028015 C38.6850513,96.5584504 41.8471526,96.4049503 43.7028015,94.3599495 Z" id="Line"></path>
        </g>
    </g>
</svg>