<?xml version="1.0" encoding="UTF-8"?>
<svg width="128px" height="128px" viewBox="0 0 128 128" version="1.1" xmlns="http://www.w3.org/2000/svg" xmlns:xlink="http://www.w3.org/1999/xlink">
    <!-- Generator: Sketch 47.1 (45422) - http://www.bohemiancoding.com/sketch -->
    <title>close</title>
    <desc>Created with Sketch.</desc>
    <defs></defs>
    <g id="iconos" stroke="none" stroke-width="1" fill="none" fill-rule="evenodd">
        <g id="close" fill-rule="nonzero" fill="#000000">
            <path d="M64.25,56.2973242 L10.723992,3.23879223 C8.37059192,0.905945868 4.57163858,0.922607944 2.23879223,3.27600801 C-0.0940541322,5.62940808 -0.0773920562,9.42836142 2.27600801,11.7612078 L55.7272566,64.7456332 L3.27600801,116.738792 C0.922607944,119.071639 0.905945868,122.870592 3.23879223,125.223992 C5.57163858,127.577392 9.37059192,127.594054 11.723992,125.261208 L64.25,73.1939422 L116.776008,125.261208 C119.129408,127.594054 122.928361,127.577392 125.261208,125.223992 C127.594054,122.870592 127.577392,119.071639 125.223992,116.738792 L72.7727434,64.7456332 L126.223992,11.7612078 C128.577392,9.42836142 128.594054,5.62940808 126.261208,3.27600801 C123.928361,0.922607944 120.129408,0.905945868 117.776008,3.23879223 L64.25,56.2973242 Z" id="Combined-Shape"></path>
        </g>
    </g>
</svg>