<?xml version="1.0" encoding="UTF-8"?>
<svg width="180px" height="180px" viewBox="0 0 180 180" version="1.1" xmlns="http://www.w3.org/2000/svg" xmlns:xlink="http://www.w3.org/1999/xlink">
    <!-- Generator: Sketch 40.1 (33804) - http://www.bohemiancoding.com/sketch -->
    <title>close</title>
    <desc>Created with Sketch.</desc>
    <defs></defs>
    <g id="iconos" stroke="none" stroke-width="1" fill="none" fill-rule="evenodd">
        <g id="close" stroke="#000000" stroke-width="4" fill="#000000">
            <path d="M90.8744784,96.8170459 L15.346328,173.310412 C13.7941802,174.882396 11.2615713,174.898476 9.68958779,173.346328 C8.11760423,171.79418 8.10152417,169.261571 9.65367198,167.689588 L85.2624808,91.1145322 L11.1490367,15.8057099 C9.59948588,14.2311664 9.61974651,11.6985875 11.1942901,10.1490367 C12.7688336,8.59948588 15.3014125,8.61974651 16.8509633,10.1942901 L90.8838839,85.4212901 L166.153672,9.18958779 C167.70582,7.61760423 170.238429,7.60152417 171.810412,9.15367198 C173.382396,10.7058198 173.398476,13.2384287 171.846328,14.8104122 L96.4958815,91.1238037 L171.850963,167.69429 C173.400514,169.268834 173.380253,171.801413 171.80571,173.350963 C170.231166,174.900514 167.698587,174.880253 166.149037,173.30571 L90.8744784,96.8170459 L90.8744784,96.8170459 Z" id="Combined-Shape"></path>
        </g>
    </g>
</svg>