<?xml version="1.0" encoding="UTF-8"?>
<svg width="128px" height="128px" viewBox="0 0 128 128" version="1.1" xmlns="http://www.w3.org/2000/svg" xmlns:xlink="http://www.w3.org/1999/xlink">
    <!-- Generator: Sketch 47.1 (45422) - http://www.bohemiancoding.com/sketch -->
    <title>code</title>
    <desc>Created with Sketch.</desc>
    <defs></defs>
    <g id="iconos" stroke="none" stroke-width="1" fill="none" fill-rule="evenodd">
        <g id="code" fill-rule="nonzero" fill="#000000">
            <path d="M72.527864,37.763932 L46.527864,89.763932 C45.2929178,92.2338245 46.2940395,95.2371897 48.763932,96.472136 C51.2338245,97.7070822 54.2371897,96.7059605 55.472136,94.236068 L81.472136,42.236068 C82.7070822,39.7661755 81.7059605,36.7628103 79.236068,35.527864 C76.7661755,34.2929178 73.7628103,35.2940395 72.527864,37.763932 Z" id="Line"></path>
            <path d="M12.6064933,65.6966331 L33.0336125,42.2874985 C34.8492085,40.2068562 34.6343459,37.048331 32.5537035,35.2327351 C30.4730612,33.4171391 27.314536,33.6320017 25.4989401,35.7126441 L2.23266405,62.3754045 C0.601889723,64.2442444 0.587656623,67.0261085 2.19922265,68.9115375 L25.4654987,96.1315896 C27.2597094,98.2307011 30.4158706,98.4778721 32.5149821,96.6836614 C34.6140936,94.8894507 34.8612646,91.7332895 33.0670539,89.634178 L12.6064933,65.6966331 Z" id="Path-2"></path>
            <path d="M105.606493,65.6966331 L126.033613,42.2874985 C127.849208,40.2068562 127.634346,37.048331 125.553704,35.2327351 C123.473061,33.4171391 120.314536,33.6320017 118.49894,35.7126441 L95.2326641,62.3754045 C93.6018897,64.2442444 93.5876566,67.0261085 95.1992227,68.9115375 L118.465499,96.1315896 C120.259709,98.2307011 123.415871,98.4778721 125.514982,96.6836614 C127.614094,94.8894507 127.861265,91.7332895 126.067054,89.634178 L105.606493,65.6966331 Z" id="Path-2" transform="translate(110.633185, 65.941489) scale(-1, 1) translate(-110.633185, -65.941489) "></path>
        </g>
    </g>
</svg>