<?xml version="1.0" encoding="UTF-8" standalone="no"?>
<svg width="180px" height="180px" viewBox="0 0 180 180" version="1.1" xmlns="http://www.w3.org/2000/svg" xmlns:xlink="http://www.w3.org/1999/xlink">
    <!-- Generator: Sketch 3.6 (26304) - http://www.bohemiancoding.com/sketch -->
    <title>code</title>
    <desc>Created with Sketch.</desc>
    <defs></defs>
    <g id="iconos" stroke="none" stroke-width="1" fill="none" fill-rule="evenodd">
        <g id="code" fill="#000000">
            <g transform="translate(0.000000, 48.000000)" id="Group">
                <g>
                    <path d="M42.8443114,89.1 C41.6371257,89.1 40.4299401,88.6149 39.5056886,87.6546 L1.78113772,48.0546 C-0.0579341317,46.1241 -0.0579341317,42.9858 1.78113772,41.0553 L39.5056886,1.4553 C41.3447605,-0.4752 44.3344311,-0.4752 46.173503,1.4553 C48.0125749,3.3858 48.0125749,6.5241 46.173503,8.4546 L11.7875749,44.55 L46.173503,80.6454 C48.0125749,82.5759 48.0125749,85.7142 46.173503,87.6447 C45.2492515,88.6149 44.0420659,89.0901 42.8348802,89.0901 L42.8443114,89.1 Z" id="Shape"></path>
                    <path d="M137.155689,89.1 C135.948503,89.1 134.741317,88.6149 133.817066,87.6546 C131.977994,85.7241 131.977994,82.5858 133.817066,80.6553 L168.202994,44.5599 L133.817066,8.4645 C131.977994,6.534 131.977994,3.3957 133.817066,1.4652 C135.656138,-0.4653 138.645808,-0.4653 140.48488,1.4652 L178.209431,41.0652 C180.048503,42.9957 180.048503,46.134 178.209431,48.0645 L140.48488,87.6645 C139.560629,88.6347 138.353443,89.1099 137.146257,89.1099 L137.155689,89.1 Z" id="Shape"></path>
                    <path d="M66.4221557,89.1 C65.5639222,89.1 64.7056886,88.8525 63.9229042,88.3476 C61.716018,86.9022 61.0464072,83.8431 62.4233533,81.5265 L109.579042,2.3265 C110.955988,0.0099 113.87021,-0.693 116.077096,0.7524 C118.283982,2.1978 118.953593,5.2569 117.576647,7.5735 L70.4209581,86.7735 C69.525,88.2783 67.9877246,89.1 66.4221557,89.1 L66.4221557,89.1 Z" id="Shape"></path>
                </g>
            </g>
        </g>
    </g>
</svg>