<?xml version="1.0" encoding="UTF-8"?>
<svg width="152px" height="152px" viewBox="0 0 152 152" version="1.1" xmlns="http://www.w3.org/2000/svg" xmlns:xlink="http://www.w3.org/1999/xlink">
    <!-- Generator: Sketch 43.1 (39012) - http://www.bohemiancoding.com/sketch -->
    <title>columnist</title>
    <desc>Created with Sketch.</desc>
    <defs></defs>
    <g id="Page-1" stroke="none" stroke-width="1" fill="none" fill-rule="evenodd">
        <g id="columnist">
            <path d="M117.354406,38.4196233 C117.628293,40.6117184 119.627367,42.166733 121.819462,41.8928456 C124.011557,41.6189582 125.566571,39.6198844 125.292684,37.4277894 L124.850782,33.8909687 C124.706334,32.7348557 124.064991,31.6991809 123.094396,31.0546603 C123.018002,31.0039314 123.018002,31.0039314 122.654826,30.762744 C122.157819,30.4326649 122.157819,30.4326649 121.41227,29.9374774 C120.074079,29.0486391 118.582937,28.0580617 116.977088,26.9910961 C112.38899,23.9426517 107.800912,20.8928328 103.518835,18.0444788 C98.0465455,14.4043982 93.5168393,11.387932 90.1739084,9.15684806 C87.971824,7.68716918 85.4691707,6.67399768 82.7377078,6.05184906 C78.6001365,5.10942945 74.3061801,5.10895696 70.2711597,5.65963607 C69.5128601,5.76312496 68.8912168,5.86912006 68.4293585,5.96051247 C67.2058522,6.01372021 65.5454603,6.27411355 62.4849066,6.83432494 C61.7614492,6.96674837 58.7135687,7.53385985 57.9499626,7.67433513 C55.9755804,8.03754847 54.286657,8.33819038 52.5804621,8.62639582 C48.9296508,9.2430802 45.5049894,9.74845874 42.1092032,10.1530563 C36.773992,10.7887306 32.8981316,12.0559656 30.2587527,13.9025503 C27.2969352,15.9747222 26.1167954,18.5859326 26.236233,20.8638081 C26.2433549,20.9801698 26.2433549,20.9801698 26.2526093,21.0785767 C26.4759176,23.2764003 28.4386327,24.8770612 30.6364563,24.6537529 C32.8342799,24.4304447 34.4349408,22.4677295 34.2116326,20.2699059 C34.2201994,20.3615455 34.2201994,20.3615455 34.2252585,20.4449132 C34.2423233,20.7703678 34.2060271,20.9902813 34.15424,21.104867 C34.2044034,20.9938739 34.3883615,20.7768988 34.8448169,20.4575496 C36.2768733,19.4556421 38.9288175,18.5885735 43.0556845,18.0968699 C46.5911619,17.6756285 50.1416686,17.1516789 53.9129229,16.5146496 C53.8582983,16.5238767 67.91961,13.9500591 68.8943255,13.9500591 C69.1928654,13.9500591 69.4904671,13.9166371 69.7815703,13.8504176 C69.8210518,13.8414365 69.9416687,13.8163851 70.1355818,13.7802958 C70.4857242,13.7151305 70.8941666,13.6487692 71.3529314,13.5861593 C74.5157791,13.1545099 77.9001262,13.1548823 80.9610419,13.8520707 C82.7914352,14.2689816 84.3954126,14.9183342 85.7329129,15.8109865 C89.0799492,18.0448104 93.6126562,21.063275 99.0378479,24.6720273 C103.371466,27.5546653 107.96066,30.6052259 112.549835,33.6543859 C114.156031,34.7215818 115.647503,35.712379 116.986016,36.6014306 C117.041275,36.6381331 117.092439,36.672116 117.140015,36.7037152 L117.354406,38.4196233 Z M119.230045,59.9636267 L120.304774,118.48605 C120.345337,120.694816 122.168778,122.452493 124.377545,122.41193 C126.586311,122.371367 128.343988,120.547926 128.303425,118.339159 L127.228696,59.8167362 C127.188134,57.6079697 125.364692,55.8502931 123.155925,55.8908558 C120.947159,55.9314184 119.189482,57.7548601 119.230045,59.9636267 Z" id="Path-7" fill="#020202" fill-rule="nonzero"></path>
            <path d="M15.8893187,30.2535177 L28.4322342,28.3179392 L141.880234,46.386972 L139.968939,55.9483488 L80.858294,46.0828166 C78.679295,45.7191429 76.6180515,47.1907548 76.2543779,49.3697538 C75.8907042,51.5487528 77.3623161,53.6099962 79.5413151,53.9736699 L142.47341,64.4769999 C144.603385,64.8324916 146.631007,63.4331952 147.054299,61.315651 L150.54059,43.8752541 C150.985723,41.6484445 149.489944,39.4981478 147.247346,39.1409659 L29.0711806,20.318871 C28.6607772,20.2535054 28.2426943,20.2524945 27.8319797,20.3158745 L5.40435363,23.7768267 C1.92268882,24.3141049 0.785507804,28.7641317 3.58255579,30.9059021 L19.8380014,43.3531079 C20.3557323,43.7495476 20.9625338,44.0134028 21.6055599,44.1216946 L53.6592701,49.519848 C55.8377325,49.886722 57.9011354,48.4181395 58.2680095,46.2396771 C58.6348835,44.0612146 57.166301,41.9978117 54.9878385,41.6309377 L23.9133052,36.397687 L15.8893187,30.2535177 Z" id="Path-8" fill="#000000" fill-rule="nonzero"></path>
            <path d="M44.4207465,63.7821473 L45.6576323,42.3757024 L37.6709535,41.9142241 L36.2934938,65.7535435 L49.5255065,88.1488146 L50.4001904,88.6711681 C50.7857674,88.9014313 51.3326414,89.1641738 52.0301523,89.4050929 C55.906617,90.7440171 60.3125756,90.0788002 64.1231164,86.2331342 C64.2913137,86.0633866 64.4574532,85.8880248 64.6215155,85.7070388 L58.6943336,80.334096 C58.609474,80.4277092 58.524809,80.5170739 58.4403695,80.6022917 C57.2072852,81.8467425 56.1738317,82.1633996 55.1754536,81.984562 L44.4207465,63.7821473 Z" id="Path-9" fill="#000000" fill-rule="nonzero"></path>
            <path d="M86.4475818,56.2748207 C82.9143966,52.8931169 80.3276674,48.4195079 79.0745851,42.6095001 C77.2381257,34.0946224 71.7236799,28.7915216 64.0110279,26.3331513 C59.432477,24.8737604 54.7184594,24.5676285 50.5260937,24.897539 C49.979134,24.940581 49.5700178,24.9858863 49.318226,25.0208986 C47.1301397,25.3251576 45.602996,27.3456027 45.9072551,29.533689 C46.2115141,31.7217753 48.2319592,33.248919 50.4200455,32.9446599 C50.5190857,32.9308881 50.7707659,32.9030172 51.1536986,32.872883 C54.4029682,32.6171878 58.1459846,32.8602621 61.5815,33.9553159 C66.7342455,35.5977285 70.070291,38.8059177 71.254401,44.2961303 C72.8532508,51.7093138 76.255792,57.593826 80.9159769,62.0542106 C83.2723217,64.3095297 85.7980937,66.0545844 88.3358321,67.3574978 C89.9009158,68.1610356 91.1671102,68.6505978 91.989059,68.8902449 C94.2961291,69.5628937 96.671339,68.0638521 97.0568702,65.69185 L99.0679474,53.3185857 C99.422357,51.1380608 97.9419981,49.0830903 95.7614732,48.7286807 C93.5809483,48.374271 91.5259778,49.85463 91.1715682,52.0351549 L90.0227385,59.1033935 C88.8031883,58.315713 87.5988468,57.3767265 86.4475818,56.2748207 Z" id="Path-10" fill="#000000" fill-rule="nonzero"></path>
            <path d="M71.513823,115.725854 C71.5339273,117.934902 73.3410118,119.709391 75.5500593,119.689286 C77.7591069,119.669182 79.533596,117.862098 79.5134917,115.65305 L79.4210804,105.498931 C79.4120637,104.508172 79.0356608,103.556017 78.3647826,102.826903 C78.2639256,102.717291 78.0423057,102.466533 77.717226,102.082115 C77.1561345,101.418605 76.5257353,100.636 75.8433101,99.7419066 C73.8790862,97.168437 71.9100077,94.2367473 70.0733008,91.0098321 C66.0111517,83.8730317 63.1997533,76.3679306 62.1840377,68.772384 C62.074147,67.950618 61.5042557,63.667948 61.3472396,62.4972564 C61.0366991,60.1819073 60.78848,58.371474 60.5487655,56.6866024 C58.1149351,39.5800336 55.8561416,31.8679656 50.5587419,26.876422 C48.9509191,25.36143 46.4193774,25.4366843 44.9043855,27.0445071 C43.3893935,28.65233 43.4646478,31.1838717 45.0724706,32.6988636 C48.5059515,35.9341056 50.4694276,42.6378887 52.6285249,57.8134516 C52.8647473,59.4737788 53.1102928,61.2647116 53.4182385,63.5607142 C53.5745771,64.7263538 54.1441858,69.0069009 54.2546221,69.8327463 C55.4203773,78.5502924 58.5851701,86.998789 63.1206417,94.967171 C65.144555,98.5229897 67.3118553,101.749805 69.4840103,104.5957 C70.230826,105.574156 70.8894155,106.394304 71.434831,107.046238 L71.513823,115.725854 Z" id="Path-11" fill="#000000" fill-rule="nonzero"></path>
            <path d="M61,144 L128,144 L128,124 L61,124 L61,144 Z M53,122.005323 C53,118.688675 55.6909151,116 59.0025442,116 L129.997456,116 C133.312569,116 136,118.67644 136,122.005323 L136,145.994677 C136,149.311325 133.309085,152 129.997456,152 L59.0025442,152 C55.6874306,152 53,149.32356 53,145.994677 L53,122.005323 Z" id="Rectangle-13" fill="#000000" fill-rule="nonzero"></path>
            <circle id="Oval-5" fill="#000000" cx="70.5" cy="133.5" r="5.5"></circle>
        </g>
    </g>
</svg>