<?xml version="1.0" encoding="UTF-8"?>
<svg width="128px" height="128px" viewBox="0 0 128 128" version="1.1" xmlns="http://www.w3.org/2000/svg" xmlns:xlink="http://www.w3.org/1999/xlink">
    <!-- Generator: Sketch 47.1 (45422) - http://www.bohemiancoding.com/sketch -->
    <title>comment</title>
    <desc>Created with Sketch.</desc>
    <defs></defs>
    <g id="iconos" stroke="none" stroke-width="1" fill="none" fill-rule="evenodd">
        <g id="comment" fill-rule="nonzero" fill="#000000">
            <path d="M127.715535,18.6286867 C127.597374,18.0367938 127.442555,17.4424091 127.251229,16.8430176 C125.122142,10.0442253 119.167369,5.00878927 111.99967,4.02667279 L111.608496,4 L21.8984131,4 L18.6236834,4.00662273 C8.35648224,4.00661682 0,12.325177 0,22.5472211 L0,78.4924594 C0,88.7145036 8.35648224,97.0330637 18.6295169,97.0330637 L34.7910992,97.0330637 L31.930764,94.1941804 L31.930764,120.661472 C31.930764,122.907471 33.3181569,124.935141 35.4171219,125.766309 C36.1426839,126.026049 36.7875996,126.150393 37.4381402,126.150393 C38.9823676,126.150393 40.4558437,125.505309 41.511805,124.373939 L67.3447288,96.0874902 L65.2372762,97.0198057 L109.4688,96.8378431 C119.285564,96.8378674 127.370074,89.2076536 127.994222,79.476761 L128,21.3793519 C127.911429,19.8540195 127.860943,19.3322806 127.715535,18.6286867 Z M120.490009,24.5921497 L117.843541,24.5921497 L117.843541,76.2050409 C117.447857,82.0663682 112.26546,86.7773975 105.979889,86.7773975 L62.9717405,86.9395756 L61.8052581,86.9441976 L61.0218627,87.7704103 L41.6161496,109 C41.795003,108.941597 41.6161496,97.3821626 41.6161496,97.3821626 C41.3913886,95.814771 41.6161496,89.4812233 41.6161496,89.4812233 C41.6161496,89.4812233 41.6661374,88.3818266 41.0265436,87.7704103 C40.3869498,87.158994 38.9696823,86.951347 38.9696823,86.951347 L21.9436491,86.951347 C15.3654749,86.951347 10,81.806944 10,75.4886047 L10,25.6328987 C10,19.3145593 15.3654749,14.1701564 21.9436491,14.1701564 L24.9735265,14.1642545 L107.970569,14.1642598 L107.608643,14.1404903 C112.202121,14.7467058 116.027232,17.8621366 117.393594,22.0645317 C117.516613,22.4358598 117.610793,22.7841203 117.684839,23.141176 C117.755646,23.4714508 117.786707,23.7806195 117.83512,24.5394124 C117.842112,24.6489389 120.490009,24.5921497 120.490009,24.5921497 Z" id="Fill-1"></path>
        </g>
    </g>
</svg>