<?xml version="1.0" encoding="UTF-8"?>
<svg width="180px" height="180px" viewBox="0 0 180 180" version="1.1" xmlns="http://www.w3.org/2000/svg" xmlns:xlink="http://www.w3.org/1999/xlink">
    <!-- Generator: Sketch 40.1 (33804) - http://www.bohemiancoding.com/sketch -->
    <title>comment</title>
    <desc>Created with Sketch.</desc>
    <defs></defs>
    <g id="iconos" stroke="none" stroke-width="1" fill="none" fill-rule="evenodd">
        <g id="comment" fill="#000000">
            <path d="M179.602193,27.6118884 C179.436953,26.7779086 179.220448,25.9404177 178.95289,25.0958723 C175.975495,15.516342 167.648117,8.42138883 157.624539,7.03758209 L157.077507,7 L31.623562,7 L27.0440572,7.00933145 C12.6860181,7.00932313 1,18.7302135 1,33.1331219 L1,111.960226 C1,126.363134 12.6860181,138.084025 27.0522151,138.084025 L49.6531778,138.084025 L45.6531778,134.084025 L45.6531778,171.376564 C45.6531778,174.541186 47.59336,177.398183 50.5286315,178.569303 C51.5432845,178.935278 52.4451589,179.110479 53.3548992,179.110479 C55.5144046,179.110479 57.5749689,178.201552 59.0516648,176.607447 L95.1773941,136.751707 L92.2302535,138.065344 L154.085275,137.808958 C167.813405,137.808992 179.119088,127.057985 179.991919,113.347112 L180,31.4875886 C179.876139,29.3383881 179.805538,28.6032556 179.602193,27.6118884 Z M173.369231,33.2443752 L169.495256,33.2443752 L169.495256,111.086806 C168.916042,119.926845 161.3299,127.032007 152.128899,127.032007 L92.2066376,127.276604 L90.4991071,127.283575 L89.3523502,128.529667 L54.3931777,166.517093 C54.6549884,166.429011 53.2865899,170 53.2865899,170 L54.7221893,166.456105 C54.8215301,166.495142 54.8770943,131.109911 54.8770943,131.109911 L54.8770943,127.294358 L51.0031191,127.294358 L29.1142273,127.294358 C19.4849062,127.294358 11.6307693,119.535582 11.6307693,110.006279 L11.6307693,34.8140301 C11.6307693,25.2847268 19.4849062,17.5259513 29.1142273,17.5259513 L33.5494493,17.5170501 L155.042914,17.5170581 L154.513116,17.481209 C161.237182,18.3955017 166.83649,23.0941865 168.836609,29.432228 C169.016689,29.9922642 169.154552,30.5175097 169.262942,31.0560203 C169.366592,31.5541399 169.412059,32.0204273 169.482929,33.1648368 C169.493163,33.3300245 173.369231,33.2443752 173.369231,33.2443752 Z" id="Fill-1"></path>
        </g>
    </g>
</svg>