<?xml version="1.0" encoding="UTF-8"?>
<svg width="180px" height="180px" viewBox="0 0 180 180" version="1.1" xmlns="http://www.w3.org/2000/svg" xmlns:xlink="http://www.w3.org/1999/xlink">
    <!-- Generator: Sketch 40.1 (33804) - http://www.bohemiancoding.com/sketch -->
    <title>conector</title>
    <desc>Created with Sketch.</desc>
    <defs></defs>
    <g id="iconos" stroke="none" stroke-width="1" fill="none" fill-rule="evenodd">
        <g id="conector" fill="#000000">
            <path d="M94.918989,119.995619 C110.173673,128.30343 123.426207,126.24889 133.807063,117.567295 C135.764483,115.930289 137.448999,114.17982 138.866947,112.422144 C139.738281,111.342046 140.343777,110.471543 140.685365,109.913585 L159.378061,83.0206573 L167.257813,88.0747927 C169.117318,89.2674939 171.59162,88.7269427 172.784321,86.8674377 C173.977022,85.0079327 173.436471,82.5336306 171.576966,81.3409294 L160.468063,74.2155911 C160.456532,74.2081124 160.444977,74.2007006 160.433396,74.1933555 L152.734104,69.2549688 L171.358614,40.9272597 C172.572242,39.0813441 172.05967,36.6010947 170.213755,35.3874676 C168.367839,34.1738406 165.88759,34.6864117 164.673963,36.5323274 L145.999812,64.93554 L117.772903,46.830577 L136.397413,18.5028679 C137.61104,16.6569522 137.098469,14.1767029 135.252553,12.9630758 C133.406637,11.7494488 130.926388,12.2620199 129.712761,14.1079355 L111.03861,42.5111482 L92.119689,30.3764025 C90.260184,29.1837013 87.7858819,29.7242525 86.5931807,31.5837576 C85.4004794,33.4432626 85.9410307,35.9175646 87.8005357,37.1102658 L97.9806599,43.6398781 L83.2230969,67.6397993 L83.5508834,67.1823135 C83.229191,67.5704072 82.7217813,68.2355457 82.0907005,69.150678 C81.0633591,70.640429 80.0407977,72.3225998 79.0861042,74.1723045 C74.3345212,83.3784265 72.9060904,93.0989298 77.0404525,102.369773 C79.2250241,107.268429 82.8943605,111.723478 88.1270632,115.655236 C88.016947,115.890142 87.8974633,116.140763 87.7685809,116.406438 C86.9846672,118.022382 86.0309522,119.831826 84.905388,121.785812 C81.6807984,127.383719 77.7412354,132.985044 73.0773158,138.200409 C56.3396357,156.917096 35.1038611,165.850964 8.68793994,159.937728 C6.53215331,159.455152 4.39333821,160.811558 3.91076273,162.967345 C3.42818724,165.123131 4.78459288,167.261946 6.94037951,167.744522 C22.8575295,171.307595 37.4286617,169.964354 50.5791014,164.431978 C61.4182257,159.87197 70.8823662,152.656091 79.0406439,143.533206 C84.0990863,137.87667 88.3522033,131.82953 91.8375362,125.778971 C93.0381896,123.69463 94.0641363,121.751668 94.918989,119.995619 Z M104.71574,47.9598118 L110.043787,51.3772631 C110.047498,51.3796523 110.051212,51.3820341 110.054928,51.3844091 L145.004988,73.801655 C145.0087,73.8040441 145.012413,73.806426 145.016129,73.8088009 L152.640199,78.6989397 L133.988985,105.542668 C133.838346,105.775897 133.75344,105.906299 133.608613,106.114512 C133.344108,106.494782 133.021018,106.927374 132.640451,107.399122 C131.534691,108.769813 130.208708,110.147711 128.674821,111.430513 C120.032932,118.657797 109.272009,119.875459 95.5472417,111.072285 C89.8995929,107.449838 86.2748585,103.43481 84.3468478,99.1114622 C81.3715625,92.4397188 82.4507114,85.0960863 86.1950581,77.8414699 C86.9859393,76.3091492 87.8336365,74.9146397 88.6765538,73.6923226 C88.966707,73.2715706 89.233075,72.9052823 89.4678426,72.5975369 C89.5980861,72.426807 89.6814346,72.3221922 89.7100491,72.2876712 C89.829917,72.1430612 89.9394502,71.9901876 90.0378357,71.8301854 L104.71574,47.9598118 Z" id="Combined-Shape"></path>
        </g>
    </g>
</svg>