<?xml version="1.0" encoding="UTF-8"?>
<svg width="128px" height="128px" viewBox="0 0 128 128" version="1.1" xmlns="http://www.w3.org/2000/svg" xmlns:xlink="http://www.w3.org/1999/xlink">
    <!-- Generator: Sketch 47.1 (45422) - http://www.bohemiancoding.com/sketch -->
    <title>conf</title>
    <desc>Created with Sketch.</desc>
    <defs></defs>
    <g id="iconos" stroke="none" stroke-width="1" fill="none" fill-rule="evenodd">
        <g id="conf" fill-rule="nonzero" fill="#000000">
            <path d="M48.5763998,128.138672 C48.3079493,128.138672 48.0329512,128.105813 47.7579531,128.033523 C41.8782317,126.515441 36.2276755,124.175885 30.9699737,121.074001 C29.444389,120.173666 28.9074879,118.221846 29.752125,116.664332 C30.7931892,114.745371 31.3431854,112.576681 31.3431854,110.375132 C31.3431854,103.126452 25.4700117,97.2315591 18.2480377,97.2315591 C16.061148,97.2315591 13.8939011,97.7835892 11.9820095,98.8285033 C10.4302345,99.6762637 8.48560507,99.1373772 7.58858745,97.6061509 C4.49813259,92.3224344 2.16719629,86.6575543 0.654706732,80.7560899 C0.229114431,79.0868561 1.15886992,77.3716197 2.78266824,76.8261614 C8.11239336,75.0254919 11.7004638,70.0177904 11.7004638,64.3726257 C11.7004638,58.7274609 8.11894093,53.7197595 2.78266824,51.9190899 C1.15886992,51.3670598 0.229114431,49.6583953 0.654706732,47.9891615 C2.16719629,42.087697 4.49813259,36.4162451 7.58858745,31.1391004 C8.48560507,29.6078741 10.4302345,29.0689876 11.9820095,29.9167481 C13.8873535,30.9616622 16.0546004,31.5136923 18.2480377,31.5136923 C25.4700117,31.5136923 31.3431854,25.6187996 31.3431854,18.3701189 C31.3431854,16.1751421 30.7931892,13.9998807 29.752125,12.080919 C28.9074879,10.5234056 29.444389,8.57158494 30.9699737,7.67125016 C36.2342231,4.56936684 41.8782317,2.22981078 47.7579531,0.711728061 C49.4210368,0.284561926 51.1299536,1.21775564 51.6734022,2.84755873 C53.4674375,8.19699309 58.4566887,11.7983322 64.0810547,11.7983322 C69.7054206,11.7983322 74.6946719,8.20356488 76.4887071,2.84755873 C77.0387034,1.21775564 78.7476201,0.284561926 80.4041563,0.711728061 C86.2838776,2.22981078 91.9344339,4.56936684 97.1921357,7.67125016 C98.7177204,8.57158494 99.2546214,10.5234056 98.4099844,12.080919 C97.3689202,13.9998807 96.818924,16.1685703 96.818924,18.3701189 C96.818924,25.6187996 102.692098,31.5136923 109.914072,31.5136923 C112.100961,31.5136923 114.268208,30.9616622 116.1801,29.9167481 C117.731875,29.0689876 119.676504,29.6078741 120.573522,31.1391004 C123.663977,36.4228169 125.994913,42.087697 127.507403,47.9891615 C127.932995,49.6583953 127.003239,51.3736316 125.379441,51.9190899 C120.049716,53.7197595 116.461646,58.7274609 116.461646,64.3726257 C116.461646,70.0177904 120.043168,75.0254919 125.379441,76.8261614 C127.003239,77.3781915 127.932995,79.0868561 127.507403,80.7560899 C125.994913,86.6575543 123.663977,92.3290062 120.573522,97.6061509 C119.676504,99.1373772 117.731875,99.6762637 116.1801,98.8285033 C114.268208,97.7835892 112.107509,97.2315591 109.914072,97.2315591 C102.692098,97.2315591 96.818924,103.126452 96.818924,110.375132 C96.818924,112.570109 97.3689202,114.745371 98.4099844,116.664332 C99.2546214,118.221846 98.7177204,120.173666 97.1921357,121.074001 C91.9278863,124.175885 86.2838776,126.515441 80.4041563,128.033523 C78.7410726,128.460689 77.0321558,127.527496 76.4887071,125.897693 C74.6946719,120.548258 69.7054206,116.946919 64.0810547,116.946919 C58.4566887,116.946919 53.4674375,120.541686 51.6734022,125.897693 C51.2150721,127.258052 49.9448427,128.138672 48.5698522,128.138672 L48.5763998,128.138672 Z M64.0876023,106.262607 C70.8060811,106.262607 76.856885,110.0202 79.9150745,115.848059 C83.0149938,114.884727 86.0314536,113.640174 88.9167631,112.126367 C88.2729337,110.24757 87.9390962,108.261072 87.9390962,106.262607 C87.9390962,96.3660165 95.963118,88.3123221 105.823246,88.3123221 C107.814348,88.3123221 109.793527,88.6473941 111.665401,89.2936043 C113.173631,86.3976251 114.41956,83.3759938 115.373381,80.2586277 C109.566994,77.1951124 105.823246,71.1219327 105.823246,64.3726257 C105.823246,57.6233186 109.566994,51.5561224 115.373381,48.4866237 C114.413599,45.375241 113.173631,42.3476263 111.665401,39.451647 C109.793527,40.0978573 107.814348,40.4329292 105.823246,40.4329292 C95.963118,40.4329292 87.9390962,32.3792348 87.9390962,22.4826445 C87.9390962,20.4841795 88.2729337,18.4976813 88.9167631,16.6188848 C86.0314536,15.1050775 83.0209551,13.8545409 79.9150745,12.8971924 C76.8628463,18.7250515 70.8120425,22.4826445 64.0876023,22.4826445 C57.3631621,22.4826445 51.3183196,18.7250515 48.26013,12.8971924 C45.1602108,13.8545409 42.1437509,15.1050775 39.2584414,16.6188848 C39.9022708,18.4976813 40.2361083,20.4841795 40.2361083,22.4826445 C40.2361083,32.3792348 32.2120866,40.4329292 22.3519588,40.4329292 C20.3608569,40.4329292 18.3816777,40.0978573 16.5098034,39.451647 C15.0015734,42.3476263 13.7556443,45.3692575 12.801823,48.4866237 C18.6082102,51.5501389 22.3519588,57.6233186 22.3519588,64.3726257 C22.3519588,71.1219327 18.6082102,77.189129 12.801823,80.2586277 C13.7556443,83.3700104 15.0015734,86.3976251 16.5098034,89.2936043 C18.3816777,88.6473941 20.3608569,88.3123221 22.3519588,88.3123221 C32.2120866,88.3123221 40.2361083,96.3660165 40.2361083,106.262607 C40.2361083,108.261072 39.9022708,110.24757 39.2584414,112.126367 C42.1437509,113.640174 45.1542494,114.89071 48.26013,115.848059 C51.3123582,110.0202 57.3631621,106.262607 64.0876023,106.262607 L64.0876023,106.262607 Z" id="Shape"></path>
            <path d="M64.5,87 C52.095,87 42,76.905 42,64.5 C42,52.095 52.095,42 64.5,42 C76.905,42 87,52.095 87,64.5 C87,76.905 76.905,87 64.5,87 Z M64.5,52 C57.60625,52 52,57.60625 52,64.5 C52,71.39375 57.60625,77 64.5,77 C71.39375,77 77,71.39375 77,64.5 C77,57.60625 71.39375,52 64.5,52 Z" id="Shape"></path>
        </g>
    </g>
</svg>