<?xml version="1.0" encoding="UTF-8"?>
<svg width="180px" height="180px" viewBox="0 0 180 180" version="1.1" xmlns="http://www.w3.org/2000/svg" xmlns:xlink="http://www.w3.org/1999/xlink">
    <!-- Generator: Sketch 40.1 (33804) - http://www.bohemiancoding.com/sketch -->
    <title>content-block</title>
    <desc>Created with Sketch.</desc>
    <defs></defs>
    <g id="iconos" stroke="none" stroke-width="1" fill="none" fill-rule="evenodd">
        <g id="content-block">
            <path d="M177.909971,34.81875 L177.909971,10.9 C177.909971,5.89375 174.041405,2 169.067535,2 L145.303489,2 C140.329619,2 136.461054,5.89375 136.461054,10.9 L136.461054,18.13125 L42.5101744,18.13125 L42.5101744,10.9 C41.9575222,5.89375 38.0889566,2 33.1150865,2 L9.35104054,2 C4.37717045,2 0.508604834,5.89375 0.508604834,10.9 L0.508604834,34.81875 C0.508604834,39.825 4.37717045,43.1625 9.35104054,43.1625 L17.0881718,43.1625 L17.0881718,137.16875 L9.35104054,137.16875 C4.37717045,137.16875 0.508604834,141.61875 0.508604834,146.625 L0.508604834,170.54375 C0.508604834,175.55 4.37717045,179.44375 9.35104054,179.44375 L33.1150865,179.44375 C38.0889566,179.44375 41.9575222,174.99375 41.9575222,170.54375 L41.9575222,163.3125 L135.908402,163.3125 L135.908402,170.54375 C135.908402,175.55 139.776967,179.44375 144.750837,179.44375 L168.514883,179.44375 C173.488753,179.44375 177.357319,174.99375 177.357319,170.54375 L177.357319,146.625 C177.357319,141.61875 173.488753,137.16875 168.514883,137.16875 L161.330404,137.16875 L161.330404,43.71875 L169.067535,43.71875 C174.041405,43.71875 177.909971,39.825 177.909971,34.81875 Z M144.750837,7.5625 L169.067535,7.5625 C170.725492,7.5625 172.383449,9.23125 172.383449,10.9 L172.383449,34.81875 C172.383449,36.4875 171.278144,37.6 169.620188,37.6 L144.750837,37.6 C143.092881,37.6 141.987576,36.4875 141.987576,34.81875 L141.987576,10.9 C141.987576,9.23125 143.092881,7.5625 144.750837,7.5625 Z M9.35104054,37.6 C7.69308384,37.6 6.58777938,36.4875 6.58777938,34.81875 L6.58777938,10.9 C6.03512715,9.23125 7.69308384,7.5625 9.35104054,7.5625 L33.6677387,7.5625 C35.3256954,7.5625 36.4309999,8.675 36.4309999,10.34375 L36.4309999,34.2625 C36.4309999,35.93125 35.3256954,37.04375 33.6677387,37.04375 L9.35104054,37.04375 L9.35104054,37.6 Z M33.6677387,173.88125 L9.35104054,173.88125 C7.69308384,173.88125 6.58777938,172.76875 6.58777938,171.1 L6.58777938,147.18125 C6.58777938,145.5125 7.69308384,144.4 9.35104054,144.4 L33.6677387,144.4 C35.3256954,144.4 36.4309999,145.5125 36.4309999,147.18125 L36.4309999,171.1 C36.4309999,172.76875 35.3256954,173.88125 33.6677387,173.88125 Z M171.830797,147.18125 L171.830797,171.1 C171.830797,172.76875 170.725492,173.88125 169.067535,173.88125 L144.750837,173.88125 C143.092881,173.88125 141.987576,172.76875 141.987576,171.1 L141.987576,147.18125 C141.987576,145.5125 143.092881,144.4 144.750837,144.4 L169.067535,144.4 C170.725492,144.4 171.830797,145.5125 171.830797,147.18125 Z M145.303489,137.725 C140.329619,137.725 136.461054,142.175 136.461054,147.18125 L136.461054,154.96875 L42.5101744,154.96875 L42.5101744,147.18125 C42.5101744,142.175 38.6416088,137.725 33.6677387,137.725 L25.9306075,137.725 L25.9306075,43.71875 L33.6677387,43.71875 C38.6416088,43.71875 42.5101744,39.825 42.5101744,35.375 L42.5101744,27.03125 L136.461054,27.03125 L136.461054,34.2625 C136.461054,39.26875 140.329619,43.1625 145.303489,43.1625 L152.487968,43.1625 L152.487968,137.16875 L145.303489,137.16875 L145.303489,137.725 Z" id="Shape" fill="#010202"></path>
            <path d="M78.6510417,131 C79.3960508,131 80,129.432997 80,127.5 C80,125.567003 79.3960508,124 78.6510417,124 L44.3489583,124 C43.6039492,124 43,125.567003 43,127.5 C43,129.432997 43.6039492,131 44.3489583,131 L78.6510417,131 Z" id="Line-Copy" fill="#000000"></path>
            <path d="M135.8836,131 C136.628609,131 137.232558,129.432997 137.232558,127.5 C137.232558,125.567003 136.628609,124 135.8836,124 L101.581516,124 C100.836507,124 100.232558,125.567003 100.232558,127.5 C100.232558,129.432997 100.836507,131 101.581516,131 L135.8836,131 Z" id="Line-Copy-2" fill="#000000"></path>
            <path d="M49,98.0010878 C49,97.4492114 48.5500247,97 48.0052299,97 L131.99477,97 C131.444919,97 131,97.444224 131,98.0010878 L131,50.9989122 C131,51.5507886 131.449975,52 131.99477,52 L48.0052299,52 C48.5550815,52 49,51.555776 49,50.9989122 L49,98.0010878 Z M48.0052299,45 L131.99477,45 C135.311367,45 138,47.680192 138,50.9989122 L138,98.0010878 C138,101.314196 135.306935,104 131.99477,104 L48.0052299,104 C44.688633,104 42,101.319808 42,98.0010878 L42,50.9989122 C42,47.6858045 44.6930647,45 48.0052299,45 Z" id="Rectangle-13" fill="#000000"></path>
            <path d="M69.8810031,71.6317839 L66.5625263,71.4018922 L92.7906977,97 L98,97 L100.232558,97 L70.1355156,67.2725685 C69.2240009,66.3367318 67.830047,66.2401638 66.8170389,67.0426768 L49,81.0913621 L49,84.333887 L49,88.3870432 L69.8810031,71.6317839 Z" id="Path-12" fill="#000000"></path>
            <path d="M121.5,72 C121.5,65.0964406 115.903559,59.5 109,59.5 C102.096441,59.5 96.5,65.0964406 96.5,72 C96.5,78.9035594 102.096441,84.5 109,84.5 C115.903559,84.5 121.5,78.9035594 121.5,72 Z M103.5,72 C103.5,68.9624339 105.962434,66.5 109,66.5 C112.037566,66.5 114.5,68.9624339 114.5,72 C114.5,75.0375661 112.037566,77.5 109,77.5 C105.962434,77.5 103.5,75.0375661 103.5,72 Z" id="Oval-4" fill="#000000"></path>
        </g>
    </g>
</svg>