<?xml version="1.0" encoding="UTF-8"?>
<svg width="180px" height="180px" viewBox="0 0 180 180" version="1.1" xmlns="http://www.w3.org/2000/svg" xmlns:xlink="http://www.w3.org/1999/xlink">
    <!-- Generator: Sketch 40.1 (33804) - http://www.bohemiancoding.com/sketch -->
    <title>contact</title>
    <desc>Created with Sketch.</desc>
    <defs></defs>
    <g id="iconos" stroke="none" stroke-width="1" fill="none" fill-rule="evenodd">
        <g id="contact" fill="#000000">
            <path d="M95.4169087,129 L86.9839542,129 C84.4404805,128.952736 81.9207941,128.479708 79.5211627,127.59899 C75.609291,126.312801 72.7914086,122.743366 72.3320068,118.492427 C71.3172057,111.001333 72.6430632,103.368557 76.1131545,96.7248875 C78.5487771,91.8702334 83.3005457,88.7579276 88.5511404,88.5782755 C89.9513473,88.5247313 91.3430052,88.8274861 92.6059239,89.4603927 C93.6755906,89.9792852 94.7203815,90.5760115 95.7651723,91.1467933 C97.1827113,91.986166 98.6538559,92.7229977 100.168219,93.3520863 C105.541619,95.3958888 111.509966,94.8248115 116.437105,91.7954089 L117.258012,91.302461 C117.667191,90.995553 118.090594,90.709817 118.526686,90.4462884 L119.471973,89.9273959 C120.598481,89.1491071 121.885694,88.6601131 123.228245,88.5004416 C126.220597,88.3513997 129.178879,89.216031 131.6612,90.9651809 C134.438865,92.8833636 136.583896,95.6458733 137.805565,98.8782913 C140.200221,104.786432 141.12437,111.229948 140.49217,117.61031 C139.791935,123.712073 134.960433,128.388847 129.074099,128.66272 C127.183525,128.870277 125.243199,128.896222 123.452129,128.896222 L95.4169087,128.896222 L95.4169087,129 Z M90.8967382,96.2449578 L90.7647445,96.2449578 C87.3683012,96.3480401 84.3078672,98.1941663 82.8011283,101.048799 C80.0986765,105.7959 79.0887682,111.229148 79.9192671,116.553044 C80.1585036,118.740897 81.7692069,120.583193 84.01107,121.233181 C85.7173263,121.791774 87.5060223,122.097832 89.3128145,122.140345 L101.500227,122.140345 L121.431267,122.140345 C122.993192,122.140345 124.533118,122.140345 126.029045,121.975406 C129.595136,121.863728 132.534975,119.319107 132.936713,115.996375 C133.427936,111.399858 132.67119,106.761556 130.736819,102.512631 C129.916257,100.523921 128.465192,98.818607 126.579019,97.62632 C125.060813,96.6514392 123.24836,96.1599217 121.409268,96.2243405 C120.813364,96.3565384 120.24726,96.5869091 119.737349,96.9047129 L118.703398,97.4407639 C118.394117,97.5839609 118.093052,97.7422441 117.801442,97.9149628 L116.877486,98.4097792 C111.553531,101.271094 105.153438,101.784144 99.3883291,99.8117587 C97.8745793,99.256293 96.4043605,98.6017976 94.988541,97.8531108 C94.3505718,97.4407639 93.3826184,97.0077996 92.5026608,96.7191568 C92.0082176,96.458463 91.4613335,96.2969783 90.8967382,96.2449578 L90.8967382,96.2449578 Z M106.436964,85.7243668 L106.436964,85.7243668 C101.248332,85.7679128 96.2392781,83.745028 92.4317921,80.0684387 C88.8152367,76.6521349 86.7687762,71.7882699 86.8067843,66.6993664 C86.8447924,61.6104629 88.9636549,56.7804383 92.6307998,53.4233096 C96.4154221,49.8865653 101.330695,47.9525875 106.412088,48.0008832 L106.561344,48.0008832 C111.699432,47.991689 116.650169,50.0125596 120.41726,53.6568113 C124.033176,57.1006235 126.069202,61.9893748 126.014354,67.0961266 C125.91485,77.4739763 117.108756,85.7243668 106.412088,85.7243668 L106.436964,85.7243668 Z M106.433678,54.0510876 C102.953657,54.0192036 99.5876171,55.3436733 96.9950088,57.765016 C94.5027813,60.0587408 93.0475382,63.3377501 92.9835741,66.8037333 L92.9835741,66.8037333 C92.9390567,70.3033557 94.3281076,73.6565808 96.8019451,76.0214352 C99.3903695,78.509166 102.785136,79.883847 106.304969,79.869602 L106.304969,79.869602 C113.419211,80.1994474 119.459473,74.4887415 119.84088,67.0722101 C119.913567,63.5786548 118.556091,60.2181828 116.108315,57.8321352 C113.529748,55.3396124 110.142478,53.956871 106.626742,53.9615953 L106.412227,53.9615953 L106.433678,54.0510876 Z" id="e5Cc57-Copy-2"></path>
            <path d="M26,26 L26,12.9997829 C26,6.37160418 31.3692545,1 37.9988291,1 L166.001171,1 C172.625828,1 178,6.37865993 178,12.9997829 L178,167.000217 C178,173.628396 172.630745,179 166.001171,179 L37.9988291,179 C31.3741717,179 26,173.62134 26,167.000217 L26,152 L34,152 L34,167.000217 C34,169.204556 35.7939454,171 37.9988291,171 L166.001171,171 C168.211684,171 170,169.210901 170,167.000217 L170,12.9997829 C170,10.7954436 168.206055,9 166.001171,9 L37.9988291,9 C35.7883163,9 34,10.7890988 34,12.9997829 L34,26 L26,26 Z M26,64 L34,64 L34,113 L26,113 L26,64 Z" id="Combined-Shape"></path>
            <path d="M14.0074199,39.5 L43.9925801,39.5 C43.7175111,39.5 43.5,39.2829097 43.5,38.9925398 L43.5,51.0074602 C43.5,50.7237879 43.7248527,50.5 43.9925801,50.5 L14.0074199,50.5 C14.2824889,50.5 14.5,50.7170903 14.5,51.0074602 L14.5,38.9925398 C14.5,39.2762121 14.2751473,39.5 14.0074199,39.5 Z M7.5,51.0074602 C7.5,54.586121 10.4195266,57.5 14.0074199,57.5 L43.9925801,57.5 C47.5834273,57.5 50.5,54.5972389 50.5,51.0074602 L50.5,38.9925398 C50.5,35.413879 47.5804734,32.5 43.9925801,32.5 L14.0074199,32.5 C10.4165727,32.5 7.5,35.4027611 7.5,38.9925398 L7.5,51.0074602 Z" id="Rectangle-4"></path>
            <path d="M14.5074199,127 L44.4925801,127 C44.2175111,127 44,126.78291 44,126.49254 L44,138.50746 C44,138.223788 44.2248527,138 44.4925801,138 L14.5074199,138 C14.7824889,138 15,138.21709 15,138.50746 L15,126.49254 C15,126.776212 14.7751473,127 14.5074199,127 Z M8,138.50746 C8,142.086121 10.9195266,145 14.5074199,145 L44.4925801,145 C48.0834273,145 51,142.097239 51,138.50746 L51,126.49254 C51,122.913879 48.0804734,120 44.4925801,120 L14.5074199,120 C10.9165727,120 8,122.902761 8,126.49254 L8,138.50746 Z" id="Rectangle-4"></path>
        </g>
    </g>
</svg>