<?xml version="1.0" encoding="UTF-8"?>
<svg width="180px" height="180px" viewBox="0 0 180 180" version="1.1" xmlns="http://www.w3.org/2000/svg" xmlns:xlink="http://www.w3.org/1999/xlink">
    <!-- Generator: Sketch 40.1 (33804) - http://www.bohemiancoding.com/sketch -->
    <title>content</title>
    <desc>Created with Sketch.</desc>
    <defs></defs>
    <g id="iconos" stroke="none" stroke-width="1" fill="none" fill-rule="evenodd">
        <g id="content" fill="#000000">
            <path d="M60.0588479,46.3306023 L55.5996447,46.0470063 L95,83 L102,83 L105,83 L60.4008491,40.9530456 C59.1760012,39.7985912 57.3028757,39.6794644 55.941646,40.6694497 L32,58 C30.4367159,59.1369339 32,62 32,62 L32,67 L60.0588479,46.3306023 Z" id="Path-12"></path>
            <path d="M7,163.005258 C7,168.518937 11.479133,173 16.9947424,173 L163.005258,173 C168.518937,173 173,168.520867 173,163.005258 L173,16.9947424 C173,11.4810627 168.520867,7 163.005258,7 L16.9947424,7 C11.4810627,7 7,11.479133 7,16.9947424 L7,163.005258 Z M16.9947424,0 L163.005258,0 C172.391195,0 180,7.61940513 180,16.9947424 L180,163.005258 C180,172.391195 172.380595,180 163.005258,180 L16.9947424,180 C7.60880534,180 0,172.380595 0,163.005258 L0,16.9947424 C0,7.60880534 7.61940513,0 16.9947424,0 Z" id="Rectangle-12"></path>
            <path d="M133.5,56.5 C133.5,48.2157288 126.784271,41.5 118.5,41.5 C110.215729,41.5 103.5,48.2157288 103.5,56.5 C103.5,64.7842712 110.215729,71.5 118.5,71.5 C126.784271,71.5 133.5,64.7842712 133.5,56.5 Z M110.5,56.5 C110.5,52.081722 114.081722,48.5 118.5,48.5 C122.918278,48.5 126.5,52.081722 126.5,56.5 C126.5,60.918278 122.918278,64.5 118.5,64.5 C114.081722,64.5 110.5,60.918278 110.5,56.5 Z" id="Oval-5"></path>
            <g id="Group" transform="translate(25.000000, 25.000000)">
                <path d="M7,59.0014648 C7,58.4435939 6.55580717,58 6.00944592,58 L123.990554,58 C123.448765,58 123,58.448214 123,59.0014648 L123,5.99853516 C123,6.55640608 123.444193,7 123.990554,7 L6.00944592,7 C6.55123535,7 7,6.55178603 7,5.99853516 L7,59.0014648 Z M6.00944592,0 L123.990554,0 C127.309479,0 130,2.68970112 130,5.99853516 L130,59.0014648 C130,62.3143643 127.314606,65 123.990554,65 L6.00944592,65 C2.69052058,65 0,62.3102989 0,59.0014648 L0,5.99853516 C0,2.68563567 2.68539443,0 6.00944592,0 Z" id="Rectangle-14"></path>
            </g>
            <path d="M150.260417,118 C152.878016,118 155,116.432997 155,114.5 C155,112.567003 152.878016,111 150.260417,111 L29.7395833,111 C27.1219837,111 25,112.567003 25,114.5 C25,116.432997 27.1219837,118 29.7395833,118 L150.260417,118 Z" id="Line-Copy-2"></path>
            <path d="M150.260417,146 C152.878016,146 155,144.432997 155,142.5 C155,140.567003 152.878016,139 150.260417,139 L29.7395833,139 C27.1219837,139 25,140.567003 25,142.5 C25,144.432997 27.1219837,146 29.7395833,146 L150.260417,146 Z" id="Line-Copy-3"></path>
        </g>
    </g>
</svg>