<?xml version="1.0" encoding="UTF-8"?>
<svg width="128px" height="128px" viewBox="0 0 128 128" version="1.1" xmlns="http://www.w3.org/2000/svg" xmlns:xlink="http://www.w3.org/1999/xlink">
    <!-- Generator: Sketch 47.1 (45422) - http://www.bohemiancoding.com/sketch -->
    <title>contact</title>
    <desc>Created with Sketch.</desc>
    <defs></defs>
    <g id="iconos" stroke="none" stroke-width="1" fill="none" fill-rule="evenodd">
        <g id="contact">
            <rect id="Rectangle-30" stroke="#000000" stroke-width="9" x="19" y="4" width="105" height="120" rx="8"></rect>
            <path d="M87.0225219,58.390148 C86.9687892,58.530552 86.8763089,58.6628068 86.7398682,58.7838391 C85.6378079,59.7614426 86.4672685,60.7212493 87.1318472,60.9109404 C95.410212,63.2738399 99.6511209,67.0434423 101.130603,76.2297033 C102.459776,84.4826806 97.8319968,89.6536898 89.0369092,90.268107 L75.9794998,90.9932999 C75.7194287,91.0341037 75.4515568,91.0496693 75.1786405,91.03753 C74.9057241,91.0496693 74.6378522,91.0341037 74.3777811,90.9932999 L61.3203717,90.268107 C52.5252841,89.6536898 47.8975044,84.4826806 49.2266778,76.2297033 C50.70616,67.0434423 54.9470689,63.2738399 63.2254337,60.9109404 C63.7946398,60.7484715 64.2391368,60.1151874 63.6659657,59.148307 C60.7179241,56.0994185 59,51.9414083 59,47.5 C59,38.423008 66.1260877,31 75,31 C83.8739123,31 91,38.423008 91,47.5 C91,51.58509 89.546489,55.4289114 87.0225219,58.390148 Z M78.2860478,58.4358894 C78.3094339,57.0469952 78.5850595,55.8044915 79.4726562,54.9599609 C81.4218082,53.1053819 83,50.3855754 83,47.5 C83,42.7698733 79.3809217,39 75,39 C70.6190783,39 67,42.7698733 67,47.5 C67,50.3444404 68.5057112,52.7171076 70.4710743,54.5066969 C71.2345933,55.20193 71.8592762,56.422557 71.9621603,57.672749 C72.0370417,57.9609607 72.0795015,58.2598447 72.0854416,58.5647584 C72.1835482,63.6007165 69.8862961,67.3292284 65.4211857,68.603708 C59.8562207,70.1921199 58.0424986,71.804277 57.1249002,77.501742 C56.5803756,80.8827527 57.5681558,81.986483 61.8208242,82.2839804 L75.2234998,83.0475839 L88.5364567,82.2839804 C92.7891251,81.986483 93.7769053,80.8827527 93.2323807,77.501742 C92.3147823,71.804277 90.5010602,70.1921199 84.9360952,68.603708 C80.5446829,67.3502641 78.241721,63.7099218 78.2691767,58.7838391 C78.2698303,58.6665813 78.2755228,58.55053 78.2860478,58.4358894 Z" id="Combined-Shape" fill="#000000" fill-rule="nonzero"></path>
            <rect id="Rectangle-31" fill="#000000" x="1" y="23" width="37" height="10" rx="5"></rect>
            <rect id="Rectangle-31-Copy" fill="#000000" x="1" y="99" width="37" height="10" rx="5"></rect>
            <rect id="Rectangle-31-Copy-2" fill="#000000" x="1" y="61" width="37" height="10" rx="5"></rect>
        </g>
    </g>
</svg>