<?xml version="1.0" encoding="UTF-8"?>
<svg width="152px" height="152px" viewBox="0 0 152 152" version="1.1" xmlns="http://www.w3.org/2000/svg" xmlns:xlink="http://www.w3.org/1999/xlink">
    <!-- Generator: Sketch 43.1 (39012) - http://www.bohemiancoding.com/sketch -->
    <title>cover</title>
    <desc>Created with Sketch.</desc>
    <defs></defs>
    <g id="Page-1" stroke="none" stroke-width="1" fill="none" fill-rule="evenodd">
        <g id="cover" fill-rule="nonzero">
            <path d="M152.002075,123 L143.997925,123 C135.71498,123 129,116.285759 129,108.004725 L129,43.9952753 C129,35.7125778 135.712765,29 143.997925,29 L152.002075,29 L152.002075,21 L143.997925,21 C131.294536,21 121,31.2942499 121,43.9952753 L121,108.004725 C121,120.704235 131.296899,131 143.997925,131 L152.002075,131 L152.002075,123 Z" id="Rectangle-6" fill="#0E0E0E" transform="translate(136.501037, 76.000000) scale(-1, 1) translate(-136.501037, -76.000000) "></path>
            <path d="M31.0020749,123 L22.9979251,123 C14.7149801,123 8,116.285759 8,108.004725 L8,43.9952753 C8,35.7125778 14.7127645,29 22.9979251,29 L31.0020749,29 L31.0020749,21 L22.9979251,21 C10.2945364,21 0,31.2942499 0,43.9952753 L0,108.004725 C0,120.704235 10.2968993,131 22.9979251,131 L31.0020749,131 L31.0020749,123 Z" id="Rectangle-6" fill="#0E0E0E"></path>
            <path d="M33,30.0079447 L33,120.992055 C33,129.28335 39.7159504,136 48.0029641,136 L103.997036,136 C112.282847,136 119,129.281295 119,120.992055 L119,30.0079447 C119,21.7166501 112.28405,15 103.997036,15 L48.0029641,15 C39.7171533,15 33,21.7187052 33,30.0079447 Z M25,30.0079447 C25,17.3010077 35.2982947,7 48.0029641,7 L103.997036,7 C116.701222,7 127,17.2972666 127,30.0079447 L127,120.992055 C127,133.698992 116.701705,144 103.997036,144 L48.0029641,144 C35.2987778,144 25,133.702733 25,120.992055 L25,30.0079447 Z" id="Rectangle-4" fill="#000000"></path>
            <path d="M74.2718696,86.4563894 C75.3436033,85.8478702 76.6563967,85.8478702 77.7281304,86.4563894 L86.0970278,91.2081623 L84.4315242,80.7206807 C84.2606858,79.6449317 84.6004187,78.5509662 85.3505847,77.7612366 L92.6465644,70.0804682 L82.8046908,68.5359516 C81.6440673,68.3538113 80.6522443,67.6015248 80.1639491,66.5329792 L76,57.4209303 L71.8360509,66.5329792 C71.3477557,67.6015248 70.3559327,68.3538113 69.1953092,68.5359516 L59.3534356,70.0804682 L66.6494153,77.7612366 C67.3995813,78.5509662 67.7393142,79.6449317 67.5684758,80.7206807 L65.9029722,91.2081623 L74.2718696,86.4563894 Z M63.0334991,100.887069 C60.4826144,102.335435 57.388604,100.191592 57.8486864,97.2945075 L60.3840888,81.3293746 L49.6859653,70.067034 C47.7431551,68.0217603 48.8941387,64.6362052 51.6809622,64.1988601 L66.251322,61.9122871 L72.8166334,47.5452914 C74.0628206,44.8182362 77.9371794,44.8182362 79.1833666,47.5452914 L85.748678,61.9122871 L100.319038,64.1988601 C103.105861,64.6362052 104.256845,68.0217603 102.314035,70.067034 L91.6159112,81.3293746 L94.1513136,97.2945075 C94.611396,100.191592 91.5173856,102.335435 88.9665009,100.887069 L76,93.524825 L63.0334991,100.887069 Z" id="Star" fill="#000000"></path>
        </g>
    </g>
</svg>