<?xml version="1.0" encoding="UTF-8"?>
<svg width="180px" height="180px" viewBox="0 0 180 180" version="1.1" xmlns="http://www.w3.org/2000/svg" xmlns:xlink="http://www.w3.org/1999/xlink">
    <!-- Generator: Sketch 47.1 (45422) - http://www.bohemiancoding.com/sketch -->
    <title>credential</title>
    <desc>Created with Sketch.</desc>
    <defs></defs>
    <g id="iconos" stroke="none" stroke-width="1" fill="none" fill-rule="evenodd">
        <g id="credential" fill-rule="nonzero" fill="#000000">
            <path d="M21.1736111,43 C18.3163046,43 16,45.3100202 16,48.1595745 L16,134.840426 C16,137.68998 18.3163046,140 21.1736111,140 L159.826389,140 C162.683695,140 165,137.68998 165,134.840426 L165,48.1595745 C165,45.3100202 162.683695,43 159.826389,43 L21.1736111,43 Z M23,26 L157,26 C169.702549,26 180,36.2974508 180,49 L180,133 C180,145.702549 169.702549,156 157,156 L23,156 C10.2974508,156 2.91830052e-15,145.702549 0,133 L0,49 C-2.91830052e-15,36.2974508 10.2974508,26 23,26 Z" id="Rectangle-19"></path>
            <path d="M46.6724255,93.6069114 C41.4082244,89.6863588 38,83.4954491 38,76.5 C38,64.5825017 47.8916146,55 60,55 C72.1083854,55 82,64.5825017 82,76.5 C82,83.5017565 78.5856267,89.6975223 73.3133305,93.6175108 C82.2466518,97.7909779 87.8535805,106.862417 89.7247081,120.164225 C90.2325956,123.774788 87.4293124,127 83.7832031,127 L36,127 C32.4986435,127 29.7411431,124.014334 30.0189101,120.524012 C31.0919006,107.041197 36.8243846,97.8225999 46.6724255,93.6069114 Z M60,87 C66.1504873,87 71.0526316,82.2510478 71.0526316,76.5 C71.0526316,70.7489522 66.1504873,66 60,66 C53.8495127,66 48.9473684,70.7489522 48.9473684,76.5 C48.9473684,82.2510478 53.8495127,87 60,87 Z M77.6770625,116 C74.6935795,106.194278 68.8104897,102.13278 59.2833771,102.552575 C49.6957062,102.975039 44.102523,107.094784 41.7336604,115.999994 L77.6770625,116 Z" id="Combined-Shape"></path>
            <path d="M106,72.5 L143,72.5 C146.313708,72.5 149,70.2614237 149,67.5 C149,64.7385763 146.313708,62.5 143,62.5 L106,62.5 C102.686292,62.5 100,64.7385763 100,67.5 C100,70.2614237 102.686292,72.5 106,72.5 Z" id="Line"></path>
            <path d="M106,96.5 L131,96.5 C134.313708,96.5 137,94.2614237 137,91.5 C137,88.7385763 134.313708,86.5 131,86.5 L106,86.5 C102.686292,86.5 100,88.7385763 100,91.5 C100,94.2614237 102.686292,96.5 106,96.5 Z" id="Line"></path>
            <path d="M106,121.5 L143,121.5 C146.313708,121.5 149,119.261424 149,116.5 C149,113.738576 146.313708,111.5 143,111.5 L106,111.5 C102.686292,111.5 100,113.738576 100,116.5 C100,119.261424 102.686292,121.5 106,121.5 Z" id="Line"></path>
        </g>
    </g>
</svg>