<?xml version="1.0" encoding="utf-8"?>
<!-- Generator: Adobe Illustrator 19.2.0, SVG Export Plug-In . SVG Version: 6.00 Build 0)  -->
<svg version="1.1" id="Capa_1" xmlns="http://www.w3.org/2000/svg" xmlns:xlink="http://www.w3.org/1999/xlink" x="0px" y="0px"
	 viewBox="0 0 32 32" style="enable-background:new 0 0 32 32;" xml:space="preserve">
<style type="text/css">
	.st0{fill:#010202;}
</style>
<path class="st0" d="M29.5,5.5c0.6,0,1.2,0.2,1.5,0.6c0.4,0.4,0.6,1,0.6,1.7v16.6c0,0.9-0.8,1.7-1.7,1.7H2.2c-0.9,0-1.7-0.8-1.7-1.7
	V7.2c0-0.9,0.8-1.7,1.7-1.7L29.5,5.5L29.5,5.5 M29.5,4.1C29.5,4.1,29.4,4.1,29.5,4.1l-27.2,0c-1.7,0-3.1,1.4-3.1,3.1v17.1
	c0,1.7,1.4,3.1,3.1,3.1H30c1.7,0,3.1-1.4,3.1-3.1V7.8c0-1.1-0.4-2-1-2.7C31.4,4.5,30.5,4.1,29.5,4.1L29.5,4.1z M14.2,18.9
	c-0.4-0.7-1-1.3-1.8-1.7c-0.5-0.3-1.1-0.5-1.8-0.6c1.6-0.6,2.7-2.1,2.7-3.9c0-2.3-1.9-4.2-4.2-4.2S5,10.5,5,12.8
	c0,1.8,1.1,3.3,2.7,3.9C7,16.8,6.4,17,5.9,17.3c-0.7,0.4-1.4,1-1.8,1.7c-0.7,1.2-0.8,2.3-0.8,2.5c0,0.8,0.6,1.5,1.4,1.5h8.9
	c0.8,0,1.4-0.7,1.4-1.5C15,21.3,15,20.1,14.2,18.9z M6.1,12.8c0-1.7,1.4-3.1,3.1-3.1s3.1,1.4,3.1,3.1s-1.4,3.1-3.1,3.1
	S6.1,14.5,6.1,12.8z M13.6,21.8H4.7c-0.1,0-0.3-0.2-0.3-0.4c0,0,0-1,0.6-1.9c0.3-0.5,0.8-1,1.4-1.3c0.7-0.4,1.7-0.6,2.7-0.6
	s2,0.2,2.7,0.6c0.6,0.3,1,0.7,1.4,1.3c0.6,0.9,0.6,1.9,0.6,1.9C13.9,21.6,13.7,21.8,13.6,21.8z M27.9,10.7c0-0.3-0.2-0.5-0.5-0.5
	h-9.1c-0.3,0-0.5,0.2-0.5,0.5s0.2,0.5,0.5,0.5h9.1C27.7,11.1,27.9,10.9,27.9,10.7z M25.1,18c0-0.3-0.2-0.5-0.5-0.5h-6.3
	c-0.3,0-0.5,0.2-0.5,0.5c0,0.3,0.2,0.5,0.5,0.5h6.3C24.8,18.4,25.1,18.2,25.1,18z M25.1,14.3c0-0.3-0.2-0.5-0.5-0.5h-6.3
	c-0.3,0-0.5,0.2-0.5,0.5c0,0.3,0.2,0.5,0.5,0.5h6.3C24.8,14.8,25.1,14.6,25.1,14.3z M27.9,21.6c0-0.3-0.2-0.5-0.5-0.5h-9.1
	c-0.3,0-0.5,0.2-0.5,0.5s0.2,0.5,0.5,0.5h9.1C27.7,22.1,27.9,21.9,27.9,21.6z"/>
</svg>
