<?xml version="1.0" encoding="UTF-8" standalone="no"?>
<svg width="180px" height="180px" viewBox="0 0 180 180" version="1.1" xmlns="http://www.w3.org/2000/svg" xmlns:xlink="http://www.w3.org/1999/xlink">
    <!-- Generator: Sketch 3.6 (26304) - http://www.bohemiancoding.com/sketch -->
    <title>credential-o</title>
    <desc>Created with Sketch.</desc>
    <defs></defs>
    <g id="iconos" stroke="none" stroke-width="1" fill="none" fill-rule="evenodd">
        <g id="credential-o" fill="#000000">
            <path d="M42,17.0040895 L42,17.0040895 L42,171.99591 C42,172.548164 42.4510371,173 42.9952732,173 L142.004727,173 C142.550529,173 143,172.550194 143,171.99591 L143,17.0040895 C143,16.4518356 142.548963,16 142.004727,16 L42.9952732,16 C42.4494709,16 42,16.449806 42,17.0040895 L42,17.0040895 Z M35,17.0040895 C35,12.5835529 38.5837355,9 42.9952732,9 L142.004727,9 C146.420394,9 150,12.5912798 150,17.0040895 L150,171.99591 C150,176.416447 146.416265,180 142.004727,180 L42.9952732,180 C38.5796057,180 35,176.40872 35,171.99591 L35,17.0040895 L35,17.0040895 Z" id="Rectangle-2"></path>
            <path d="M61.8495419,140 L125.586378,140 C128.264707,140 130.43592,138.432997 130.43592,136.5 C130.43592,134.567003 128.264707,133 125.586378,133 L61.8495419,133 C59.1712139,133 57,134.567003 57,136.5 C57,138.432997 59.1712139,140 61.8495419,140 L61.8495419,140 Z" id="Line"></path>
            <path d="M61.8495419,158 L125.586378,158 C128.264707,158 130.43592,156.432997 130.43592,154.5 C130.43592,152.567003 128.264707,151 125.586378,151 L61.8495419,151 C59.1712139,151 57,152.567003 57,154.5 C57,156.432997 59.1712139,158 61.8495419,158 L61.8495419,158 Z" id="Line"></path>
            <path d="M91.5,44.5 C98.127417,44.5 103.5,39.127417 103.5,32.5 C103.5,25.872583 98.127417,20.5 91.5,20.5 C84.872583,20.5 79.5,25.872583 79.5,32.5 C79.5,39.127417 84.872583,44.5 91.5,44.5 L91.5,44.5 Z M91.5,39.5 C87.6340068,39.5 84.5,36.3659932 84.5,32.5 C84.5,28.6340068 87.6340068,25.5 91.5,25.5 C95.3659932,25.5 98.5,28.6340068 98.5,32.5 C98.5,36.3659932 95.3659932,39.5 91.5,39.5 L91.5,39.5 Z" id="Oval-1"></path>
            <path d="M70,63.9920201 L70,63.9920201 L70,101.00798 C70,102.659126 71.3406038,104 72.9920201,104 L110.00798,104 C111.659126,104 113,102.659396 113,101.00798 L113,63.9920201 C113,62.340874 111.659396,61 110.00798,61 L72.9920201,61 C71.340874,61 70,62.3406038 70,63.9920201 L70,63.9920201 Z M65,63.9920201 C65,59.5781493 68.5804811,56 72.9920201,56 L110.00798,56 C114.421851,56 118,59.5804811 118,63.9920201 L118,101.00798 C118,105.421851 114.419519,109 110.00798,109 L72.9920201,109 C68.5781493,109 65,105.419519 65,101.00798 L65,63.9920201 L65,63.9920201 Z" id="Rectangle-3"></path>
            <path d="M86.385169,108.840782 L81.9249916,108.840782 C80.5797521,108.815784 79.2470936,108.565601 77.977932,108.09979 C75.9089488,107.419527 74.4185749,105.531658 74.1755979,103.283342 C73.6388711,99.3213137 74.3401152,95.2843493 76.1754415,91.7705222 C77.4636387,89.2029027 79.9768422,87.5568087 82.7538741,87.461791 C83.4944415,87.4334715 84.2304874,87.5935981 84.8984432,87.9283415 C85.4641884,88.202783 86.0167768,88.5183907 86.5693651,88.8202763 C87.3190994,89.2642193 88.0971857,89.6539286 88.8981303,89.9866526 C91.7401134,91.0676168 94.8967637,90.7655748 97.5027202,89.1633282 L97.9368968,88.9026087 C98.1533112,88.7402855 98.3772484,88.5891602 98.6078969,88.4497803 L99.1078578,88.1753388 C99.7036662,87.763703 100.384471,87.5050748 101.094544,87.4206247 C102.677195,87.3417967 104.241826,87.7990989 105.554722,88.7242218 C107.023825,89.7387458 108.158329,91.1998332 108.804468,92.9094544 C110.070998,96.0342613 110.559779,99.4422277 110.225409,102.816792 C109.855056,106.044005 107.299682,108.517544 104.186408,108.662395 C103.186486,108.772172 102.160251,108.785894 101.212956,108.785894 L86.385169,108.785894 L86.385169,108.840782 Z M83.9944574,91.5166881 L83.9246461,91.5166881 C82.1282722,91.5712082 80.5096131,92.5476217 79.712701,94.057433 C78.2833782,96.5681676 77.7492392,99.4418043 78.1884889,102.257605 C78.3150207,103.414758 79.1669194,104.389145 80.3526375,104.732923 C81.2550739,105.028362 82.2011127,105.190236 83.1567225,105.212721 L89.6026274,105.212721 L100.144125,105.212721 C100.970225,105.212721 101.78469,105.212721 102.575884,105.125485 C104.461984,105.066418 106.01686,103.720572 106.229339,101.963184 C106.489146,99.5320927 106.088904,97.0789014 105.065818,94.8316514 C104.631824,93.7798257 103.864358,92.8778874 102.866764,92.2472886 C102.063787,91.7316755 101.105183,91.4717127 100.13249,91.5057836 C99.8173172,91.5757029 99.5179059,91.6975457 99.2482144,91.8656316 L98.7013596,92.1491482 C98.5377812,92.2248849 98.3785485,92.3086007 98.2243161,92.3999514 L97.7356374,92.661659 C94.9198053,94.1750044 91.5348054,94.4463554 88.4856475,93.4031639 C87.6850274,93.109379 86.9074308,92.7632173 86.158606,92.3672379 C85.821185,92.1491482 85.3092358,91.9201541 84.8438275,91.7674913 C84.5823172,91.6296107 84.293071,91.5442017 83.9944574,91.5166881 L83.9944574,91.5166881 Z M92.2136604,85.9523628 L92.2136604,85.9523628 C89.4694005,85.9753943 86.820119,84.9054934 84.8063451,82.9609507 C82.8935543,81.1540726 81.8111843,78.5815814 81.8312867,75.8900678 C81.8513892,73.1985541 82.9720524,70.6439611 84.9116001,68.8683806 C86.9132813,66.9978017 89.5129621,65.9749236 92.2005035,66.0004671 L92.2794447,66.0004671 C94.9969721,65.9956044 97.6154098,67.0644398 99.6078187,68.9918793 C101.520271,70.8133066 102.597122,73.39896 102.568113,76.0999136 C102.515486,81.5887433 97.8579556,85.9523628 92.2005035,85.9523628 L92.2136604,85.9523628 Z M92.2119225,69.2004114 C90.3713444,69.183548 88.5910506,69.8840582 87.2198238,71.1647028 C85.9016884,72.3778505 85.1320124,74.1121138 85.0981819,75.9452673 L85.0981819,75.9452673 C85.0746367,77.7962124 85.8093037,79.5697283 87.1177127,80.8204964 C88.4867267,82.1362536 90.2822136,82.8633204 92.1438485,82.8557862 L92.1438485,82.8557862 C95.9065605,83.030241 99.1012464,80.0098569 99.3029718,76.0872642 C99.3414158,74.2395279 98.6234487,72.4621791 97.3288237,71.200202 C95.9650235,69.8819104 94.1735013,69.1505804 92.3140337,69.1530791 L92.2005769,69.1530791 L92.2119225,69.2004114 Z" id="e5Cc57-Copy-3"></path>
            <path d="M93.080164,30.9693943 L75.580164,1.46939426 C74.7348338,0.044409052 72.8943795,-0.42549417 71.4693943,0.419836038 C70.0444091,1.26516625 69.5745058,3.10562053 70.419836,4.53060574 L87.919836,34.0306057 C88.7651662,35.4555909 90.6056205,35.9254942 92.0306057,35.080164 C93.4555909,34.2348338 93.9254942,32.3943795 93.080164,30.9693943 L93.080164,30.9693943 Z" id="Line"></path>
            <path d="M104.457696,14.720387 L111.457696,4.72038703 C112.407839,3.36303914 112.077735,1.49244776 110.720387,0.542304238 C109.363039,-0.407839284 107.492448,-0.0777349219 106.542304,1.27961297 L99.5423042,11.279613 C98.5921607,12.6369609 98.9222651,14.5075522 100.279613,15.4576958 C101.636961,16.4078393 103.507552,16.0777349 104.457696,14.720387 L104.457696,14.720387 Z" id="Line"></path>
        </g>
    </g>
</svg>