<?xml version="1.0" encoding="UTF-8"?>
<svg width="180px" height="180px" viewBox="0 0 180 180" version="1.1" xmlns="http://www.w3.org/2000/svg" xmlns:xlink="http://www.w3.org/1999/xlink">
    <!-- Generator: Sketch 40.1 (33804) - http://www.bohemiancoding.com/sketch -->
    <title>crm</title>
    <desc>Created with Sketch.</desc>
    <defs></defs>
    <g id="iconos" stroke="none" stroke-width="1" fill="none" fill-rule="evenodd">
        <g id="crm" fill="#000000">
            <path d="M8,145.918738 C8,147.88565 10.0547287,149.480148 12.5893651,149.480148 L45.1764718,149.480148 C47.1008537,149.480148 48.8208669,148.548486 49.4843968,147.146718 L77.4769094,88.0099712 C77.8839471,87.1500668 77.8483338,86.2015157 77.377471,85.3614601 L47.5465978,32.1408779 C46.8179099,30.8408424 45.1650021,30 43.3381113,30 L12.5893651,30 C10.0547287,30 8,31.5944973 8,33.5614094 L8,145.918738 Z M12.5893651,37.1228187 L43.3381113,37.1228187 L39.1296247,34.9819409 L68.9604979,88.2025231 L68.8610595,85.554012 L40.8685469,144.690759 L45.1764718,142.357329 L12.5893651,142.357329 L17.1787302,145.918738 L17.1787302,33.5614094 L12.5893651,37.1228187 Z" id="Path-15"></path>
            <path d="M92.1764718,149.480148 C94.1008537,149.480148 95.8208669,148.548486 96.4843968,147.146718 L124.476909,88.0099712 C124.883947,87.1500668 124.848334,86.2015157 124.377471,85.3614601 L94.5465978,32.1408779 C93.8179099,30.8408424 92.1650021,30 90.3381113,30 L59.5893651,30 C57.0547287,30 55,31.5944973 55,33.5614094 C55,35.5283215 57.0547287,37.1228187 59.5893651,37.1228187 L90.3381113,37.1228187 L86.1296247,34.9819409 L115.960498,88.2025231 L115.861059,85.554012 L87.8685469,144.690759 L92.1764718,142.357329 L59.5893651,142.357329 C57.0547287,142.357329 55,143.951826 55,145.918738 C55,147.88565 57.0547287,149.480148 59.5893651,149.480148 L92.1764718,149.480148 Z" id="Path-15-Copy"></path>
            <path d="M139.176472,149.480148 C141.100854,149.480148 142.820867,148.548486 143.484397,147.146718 L171.476909,88.0099712 C171.883947,87.1500668 171.848334,86.2015157 171.377471,85.3614601 L141.546598,32.1408779 C140.81791,30.8408424 139.165002,30 137.338111,30 L106.589365,30 C104.054729,30 102,31.5944973 102,33.5614094 C102,35.5283215 104.054729,37.1228187 106.589365,37.1228187 L137.338111,37.1228187 L133.129625,34.9819409 L162.960498,88.2025231 L162.861059,85.554012 L134.868547,144.690759 L139.176472,142.357329 L106.589365,142.357329 C104.054729,142.357329 102,143.951826 102,145.918738 C102,147.88565 104.054729,149.480148 106.589365,149.480148 L139.176472,149.480148 Z" id="Path-15-Copy-2"></path>
        </g>
    </g>
</svg>