<?xml version="1.0" encoding="UTF-8"?>
<svg width="128px" height="128px" viewBox="0 0 128 128" version="1.1" xmlns="http://www.w3.org/2000/svg" xmlns:xlink="http://www.w3.org/1999/xlink">
    <!-- Generator: Sketch 47.1 (45422) - http://www.bohemiancoding.com/sketch -->
    <title>crm</title>
    <desc>Created with Sketch.</desc>
    <defs></defs>
    <g id="iconos" stroke="none" stroke-width="1" fill="none" fill-rule="evenodd">
        <g id="crm" fill-rule="nonzero" fill="#000000">
            <path d="M32.0622226,30.2807255 C31.7647925,29.5090321 31.0230663,29 30.1960382,29 L12,29 C10.8954305,29 10,29.8954305 10,31 L10,98 C10,99.1045695 10.8954305,100 12,100 L30.1960382,100 C31.0230663,100 31.7647925,99.4909679 32.0622226,98.7192745 L45.2511932,64.5 L32.0622226,30.2807255 Z M12,19 L30.1960382,19 C35.1582066,19 39.608564,22.0541924 41.3931446,26.6843531 L55.9682478,64.5 L41.3931446,102.315647 C39.608564,106.945808 35.1582066,110 30.1960382,110 L12,110 C5.372583,110 3.29894842e-15,104.627417 1.77635684e-15,98 L0,31 C-1.52259158e-15,24.372583 5.372583,19 12,19 Z" id="Rectangle-8"></path>
            <path d="M81.3228987,64.5 L67.9953148,99.0789117 C67.5491697,100.236452 66.4365803,101 65.1960382,101 L53.5890811,101 C51.3799421,101 49.5890811,102.790861 49.5890811,105 C49.5890811,107.209139 51.3799421,109 53.5890811,109 L65.1960382,109 C69.7446925,109 73.8241869,106.200324 75.4600524,101.95601 L89.3420893,65.938549 C89.6989309,65.0127102 89.6989309,63.9872898 89.3420893,63.061451 L75.4600524,27.0439903 C73.8241869,22.7996764 69.7446925,20 65.1960382,20 L53.5890811,20 C51.3799421,20 49.5890811,21.790861 49.5890811,24 C49.5890811,26.209139 51.3799421,28 53.5890811,28 L65.1960382,28 C66.4365803,28 67.5491697,28.7635481 67.9953148,29.9210883 L81.3228987,64.5 Z" id="Rectangle-8"></path>
            <path d="M105.461861,99.2587304 C104.941358,100.609194 103.643337,101.5 102.196038,101.5 L90.5890811,101.5 C88.6560845,101.5 87.0890811,103.067003 87.0890811,105 C87.0890811,106.932997 88.6560845,108.5 90.5890811,108.5 L102.196038,108.5 C106.537936,108.5 110.431998,105.827582 111.993506,101.776191 L125.875543,65.7587304 C126.18778,64.9486214 126.18778,64.0513786 125.875543,63.2412696 L111.993506,27.2238089 C110.431998,23.1724184 106.537936,20.5 102.196038,20.5 L90.5890811,20.5 C88.6560845,20.5 87.0890811,22.0670034 87.0890811,24 C87.0890811,25.9329966 88.6560845,27.5 90.5890811,27.5 L102.196038,27.5 C103.643337,27.5 104.941358,28.3908061 105.461861,29.7412696 L118.858751,64.5 L105.461861,99.2587304 Z" id="Rectangle-8-Copy"></path>
        </g>
    </g>
</svg>