<?xml version="1.0" encoding="UTF-8"?>
<svg width="152px" height="152px" viewBox="0 0 152 152" version="1.1" xmlns="http://www.w3.org/2000/svg" xmlns:xlink="http://www.w3.org/1999/xlink">
    <!-- Generator: Sketch 43.1 (39012) - http://www.bohemiancoding.com/sketch -->
    <title>crop</title>
    <desc>Created with Sketch.</desc>
    <defs></defs>
    <g id="Page-1" stroke="none" stroke-width="1" fill="none" fill-rule="evenodd">
        <g id="crop" fill-rule="nonzero" fill="#0D0D0D">
            <path d="M128.992801,31.2432939 C128.997579,31.3282542 129,31.4138443 129,31.5 C129,31.6690045 128.990683,31.8358331 128.972536,32 C128.990683,32.1641669 129,32.3309955 129,32.5 L129,119 L146.5,119 C148.985281,119 151,121.014719 151,123.5 C151,125.985281 148.985281,128 146.5,128 L129,128 L129,147.5 C129,149.985281 126.985281,152 124.5,152 C122.014719,152 120,149.985281 120,147.5 L120,128 L32.5,128 C30.0147186,128 28,125.985281 28,123.5 C28,123.330995 28.0093167,123.164167 28.0274644,123 C28.0093167,122.835833 28,122.669005 28,122.5 L28,120.501812 C27.9999996,120.500692 27.9999996,120.499573 28,120.498454 L28,36 L4.5,36 C2.01471863,36 0,33.9852814 0,31.5 C0,29.0147186 2.01471863,27 4.5,27 L28,27 L28,4.5 C28,2.01471863 30.0147186,0 32.5,0 C34.9852814,0 37,2.01471863 37,4.5 L37,27 L120.488025,27 L136.332993,11.3031158 C138.098584,9.55402632 140.947795,9.56740289 142.696884,11.3329933 C144.445974,13.0985836 144.432597,15.9477946 142.667007,17.6968842 L128.992801,31.2432939 Z M120,40.1520497 L40.4082011,119 L120,119 L120,40.1520497 Z M111.40312,36 L37,36 L37,109.707763 L111.40312,36 Z" id="Combined-Shape"></path>
        </g>
    </g>
</svg>