<?xml version="1.0" encoding="utf-8"?>
<!-- Generator: Adobe Illustrator 19.2.0, SVG Export Plug-In . SVG Version: 6.00 Build 0)  -->
<svg version="1.1" id="Capa_1" xmlns="http://www.w3.org/2000/svg" xmlns:xlink="http://www.w3.org/1999/xlink" x="0px" y="0px"
	 viewBox="0 0 32 32" style="enable-background:new 0 0 32 32;" xml:space="preserve">
<path d="M16,11c-0.6,0-0.9,0.4-0.9,0.9v6.7c0,0.6,0.4,0.9,0.9,0.9c0.6,0,0.9-0.4,0.9-0.9v-6.7C16.9,11.3,16.5,11,16,11z M16.5,22.6
	c-0.4-0.4-0.9-0.4-1.3,0c-0.2,0.2-0.2,0.6-0.2,0.7c0,0.4,0,0.6,0.2,0.7c0.2,0.2,0.6,0.2,0.7,0.2c0.2,0,0.6,0,0.4-0.2
	c0.2-0.2,0.4-0.6,0.4-0.7C16.7,23,16.7,22.8,16.5,22.6z M31,22.8L20.1,3.7c-0.7-1.5-2.4-2.4-4.1-2.4c-1.7,0-3.1,0.9-4.1,2.4L1,22.8
	c-0.9,1.5-0.9,3.3,0,4.8C1.7,29.1,3.4,30,5,30h21.8c1.9,0,3.3-0.9,4.1-2.4C31.9,26.1,31.9,24.3,31,22.8L31,22.8z M29.5,26.9
	c-0.4,0.9-1.3,1.5-2.4,1.5h-22c-0.9,0-1.9-0.6-2.4-1.5c-0.6-0.9-0.6-2,0-3L13.6,4.9c0.4-0.9,1.3-1.5,2.4-1.5c1.1,0,2,0.6,2.6,1.5
	l10.9,19.1C30,24.8,30,26,29.5,26.9z"/>
</svg>
