<?xml version="1.0" encoding="UTF-8"?>
<svg width="152px" height="152px" viewBox="0 0 152 152" version="1.1" xmlns="http://www.w3.org/2000/svg" xmlns:xlink="http://www.w3.org/1999/xlink">
    <!-- Generator: Sketch 43.1 (39012) - http://www.bohemiancoding.com/sketch -->
    <title>deposit</title>
    <desc>Created with Sketch.</desc>
    <defs></defs>
    <g id="Page-1" stroke="none" stroke-width="1" fill="none" fill-rule="evenodd">
        <g id="deposit" fill="#000000">
            <path d="M118.303774,151.137449 C138.010576,137.384194 150,114.905176 150,90.414364 C150,49.5452925 116.869071,16.414364 76,16.414364 C35.1309285,16.414364 2,49.5452925 2,90.414364 C2,115.062959 14.145294,137.668625 34.0625842,151.391495 C36.0135614,152.735704 38.6848379,152.243821 40.0290472,150.292844 C41.3732565,148.341867 40.8813739,145.67059 38.9303967,144.326381 C21.3130573,132.188161 10.5797101,112.210508 10.5797101,90.414364 C10.5797101,54.2837356 39.8693716,24.9940742 76,24.9940742 C112.130628,24.9940742 141.42029,54.2837356 141.42029,90.414364 C141.42029,112.071099 130.824834,131.936561 113.393584,144.101722 C111.450721,145.457634 110.974904,148.131818 112.330815,150.074681 C113.686727,152.017543 116.360912,152.493361 118.303774,151.137449 Z" id="Oval-3" fill-rule="nonzero" transform="translate(76.000000, 84.281777) scale(1, -1) translate(-76.000000, -84.281777) "></path>
            <path d="M79,4.75903124 L95.7209371,22.7661942 C97.0362467,24.1826816 99.2508058,24.2647023 100.667293,22.9493926 C102.08378,21.6340829 102.165801,19.4195239 100.850492,18.0030365 L78.2076344,-6.38157885 C76.8229225,-7.87280705 74.4627918,-7.87280705 73.0780799,-6.38157885 L50.4352228,18.0030365 C49.1199131,19.4195239 49.2019338,21.6340829 50.6184212,22.9493926 C52.0349085,24.2647023 54.2494675,24.1826816 55.5647772,22.7661942 L72,5.06672355 L72,36.5 C72,38.4329966 73.5670034,40 75.5,40 C77.4329966,40 79,38.4329966 79,36.5 L79,4.75903124 Z" id="Combined-Shape" fill-rule="nonzero" transform="translate(75.642857, 16.250000) scale(1, -1) translate(-75.642857, -16.250000) "></path>
            <path d="M77.1,109.726 L77.1,114.214 C77.1,115.27 76.11,115.93 74.988,115.93 C73.8,115.93 72.876,115.27 72.876,114.214 L72.876,109.726 C63.834,109.396 58.488,104.512 56.97,97.648 C56.904,97.384 56.904,97.12 56.904,96.856 C56.904,95.272 58.026,94.348 59.412,94.084 C59.676,94.018 59.94,94.018 60.204,94.018 C61.59,94.018 62.712,94.744 63.042,96.196 C64.23,101.212 66.738,103.918 72.876,104.512 L72.876,85.372 C63.372,83.458 58.026,79.498 58.026,71.38 C58.026,62.602 64.89,58.048 72.876,57.586 L72.876,54.352 C72.876,53.296 73.734,52.636 74.988,52.636 C76.176,52.636 77.1,53.296 77.1,54.352 L77.1,57.586 C84.426,58.114 89.64,62.338 91.29,68.146 C91.356,68.476 91.422,68.806 91.422,69.136 C91.422,70.456 90.498,71.248 89.244,71.578 C88.848,71.644 88.518,71.71 88.122,71.71 C86.934,71.71 85.878,71.182 85.548,69.862 C84.492,65.902 81.852,63.196 77.1,62.734 L77.1,80.224 C86.472,82.27 93.072,85.108 93.072,95.074 C93.072,104.776 85.548,109.462 77.1,109.726 Z M77.1,86.032 L77.1,104.512 C83.634,104.05 87.132,100.816 87.132,95.14 C87.132,88.606 82.842,87.418 77.1,86.032 Z M72.876,79.498 L72.876,62.734 C67.134,63.13 63.768,66.562 63.768,71.116 C63.768,75.472 65.814,78.112 72.876,79.498 Z" id="$"></path>
        </g>
    </g>
</svg>