<?xml version="1.0" encoding="UTF-8"?>
<svg width="152px" height="152px" viewBox="0 0 152 152" version="1.1" xmlns="http://www.w3.org/2000/svg" xmlns:xlink="http://www.w3.org/1999/xlink">
    <!-- Generator: Sketch 43.1 (39012) - http://www.bohemiancoding.com/sketch -->
    <title>diagram-operation</title>
    <desc>Created with Sketch.</desc>
    <defs></defs>
    <g id="Page-1" stroke="none" stroke-width="1" fill="none" fill-rule="evenodd">
        <g id="diagram-operation" fill-rule="nonzero" fill="#000000">
            <path d="M96.7964397,38.1011561 C86.4598672,38.1011561 78,29.8430282 78,19.5505781 C78,9.25812795 86.4598672,1 96.7964397,1 C107.133012,1 115.592879,9.25812795 115.592879,19.5505781 C115.592879,29.8430282 107.133012,38.1011561 96.7964397,38.1011561 Z M96.7964397,27.982659 C101.726025,27.982659 105.641823,24.160239 105.641823,19.5505781 C105.641823,14.9409171 101.726025,11.1184971 96.7964397,11.1184971 C91.8668549,11.1184971 87.9510563,14.9409171 87.9510563,19.5505781 C87.9510563,24.160239 91.8668549,27.982659 96.7964397,27.982659 Z" id="Oval-7"></path>
            <path d="M39.5115292,20.4595449 C19.278558,33.2546865 6.74999362,55.5001871 6.74999362,79.8867412 C6.74999362,118.696183 38.2190618,150.156973 77.0375327,150.156973 C115.856004,150.156973 147.325072,118.696183 147.325072,79.8867412 C147.325072,55.6316099 134.931876,33.4896815 114.875864,20.6582103 C112.782375,19.3188343 109.999488,19.9301635 108.660112,22.0236523 C107.320736,24.1171412 107.932065,26.900028 110.025554,28.2394039 C127.522628,39.4337129 138.325072,58.7335725 138.325072,79.8867412 C138.325072,113.72509 110.885971,141.156973 77.0375327,141.156973 C43.1890945,141.156973 15.7499936,113.72509 15.7499936,79.8867412 C15.7499936,58.6190629 26.6705692,39.2286792 44.3218789,28.0661562 C46.4223866,26.7378148 47.0483511,23.9581834 45.7200097,21.8576757 C44.3916683,19.757168 41.6120369,19.1312035 39.5115292,20.4595449 Z" id="Oval-8"></path>
            <path d="M54,76 L101,76 L101,58 L54,58 L54,76 Z M45,57.0007413 C45,52.5820539 48.5872694,49 53.0028462,49 L101.997154,49 C106.417004,49 110,52.5834312 110,57.0007413 L110,76.9992587 C110,81.4179461 106.412731,85 101.997154,85 L53.0028462,85 C48.5829963,85 45,81.4165688 45,76.9992587 L45,57.0007413 Z" id="Rectangle-14-Copy"></path>
            <path d="M59.0615385,113 L95.9384615,113 L95.9384615,99 L59.0615385,99 L59.0615385,113 Z M52,98.2227988 C52,94.7860419 54.8146268,92 58.2791562,92 L96.7208438,92 C100.188726,92 103,94.7871132 103,98.2227988 L103,113.777201 C103,117.213958 100.185373,120 96.7208438,120 L58.2791562,120 C54.811274,120 52,117.212887 52,113.777201 L52,98.2227988 Z" id="Rectangle-14-Copy-2"></path>
        </g>
    </g>
</svg>