<?xml version="1.0" encoding="UTF-8"?>
<svg width="152px" height="152px" viewBox="0 0 152 152" version="1.1" xmlns="http://www.w3.org/2000/svg" xmlns:xlink="http://www.w3.org/1999/xlink">
    <!-- Generator: Sketch 43.1 (39012) - http://www.bohemiancoding.com/sketch -->
    <title>diagram-fluid</title>
    <desc>Created with Sketch.</desc>
    <defs></defs>
    <g id="Page-1" stroke="none" stroke-width="1" fill="none" fill-rule="evenodd">
        <g id="diagram-fluid" fill-rule="nonzero" fill="#000000">
            <path d="M55,27 L102,27 L102,9 L55,9 L55,27 Z M46,8.00074125 C46,3.58205387 49.5872694,0 54.0028462,0 L102.997154,0 C107.417004,0 111,3.58343124 111,8.00074125 L111,27.9992587 C111,32.4179461 107.412731,36 102.997154,36 L54.0028462,36 C49.5829963,36 46,32.4165688 46,27.9992587 L46,8.00074125 Z" id="Rectangle-14"></path>
            <path d="M59.9617242,83 L82,95.7964182 L104.038276,83 L82,70.2035818 L59.9617242,83 Z M84.2596098,61.1084497 L115.25961,79.1084497 C118.246797,80.8429454 118.246797,85.1570546 115.25961,86.8915503 L84.2596098,104.89155 C82.8624289,105.702817 81.1375711,105.702817 79.7403902,104.89155 L48.7403902,86.8915503 C45.7532033,85.1570546 45.7532033,80.8429454 48.7403902,79.1084497 L79.7403902,61.1084497 C81.1375711,60.2971834 82.8624289,60.2971834 84.2596098,61.1084497 Z" id="Polygon"></path>
            <path d="M27.0441143,54.486358 L80.8523736,53.8405035 C83.337476,53.8106751 85.3278688,51.7719208 85.2980404,49.2868185 C85.268212,46.8017161 83.2294577,44.8113233 80.7443554,44.8411517 L22.5115089,45.5401141 C20.0559252,45.5695882 18.07742,47.5623444 18.0655704,50.0180763 L17.9089564,82.4748727 C17.8968318,84.9875835 19.9447936,87.0233978 22.4573878,86.9963251 L50.5229125,86.6939244 L77.5626931,102.941122 L77.6732086,117.982413 C77.6914687,120.467627 79.7209356,122.467489 82.2061499,122.449229 C84.6913642,122.430968 86.6912258,120.401502 86.6729657,117.916287 L86.5439042,100.35087 C86.5323845,98.7830257 85.7056427,97.3342066 84.3617031,96.5266833 L54.0661427,78.3232089 C53.3520942,77.8941638 52.5329666,77.671744 51.6999814,77.6807193 L26.9309066,77.9476014 L27.0441143,54.486358 Z" id="Path-13"></path>
            <path d="M81.5,151.5 C72.1513289,151.5 64.5,144.154724 64.5,135 C64.5,125.845276 72.1513289,118.5 81.5,118.5 C90.8486711,118.5 98.5,125.845276 98.5,135 C98.5,144.154724 90.8486711,151.5 81.5,151.5 Z M81.5,142.5 C85.9584476,142.5 89.5,139.10011 89.5,135 C89.5,130.89989 85.9584476,127.5 81.5,127.5 C77.0415524,127.5 73.5,130.89989 73.5,135 C73.5,139.10011 77.0415524,142.5 81.5,142.5 Z" id="Oval-7"></path>
            <path d="M77,36.5 L77,66.5 C77,68.9852814 79.0147186,71 81.5,71 C83.9852814,71 86,68.9852814 86,66.5 L86,36.5 C86,34.0147186 83.9852814,32 81.5,32 C79.0147186,32 77,34.0147186 77,36.5 Z" id="Line"></path>
        </g>
    </g>
</svg>