<?xml version="1.0" encoding="UTF-8"?>
<svg width="152px" height="152px" viewBox="0 0 152 152" version="1.1" xmlns="http://www.w3.org/2000/svg" xmlns:xlink="http://www.w3.org/1999/xlink">
    <!-- Generator: Sketch 43.1 (39012) - http://www.bohemiancoding.com/sketch -->
    <title>discharge</title>
    <desc>Created with Sketch.</desc>
    <defs></defs>
    <g id="Page-1" stroke="none" stroke-width="1" fill="none" fill-rule="evenodd">
        <g id="discharge" fill="#000000">
            <path d="M118.303774,135.137449 C138.010576,121.384194 150,98.9051762 150,74.414364 C150,33.5452925 116.869071,0.414364007 76,0.414364007 C35.1309285,0.414364007 2,33.5452925 2,74.414364 C2,99.0629586 14.145294,121.668625 34.0625842,135.391495 C36.0135614,136.735704 38.6848379,136.243821 40.0290472,134.292844 C41.3732565,132.341867 40.8813739,129.67059 38.9303967,128.326381 C21.3130573,116.188161 10.5797101,96.2105085 10.5797101,74.414364 C10.5797101,38.2837356 39.8693716,8.99407415 76,8.99407415 C112.130628,8.99407415 141.42029,38.2837356 141.42029,74.414364 C141.42029,96.0710985 130.824834,115.936561 113.393584,128.101722 C111.450721,129.457634 110.974904,132.131818 112.330815,134.074681 C113.686727,136.017543 116.360912,136.493361 118.303774,135.137449 Z" id="Oval-3" fill-rule="nonzero"></path>
            <path d="M80,127.759031 L96.7209371,145.766194 C98.0362467,147.182682 100.250806,147.264702 101.667293,145.949393 C103.08378,144.634083 103.165801,142.419524 101.850492,141.003037 L79.2076344,116.618421 C77.8229225,115.127193 75.4627918,115.127193 74.0780799,116.618421 L51.4352228,141.003037 C50.1199131,142.419524 50.2019338,144.634083 51.6184212,145.949393 C53.0349085,147.264702 55.2494675,147.182682 56.5647772,145.766194 L73,128.066724 L73,159.5 C73,161.432997 74.5670034,163 76.5,163 C78.4329966,163 80,161.432997 80,159.5 L80,127.759031 Z" id="Combined-Shape" fill-rule="nonzero" transform="translate(76.642857, 139.250000) scale(1, -1) translate(-76.642857, -139.250000) "></path>
            <path d="M77.1,97.726 L77.1,102.214 C77.1,103.27 76.11,103.93 74.988,103.93 C73.8,103.93 72.876,103.27 72.876,102.214 L72.876,97.726 C63.834,97.396 58.488,92.512 56.97,85.648 C56.904,85.384 56.904,85.12 56.904,84.856 C56.904,83.272 58.026,82.348 59.412,82.084 C59.676,82.018 59.94,82.018 60.204,82.018 C61.59,82.018 62.712,82.744 63.042,84.196 C64.23,89.212 66.738,91.918 72.876,92.512 L72.876,73.372 C63.372,71.458 58.026,67.498 58.026,59.38 C58.026,50.602 64.89,46.048 72.876,45.586 L72.876,42.352 C72.876,41.296 73.734,40.636 74.988,40.636 C76.176,40.636 77.1,41.296 77.1,42.352 L77.1,45.586 C84.426,46.114 89.64,50.338 91.29,56.146 C91.356,56.476 91.422,56.806 91.422,57.136 C91.422,58.456 90.498,59.248 89.244,59.578 C88.848,59.644 88.518,59.71 88.122,59.71 C86.934,59.71 85.878,59.182 85.548,57.862 C84.492,53.902 81.852,51.196 77.1,50.734 L77.1,68.224 C86.472,70.27 93.072,73.108 93.072,83.074 C93.072,92.776 85.548,97.462 77.1,97.726 Z M77.1,74.032 L77.1,92.512 C83.634,92.05 87.132,88.816 87.132,83.14 C87.132,76.606 82.842,75.418 77.1,74.032 Z M72.876,67.498 L72.876,50.734 C67.134,51.13 63.768,54.562 63.768,59.116 C63.768,63.472 65.814,66.112 72.876,67.498 Z" id="$"></path>
        </g>
    </g>
</svg>