<?xml version="1.0" encoding="UTF-8" standalone="no"?>
<svg width="180px" height="180px" viewBox="0 0 180 180" version="1.1" xmlns="http://www.w3.org/2000/svg" xmlns:xlink="http://www.w3.org/1999/xlink">
    <!-- Generator: Sketch 3.6 (26304) - http://www.bohemiancoding.com/sketch -->
    <title>division</title>
    <desc>Created with Sketch.</desc>
    <defs></defs>
    <g id="iconos" stroke="none" stroke-width="1" fill="none" fill-rule="evenodd">
        <g id="division">
            <path d="M19.0692605,179 L12.5621142,179 C10.5994858,178.963529 8.65521258,178.598526 6.80357764,177.918935 C3.78504821,176.926468 1.61067704,174.172174 1.25618743,170.89201 C0.473133345,165.111634 1.49620879,159.221932 4.17384595,154.095457 C6.05325279,150.349445 9.71987447,147.947887 13.7714069,147.809262 C14.8518528,147.767945 15.925702,148.001561 16.9002117,148.489932 C17.725602,148.890327 18.5317971,149.350781 19.3379922,149.791215 C20.4318122,150.438903 21.5669959,151.007466 22.7355288,151.492892 C26.8818213,153.069957 31.4871954,152.629295 35.2891385,150.291708 L35.9225775,149.911333 C36.2383139,149.674513 36.5650255,149.45403 36.9015287,149.250682 L37.6309433,148.850288 C38.500194,148.249734 39.49345,147.87241 40.5294067,147.749202 C42.8384039,147.634197 45.1211127,148.301375 47.036553,149.651077 C49.1798914,151.13121 50.8350683,153.262854 51.7777481,155.757094 C53.6255438,160.316011 54.338648,165.288041 53.8508213,170.211339 C53.3104972,174.91966 49.5823506,178.528414 45.0402604,178.739744 C43.5814311,178.899901 42.0842116,178.919921 40.7021628,178.919921 L19.0692605,178.919921 L19.0692605,179 Z M15.5813476,153.725127 L15.4794969,153.725127 C12.858689,153.804669 10.497157,155.229201 9.33450746,157.43193 C7.24920641,161.09495 6.46992781,165.287423 7.11076818,169.395517 C7.29537097,171.083737 8.53824288,172.505314 10.2681385,173.006866 C11.5847422,173.437895 12.9649592,173.674059 14.3591397,173.706863 L23.7633502,173.706863 L39.142799,173.706863 C40.3480317,173.706863 41.5362894,173.706863 42.6905968,173.579591 C45.4423098,173.493416 47.7107872,171.529903 48.020781,168.965974 C48.3998251,165.419149 47.8158947,161.840081 46.3232701,158.561471 C45.690098,157.026917 44.5704083,155.71104 43.1149745,154.791032 C41.9434769,154.038782 40.5449278,153.65951 39.1258239,153.709218 C38.6660045,153.811226 38.2291803,153.988988 37.8357156,154.234216 L37.0378855,154.647851 C36.7992338,154.758346 36.5669223,154.880483 36.341906,155.013758 L35.6289514,155.395575 C31.5208118,157.60346 26.5822885,157.999346 22.1337397,156.477389 C20.9656804,156.048773 19.8312109,155.543743 18.7387179,154.966031 C18.2464397,154.647851 17.4995349,154.313761 16.8205306,154.091035 C16.4390018,153.889875 16.017008,153.765268 15.5813476,153.725127 L15.5813476,153.725127 Z M27.5726995,145.607091 L27.5726995,145.607091 C23.5689797,145.640693 19.703828,144.079768 16.7658459,141.24279 C13.9751923,138.606658 12.3960757,134.853539 12.425404,130.926773 C12.4547324,127.000006 14.0897166,123.273 16.9194069,120.682528 C19.8397465,117.95346 23.6325336,116.461138 27.5535044,116.498405 L27.6686751,116.498405 C31.6333938,116.49131 35.4535462,118.050681 38.360358,120.862706 C41.1505177,123.520065 42.7215829,127.292387 42.6792604,131.232926 C42.6024799,139.240818 35.8074068,145.607091 27.5535044,145.607091 L27.5726995,145.607091 Z M27.5701641,121.166943 C24.8848647,121.14234 22.2875169,122.164344 20.2869747,124.032732 C18.3638896,125.802646 17.2409759,128.332838 17.1916192,131.007305 L17.1916192,131.007305 C17.157268,133.70773 18.2291056,136.295189 20.1380004,138.119989 C22.1353142,140.039604 24.754828,141.100353 27.4708479,141.089361 L27.4708479,141.089361 C32.9604317,141.343881 37.6212977,136.937312 37.9156037,131.214471 C37.9716912,128.518728 36.9242179,125.925677 35.0354333,124.084524 C33.045726,122.161211 30.4319965,121.094242 27.7191385,121.097887 L27.5536114,121.097887 L27.5701641,121.166943 Z" id="e5Cc57" fill="#000000"></path>
            <path d="M83.0692605,178.502277 L76.5621142,178.502277 C74.5994858,178.465806 72.6552126,178.100802 70.8035776,177.421211 C67.7850482,176.428745 65.610677,173.674451 65.2561874,170.394286 C64.4731333,164.613911 65.4962088,158.724208 68.173846,153.597733 C70.0532528,149.851722 73.7198745,147.450164 77.7714069,147.311538 C78.8518528,147.270222 79.925702,147.503837 80.9002117,147.992209 C81.725602,148.392604 82.5317971,148.853057 83.3379922,149.293491 C84.4318122,149.941179 85.5669959,150.509743 86.7355288,150.995168 C90.8818213,152.572234 95.4871954,152.131572 99.2891385,149.793985 L99.9225775,149.41361 C100.238314,149.176789 100.565025,148.956306 100.901529,148.752959 L101.630943,148.352564 C102.500194,147.752011 103.49345,147.374687 104.529407,147.251479 C106.838404,147.136473 109.121113,147.803651 111.036553,149.153353 C113.179891,150.633486 114.835068,152.76513 115.777748,155.259371 C117.625544,159.818287 118.338648,164.790317 117.850821,169.713615 C117.310497,174.421937 113.582351,178.030691 109.04026,178.24202 C107.581431,178.402178 106.084212,178.422198 104.702163,178.422198 L83.0692605,178.422198 L83.0692605,178.502277 Z M79.5813476,153.227404 L79.4794969,153.227404 C76.858689,153.306945 74.497157,154.731477 73.3345075,156.934207 C71.2492064,160.597226 70.4699278,164.7897 71.1107682,168.897794 C71.295371,170.586013 72.5382429,172.00759 74.2681385,172.509143 C75.5847422,172.940171 76.9649592,173.176335 78.3591397,173.20914 L87.7633502,173.20914 L103.142799,173.20914 C104.348032,173.20914 105.536289,173.20914 106.690597,173.081868 C109.44231,172.995693 111.710787,171.03218 112.020781,168.46825 C112.399825,164.921425 111.815895,161.342358 110.32327,158.063747 C109.690098,156.529193 108.570408,155.213316 107.114975,154.293308 C105.943477,153.541058 104.544928,153.161787 103.125824,153.211495 C102.666004,153.313503 102.22918,153.491265 101.835716,153.736492 L101.037885,154.150127 C100.799234,154.260623 100.566922,154.382759 100.341906,154.516035 L99.6289514,154.897851 C95.5208118,157.105737 90.5822885,157.501622 86.1337397,155.979665 C84.9656804,155.551049 83.8312109,155.046019 82.7387179,154.468308 C82.2464397,154.150127 81.4995349,153.816038 80.8205306,153.593311 C80.4390018,153.392151 80.017008,153.267544 79.5813476,153.227404 L79.5813476,153.227404 Z M91.5726995,145.109368 L91.5726995,145.109368 C87.5689797,145.14297 83.703828,143.582045 80.7658459,140.745067 C77.9751923,138.108934 76.3960757,134.355815 76.425404,130.429049 C76.4547324,126.502283 78.0897166,122.775276 80.9194069,120.184805 C83.8397465,117.455736 87.6325336,115.963415 91.5535044,116.000681 L91.6686751,116.000681 C95.6333938,115.993587 99.4535462,117.552957 102.360358,120.364982 C105.150518,123.022342 106.721583,126.794664 106.67926,130.735202 C106.60248,138.743094 99.8074068,145.109368 91.5535044,145.109368 L91.5726995,145.109368 Z M91.5701641,120.669219 C88.8848647,120.644616 86.2875169,121.666621 84.2869747,123.535009 C82.3638896,125.304923 81.2409759,127.835115 81.1916192,130.509582 L81.1916192,130.509582 C81.157268,133.210006 82.2291056,135.797466 84.1380004,137.622265 C86.1353142,139.541881 88.754828,140.60263 91.4708479,140.591638 L91.4708479,140.591638 C96.9604317,140.846158 101.621298,136.439588 101.915604,130.716748 C101.971691,128.021005 100.924218,125.427954 99.0354333,123.5868 C97.045726,121.663487 94.4319965,120.596518 91.7191385,120.600164 L91.5536114,120.600164 L91.5701641,120.669219 Z" id="e5Cc57-Copy" fill="#000000"></path>
            <path d="M145.069261,178.502277 L138.562114,178.502277 C136.599486,178.465806 134.655213,178.100802 132.803578,177.421211 C129.785048,176.428745 127.610677,173.674451 127.256187,170.394286 C126.473133,164.613911 127.496209,158.724208 130.173846,153.597733 C132.053253,149.851722 135.719874,147.450164 139.771407,147.311538 C140.851853,147.270222 141.925702,147.503837 142.900212,147.992209 C143.725602,148.392604 144.531797,148.853057 145.337992,149.293491 C146.431812,149.941179 147.566996,150.509743 148.735529,150.995168 C152.881821,152.572234 157.487195,152.131572 161.289138,149.793985 L161.922577,149.41361 C162.238314,149.176789 162.565025,148.956306 162.901529,148.752959 L163.630943,148.352564 C164.500194,147.752011 165.49345,147.374687 166.529407,147.251479 C168.838404,147.136473 171.121113,147.803651 173.036553,149.153353 C175.179891,150.633486 176.835068,152.76513 177.777748,155.259371 C179.625544,159.818287 180.338648,164.790317 179.850821,169.713615 C179.310497,174.421937 175.582351,178.030691 171.04026,178.24202 C169.581431,178.402178 168.084212,178.422198 166.702163,178.422198 L145.069261,178.422198 L145.069261,178.502277 Z M141.581348,153.227404 L141.479497,153.227404 C138.858689,153.306945 136.497157,154.731477 135.334507,156.934207 C133.249206,160.597226 132.469928,164.7897 133.110768,168.897794 C133.295371,170.586013 134.538243,172.00759 136.268138,172.509143 C137.584742,172.940171 138.964959,173.176335 140.35914,173.20914 L149.76335,173.20914 L165.142799,173.20914 C166.348032,173.20914 167.536289,173.20914 168.690597,173.081868 C171.44231,172.995693 173.710787,171.03218 174.020781,168.46825 C174.399825,164.921425 173.815895,161.342358 172.32327,158.063747 C171.690098,156.529193 170.570408,155.213316 169.114975,154.293308 C167.943477,153.541058 166.544928,153.161787 165.125824,153.211495 C164.666004,153.313503 164.22918,153.491265 163.835716,153.736492 L163.037885,154.150127 C162.799234,154.260623 162.566922,154.382759 162.341906,154.516035 L161.628951,154.897851 C157.520812,157.105737 152.582288,157.501622 148.13374,155.979665 C146.96568,155.551049 145.831211,155.046019 144.738718,154.468308 C144.24644,154.150127 143.499535,153.816038 142.820531,153.593311 C142.439002,153.392151 142.017008,153.267544 141.581348,153.227404 L141.581348,153.227404 Z M153.572699,145.109368 L153.572699,145.109368 C149.56898,145.14297 145.703828,143.582045 142.765846,140.745067 C139.975192,138.108934 138.396076,134.355815 138.425404,130.429049 C138.454732,126.502283 140.089717,122.775276 142.919407,120.184805 C145.839746,117.455736 149.632534,115.963415 153.553504,116.000681 L153.668675,116.000681 C157.633394,115.993587 161.453546,117.552957 164.360358,120.364982 C167.150518,123.022342 168.721583,126.794664 168.67926,130.735202 C168.60248,138.743094 161.807407,145.109368 153.553504,145.109368 L153.572699,145.109368 Z M153.570164,120.669219 C150.884865,120.644616 148.287517,121.666621 146.286975,123.535009 C144.36389,125.304923 143.240976,127.835115 143.191619,130.509582 L143.191619,130.509582 C143.157268,133.210006 144.229106,135.797466 146.138,137.622265 C148.135314,139.541881 150.754828,140.60263 153.470848,140.591638 L153.470848,140.591638 C158.960432,140.846158 163.621298,136.439588 163.915604,130.716748 C163.971691,128.021005 162.924218,125.427954 161.035433,123.5868 C159.045726,121.663487 156.431996,120.596518 153.719138,120.600164 L153.553611,120.600164 L153.570164,120.669219 Z" id="e5Cc57-Copy-3" fill="#000000"></path>
            <path d="M78.8194844,75.4744471 L70.9617983,75.4744471 C68.5918319,75.430407 66.2440303,74.9896479 64.0080938,74.1690097 C60.3630771,72.9705598 57.7374213,69.6446199 57.3093584,65.6836663 C56.3637837,58.7035902 57.5991955,51.5914965 60.8325687,45.4010363 C63.1020411,40.8775507 67.5296597,37.9775562 72.4220762,37.8101593 C73.7267656,37.7602677 75.0234892,38.0423697 76.2002557,38.6321014 C77.1969533,39.1155968 78.170472,39.6716164 79.1439906,40.2034613 C80.4648298,40.9855748 81.8356177,41.6721423 83.2466763,42.2583166 C88.2535201,44.1626976 93.8147265,43.6305773 98.4057521,40.8078305 L99.1706596,40.3485099 C99.5519262,40.0625382 99.9464459,39.7962942 100.352789,39.5507426 L101.233592,39.0672472 C102.283253,38.3420507 103.482657,37.8864143 104.733623,37.737635 C107.521846,37.5987603 110.278325,38.4044093 112.591309,40.0342379 C115.179492,41.8215686 117.178196,44.3956289 118.316526,47.407542 C120.547826,52.9126486 121.408933,58.9166096 120.81986,64.8617242 C120.167393,70.5472446 115.66548,74.9049848 110.180692,75.1601751 C108.419087,75.3535733 106.611123,75.3777481 104.942234,75.3777481 L78.8194844,75.3777481 L78.8194844,75.4744471 Z M74.607665,44.9538459 L74.4846756,44.9538459 C71.3199264,45.0498963 68.4682651,46.7700858 67.0643109,49.4299853 C64.5462115,53.8532544 63.6051958,58.9158636 64.3790408,63.8765813 C64.6019574,65.915186 66.1027839,67.6318069 68.1917144,68.2374553 C69.7815755,68.7579425 71.4482526,69.0431219 73.1317914,69.0827348 L84.4878191,69.0827348 L103.059229,69.0827348 C104.514604,69.0827348 105.949481,69.0827348 107.343362,68.9290477 C110.666185,68.8249877 113.405479,66.453953 113.779811,63.357887 C114.237525,59.0749285 113.532401,54.753036 111.729987,50.7939591 C110.965401,48.9409126 109.613323,47.3519292 107.855818,46.2409761 C106.44118,45.3325984 104.752366,44.8746107 103.038731,44.934635 C102.483477,45.0578148 101.955991,45.2724704 101.480864,45.5685946 L100.517447,46.068078 C100.229263,46.2015066 99.9487364,46.3489922 99.6770186,46.5099287 L98.8160923,46.9709903 C93.85532,49.6371159 87.89182,50.1151667 82.5199876,48.2773314 C81.1095008,47.7597578 79.7395755,47.1499099 78.4203386,46.452296 C77.8258895,46.068078 76.9239667,45.6646491 76.1040369,45.3956966 C75.643323,45.1527864 75.1337455,45.0023177 74.607665,44.9538459 L74.607665,44.9538459 Z M89.0877881,35.1509349 L89.0877881,35.1509349 C84.2531076,35.1915104 79.5857545,33.3066201 76.0380026,29.8808356 C72.6681567,26.6975808 70.761299,22.1655126 70.7967143,17.4237573 C70.8321296,12.682002 72.8064503,8.18146579 76.2234347,5.05334935 C79.7498825,1.75787005 84.3298519,-0.0441782137 89.064609,0.000822939916 L89.2036831,0.000822939916 C93.991268,-0.00774400447 98.6042822,1.87526941 102.114395,5.27092226 C105.483644,8.47980899 107.380779,13.0350658 107.329673,17.7934518 C107.236957,27.4633588 99.0315855,35.1509349 89.064609,35.1509349 L89.0877881,35.1509349 Z M89.0847265,5.63830231 C85.8421008,5.60859338 82.7056808,6.84271214 80.2899317,9.09887879 C77.9677158,11.2361332 76.6117445,14.2914594 76.5521439,17.5210047 L76.5521439,17.5210047 C76.5106633,20.7818943 77.8049577,23.9063735 80.1100382,26.1099053 C82.5218888,28.4279313 85.6850754,29.7088361 88.9647975,29.6955629 L88.9647975,29.6955629 C95.5937289,30.0029073 101.221944,24.6817669 101.577333,17.7711668 C101.645061,14.5159303 100.380188,11.3846986 98.0993912,9.16141932 C95.6967257,6.83892827 92.5405241,5.55051287 89.26462,5.55491493 L89.0647383,5.55491493 L89.0847265,5.63830231 Z" id="e5Cc57-Copy-2" fill="#000000"></path>
            <path d="M30.9808447,111.031449 L30.9808447,98.0314492 L30.9808447,97.9149119 L30.973122,97.7986327 C30.9756837,97.8410518 30.9756837,97.8410518 30.9759288,97.8482372 C30.9579617,97.3356627 31.0765336,96.5405848 31.4221692,95.8466968 C31.9964356,94.693816 33.0742214,94.0314492 35.4638737,94.0314492 L143.554684,94.0314492 L143.712849,94.0314492 L143.870364,94.0170754 C143.861843,94.017853 143.887198,94.0160423 143.94299,94.0132652 C144.349977,93.9930077 144.878935,94.0004337 145.473501,94.0578814 C146.310204,94.1387245 147.119011,94.3066973 147.842351,94.5707261 C149.954628,95.3417344 151.026398,96.7109698 151.026398,99.5314492 C151.026398,105.906449 151.026398,105.906449 151.026399,108.78145 C151.026399,110.406451 151.026399,110.406451 151.026399,110.531453 L158,110.531445 C158,110.406448 158,110.406448 157.999999,108.781448 C157.999999,105.906449 157.999999,105.906449 157.999999,99.5314492 C157.999999,93.6019285 154.962326,89.721164 150.225531,87.9921723 C147.909225,87.1466902 145.590555,86.9226579 143.597616,87.0218554 C143.444131,87.029495 143.323626,87.0381009 143.239004,87.045823 L143.554684,87.0314492 L35.4638737,87.0314492 C30.4440754,87.0314492 26.9454356,89.1815824 25.1847911,92.7162016 C24.2329665,94.6270574 23.9513049,96.5157252 24.0066407,98.0943812 C24.0110252,98.2010709 24.0110252,98.2010709 24.0149667,98.2642657 L24.007244,98.0314492 L24.007244,111.031449 L30.9808447,111.031449 L30.9808447,111.031449 Z" id="Path-207" fill="#111111"></path>
            <path d="M94,108.785714 L94,82.2142857 L94,80 L87,80 L87,82.2142857 L87,108.785714 L87,111 L94,111 L94,108.785714 L94,108.785714 Z" id="Line" fill="#050505"></path>
        </g>
    </g>
</svg>