<?xml version="1.0" encoding="UTF-8"?>
<svg width="128px" height="128px" viewBox="0 0 128 128" version="1.1" xmlns="http://www.w3.org/2000/svg" xmlns:xlink="http://www.w3.org/1999/xlink">
    <!-- Generator: Sketch 47.1 (45422) - http://www.bohemiancoding.com/sketch -->
    <title>doctor</title>
    <desc>Created with Sketch.</desc>
    <defs></defs>
    <g id="iconos" stroke="none" stroke-width="1" fill="none" fill-rule="evenodd">
        <g id="doctor" fill-rule="nonzero" fill="#000000">
            <path d="M56.5634405,26.6458552 L63.143728,30.2849633 L63.4043866,30.3892413 C65.7900204,31.3436282 66.4131685,34.0251241 64.3972423,40.3948711 C62.1080095,47.6281884 58.9729181,56.4877941 54.9937351,66.9651413 C53.6544571,67.4183742 52.4691297,68.3440745 51.7116408,69.6677321 C48.0003299,76.152982 42.7004392,79.7729751 37.2844879,79.7729751 C31.9796205,79.7729751 26.786861,76.303683 23.0805979,70.051058 C22.3098674,68.7508025 21.124899,67.8478418 19.7934191,67.4106301 C15.6120815,56.4452108 12.3354119,47.2134354 9.96537111,39.7247881 C7.94944493,33.355041 8.57259305,30.6735452 10.9582268,29.7191583 L11.2188854,29.6148803 L15.9113375,27.0198051 C17.1381712,27.6465212 18.5278059,28 20,28 C24.9705627,28 29,23.9705627 29,19 C29,14.0294373 24.9705627,10 20,10 C15.0294373,10 11,14.0294373 11,19 C11,19.1493191 11.0036363,19.2977889 11.0108253,19.4453257 L7.33409943,21.4786719 C-0.137633947,24.6363253 -1.83915115,32.2535036 1.38484132,42.4403927 C3.92697088,50.4727911 7.46084716,60.388588 11.9887236,72.1986829 C11.7841502,73.524221 12.0205433,74.9260849 12.7578264,76.1699131 C17.5411029,84.2395061 24.5373978,89.7158881 32.485736,91.2999196 C35.1174519,114.016415 48.0985803,126.237195 70.7849871,126.495964 C95.9694388,126.783226 109,111.801524 109,83.7340847 L109,45.5612068 L99.2487614,45.5612068 L99.2487614,83.7340847 C99.2487614,107.189067 90.0932272,117.715513 70.9054881,117.496651 C53.868854,117.302325 44.5236748,109.01016 42.2730654,91.2614126 C50.3245045,89.5911269 57.3796016,83.9233611 62.1267835,75.6280009 C62.8427039,74.3769812 63.05853,72.9765469 62.8371663,71.657925 C67.1434769,60.3793865 70.5230023,50.8668424 72.9777721,43.1104758 C76.2017646,32.9235866 74.5002474,25.3064084 67.028514,22.148755 L60.8087816,18.7090453 C60.6551932,13.8731415 56.6866048,10 51.8133957,10 C46.8428329,10 42.8133957,14.0294373 42.8133957,19 C42.8133957,23.9705627 46.8428329,28 51.8133957,28 C53.5569816,28 55.1847637,27.5041846 56.5634405,26.6458552 Z" id="Combined-Shape"></path>
            <path d="M104,46.5 C90.7966009,46.5 80,36.257071 80,23.5 C80,10.742929 90.7966009,0.5 104,0.5 C117.203399,0.5 128,10.742929 128,23.5 C128,36.257071 117.203399,46.5 104,46.5 Z M104,37.5 C112.335706,37.5 119,31.1774648 119,23.5 C119,15.8225352 112.335706,9.5 104,9.5 C95.6642939,9.5 89,15.8225352 89,23.5 C89,31.1774648 95.6642939,37.5 104,37.5 Z" id="Oval-26"></path>
        </g>
    </g>
</svg>