<?xml version="1.0" encoding="UTF-8"?>
<svg width="180px" height="180px" viewBox="0 0 180 180" version="1.1" xmlns="http://www.w3.org/2000/svg" xmlns:xlink="http://www.w3.org/1999/xlink">
    <!-- Generator: Sketch 44 (41411) - http://www.bohemiancoding.com/sketch -->
    <title>donwload</title>
    <desc>Created with Sketch.</desc>
    <defs></defs>
    <g id="iconos" stroke="none" stroke-width="1" fill="none" fill-rule="evenodd">
        <g id="donwload" fill-rule="nonzero" fill="#000000">
            <path d="M169.436433,85.1730558 C175.254738,90.9201232 178.488571,98.7240242 178.488571,106.953498 C178.488571,123.859263 164.705309,137.68618 147.802971,137.68618 L121.890539,137.68618 C119.254227,137.68618 117.117029,135.553205 117.117029,132.923154 C117.117029,130.293118 119.254212,128.160469 121.890539,128.160469 L147.802971,128.160469 C159.446091,128.160469 168.941892,118.651491 168.941892,107.006685 C168.941892,101.344129 166.724311,96.0056049 162.720555,92.0493947 C158.723606,88.1009251 153.322038,85.9637083 147.426508,85.9637083 C146.081323,85.9637083 144.791585,85.3043285 143.858771,84.2611775 C142.959349,83.2500772 142.526204,81.7950907 142.685595,80.4371392 C142.913976,78.4901552 143.029461,76.5029013 143.029461,74.5256929 C143.029461,46.8524041 120.468386,24.3399003 92.7388831,24.3399003 C69.3965734,24.3399003 49.2886441,40.1450058 43.8388599,62.7701248 C43.3417865,64.8314698 41.5421854,66.3414466 39.4244768,66.4412784 C22.9678211,67.2196091 10.0581079,80.772331 10.0581079,97.255364 C10.0581079,114.258317 23.9233736,128.160469 40.9143616,128.160469 L63.5875684,128.160469 C66.2238959,128.160469 68.3610789,130.293118 68.3610789,132.923154 C68.3610789,135.553205 66.2238808,137.68618 63.5875684,137.68618 L40.9143616,137.68618 C18.6542108,137.68618 0.511428571,119.509263 0.511428571,97.255364 C0.511428571,76.9409558 15.5378667,59.8599979 35.4596338,57.188387 C43.0623763,32.0073055 66.1911996,14.8005509 92.7388831,14.8005509 C125.735156,14.8005509 152.57614,41.5885047 152.57614,74.518533 C152.57614,75.2215842 152.563922,75.9251818 152.539496,76.6280127 C158.950455,77.6547895 164.819289,80.6113381 169.436433,85.1730558 Z M69.6953395,159.600685 C67.8325997,157.741123 67.8517389,154.727597 69.7163736,152.867149 C70.6205477,151.964274 71.8713221,151.471159 73.1338298,151.471159 C74.4025394,151.471159 75.6910025,151.966143 76.5864775,152.860374 L88.0464157,164.161073 L88.0464157,107.744197 C88.0464157,105.114146 90.1832721,102.981512 92.8195845,102.981512 C95.455912,102.981512 97.593095,105.114162 97.593095,107.744197 L97.593095,164.097933 L108.710688,152.866857 C110.575327,151.005902 113.429789,151.005902 115.293779,152.866711 C117.157982,154.726729 117.157982,157.740457 115.293925,159.600831 L95.865313,178.991045 C95.6441398,179.21328 95.3992277,179.412672 95.1284873,179.593484 C95.0203591,179.665104 94.9488309,179.703856 94.818455,179.769422 C94.5536999,179.91737 94.4556236,179.96878 94.3142555,180.027014 C94.1694856,180.087333 94.0729317,180.117195 93.8910123,180.167057 C93.6366101,180.247959 93.5531998,180.272658 93.4172334,180.299415 C92.8015589,180.421303 92.1675159,180.421303 91.5520453,180.299554 C91.4205236,180.27358 91.3333164,180.248052 91.1929505,180.201814 C90.8894895,180.114934 90.7946718,180.085399 90.6651588,180.031205 C90.5125206,179.968885 90.4170523,179.918687 90.242584,179.819425 C90.0193049,179.70378 89.9474081,179.664895 89.8351879,179.590227 C89.570025,179.413126 89.3256864,179.2143 89.1049582,178.992751 L69.6953395,159.600685 Z" id="Fill-3"></path>
        </g>
    </g>
</svg>