<?xml version="1.0" encoding="UTF-8"?>
<svg width="128px" height="128px" viewBox="0 0 128 128" version="1.1" xmlns="http://www.w3.org/2000/svg" xmlns:xlink="http://www.w3.org/1999/xlink">
    <!-- Generator: Sketch 47.1 (45422) - http://www.bohemiancoding.com/sketch -->
    <title>e-learning</title>
    <desc>Created with Sketch.</desc>
    <defs></defs>
    <g id="iconos" stroke="none" stroke-width="1" fill="none" fill-rule="evenodd">
        <g id="e-learning" fill-rule="nonzero" fill="#000000">
            <path d="M115.375794,36.3430152 C115.389482,36.485945 115.396484,36.6308266 115.396484,36.7773438 L115.396484,123 C115.396484,125.485281 113.381766,127.5 110.896484,127.5 L31.5,127.5 C20.454305,127.5 11.5,118.545695 11.5,107.5 L11.5,22.2519531 C11.5,22.0615135 11.5118298,21.8738369 11.5347947,21.689618 C11.5117064,21.2960291 11.5,20.8993816 11.5,20.5 C11.5,9.454305 20.454305,0.5 31.5,0.5 L110.888672,0.5 C113.373953,0.5 115.388672,2.51471863 115.388672,5 C115.388672,7.48528137 113.373953,9.5 110.888672,9.5 L31.5,9.5 C25.4248678,9.5 20.5,14.4248678 20.5,20.5 C20.5,26.5751322 25.4248678,31.5 31.5,31.5 L110.888672,31.5 C113.373953,31.5 115.388672,33.5147186 115.388672,36 C115.388672,36.1154046 115.384328,36.2297945 115.375794,36.3430152 Z M106.396484,40.5 L31.5,40.5 C27.4363662,40.5 23.6557922,39.2880773 20.5,37.2059542 L20.5,107.5 C20.5,113.575132 25.4248678,118.5 31.5,118.5 L106.396484,118.5 L106.396484,40.5 Z" id="Combined-Shape"></path>
            <path d="M32.5,25 L101.5,25 C103.985281,25 106,22.9852814 106,20.5 C106,18.0147186 103.985281,16 101.5,16 L32.5,16 C30.0147186,16 28,18.0147186 28,20.5 C28,22.9852814 30.0147186,25 32.5,25 Z" id="Line"></path>
            <path d="M57,75 L57,62 L78.5,62 C80.9852814,62 83,59.9852814 83,57.5 C83,55.0147186 80.9852814,53 78.5,53 L52.5,53 C50.0147186,53 48,55.0147186 48,57.5 C48,57.6690045 48.0093167,57.8358331 48.0274644,58 C48.0093167,58.1641669 48,58.3309955 48,58.5 L48,100.5 C48,101.742641 48.5036797,102.867641 49.3180195,103.681981 C50.1323593,104.49632 51.2573593,105 52.5,105 L77.5,105 C79.9852814,105 82,102.985281 82,100.5 C82,98.0147186 79.9852814,96 77.5,96 L57,96 L57,84 L67.5,84 C69.9852814,84 72,81.9852814 72,79.5 C72,77.0147186 69.9852814,75 67.5,75 L57,75 Z" id="Combined-Shape"></path>
        </g>
    </g>
</svg>