<?xml version="1.0" encoding="UTF-8"?>
<svg width="180px" height="180px" viewBox="0 0 180 180" version="1.1" xmlns="http://www.w3.org/2000/svg" xmlns:xlink="http://www.w3.org/1999/xlink">
    <!-- Generator: Sketch 40.1 (33804) - http://www.bohemiancoding.com/sketch -->
    <title>email</title>
    <desc>Created with Sketch.</desc>
    <defs></defs>
    <g id="iconos" stroke="none" stroke-width="1" fill="none" fill-rule="evenodd">
        <g id="email" fill="#000000">
            <path d="M14.4,16.4817276 C6.3,16.4817276 0,22.8212625 0,30.972093 L0,137.008638 C0,145.159468 6.3,151.499003 14.4,151.499003 L165.6,151.499003 C173.7,151.499003 180,145.159468 180,137.008638 L180,30.972093 C180,22.8212625 173.7,16.4817276 165.6,16.4817276 L14.4,16.4817276 Z M166.52,26.4438538 L166.52,26.4438538 L95.93,74.4431894 C93.215,76.254485 87.785,76.254485 85.07,74.4431894 L13.575,26.4438538 L14.48,26.4438538 L166.52,26.4438538 L166.52,26.4438538 L166.52,26.4438538 Z M14.48,141.536877 C11.765,141.536877 9.955,139.725581 9.955,137.008638 L9.955,35.5003322 L80.545,82.5940199 C83.26,83.4996678 86.88,84.4053156 90.5,84.4053156 C94.12,84.4053156 97.74,83.4996678 101.36,81.6883721 L171.95,34.5946844 L171.95,136.10299 C171.045,138.819934 169.235,141.536877 166.52,141.536877 L14.48,141.536877 Z" id="Shape"></path>
        </g>
    </g>
</svg>