<?xml version="1.0" encoding="UTF-8"?>
<svg width="128px" height="128px" viewBox="0 0 128 128" version="1.1" xmlns="http://www.w3.org/2000/svg" xmlns:xlink="http://www.w3.org/1999/xlink">
    <!-- Generator: Sketch 47.1 (45422) - http://www.bohemiancoding.com/sketch -->
    <title>email</title>
    <desc>Created with Sketch.</desc>
    <defs></defs>
    <g id="iconos" stroke="none" stroke-width="1" fill="none" fill-rule="evenodd">
        <g id="email" fill-rule="nonzero" fill="#000000">
            <g id="Group-6" transform="translate(0.000000, 13.000000)">
                <path d="M16.4276399,0 L111.57236,0 C115.71755,0 118.11394,0.451464054 120.616563,1.75719826 C123.006613,3.00419876 124.920606,4.87145343 126.198819,7.20314164 C127.537236,9.64465234 128,11.9825251 128,16.0264942 L128,83.8730052 C128,87.9169743 127.537236,90.2548471 126.198819,92.6963578 C124.920606,95.028046 123.006613,96.8953006 120.616563,98.1423011 C118.11394,99.4480353 115.71755,99.8994994 111.57236,99.8994994 L16.4276399,99.8994994 C12.2824496,99.8994994 9.88605954,99.4480353 7.38343744,98.1423011 C4.9933867,96.8953006 3.07939434,95.028046 1.80118122,92.6963578 C0.462764272,90.2548471 0,87.9169743 0,83.8730052 L0,16.0264942 C0,11.9825251 0.462764272,9.64465234 1.80118122,7.20314164 C3.07939434,4.87145343 4.9933867,3.00419876 7.38343744,1.75719826 C9.88605954,0.451464054 12.2824496,0 16.4276399,0 Z M11,24 L11,86 C11,87.6568542 12.3431458,89 14,89 L114,89 C115.656854,89 117,87.6568542 117,86 L117,86 L117,24 C86.7355774,42.6934317 71.5928967,52.0401476 71.571958,52.0401476 C67.4908161,54.6182066 63.098449,54.6182066 58.3948568,52.0401476 L11,24 Z M11,11 L57.612124,40.3106843 C61.5167941,42.766023 66.4832059,42.766023 70.387876,40.3106843 L117,11 L11,11 Z" id="Combined-Shape"></path>
            </g>
        </g>
    </g>
</svg>