<?xml version="1.0" encoding="UTF-8"?>
<svg width="180px" height="180px" viewBox="0 0 180 180" version="1.1" xmlns="http://www.w3.org/2000/svg" xmlns:xlink="http://www.w3.org/1999/xlink">
    <!-- Generator: Sketch 47.1 (45422) - http://www.bohemiancoding.com/sketch -->
    <title>email</title>
    <desc>Created with Sketch.</desc>
    <defs></defs>
    <g id="iconos" stroke="none" stroke-width="1" fill="none" fill-rule="evenodd">
        <g id="email" fill-rule="nonzero" fill="#000000">
            <path d="M23.1013686,21 L156.898631,21 C162.727805,21 166.097729,21.6507623 169.617041,23.5329111 C172.97805,25.3303983 175.669602,28.02195 177.467089,31.3829589 C179.349238,34.9022712 180,38.2721948 180,44.1013686 L180,141.898631 C180,147.727805 179.349238,151.097729 177.467089,154.617041 C175.669602,157.97805 172.97805,160.669602 169.617041,162.467089 C166.097729,164.349238 162.727805,165 156.898631,165 L23.1013686,165 C17.2721948,165 13.9022712,164.349238 10.3829589,162.467089 C7.02195005,160.669602 4.33039829,157.97805 2.53291109,154.617041 C0.650762258,151.097729 0,147.727805 0,141.898631 L0,44.1013686 C0,38.2721948 0.650762258,34.9022712 2.53291109,31.3829589 C4.33039829,28.02195 7.02195005,25.3303983 10.3829589,23.5329111 C13.9022712,21.6507623 17.2721948,21 23.1013686,21 Z M17,59 L17,143.949219 C17,145.606073 18.3431458,146.949219 20,146.949219 L159.016602,146.949219 C160.673456,146.949219 162.016602,145.606073 162.016602,143.949219 L162.016602,59 C120.489258,84.828125 99.711263,97.7421875 99.6826172,97.7421875 C94.0992839,101.230469 88.0901693,101.230469 81.6552734,97.7421875 L17,59 Z M20,39 L83.7917393,77.9310693 C87.6300615,80.2735354 92.455876,80.2735354 96.2941982,77.9310693 L160.085938,39 L20,39 Z" id="Combined-Shape"></path>
        </g>
    </g>
</svg>