<?xml version="1.0" encoding="UTF-8"?>
<svg width="152px" height="152px" viewBox="0 0 152 152" version="1.1" xmlns="http://www.w3.org/2000/svg" xmlns:xlink="http://www.w3.org/1999/xlink">
    <!-- Generator: Sketch 43.1 (39012) - http://www.bohemiancoding.com/sketch -->
    <title>excel</title>
    <desc>Created with Sketch.</desc>
    <defs></defs>
    <g id="Page-1" stroke="none" stroke-width="1" fill="none" fill-rule="evenodd">
        <g id="excel" fill="#000000">
            <path d="M113.292481,42.2152692 L113.292481,15.9001953 L106.942188,9 C106.942188,9 104,9 104,9 L104.292481,46.7152692 C104.292481,49.2005505 106.3072,51.2152692 108.792481,51.2152692 L142.97041,51.2152692 L142.97041,48.0904297 L137.564355,42.2152692 L113.292481,42.2152692 Z" id="Path"></path>
            <path d="M137.249622,41.8550574 L106.944611,9 C103.689376,9 103.458732,9 98.8884806,9 L11.9986164,9 C10.3385333,9 9,10.3380229 9,11.9906395 L9,140.009361 C9,141.662811 10.3374418,143 11.9906395,143 L140.009361,143 C141.661632,143 143,141.660597 143,140.002349 L143,48.0893071 C140.512861,45.3928852 140.511817,45.3917534 137.249622,41.8550574 Z M0,11.9906395 C0,5.36839215 5.3670376,0 11.9986164,0 L110.887097,0 L152,44.5723914 L152,140.002349 C152,146.628469 146.634886,152 140.009361,152 L11.9906395,152 C5.36839215,152 0,146.634886 0,140.009361 L0,11.9906395 Z" id="Rectangle-10" fill-rule="nonzero"></path>
            <path d="M37.5189232,85.3215873 L104.767935,85.0126331 C106.839003,85.0126331 108.517935,83.3596528 108.517935,81.320599 C108.517935,79.2815452 106.839003,77.6285649 104.767935,77.6285649 L37.2679349,77.6285649 C35.1968674,77.6285649 33.5179349,79.2815452 33.5179349,81.320599 C33.5179349,83.3596528 35.4478557,85.3215873 37.5189232,85.3215873 Z" id="Line" fill-rule="nonzero" transform="translate(71.017935, 81.475076) rotate(-315.000000) translate(-71.017935, -81.475076) "></path>
            <path d="M76.5082741,114.225259 L76.5082741,47.7686446 C76.5082741,45.7295904 74.8293416,44.0766105 72.7582741,44.0766105 C70.6872066,44.0766105 69.0082741,45.7295904 69.0082741,47.7686446 L69.0082741,114.225259 C69.0082741,116.264313 70.6872066,117.917293 72.7582741,117.917293 C74.8293416,117.917293 76.5082741,116.264313 76.5082741,114.225259 Z" id="Line" fill-rule="nonzero" transform="translate(72.758274, 80.996952) rotate(-315.000000) translate(-72.758274, -80.996952) "></path>
        </g>
    </g>
</svg>