<?xml version="1.0" encoding="UTF-8"?>
<svg width="152px" height="152px" viewBox="0 0 152 152" version="1.1" xmlns="http://www.w3.org/2000/svg" xmlns:xlink="http://www.w3.org/1999/xlink">
    <!-- Generator: Sketch 43.1 (39012) - http://www.bohemiancoding.com/sketch -->
    <title>expand</title>
    <desc>Created with Sketch.</desc>
    <defs></defs>
    <g id="Page-1" stroke="none" stroke-width="1" fill="none" fill-rule="evenodd">
        <g id="expand" fill-rule="nonzero" fill="#000000">
            <path d="M8,30.0079447 L8,120.992055 C8,129.28335 14.7159504,136 23.0029641,136 L128.997036,136 C137.282847,136 144,129.281295 144,120.992055 L144,30.0079447 C144,21.7166501 137.28405,15 128.997036,15 L23.0029641,15 C14.7171533,15 8,21.7187052 8,30.0079447 Z M0,30.0079447 C0,17.3010077 10.2982947,7 23.0029641,7 L128.997036,7 C141.701222,7 152,17.2972666 152,30.0079447 L152,120.992055 C152,133.698992 141.701705,144 128.997036,144 L23.0029641,144 C10.2987778,144 0,133.702733 0,120.992055 L0,30.0079447 Z" id="Rectangle-4"></path>
            <path d="M19.8330129,77.3680018 C18.722329,76.3742321 18.722329,74.6355649 19.8330129,73.6417952 L38.8330129,56.6417952 C40.4434609,55.200868 43,56.3439232 43,58.5048985 L43,92.5048985 C43,94.6658738 40.4434609,95.808929 38.8330129,94.3680018 L19.8330129,77.3680018 Z" id="Triangle-2"></path>
            <path d="M110.833013,77.3680018 C109.722329,76.3742321 109.722329,74.6355649 110.833013,73.6417952 L129.833013,56.6417952 C131.443461,55.200868 134,56.3439232 134,58.5048985 L134,92.5048985 C134,94.6658738 131.443461,95.808929 129.833013,94.3680018 L110.833013,77.3680018 Z" id="Triangle-2" transform="translate(122.000000, 75.504898) scale(-1, 1) translate(-122.000000, -75.504898) "></path>
        </g>
    </g>
</svg>