<?xml version="1.0" encoding="UTF-8" standalone="no"?>
<svg width="180px" height="180px" viewBox="0 0 180 180" version="1.1" xmlns="http://www.w3.org/2000/svg" xmlns:xlink="http://www.w3.org/1999/xlink">
    <!-- Generator: Sketch 3.6 (26304) - http://www.bohemiancoding.com/sketch -->
    <title>eye-close</title>
    <desc>Created with Sketch.</desc>
    <defs></defs>
    <g id="iconos" stroke="none" stroke-width="1" fill="none" fill-rule="evenodd">
        <g id="eye-close" fill="#000000">
            <g id="Group" transform="translate(0.000000, 6.000000)">
                <g id="Group-2">
                    <path d="M129.986593,2.01869208 L25.9865929,142.018692 C24.3398896,144.235408 24.8019762,147.367328 27.0186921,149.014031 C29.235408,150.660735 32.3673281,150.198648 34.0140313,147.981932 L138.014031,7.9819321 C139.660735,5.76521617 139.198648,2.63329611 136.981932,0.98659285 C134.765216,-0.660110409 131.633296,-0.198023843 129.986593,2.01869208 L129.986593,2.01869208 Z" id="Combined-Shape"></path>
                    <path d="M68.930296,99.7035078 L63.9088727,106.425124 C52.1651448,98.4509401 44.4396649,85.0207631 44.4396649,69.8272131 C44.4396649,62.7806557 46.0927378,55.9908197 49.1766964,49.9003279 C43.0087793,53.1314754 37.4452114,56.6901639 32.7348424,60.0363934 C22.4520181,67.3396721 14.5865907,74.7137705 10.6138833,78.6796721 C14.5865907,82.6455738 22.4520181,90.0285246 32.7348424,97.3229508 C39.9617217,102.450575 49.2065573,108.101247 59.5369044,112.277388 L54.0555189,119.614704 C45.2759698,115.858519 36.3191688,110.752711 27.4112368,104.41377 C11.644832,93.1977049 1.55753238,82.1144262 1.13982041,81.6452459 C-0.379940138,79.9632787 -0.379940138,77.404918 1.13982041,75.7229508 C1.55753238,75.262623 11.644832,64.1704918 27.4112368,52.9544262 C36.7164373,46.3416393 46.0749628,41.0567213 55.2290761,37.2590164 C66.8272487,32.4432787 78.1499092,30 88.877108,30 C97.9346464,30 107.416708,31.74189 117.130695,35.1830389 L111.057546,43.3124825 C104.144059,41.1822803 96.8770034,39.852459 89.5,39.852459 C81.6523476,39.852459 73.92912,41.357377 66.6236043,43.7298361 C58.5626521,50.4842623 53.9500456,60.3193443 53.9500456,70.8360656 C53.9500456,82.7352009 59.8696602,93.2802288 68.930296,99.7035078 Z" id="Combined-Shape"></path>
                </g>
            </g>
            <path d="M68.6693388,122.64534 L62.921809,130.435401 C72.2245011,133.700022 81.3066976,135.351623 90,135.351623 C100.787127,135.351623 112.173043,132.808618 123.83601,127.79632 C133.041263,123.843607 142.452071,118.342978 151.809256,111.460281 C167.663741,99.7864169 177.807394,88.2415457 178.22744,87.7624289 C179.755691,86.01181 179.755691,83.3490264 178.22744,81.5984075 C177.807394,81.1100769 167.663741,69.5744195 151.809256,57.9005554 C143.633559,51.878854 135.416925,46.926308 127.332231,43.1351039 L119.191835,54.1683961 C123.42458,60.3177546 125.748558,67.7075429 125.748558,75.4620274 C125.748558,95.7876347 109.715329,112.317163 90,112.317163 C85.7525001,112.317163 81.6759051,111.549944 77.8937228,110.142838 L72.2790137,117.752876 C77.7148565,120.18315 83.7076362,121.530947 90,121.530947 C114.639693,121.530947 134.685697,100.86443 134.685697,75.4620274 C134.685697,68.1278555 133.023389,61.0608832 129.922202,54.7217999 C136.124576,58.084831 141.719226,61.7979859 146.45591,65.2715825 C156.79618,72.8637404 164.705548,80.5480361 168.700449,84.6758113 C164.705548,88.8035865 156.79618,96.4786685 146.45591,104.08004 C132.755275,114.141492 111.842369,126.137839 90,126.137839 C82.7082803,126.137839 75.5201445,124.800906 68.6693388,122.64534 Z" id="Combined-Shape"></path>
        </g>
    </g>
</svg>