<?xml version="1.0" encoding="UTF-8" standalone="no"?>
<svg width="180px" height="180px" viewBox="0 0 180 180" version="1.1" xmlns="http://www.w3.org/2000/svg" xmlns:xlink="http://www.w3.org/1999/xlink">
    <!-- Generator: Sketch 3.6 (26304) - http://www.bohemiancoding.com/sketch -->
    <title>eye-open</title>
    <desc>Created with Sketch.</desc>
    <defs></defs>
    <g id="iconos" stroke="none" stroke-width="1" fill="none" fill-rule="evenodd">
        <g id="eye-open" fill="#000000">
            <g id="eye" transform="translate(0.000000, 37.000000)">
                <path d="M178.22744,47.5984075 C177.807394,47.1100769 167.663741,35.5744195 151.809256,23.9005554 C142.452071,17.008645 133.041263,11.5172298 123.83601,7.56451656 C112.173043,2.55221813 100.787127,0.00921378387 90,0.00921378387 C79.2128728,0.00921378387 67.8269572,2.55221813 56.1639903,7.56451656 C46.9587367,11.5172298 37.5479289,17.0178588 28.190744,23.9005554 C12.3362587,35.5744195 2.19260553,47.1192907 1.77255998,47.5984075 C0.244309141,49.3490264 0.244309141,52.01181 1.77255998,53.7624289 C2.19260553,54.2507595 12.3362587,65.7864169 28.190744,77.460281 C37.5479289,84.3521914 46.9587367,89.8436066 56.1639903,93.7963198 C67.8269572,98.8086183 79.2128728,101.351623 90,101.351623 C100.787127,101.351623 112.173043,98.8086183 123.83601,93.7963198 C133.041263,89.8436066 142.452071,84.3429776 151.809256,77.460281 C167.663741,65.7864169 177.807394,54.2415457 178.22744,53.7624289 C179.755691,52.01181 179.755691,49.3490264 178.22744,47.5984075 L178.22744,47.5984075 Z M113.004197,13.2494212 C121.110182,20.2795383 125.748558,30.5068384 125.748558,41.4620274 C125.748558,61.7876347 109.715329,78.3171629 90,78.3171629 C70.2846705,78.3171629 54.2514425,61.7876347 54.2514425,41.4620274 C54.2514425,30.5160522 58.8898178,20.2795383 66.9958032,13.2494212 C74.3421318,10.7801271 82.1085059,9.21378387 90,9.21378387 C97.8914941,9.21378387 105.657868,10.7801271 113.004197,13.2494212 L113.004197,13.2494212 Z M146.45591,70.0800401 C132.755275,80.1414921 111.842369,92.1378387 90,92.1378387 C68.1576313,92.1378387 47.2447252,80.1414921 33.5440905,70.0800401 C23.2038202,62.4878822 15.2944519,54.8035865 11.2995506,50.6758113 C15.2944519,46.5480361 23.2038202,38.8729542 33.5440905,31.2715825 C38.2807744,27.7887722 43.8754236,24.084831 50.0777984,20.7217999 C46.976611,27.0608832 45.3143031,34.1278555 45.3143031,41.4620274 C45.3143031,66.8644296 65.3603067,87.5309468 90,87.5309468 C114.639693,87.5309468 134.685697,66.8644296 134.685697,41.4620274 C134.685697,34.1278555 133.023389,27.0608832 129.922202,20.7217999 C136.124576,24.084831 141.719226,27.7979859 146.45591,31.2715825 C156.79618,38.8637404 164.705548,46.5480361 168.700449,50.6758113 C164.705548,54.8035865 156.79618,62.4786685 146.45591,70.0800401 L146.45591,70.0800401 Z" id="Shape"></path>
            </g>
        </g>
    </g>
</svg>