<?xml version="1.0" encoding="UTF-8" standalone="no"?>
<svg width="180px" height="180px" viewBox="0 0 180 180" version="1.1" xmlns="http://www.w3.org/2000/svg" xmlns:xlink="http://www.w3.org/1999/xlink">
    <!-- Generator: Sketch 3.6 (26304) - http://www.bohemiancoding.com/sketch -->
    <title>family</title>
    <desc>Created with Sketch.</desc>
    <defs></defs>
    <g id="iconos" stroke="none" stroke-width="1" fill="none" fill-rule="evenodd">
        <g id="family" fill="#000000">
            <path d="M43.6193369,76.3842397 L43.6193369,76.3842397 C37.0471931,76.4389363 30.70251,73.8980624 25.8797848,69.280029 C21.2989005,64.9889309 18.7067658,58.8796025 18.7549085,52.4876112 C18.8030512,46.09562 21.4868934,40.0287973 26.1318565,35.812027 C30.9256216,31.3696478 37.1515174,28.9404468 43.5878279,29.0011093 L43.7768818,29.0011093 C50.285005,28.9895609 56.5558211,31.5279047 61.3273801,36.1053201 C65.9074536,40.4309705 68.4863719,46.5715577 68.4168991,52.9859676 C68.2908632,66.0212167 57.1366866,76.3842397 43.5878279,76.3842397 L43.6193369,76.3842397 Z M43.6176468,35.0677372 C38.7917831,35.0238919 34.1239809,36.8452399 30.5287228,40.1749557 C27.0726664,43.3291775 25.0546312,47.838316 24.9659301,52.604572 L24.9659301,52.604572 C24.9041962,57.417087 26.8304404,62.0282834 30.2609948,65.2803193 C33.8504509,68.7013289 38.5580887,70.5917251 43.4391615,70.5721361 L43.4391615,70.5721361 C53.3047219,71.0257238 61.6809588,63.1726314 62.2098684,52.9737685 C62.3106657,48.1695967 60.4282076,43.5484346 57.0337939,40.2672549 C53.4580078,36.8396556 48.7607653,34.938175 43.8853748,34.9446717 L43.5878993,34.9446717 L43.6176468,35.0677372 Z" id="e5Cc57"></path>
            <path d="M136.619337,76.3842397 L136.619337,76.3842397 C130.047193,76.4389363 123.70251,73.8980624 118.879785,69.280029 C114.2989,64.9889309 111.706766,58.8796025 111.754909,52.4876112 C111.803051,46.09562 114.486893,40.0287973 119.131857,35.812027 C123.925622,31.3696478 130.151517,28.9404468 136.587828,29.0011093 L136.776882,29.0011093 C143.285005,28.9895609 149.555821,31.5279047 154.32738,36.1053201 C158.907454,40.4309705 161.486372,46.5715577 161.416899,52.9859676 C161.290863,66.0212167 150.136687,76.3842397 136.587828,76.3842397 L136.619337,76.3842397 L136.619337,76.3842397 Z M136.61814,34.7620381 C131.708928,34.7174355 126.960508,36.5702403 123.303155,39.9574641 C119.787409,43.1661628 117.73452,47.7531792 117.644287,52.6017538 L117.644287,52.6017538 C117.581487,57.4973864 119.540999,62.1882234 123.030803,65.4964255 C126.682253,68.9765198 131.471197,70.8995653 136.436572,70.879638 L136.436572,70.879638 C146.472522,71.3410597 154.993426,63.3523356 155.53147,52.9773268 C155.634008,48.0901814 153.719038,43.3892067 150.265999,40.0513573 C146.628455,36.5645595 141.850086,34.6302382 136.890492,34.6368471 L136.587878,34.6368471 L136.61814,34.7620381 L136.61814,34.7620381 Z" id="e5Cc57-Copy"></path>
            <path d="M79.4169087,151 L70.9839542,151 C68.4404805,150.952736 65.9207941,150.479708 63.5211627,149.59899 C59.609291,148.312801 56.7914086,144.743366 56.3320068,140.492427 C55.3172057,133.001333 56.6430632,125.368557 60.1131545,118.724887 C62.5487771,113.870233 67.3005457,110.757928 72.5511404,110.578275 C73.9513473,110.524731 75.3430052,110.827486 76.6059239,111.460393 C77.6755906,111.979285 78.7203815,112.576012 79.7651723,113.146793 C81.1827113,113.986166 82.6538559,114.722998 84.1682193,115.352086 C89.5416187,117.395889 95.5099661,116.824811 100.437105,113.795409 L101.258012,113.302461 C101.667191,112.995553 102.090594,112.709817 102.526686,112.446288 L103.471973,111.927396 C104.598481,111.149107 105.885694,110.660113 107.228245,110.500442 C110.220597,110.3514 113.178879,111.216031 115.6612,112.965181 C118.438865,114.883364 120.583896,117.645873 121.805565,120.878291 C124.200221,126.786432 125.12437,133.229948 124.49217,139.61031 C123.791935,145.712073 118.960433,150.388847 113.074099,150.66272 C111.183525,150.870277 109.243199,150.896222 107.452129,150.896222 L79.4169087,150.896222 L79.4169087,151 Z M74.8967382,118.244958 L74.7647445,118.244958 C71.3683012,118.34804 68.3078672,120.194166 66.8011283,123.048799 C64.0986765,127.7959 63.0887682,133.229148 63.9192671,138.553044 C64.1585036,140.740897 65.7692069,142.583193 68.01107,143.233181 C69.7173263,143.791774 71.5060223,144.097832 73.3128145,144.140345 L85.5002273,144.140345 L105.431267,144.140345 C106.993192,144.140345 108.533118,144.140345 110.029045,143.975406 C113.595136,143.863728 116.534975,141.319107 116.936713,137.996375 C117.427936,133.399858 116.67119,128.761556 114.736819,124.512631 C113.916257,122.523921 112.465192,120.818607 110.579019,119.62632 C109.060813,118.651439 107.24836,118.159922 105.409268,118.22434 C104.813364,118.356538 104.24726,118.586909 103.737349,118.904713 L102.703398,119.440764 C102.394117,119.583961 102.093052,119.742244 101.801442,119.914963 L100.877486,120.409779 C95.5535314,123.271094 89.1534383,123.784144 83.3883291,121.811759 C81.8745793,121.256293 80.4043605,120.601798 78.988541,119.853111 C78.3505718,119.440764 77.3826184,119.0078 76.5026608,118.719157 C76.0082176,118.458463 75.4613335,118.296978 74.8967382,118.244958 L74.8967382,118.244958 Z M90.4369642,107.724367 L90.4369642,107.724367 C85.2483324,107.767913 80.2392781,105.745028 76.4317921,102.068439 C72.8152367,98.6521349 70.7687762,93.7882699 70.8067843,88.6993664 C70.8447924,83.6104629 72.9636549,78.7804383 76.6307998,75.4233096 C80.4154221,71.8865653 85.3306952,69.9525875 90.4120882,70.0008832 L90.561344,70.0008832 C95.6994324,69.991689 100.650169,72.0125596 104.41726,75.6568113 C108.033176,79.1006235 110.069202,83.9893748 110.014354,89.0961266 C109.91485,99.4739763 101.108756,107.724367 90.4120882,107.724367 L90.4369642,107.724367 Z M90.4336785,76.0510876 C86.9536572,76.0192036 83.5876171,77.3436733 80.9950088,79.765016 C78.5027813,82.0587408 77.0475382,85.3377501 76.9835741,88.8037333 L76.9835741,88.8037333 C76.9390567,92.3033557 78.3281076,95.6565808 80.8019451,98.0214352 C83.3903695,100.509166 86.7851358,101.883847 90.3049693,101.869602 L90.3049693,101.869602 C97.4192108,102.199447 103.459473,96.4887415 103.84088,89.0722101 C103.913567,85.5786548 102.556091,82.2181828 100.108315,79.8321352 C97.5297482,77.3396124 94.1424781,75.956871 90.6267422,75.9615953 L90.412227,75.9615953 L90.4336785,76.0510876 Z" id="e5Cc57-Copy-3"></path>
            <path d="M119.335758,88.7273817 C120.603549,89.0298559 121.873767,89.575352 123.052193,90.4188117 C123.359029,90.6384299 123.656679,90.8765363 123.944468,91.1340184 C126.740593,93.6356795 129.938934,95.5891531 135.481645,96.110296 C142.229863,96.7447844 149.123452,95.3171987 155.343449,91.5012252 C160.793454,88.1576428 163.903884,88.3018061 165.84857,90.0695479 C166.124481,90.3203539 166.350412,90.5879975 166.523983,90.845704 C166.60651,90.9682349 166.63912,91.0273498 166.622064,90.9902896 C166.696484,91.1446954 166.77853,91.3167824 166.897571,91.5735975 C167.101384,92.0132971 167.329934,92.5221653 167.577014,93.0922238 C168.286379,94.7288588 168.996831,96.5170155 169.658773,98.3913298 C170.742172,101.459022 171.58366,104.443423 172.089884,107.204038 C172.717256,110.625312 172.78917,113.513096 172.266425,115.651125 C171.580225,118.457686 170.262577,120.1316 168.439703,121.094759 C167.626317,121.524532 166.732307,121.796585 165.812497,121.932125 C165.179067,122.025465 164.62887,122.042684 164.229399,122.019509 C164.090576,122.006419 163.970967,122 163.851276,122 L131.088484,122 C129.198025,122 127.665506,123.567003 127.665506,125.5 C127.665506,127.432997 129.198025,129 131.088484,129 L163.851276,129 L163.492942,128.980769 C163.578863,128.990017 163.695786,128.99981 163.841599,129.008269 C166.151924,129.142301 168.883091,128.739845 171.582517,127.313538 C175.134568,125.436728 177.739672,122.127254 178.907978,117.348875 C179.707478,114.078918 179.611882,110.240139 178.818584,105.914018 C178.23735,102.744349 177.297256,99.4102325 176.097764,96.0138186 C175.377629,93.9747283 174.607287,92.0358329 173.835857,90.2560036 C173.369031,89.1789508 173.000999,88.3849707 172.780844,87.9347524 C172.68164,87.7168713 172.467328,87.3283733 172.162242,86.8754018 C171.689792,86.1739377 171.106039,85.4824106 170.397115,84.8379907 C166.110519,80.9414259 159.731577,80.6457724 151.821233,85.4987748 C146.902536,88.5164 141.462063,89.6430614 136.108513,89.139704 C131.904671,88.7444456 130.059749,87.3039138 128.452562,85.8659816 C127.977516,85.4409637 127.485436,85.0473201 126.978092,84.6841883 C125.037329,83.2950855 122.96556,82.4053629 120.891362,81.9104933 C119.615136,81.6060065 118.578398,81.5 117.885568,81.5 C115.995109,81.5 114.46259,83.0670034 114.46259,85 C114.46259,86.9329966 115.995109,88.5 117.885568,88.5 C118.083934,88.5 118.606791,88.5534622 119.335758,88.7273817 Z" id="Path-202"></path>
            <path d="M4.87316834,89.2273817 C6.14095897,89.5298559 7.4111776,90.075352 8.58960387,90.9188117 C8.89643987,91.1384299 9.19408897,91.3765363 9.48187854,91.6340184 C12.2780031,94.1356795 15.4763449,96.0891531 21.0190553,96.610296 C27.767273,97.2447844 34.6608622,95.8171987 40.8808595,92.0012252 C46.3308643,88.6576428 49.4412946,88.8018061 51.3859806,90.5695479 C51.6618914,90.8203539 51.8878229,91.0879975 52.0613935,91.345704 C52.1439206,91.4682349 52.1765308,91.5273498 52.1594745,91.4902896 C52.2338941,91.6446954 52.3159404,91.8167824 52.4349815,92.0735975 C52.6387947,92.5132971 52.8673442,93.0221653 53.1144241,93.5922238 C53.8237893,95.2288588 54.5342418,97.0170155 55.196183,98.8913298 C56.2795826,101.959022 57.1210701,104.943423 57.6272946,107.704038 C58.2546668,111.125312 58.3265802,114.013096 57.8038353,116.151125 C57.1176356,118.957686 55.7999875,120.6316 53.9771136,121.594759 C53.163727,122.024532 52.2697174,122.296585 51.3499075,122.432125 C50.7164775,122.525465 50.1662804,122.542684 49.766809,122.519509 C49.6279866,122.506419 49.5083778,122.5 49.3886865,122.5 L16.6258945,122.5 C14.7354358,122.5 13.2029162,124.067003 13.2029162,126 C13.2029162,127.932997 14.7354358,129.5 16.6258945,129.5 L49.3886865,129.5 L49.0303528,129.480769 C49.1162734,129.490017 49.2331966,129.49981 49.3790096,129.508269 C51.6893349,129.642301 54.4205012,129.239845 57.1199278,127.813538 C60.6719784,125.936728 63.2770823,122.627254 64.4453887,117.848875 C65.244888,114.578918 65.1492924,110.740139 64.3559949,106.414018 C63.7747606,103.244349 62.8346666,99.9102325 61.6351741,96.5138186 C60.9150399,94.4747283 60.1446975,92.5358329 59.3732677,90.7560036 C58.9064417,89.6789508 58.5384094,88.8849707 58.3182541,88.4347524 C58.21905,88.2168713 58.0047384,87.8283733 57.6996529,87.3754018 C57.2272025,86.6739377 56.6434494,85.9824106 55.9345255,85.3379907 C51.6479291,81.4414259 45.2689875,81.1457724 37.3586439,85.9987748 C32.439946,89.0164 26.9994733,90.1430614 21.6459239,89.639704 C17.4420813,89.2444456 15.5971596,87.8039138 13.9899725,86.3659816 C13.5149269,85.9409637 13.022846,85.5473201 12.5155022,85.1841883 C10.5747395,83.7950855 8.50296996,82.9053629 6.42877242,82.4104933 C5.15254609,82.1060065 4.11580886,82 3.42297827,82 C1.53251957,82 1.42108547e-14,83.5670034 1.42108547e-14,85.5 C1.42108547e-14,87.4329966 1.53251957,89 3.42297827,89 C3.62134453,89 4.14420177,89.0534622 4.87316834,89.2273817 Z" id="Path-202" transform="translate(32.500000, 105.766253) scale(-1, 1) translate(-32.500000, -105.766253) "></path>
        </g>
    </g>
</svg>