<?xml version="1.0" encoding="UTF-8"?>
<svg width="128px" height="128px" viewBox="0 0 128 128" version="1.1" xmlns="http://www.w3.org/2000/svg" xmlns:xlink="http://www.w3.org/1999/xlink">
    <!-- Generator: Sketch 47.1 (45422) - http://www.bohemiancoding.com/sketch -->
    <title>finance</title>
    <desc>Created with Sketch.</desc>
    <defs></defs>
    <g id="iconos" stroke="none" stroke-width="1" fill="none" fill-rule="evenodd">
        <g id="finance" fill="#000000">
            <path d="M118,74 L90.9166667,74 C87.9251243,74 85.5,77.1340068 85.5,81 C85.5,84.8659932 87.9251243,88 90.9166667,88 L118,88 L118,74 Z M93,66 L128,66 L128,96 L93,96 C84.7157288,96 78,89.2842712 78,81 C78,72.7157288 84.7157288,66 93,66 Z" id="Rectangle-7" fill-rule="nonzero"></path>
            <path d="M17,44 C13.1340068,44 10,47.1340068 10,51 L10,111 C10,114.865993 13.1340068,118 17,118 L111,118 C114.865993,118 118,114.865993 118,111 L118,51 C118,47.1340068 114.865993,44 111,44 L17,44 Z M17,34 C21.5981083,34 25.00894,34 27.232495,34 C28.0497806,34 62.741818,4.01078768 63.53686,3.36167047 C64.9309024,2.22349544 66.1952737,2.22349544 67.3299738,3.36167047 L78.3526394,15.882909 L97.0011545,6.82049214 C97.8470101,6.55727962 98.5376199,6.55727962 99.0729838,6.82049214 C99.6083477,7.08370466 100.007815,7.64629441 100.271385,8.50826138 L111,34 C120.388841,34 128,41.6111593 128,51 L128,111 C128,120.388841 120.388841,128 111,128 L17,128 C7.61115925,128 1.25825276e-15,120.388841 0,111 L0,51 C-1.25825276e-15,41.6111593 7.61115925,34 17,34 Z M103.092089,34.1949369 L95.2087735,15.882909 L58.4368751,34 L103.092089,34.1949369 Z M65.361313,10.1050641 L37.3411839,33.9248472 L43.2037409,33.9248472 L73.2772589,18.9838187 L65.361313,10.1050641 Z" id="Rectangle-6" fill-rule="nonzero"></path>
            <path d="M44.4378782,78.808 C46.5611672,79.5962325 48.3397897,80.3637105 49.7737989,81.1104571 C51.2078082,81.8572037 52.4653223,82.8735936 53.5463789,84.1596572 C54.6274355,85.4457207 55.2751001,87.0221621 55.4893921,88.8890286 C55.8227353,91.7930432 54.9660743,94.1784479 52.9193836,96.0453144 C50.8726928,97.9121809 47.9784486,98.9907987 44.236564,99.2812001 L44.1898381,103.45972 C44.178297,104.082009 43.9334817,104.569461 43.4553851,104.922091 C42.9772884,105.274722 42.4063613,105.451034 41.7425865,105.451034 C41.1202977,105.451034 40.5918644,105.274722 40.1572708,104.922091 C39.7226771,104.569461 39.5111541,104.082009 39.5226953,103.45972 L39.6173636,99.156743 C36.5412708,98.7418838 34.0312074,97.7462366 32.087098,96.1697715 C30.1429887,94.5933065 29.0471373,92.726468 28.7995109,90.5692001 C28.6328394,89.1171928 28.8776338,87.9970897 29.5339016,87.2088572 C30.1901693,86.4206247 31.0368645,86.0265143 32.0740126,86.0265143 C33.1111606,86.0265143 33.9119725,86.3169114 34.4764722,86.8977143 C35.0409718,87.4785172 35.4983603,88.3911938 35.8486512,89.6357715 C36.082636,90.5899477 36.5373004,91.3885397 37.2126579,92.0315715 C37.8880155,92.6746033 38.7377987,93.1205703 39.7620331,93.3694858 L39.9351499,84.0352 C37.9410807,83.2884534 36.2234957,82.5106041 34.7823434,81.7016286 C33.341191,80.8926531 32.0972766,79.8140353 31.0505629,78.4657428 C30.0038491,77.1174504 29.3662127,75.4476671 29.1376346,73.4563428 C28.7852433,70.3863846 29.6611133,67.8972666 31.7652709,65.9889142 C33.8694284,64.0805618 36.6910734,63.001944 40.2302904,62.7530284 L40.2627302,58.4500515 C40.2327855,57.8277627 40.4476772,57.3506817 40.9074119,57.0187944 C41.3671466,56.686907 41.9081503,56.5209658 42.5304391,56.5209658 C43.1527279,56.5209658 43.7019039,56.6972783 44.1779835,57.0499087 C44.654063,57.402539 44.8839477,57.8692486 44.8676445,58.4500515 L44.7321767,62.9397142 C47.4348962,63.3545734 49.6346672,64.26725 51.3315558,65.6777713 C53.0284445,67.0882927 53.9983064,68.8514179 54.2411706,70.9671999 C54.4030801,72.3777213 54.1603236,73.4252251 53.5128937,74.1097428 C52.8654638,74.7942605 52.0024448,75.1365142 50.9238108,75.1365142 C50.0526065,75.1365142 49.3060322,74.8668598 48.6840657,74.3275428 C48.0620992,73.7882258 47.6779962,73.0622331 47.5317453,72.1495428 C47.2072817,70.4071341 46.2466214,69.2662883 44.6497357,68.7269713 L44.4378782,78.808 Z M36.2367761,72.9585142 C36.336779,73.8297186 36.7140821,74.5868253 37.3686967,75.2298571 C38.0233113,75.8728889 38.9232564,76.4847971 40.068559,77.0656 L40.1407064,68.4780571 C38.7539953,68.6854867 37.7221499,69.1833103 37.0451392,69.9715428 C36.3681285,70.7597753 36.0986768,71.7554225 36.2367761,72.9585142 Z M44.2639194,93.5561715 C45.6921164,93.3487419 46.7610283,92.9027749 47.4706871,92.2182572 C48.1803459,91.5337395 48.4732643,90.6521769 48.3494512,89.5735429 C48.2542103,88.7438245 47.8701073,88.0178317 47.1971308,87.3955429 C46.5241542,86.7732541 45.575924,86.1924599 44.3524116,85.6531429 L44.2639194,93.5561715 Z" id="$"></path>
        </g>
    </g>
</svg>