<?xml version="1.0" encoding="UTF-8"?>
<svg width="180px" height="180px" viewBox="0 0 180 180" version="1.1" xmlns="http://www.w3.org/2000/svg" xmlns:xlink="http://www.w3.org/1999/xlink">
    <!-- Generator: Sketch 43.2 (39069) - http://www.bohemiancoding.com/sketch -->
    <title>finance</title>
    <desc>Created with Sketch.</desc>
    <defs></defs>
    <g id="iconos" stroke="none" stroke-width="1" fill="none" fill-rule="evenodd">
        <g id="finance" fill-rule="nonzero" fill="#000000">
            <g id="1489436641-financemoneypocketdollarcurrency_81875">
                <path d="M110.646487,0.10913608 C109.737264,0.123654181 108.86938,0.491225742 108.226566,1.1340358 L76.822263,32.5064611 C69.266057,21.3389019 56.471562,13.9918051 42,13.9918051 C18.845498,13.9918051 1.42108547e-14,32.8261739 1.42108547e-14,55.9672203 C1.42108547e-14,68.3548649 5.4293967,79.4706545 14,87.1619497 L14,160.905758 C14,168.597054 20.3044947,174.897563 28,174.897563 L161,174.897563 C168.695499,174.897563 175,168.597054 175,160.905758 L175,129.424197 L175,115.432392 L175,69.9590254 C175,62.2684297 168.695499,55.9672203 161,55.9672203 L140.533204,17.3806203 C139.917359,16.2201163 138.702912,15.5022268 137.388671,15.521809 C136.834793,15.5320336 136.291253,15.6734965 135.802737,15.9345672 L130.689454,18.6405823 L113.175783,1.13683416 C112.50617,0.46724508 111.593613,0.0974664977 110.646487,0.111934441 L110.646487,0.10913608 Z M110.701087,8.55389003 L124.222574,22.0671754 L82.318278,44.2847627 C81.780048,42.4322477 81.113585,40.6391978 80.33585,38.9007161 L110.701087,8.55389003 L110.701087,8.55389003 Z M42,20.9877076 C61.371422,20.9877076 77,36.6074592 77,55.9672203 C77,75.327681 61.371422,90.946733 42,90.946733 C22.6285759,90.946733 7,75.327681 7,55.9672203 C7,36.6074592 22.6285759,20.9877076 42,20.9877076 Z M135.994138,23.7475912 L153.083987,55.9672203 L84,55.9672203 C84,54.4400148 83.90018,52.930299 83.74023,51.4443693 L135.994131,23.7475912 L135.994138,23.7475912 Z M40.0175783,27.9836102 L40.0175783,34.4604167 C38.2573198,34.6772897 36.6698318,35.1040398 35.2460934,35.7308726 C33.8223557,36.3605039 32.6052629,37.167831 31.5957033,38.1493561 C30.612029,39.1315809 29.8424371,40.2852052 29.2988283,41.6200234 C28.7811083,42.9555412 28.5195316,44.4232815 28.5195316,46.0337383 C28.5195316,47.7813148 28.8264956,49.3302076 29.421875,50.6657254 C30.043146,52.0005436 30.9215564,53.1835507 32.0605467,54.2042529 C33.2254237,55.2256546 34.6269847,56.1169326 36.2578125,56.882984 C37.9145263,57.6294468 39.7787166,58.2807653 41.8496092,58.8502317 C43.4027783,59.3609326 44.7135626,59.8989175 45.800783,60.4487955 C46.913888,61.0014718 47.807431,61.5905268 48.480467,62.2390469 C49.179396,62.8896659 49.687414,63.5836594 49.998046,64.3294226 C50.308706,65.0758854 50.462916,65.8916077 50.462916,66.7751901 C50.462916,67.835769 50.276996,68.8081994 49.888706,69.6721934 C49.500416,70.5165988 48.93042,71.2357776 48.179719,71.8444211 C47.454911,72.4320769 46.546241,72.8917077 45.4590192,73.2247127 C44.3976869,73.5395283 43.1805948,73.7004341 41.8086284,73.7004341 C40.8249548,73.7004341 39.8391777,73.5745078 38.8555034,73.3156594 C37.8718298,73.0638069 36.9782868,72.611172 36.1758166,71.9626519 C35.3733478,71.3120329 34.7262489,70.4389443 34.23441,69.3391884 C33.742569,68.2394325 33.4961284,66.8549434 33.4961284,65.1857211 L26.6601916,65.1857211 C26.6601909,67.4048214 27.0139996,69.3063077 27.7129258,70.8971759 C28.4118548,72.4684556 29.3371113,73.7780886 30.5019883,74.8183793 C31.6927513,75.8593696 33.0625953,76.645709 34.5898784,77.1962866 C36.1171615,77.7489629 37.6895197,78.114149 39.3203475,78.2890465 L39.3203475,83.9459333 L44.7207383,83.9459333 L44.7207383,78.2890465 C46.662203,78.0931613 48.403894,77.7013907 49.957068,77.1137349 C51.510235,76.5260791 52.834691,75.7320442 53.92191,74.7498194 C55.009129,73.7682943 55.855828,72.61467 56.451206,71.2798518 C57.046626,69.9240459 57.339877,68.4045358 57.339877,66.715725 C57.339877,64.987737 57.048047,63.4675274 56.478548,62.1522977 C55.909028,60.8363685 55.076028,59.6694519 53.962923,58.6676387 C52.849818,57.6658254 51.478518,56.790638 49.847693,56.0441752 C48.216861,55.2781239 46.337543,54.5897271 44.2148784,53.9810836 C42.5581646,53.449395 41.1566036,52.918406 40.0176133,52.368528 C38.9045083,51.8018599 37.9958362,51.1932164 37.29691,50.5649844 C36.597988,49.9353531 36.1036382,49.2616477 35.7930034,48.5151849 C35.5082574,47.7498332 35.3555034,46.8893372 35.3555034,45.9469891 C35.3555034,44.9255873 35.5082574,43.9902352 35.7930034,43.1458297 C36.1036354,42.3014243 36.5511377,41.5892414 37.1465192,41.0001864 C37.7677902,40.3915429 38.5373793,39.9123236 39.4433942,39.5793186 C40.3494098,39.2435153 41.4137493,39.0896054 42.656285,39.0896054 C43.8470487,39.0896054 44.9099308,39.3064784 45.841831,39.7612121 C46.773734,40.2159457 47.558455,40.842079 48.179719,41.6466078 C48.80099,42.4518362 49.26362,43.4032789 49.574252,44.5023352 C49.910742,45.6027907 50.080142,46.8214769 50.080142,48.1374062 L56.875063,48.1374062 C56.875063,44.1504413 55.874154,41.0064827 53.880925,38.7090283 C51.913575,36.3919854 49.124124,34.9781135 45.500063,34.4870012 L45.500063,27.9829106 L40.0176413,27.9829106 L40.0175783,27.9836102 Z M83.357421,62.9631229 L161,62.9631229 C164.938627,62.9631229 168,66.0231306 168,69.9590254 L168,97.9426355 L157.5,97.9426355 L150.5,97.9426355 L129.5,97.9426355 C119.865515,97.9426355 112,105.803931 112,115.432392 C112,125.061552 119.865515,132.922148 129.5,132.922148 L150.5,132.922148 L157.5,132.922148 L168,132.922148 L168,160.905758 C168,164.842353 164.938627,167.901661 161,167.901661 L28,167.901661 C24.0613709,167.901661 21,164.842353 21,160.905758 L21,92.2584647 C27.1862605,95.8480623 34.3477638,97.9426355 42,97.9426355 C62.762896,97.9426355 80.005534,82.776918 83.357421,62.9631229 Z M129.500021,104.938538 L150.500021,104.938538 L157.500021,104.938538 L168.000021,104.938538 L168.000021,115.432392 L168.000021,125.926246 L157.500021,125.926246 L150.500021,125.926246 L129.500021,125.926246 C123.622436,125.926246 119.000021,121.306851 119.000021,115.432392 C119.000021,109.558632 123.622436,104.938538 129.500021,104.938538 Z" id="rect4307"></path>
            </g>
        </g>
    </g>
</svg>