<?xml version="1.0" encoding="UTF-8" standalone="no"?>
<svg width="180px" height="180px" viewBox="0 0 180 180" version="1.1" xmlns="http://www.w3.org/2000/svg" xmlns:xlink="http://www.w3.org/1999/xlink">
    <!-- Generator: Sketch 3.6 (26304) - http://www.bohemiancoding.com/sketch -->
    <title>folder-up</title>
    <desc>Created with Sketch.</desc>
    <defs></defs>
    <g id="iconos" stroke="none" stroke-width="1" fill="none" fill-rule="evenodd">
        <g id="folder-up" fill="#000000">
            <path d="M108,103.99078 L108,103.99078 L108,163.00922 C108,163.003158 107.996842,163 107.99078,163 L167.00922,163 C167.003158,163 167,163.003158 167,163.00922 L167,103.99078 C167,103.996842 167.003158,104 167.00922,104 L107.99078,104 C107.996842,104 108,103.996842 108,103.99078 L108,103.99078 Z M100,103.99078 C100,99.5775939 103.579535,96 107.99078,96 L167.00922,96 C171.422406,96 175,99.5795346 175,103.99078 L175,163.00922 C175,167.422406 171.420465,171 167.00922,171 L107.99078,171 C103.577594,171 100,167.420465 100,163.00922 L100,103.99078 L100,103.99078 Z" id="Rectangle-2"></path>
            <path d="M135,130.656854 L125.328427,140.328427 C123.76633,141.890524 121.23367,141.890524 119.671573,140.328427 C118.109476,138.76633 118.109476,136.23367 119.671573,134.671573 L135.661059,118.682087 C136.423516,117.913178 137.425755,117.516974 138.435171,117.500523 C139.453109,117.486263 140.466889,117.851929 141.252287,118.597391 L158.241459,134.5872 C159.850154,136.101266 159.926866,138.632764 158.4128,140.241459 C156.898734,141.850154 154.367236,141.926866 152.758541,140.4128 L143,131.228291 L143,166.5 C143,168.709139 141.209139,170.5 139,170.5 C136.790861,170.5 135,168.709139 135,166.5 L135,130.656854 Z" id="Combined-Shape"></path>
            <path d="M12.3533654,162.591797 C11.9756126,162.591797 10.5770149,162.189217 10.303293,161.523491 C9.82820112,160.368007 9.53906251,158.615112 9.5390625,156.203125 C9.53906248,148.829692 9.31263615,22.0166678 9.49067423,21.4950109 C9.81950514,20.5315264 10.72843,19.9453124 13.5937498,19.9453125 C22.7803247,19.9453127 22.7803247,19.9453127 37.2171278,19.9453127 C45.4359447,19.9453127 45.4359447,19.9453127 52.6860533,19.9453126 C57.118571,19.9453126 57.118571,19.9453126 60.3139468,19.9453125 C62.732232,19.9453125 89.5329365,59.2626904 89.5329365,59.2626904 C90.2846113,60.3068933 91.4926832,60.9257812 92.7792969,60.9257812 L172.190304,60.9257812 L172.190309,86.7792969 C172.190309,88.9884359 173.98117,90.7792969 176.190309,90.7792969 C178.399448,90.7792969 180.190309,88.9884359 180.190309,86.7792969 L180.190304,52.9257812 L94.9366119,52.9257812 L66.5256573,13.6084034 C65.7739824,12.5642005 64.5659105,11.9453125 63.2792968,11.9453125 C62.7322319,11.9453125 62.7322319,11.9453125 60.3139467,11.9453125 C57.1185709,11.9453126 57.1185709,11.9453126 52.6860532,11.9453126 C45.4359446,11.9453127 45.4359446,11.9453127 37.2171277,11.9453127 C22.7803247,11.9453127 22.7803247,11.9453127 13.5937502,11.9453125 C7.44930411,11.9453122 3.40705713,14.5523726 1.91948191,18.9110127 C1.26153961,20.8388033 1.53906248,148.829692 1.5390625,156.203125 C1.53906253,162.870959 3.35435927,167.285989 6.84595403,169.440137 C8.82274517,170.659724 12.3533654,170.591797 12.3533654,170.591797 L85.6679687,170.591797 C87.8771077,170.591797 89.6679687,168.800936 89.6679687,166.591797 C89.6679687,164.382658 87.8771077,162.591797 85.6679687,162.591797 L12.3533654,162.591797 Z" id="Path-108"></path>
            <path d="M168.910728,38.9813905 L77.0112522,39.1206594 L77,31.1206673 L168.910725,31 C169.375359,31.029875 173.995438,30.8148253 176.691177,33.3573544 C179.887417,36.3719374 179.96208,38.0467635 179.962831,42.9999997 L180,47 L180,60.9021435 L180,60.6532211 L172,60.9021435 L172,58.3132915 L172,47 L172,43 C172.026354,40.6761717 170.420647,38.9813905 168.910728,38.9813905 Z" id="Combined-Shape"></path>
        </g>
    </g>
</svg>