<?xml version="1.0" encoding="UTF-8" standalone="no"?>
<svg width="180px" height="180px" viewBox="0 0 180 180" version="1.1" xmlns="http://www.w3.org/2000/svg" xmlns:xlink="http://www.w3.org/1999/xlink">
    <!-- Generator: Sketch 3.6 (26304) - http://www.bohemiancoding.com/sketch -->
    <title>folder</title>
    <desc>Created with Sketch.</desc>
    <defs></defs>
    <g id="iconos" stroke="none" stroke-width="1" fill="none" fill-rule="evenodd">
        <g id="folder" fill="#000000">
            <path d="M168.910728,38.9813905 L77.0112522,39.1206594 L77,31.1206673 L168.910725,31 C169.375359,31.029875 173.995438,30.8148253 176.691177,33.3573544 C179.887417,36.3719374 179.96208,38.0467635 179.962831,42.9999997 L180,47 L180,60.9021435 L180,60.6532211 L172,60.9021435 L172,58.3132915 L172,47 L172,43 C172.026354,40.6761717 170.420647,38.9813905 168.910728,38.9813905 Z" id="Combined-Shape"></path>
            <path d="M15.4865678,10.9977838 C13.4914999,10.8115935 11.293965,10.945273 9.10219018,11.6703903 C4.24959455,13.2758022 1.16061086,17.3514804 1.1606108,23.6109166 C1.16061079,26.2584713 1.16061079,26.2584713 1.16061078,31.7223436 C1.16061077,38.3932092 1.16061077,38.3932092 1.16061077,47.0757301 C1.16061076,66.8547584 1.16061076,66.8547584 1.16061077,89.8524353 C1.16061078,107.982679 1.16061078,107.982679 1.16061078,124.53592 C1.16061079,137.85915 1.16061079,137.85915 1.1606108,147.626076 C1.1606108,151.638306 1.1606108,151.638306 1.1606108,154.352606 C1.1606108,156.349799 1.1606108,156.349799 1.1606108,156.776495 C1.15142622,157.404617 1.20979544,158.301838 1.38970436,159.363423 C1.67320932,161.036294 2.19814831,162.707629 3.03873831,164.300767 C5.59275355,169.141293 10.4230529,172.091779 17.4080017,172.091779 C25.3828592,172.091779 25.3828592,172.091779 43.8420194,172.091778 C65.7959472,172.091778 65.7959472,172.091778 91.2446425,172.091778 C111.65996,172.091779 111.65996,172.091779 130.271055,172.091779 C145.047902,172.091779 145.047902,172.091779 155.871366,172.091779 C160.316548,172.091779 160.316548,172.091779 163.322802,172.091779 C165.534495,172.091779 165.534495,172.091779 166.006872,172.091779 C168.074338,172.182512 170.649935,171.746895 173.214441,170.290738 C177.784282,167.695928 180.471875,162.694312 180.47188,155.38301 C180.471884,149.908649 180.471885,132.583338 180.471884,107.122225 C180.471883,92.6064728 180.471883,92.6064728 180.471882,79.5365447 C180.471881,70.1936985 180.471881,70.1936985 180.471881,63.3943558 C180.47188,58.2280282 180.47188,58.2280282 180.47188,57.0502573 C180.47188,54.8395606 178.678587,53.0480552 176.467891,53.0502597 L95.3766672,53.0502607 L66.1035377,12.6773021 C65.3506401,11.6440579 64.1492041,11.0329496 62.8707487,11.0329496 L15.5565124,11.0329496 L16.2017821,11.0853393 C16.03373,11.0578698 15.7924331,11.0263288 15.4865678,10.9977838 Z M14.9112427,18.9805599 C15.1245638,19.015429 15.3403603,19.0329496 15.5565124,19.0329496 L62.8707487,19.0329496 L59.6379597,17.3885972 L90.3151145,59.4885997 C91.0688401,60.5229802 92.2720315,61.1342265 93.5518924,61.1329501 L176.475869,61.0502558 L172.47188,57.0502582 C172.47188,58.228029 172.47188,58.228029 172.471881,63.3943566 C172.471881,70.1936993 172.471881,70.1936993 172.471882,79.5365454 C172.471883,92.6064733 172.471883,92.6064733 172.471884,107.122226 C172.471885,132.583335 172.471884,149.908646 172.47188,155.383005 C172.471877,159.91329 171.235093,162.214947 169.264311,163.33398 C168.204024,163.936024 167.041937,164.132571 166.262579,164.100107 C166.268816,164.100367 166.265534,164.100168 166.321035,164.104135 C166.216517,164.095901 166.111715,164.091779 166.006872,164.091779 C165.534495,164.091779 165.534495,164.091779 163.322802,164.091779 C160.316548,164.091779 160.316548,164.091779 155.871366,164.091779 C145.047902,164.091779 145.047902,164.091779 130.271056,164.091779 C111.65996,164.091779 111.65996,164.091779 91.2446425,164.091778 C65.7959472,164.091778 65.7959472,164.091778 43.8420194,164.091778 C25.3828591,164.091779 25.3828591,164.091779 17.4080013,164.091779 C13.4080472,164.091779 11.2916672,162.799033 10.1142429,160.567506 C9.70139553,159.785053 9.42737235,158.9126 9.27723812,158.026706 C9.18438342,157.4788 9.1570077,157.057995 9.15989253,156.850147 C9.15970823,156.86195 9.15970823,156.86195 9.15914146,156.884904 L9.1606108,156.776495 C9.1606108,156.349799 9.1606108,156.349799 9.1606108,154.352606 C9.1606108,151.638306 9.1606108,151.638306 9.1606108,147.626076 C9.16061079,137.85915 9.16061079,137.85915 9.16061078,124.53592 C9.16061078,107.982679 9.16061078,107.982679 9.16061077,89.8524353 C9.16061076,66.8547584 9.16061076,66.8547584 9.16061077,47.0757301 C9.16061077,38.3932092 9.16061077,38.3932092 9.16061078,31.7223437 C9.16061079,26.2584714 9.16061079,26.2584714 9.1606108,23.6109166 C9.16061083,20.8777474 9.97009022,19.8097012 11.614933,19.2655284 C12.5954958,18.9411233 13.7526724,18.8707304 14.7431956,18.9631713 C14.8590173,18.9739804 14.9187888,18.9817934 14.9112427,18.9805599 L14.9112427,18.9805599 Z" id="Path-136"></path>
        </g>
    </g>
</svg>