<?xml version="1.0" encoding="UTF-8"?>
<svg width="180px" height="180px" viewBox="0 0 180 180" version="1.1" xmlns="http://www.w3.org/2000/svg" xmlns:xlink="http://www.w3.org/1999/xlink">
    <!-- Generator: Sketch 40.1 (33804) - http://www.bohemiancoding.com/sketch -->
    <title>group</title>
    <desc>Created with Sketch.</desc>
    <defs></defs>
    <g id="iconos" stroke="none" stroke-width="1" fill="none" fill-rule="evenodd">
        <g id="group" fill="#000000">
            <path d="M118,97 C118,82.0883118 105.911688,70 91,70 C76.0883118,70 64,82.0883118 64,97 C64,111.911688 76.0883118,124 91,124 C105.911688,124 118,111.911688 118,97 Z M72,97 C72,86.5065898 80.5065898,78 91,78 C101.49341,78 110,86.5065898 110,97 C110,107.49341 101.49341,116 91,116 C80.5065898,116 72,107.49341 72,97 Z" id="Oval-9"></path>
            <path d="M110,20 C110,9.50658975 101.49341,1 91,1 C80.5065898,1 72,9.50658975 72,20 C72,30.4934102 80.5065898,39 91,39 C101.49341,39 110,30.4934102 110,20 Z M80,20 C80,13.9248678 84.9248678,9 91,9 C97.0751322,9 102,13.9248678 102,20 C102,26.0751322 97.0751322,31 91,31 C84.9248678,31 80,26.0751322 80,20 Z" id="Oval-9-Copy"></path>
            <path d="M40,74 C40,63.5065898 31.4934102,55 21,55 C10.5065898,55 2,63.5065898 2,74 C2,84.4934102 10.5065898,93 21,93 C31.4934102,93 40,84.4934102 40,74 Z M10,74 C10,67.9248678 14.9248678,63 21,63 C27.0751322,63 32,67.9248678 32,74 C32,80.0751322 27.0751322,85 21,85 C14.9248678,85 10,80.0751322 10,74 Z" id="Oval-9-Copy-2"></path>
            <path d="M179.5,74 C179.5,63.7827321 171.217268,55.5 161,55.5 C150.782732,55.5 142.5,63.7827321 142.5,74 C142.5,84.2172679 150.782732,92.5 161,92.5 C171.217268,92.5 179.5,84.2172679 179.5,74 Z M149.5,74 C149.5,67.6487254 154.648725,62.5 161,62.5 C167.351275,62.5 172.5,67.6487254 172.5,74 C172.5,80.3512746 167.351275,85.5 161,85.5 C154.648725,85.5 149.5,80.3512746 149.5,74 Z" id="Oval-9-Copy-3"></path>
            <path d="M64,160 C64,149.50659 55.4934102,141 45,141 C34.5065898,141 26,149.50659 26,160 C26,170.49341 34.5065898,179 45,179 C55.4934102,179 64,170.49341 64,160 Z M34,160 C34,153.924868 38.9248678,149 45,149 C51.0751322,149 56,153.924868 56,160 C56,166.075132 51.0751322,171 45,171 C38.9248678,171 34,166.075132 34,160 Z" id="Oval-9-Copy-5"></path>
            <path d="M155,160 C155,149.50659 146.49341,141 136,141 C125.50659,141 117,149.50659 117,160 C117,170.49341 125.50659,179 136,179 C146.49341,179 155,170.49341 155,160 Z M125,160 C125,153.924868 129.924868,149 136,149 C142.075132,149 147,153.924868 147,160 C147,166.075132 142.075132,171 136,171 C129.924868,171 125,166.075132 125,160 Z" id="Oval-9-Copy-4"></path>
            <path d="M87,72 L87,76 L95,76 L95,72 L95,37 L95,33 L87,33 L87,37 L87,72 Z M66.0887844,94.2427891 L69.8315736,95.6540047 L72.6540047,88.1684264 L68.9112156,86.7572109 L38.4112156,75.2572109 L34.6684264,73.8459953 L31.8459953,81.3315736 L35.5887844,82.7427891 L66.0887844,94.2427891 Z M112.133028,87.7408263 L108.373854,89.1077986 L111.107799,96.6261459 L114.866972,95.2591737 L147.866972,83.2591737 L151.626146,81.8922014 L148.892201,74.3738541 L145.133028,75.7408263 L112.133028,87.7408263 Z M107.706983,115.10934 L105.316323,111.902356 L98.9023562,116.683677 L101.293017,119.89066 L121.793017,147.39066 L124.183677,150.597644 L130.597644,145.816323 L128.206983,142.60934 L107.706983,115.10934 Z M80.680489,118.925797 L83.1062857,115.745308 L76.7453077,110.893714 L74.319511,114.074203 L51.819511,143.574203 L49.3937143,146.754692 L55.7546923,151.606286 L58.180489,148.425797 L80.680489,118.925797 Z" id="Combined-Shape"></path>
        </g>
    </g>
</svg>