<?xml version="1.0" encoding="UTF-8"?>
<svg width="128px" height="128px" viewBox="0 0 128 128" version="1.1" xmlns="http://www.w3.org/2000/svg" xmlns:xlink="http://www.w3.org/1999/xlink">
    <!-- Generator: Sketch 47.1 (45422) - http://www.bohemiancoding.com/sketch -->
    <title>inbox</title>
    <desc>Created with Sketch.</desc>
    <defs></defs>
    <g id="iconos" stroke="none" stroke-width="1" fill="none" fill-rule="evenodd">
        <g id="inbox">
            <path d="M64.0856259,90.0481569 C63.7895905,89.993532 63.4844165,89.9649841 63.1725749,89.9649841 C55.2637956,89.9649841 49.3797228,89.9718732 45.5179544,89.9856653 C44.449539,89.989481 44.6528648,90.1983547 44.6232557,88.8065665 C44.6201817,88.6620734 44.6108443,88.5177815 44.5952697,88.3740973 C44.4643048,87.165872 44.4643048,85.6293643 44.609065,83.7844978 C45.0245204,78.4898124 41.274711,75.2703756 35.8940803,74.9286115 C35.7827262,74.9215386 35.6711665,74.9181951 35.5595887,74.9185865 C29.0325029,74.9414874 22.9453095,74.9414874 17.2982055,74.9185968 C13.5853803,74.9035469 11.6958072,73.7443707 10.6344501,71.1233349 C9.59799659,68.5637987 6.68287099,67.3290963 4.12333486,68.3655499 C1.56379874,69.4020034 0.329096339,72.317129 1.36554987,74.8766651 C4.02105978,81.434483 9.65011214,84.8876774 17.2576708,84.9185147 C22.6215897,84.9402574 28.3779271,84.941443 34.5268497,84.9220802 C34.4677998,86.4914007 34.501255,87.9293109 34.6317585,89.2423723 C34.8609905,95.8458789 38.9866811,100.009055 45.5536684,99.9856015 C49.4009575,99.9718612 55.2747271,99.9649841 63.1725749,99.9649841 C63.4844165,99.9649841 63.7895905,99.9364362 64.0856259,99.8818113 C64.3816612,99.9364362 64.6868352,99.9649841 64.9986769,99.9649841 C72.8965247,99.9649841 78.7702942,99.9718612 82.6175833,99.9856015 C89.1845706,100.009055 93.3102612,95.8458789 93.5394932,89.2423723 C93.6699967,87.9293109 93.7034519,86.4914007 93.644402,84.9220802 C99.7933246,84.941443 105.549662,84.9402574 110.913581,84.9185147 C118.52114,84.8876774 124.150192,81.434483 126.805702,74.8766651 C127.842155,72.317129 126.607453,69.4020034 124.047917,68.3655499 C121.488381,67.3290963 118.573255,68.5637987 117.536802,71.1233349 C116.475444,73.7443707 114.585871,74.9035469 110.873046,74.9185968 C105.225942,74.9414874 99.1387488,74.9414874 92.611663,74.9185865 C92.5000852,74.9181951 92.3885256,74.9215386 92.2771715,74.9286115 C86.8965408,75.2703756 83.1467313,78.4898124 83.5621867,83.7844978 C83.7069469,85.6293643 83.7069469,87.165872 83.575982,88.3740973 C83.5604074,88.5177815 83.55107,88.6620734 83.547996,88.8065665 C83.5183869,90.1983547 83.7217127,89.989481 82.6532974,89.9856653 C78.7915289,89.9718732 72.9074562,89.9649841 64.9986769,89.9649841 C64.6868352,89.9649841 64.3816612,89.993532 64.0856259,90.0481569 Z" id="Combined-Shape" fill="#000000" fill-rule="nonzero"></path>
            <path d="M112.889781,12.7643728 C112.767305,11.20332 111.464822,9.99902344 109.898972,9.99902344 L18.8568598,9.99902344 C17.2986217,9.99902344 15.9998037,11.1919993 15.8676657,12.7446246 L10.3212891,77.914724 L10.3212891,115 C10.3212891,116.656854 11.6644348,118 13.3212891,118 L115,118 C116.656854,118 118,116.656854 118,115 L118,77.8981847 L112.889781,12.7643728 Z M18.8568598,-0.0009765625 L109.898972,-0.0009765625 C116.684322,-0.0009765625 122.328416,5.21764183 122.859145,11.9822041 L128,77.5065003 L128,115 C128,122.179702 122.179702,128 115,128 L13.3212891,128 C6.14158731,128 0.321289063,122.179702 0.321289063,115 L0.321289063,77.489961 L5.90368543,11.8966286 C6.47628332,5.16858538 12.1044947,-0.0009765625 18.8568598,-0.0009765625 Z" id="Rectangle-25" fill="#000000" fill-rule="nonzero"></path>
            <path d="M67.5,58.2576648 L67.5,25.5 C67.5,22.7385763 65.2614237,20.5 62.5,20.5 C59.7385763,20.5 57.5,22.7385763 57.5,25.5 L57.5,57.9112915 L49.7366002,50.4117056 C47.7505252,48.4931209 44.5851731,48.5478326 42.6665884,50.5339076 C40.7480037,52.5199826 40.8027154,55.6853347 42.7887904,57.6039194 L59.0544154,73.31681 C60.9667207,75.1641318 63.9903372,75.1917191 65.936031,73.3795975 L82.8071248,57.6667068 C84.8278763,55.7846802 84.9403351,52.6208534 83.0583084,50.6001018 C81.1762818,48.5793503 78.0124549,48.4668915 75.9917034,50.3489182 L67.5,58.2576648 Z" id="Combined-Shape" fill="#000000" fill-rule="nonzero"></path>
            <path d="" id="Path-29" stroke="#979797"></path>
        </g>
    </g>
</svg>