<?xml version="1.0" encoding="UTF-8"?>
<svg width="180px" height="180px" viewBox="0 0 180 180" version="1.1" xmlns="http://www.w3.org/2000/svg" xmlns:xlink="http://www.w3.org/1999/xlink">
    <!-- Generator: Sketch 40.1 (33804) - http://www.bohemiancoding.com/sketch -->
    <title>industry</title>
    <desc>Created with Sketch.</desc>
    <defs></defs>
    <g id="iconos" stroke="none" stroke-width="1" fill="none" fill-rule="evenodd">
        <g id="industry" fill="#000000">
            <path d="M93,149.00077 C93,147.895205 92.1052663,147 90.9984707,147 L110.001529,147 C108.894897,147 108,147.894715 108,149.00077 L108,136.99923 C108,138.104795 108.894734,139 110.001529,139 L90.9984707,139 C92.1051031,139 93,138.105285 93,136.99923 L93,149.00077 Z M90.9984707,133 L110.001529,133 C112.209824,133 114,134.792468 114,136.99923 L114,149.00077 C114,151.209484 112.207545,153 110.001529,153 L90.9984707,153 C88.7901763,153 87,151.207532 87,149.00077 L87,136.99923 C87,134.790516 88.7924553,133 90.9984707,133 Z M137,149.00077 C137,147.895205 136.105266,147 134.998471,147 L154.001529,147 C152.894897,147 152,147.894715 152,149.00077 L152,136.99923 C152,138.104795 152.894734,139 154.001529,139 L134.998471,139 C136.105103,139 137,138.105285 137,136.99923 L137,149.00077 Z M134.998471,133 L154.001529,133 C156.209824,133 158,134.792468 158,136.99923 L158,149.00077 C158,151.209484 156.207545,153 154.001529,153 L134.998471,153 C132.790176,153 131,151.207532 131,149.00077 L131,136.99923 C131,134.790516 132.792455,133 134.998471,133 Z" id="Combined-Shape"></path>
            <g id="Group" transform="translate(25.000000, 134.000000)">
                <path d="M41,14.5 L41,34 L34,34 L34,14.5 L34,7 C33.8840793,6.98088359 7,7 7,7 L7,19 L0,19 L0,6.00031854 C0,2.68643412 2.69012451,0 6.00566089,0 L34.9943391,0 C38.311174,0 41,2.6880479 41,6.00031854 L41,14.5 Z M0,19 L7,19 L7,34 L0,34 L0,19 Z" id="Combined-Shape"></path>
            </g>
            <path d="M3.90396564,113.566473 C2.73517911,114.165341 2,115.368104 2,116.681384 L2,171.478126 C2,173.406801 3.56026472,174.972009 5.48893001,174.978109 L170.48893,175.499982 C172.426241,175.50611 174,173.937321 174,172 L174,88.4985717 C174,85.8816003 171.232903,84.1902782 168.903892,85.3836976 L113.903892,113.56651 L119,116.681384 L119,88.4953708 C119,85.8783287 116.232767,84.1870113 113.903749,85.3805702 L58.9037489,113.566584 L64,116.681384 L64,88.5002025 C64,85.8832672 61.232972,84.1919427 58.9039656,85.3852909 L3.90396564,113.566473 Z M57,88.5002025 L57,116.681384 C57,119.298426 59.7672328,120.989744 62.0962511,119.796185 L117.096251,91.6101713 L112,88.4953708 L112,116.681384 C112,119.298356 114.767097,120.989678 117.096108,119.796258 L172.096108,91.6134458 L167,88.4985717 L167,172 L170.51107,168.500018 L49.1664562,168.11622 L5.51106999,167.978144 L9,171.478126 L9,116.681384 L7.09603436,119.796296 L62.0960344,91.6151141 L57,88.5002025 Z" id="Path-5"></path>
            <path d="M47.1319111,29.923181 C46.5010263,30.5057267 46.0866928,31.308504 46.0122893,32.2077205 L40.0157592,95.6709968 C39.8339238,97.5954219 41.2465718,99.3028834 43.1709968,99.4847188 C45.0954219,99.6665543 46.8028834,98.2539063 46.9847188,96.3294812 L51.2279897,51.4215318 L70.000239,51.4215318 L73.5098664,106.759659 C73.6531398,108.687338 75.331979,110.133885 77.2596586,109.990612 C79.1873382,109.847338 80.6338852,108.168499 80.4906117,106.240819 L74.9906117,32.2408194 C74.8547977,30.413504 73.3325946,29.000239 71.500239,29.000239 L49.5371263,29.000239 C48.6201095,28.9895517 47.7692438,29.337844 47.1319111,29.923181 Z M52.500239,35.000239 L52.000239,44.500239 L70.000239,44.500239 L69.000239,35.000239 L52.500239,35.000239 Z" id="Combined-Shape"></path>
            <path d="M105.219888,6.18531758 C104.581221,6.93327666 104.161776,7.96400195 104.086455,9.11855023 L98.0159536,90.6021742 C97.8318751,93.0730383 99.2619491,95.2653321 101.210113,95.4987996 C103.158277,95.7322671 104.886802,93.9184988 105.07088,91.4476347 L109.366495,33.7881082 L128.370313,33.7881082 L131.923234,104.839453 C132.068275,107.314496 133.767824,109.171788 135.719282,108.987833 C137.670741,108.803877 139.135132,106.648332 138.990092,104.17329 L133.422245,9.16104759 C133.284756,6.81486739 131.743775,5.00030691 129.888816,5.00030691 L107.654773,5.00030691 C106.726445,4.98658497 105.865083,5.43377455 105.219888,6.18531758 Z M110.654438,12.7040022 L110.14827,24.9015198 L128.370313,24.9015198 L127.357977,12.7040022 L110.654438,12.7040022 Z" id="Combined-Shape-Copy"></path>
        </g>
    </g>
</svg>