<?xml version="1.0" encoding="UTF-8"?>
<svg width="128px" height="128px" viewBox="0 0 128 128" version="1.1" xmlns="http://www.w3.org/2000/svg" xmlns:xlink="http://www.w3.org/1999/xlink">
    <!-- Generator: Sketch 47.1 (45422) - http://www.bohemiancoding.com/sketch -->
    <title>intranet</title>
    <desc>Created with Sketch.</desc>
    <defs></defs>
    <g id="iconos" stroke="none" stroke-width="1" fill="none" fill-rule="evenodd">
        <g id="intranet">
            <path d="M35,37 C32.2385763,37 30,34.7614237 30,32 C30,29.2385763 32.2385763,27 35,27 C37.7614237,27 40,29.2385763 40,32 C40,34.7614237 37.7614237,37 35,37 Z M96,37 C93.2385763,37 91,34.7614237 91,32 C91,29.2385763 93.2385763,27 96,27 C98.7614237,27 101,29.2385763 101,32 C101,34.7614237 98.7614237,37 96,37 Z M108,51 C105.238576,51 103,48.7614237 103,46 C103,43.2385763 105.238576,41 108,41 C110.761424,41 113,43.2385763 113,46 C113,48.7614237 110.761424,51 108,51 Z M23,51 C20.2385763,51 18,48.7614237 18,46 C18,43.2385763 20.2385763,41 23,41 C25.7614237,41 28,43.2385763 28,46 C28,48.7614237 25.7614237,51 23,51 Z M32,118 C29.2385763,118 27,115.761424 27,113 C27,110.238576 29.2385763,108 32,108 C34.7614237,108 37,110.238576 37,113 C37,115.761424 34.7614237,118 32,118 Z M51,128 C48.2385763,128 46,125.761424 46,123 C46,120.238576 48.2385763,118 51,118 C53.7614237,118 56,120.238576 56,123 C56,125.761424 53.7614237,128 51,128 Z M79,128 C76.2385763,128 74,125.761424 74,123 C74,120.238576 76.2385763,118 79,118 C81.7614237,118 84,120.238576 84,123 C84,125.761424 81.7614237,128 79,128 Z M98,118 C95.2385763,118 93,115.761424 93,113 C93,110.238576 95.2385763,108 98,108 C100.761424,108 103,110.238576 103,113 C103,115.761424 100.761424,118 98,118 Z" id="Combined-Shape" fill="#000000"></path>
            <path d="M71.7722827,32 L71.4853842,36.4698572 L77.7430731,37.7638903 L79,41 L53,40.8788128 L53.4057671,37.4003286 L60.5296735,36.6516381 L60.2743026,32 L49.1096995,32 C47.3922599,32 46,30.256816 46,28.124121 L46,3.87587901 C46,1.73529014 47.3861773,0 49.1096995,0 L80.8903005,0 C82.6077401,0 84,1.74318403 84,3.87587901 L84,28.124121 C84,30.2647099 82.6138227,32 80.8903005,32 L71.7722827,32 Z M53.4159332,5.93793951 L53.4159332,25 C53.4159332,24.5721222 53.1461644,24.2354138 52.8123087,24.2354138 L77.7957174,24.2354138 C77.4667457,24.2354138 77.1920929,24.5781997 77.1920929,25 L77.1920929,5.93793951 C77.1920929,6.36581726 77.4618617,6.70252571 77.7957174,6.70252571 L52.8123087,6.70252571 C53.1412804,6.70252571 53.4159332,6.35973984 53.4159332,5.93793951 Z" id="Combined-Shape" fill="#030303" fill-rule="nonzero"></path>
            <path d="M115.772283,90 L115.485384,94.4698572 L121.743073,95.7638903 L123,99 L97,98.8788128 L97.4057671,95.4003286 L104.529674,94.6516381 L104.274303,90 L93.1096995,90 C91.3922599,90 90,88.256816 90,86.124121 L90,61.875879 C90,59.7352901 91.3861773,58 93.1096995,58 L124.890301,58 C126.60774,58 128,59.743184 128,61.875879 L128,86.124121 C128,88.2647099 126.613823,90 124.890301,90 L115.772283,90 Z M97.4159332,63.9379395 L97.4159332,83 C97.4159332,82.5721222 97.1461644,82.2354138 96.8123087,82.2354138 L121.795717,82.2354138 C121.466746,82.2354138 121.192093,82.5781997 121.192093,83 L121.192093,63.9379395 C121.192093,64.3658173 121.461862,64.7025257 121.795717,64.7025257 L96.8123087,64.7025257 C97.1412804,64.7025257 97.4159332,64.3597398 97.4159332,63.9379395 Z" id="Combined-Shape-Copy" fill="#030303" fill-rule="nonzero"></path>
            <path d="M25.7722827,90 L25.4853842,94.4698572 L31.7430731,95.7638903 L33,99 L7,98.8788128 L7.40576706,95.4003286 L14.5296735,94.6516381 L14.2743026,90 L3.10969949,90 C1.39225988,90 0,88.256816 0,86.124121 L0,61.875879 C0,59.7352901 1.38617734,58 3.10969949,58 L34.8903005,58 C36.6077401,58 38,59.743184 38,61.875879 L38,86.124121 C38,88.2647099 36.6138227,90 34.8903005,90 L25.7722827,90 Z M7.41593316,63.9379395 L7.41593316,83 C7.41593316,82.5721222 7.14616439,82.2354138 6.81230869,82.2354138 L31.7957174,82.2354138 C31.4667457,82.2354138 31.1920929,82.5781997 31.1920929,83 L31.1920929,63.9379395 C31.1920929,64.3658173 31.4618617,64.7025257 31.7957174,64.7025257 L6.81230869,64.7025257 C7.14128041,64.7025257 7.41593316,64.3597398 7.41593316,63.9379395 Z" id="Combined-Shape-Copy-2" fill="#030303" fill-rule="nonzero"></path>
        </g>
    </g>
</svg>