<?xml version="1.0" encoding="UTF-8" standalone="no"?>
<svg width="180px" height="180px" viewBox="0 0 180 180" version="1.1" xmlns="http://www.w3.org/2000/svg" xmlns:xlink="http://www.w3.org/1999/xlink">
    <!-- Generator: Sketch 3.6 (26304) - http://www.bohemiancoding.com/sketch -->
    <title>intranet</title>
    <desc>Created with Sketch.</desc>
    <defs></defs>
    <g id="iconos" stroke="none" stroke-width="1" fill="none" fill-rule="evenodd">
        <g id="intranet">
            <g id="Group-5" transform="translate(67.876763, 7.000000)">
                <path d="M3.94459972,0 L44.2577395,0 C46.4362817,0 48.2023392,1.76839482 48.2023392,3.9319339 L48.2023392,28.530866 C48.2023392,30.7024131 46.4439973,32.4627999 44.2577395,32.4627999 L3.94459972,32.4627999 C1.76605745,32.4627999 0,30.694405 0,28.530866 L0,3.9319339 C0,1.76038677 1.75834185,0 3.94459972,0 L3.94459972,0 Z M4.91860604,3.9319339 L4.91860604,28.530866 C4.91860604,27.9787045 4.4833081,27.5441938 3.94459972,27.5441938 L44.2577395,27.5441938 C43.7269119,27.5441938 43.2837331,27.9865472 43.2837331,28.530866 L43.2837331,3.9319339 C43.2837331,4.48409539 43.7190311,4.91860604 44.2577395,4.91860604 L3.94459972,4.91860604 C4.47542733,4.91860604 4.91860604,4.47625269 4.91860604,3.9319339 L4.91860604,3.9319339 Z" id="Rectangle-2" fill="#020202"></path>
                <path d="M17.6437531,31.5077746 L18.0203419,36.8011634 L8.96912028,37.5352095 L8.45357623,40.9456542 L41.4876653,41.064471 L39.8906871,37.8916599 L31.9400312,36.6229382 L32.3860976,31.2600718 L17.6437531,31.5077746 Z" id="Path-136" fill="#0E0E0E"></path>
            </g>
            <g id="Group-5" transform="translate(0.000000, 92.583745)">
                <path d="M3.94459972,0 L44.2577395,0 C46.4362817,0 48.2023392,1.76839482 48.2023392,3.9319339 L48.2023392,28.530866 C48.2023392,30.7024131 46.4439973,32.4627999 44.2577395,32.4627999 L3.94459972,32.4627999 C1.76605745,32.4627999 0,30.694405 0,28.530866 L0,3.9319339 C0,1.76038677 1.75834185,0 3.94459972,0 L3.94459972,0 Z M4.91860604,3.9319339 L4.91860604,28.530866 C4.91860604,27.9787045 4.4833081,27.5441938 3.94459972,27.5441938 L44.2577395,27.5441938 C43.7269119,27.5441938 43.2837331,27.9865472 43.2837331,28.530866 L43.2837331,3.9319339 C43.2837331,4.48409539 43.7190311,4.91860604 44.2577395,4.91860604 L3.94459972,4.91860604 C4.47542733,4.91860604 4.91860604,4.47625269 4.91860604,3.9319339 L4.91860604,3.9319339 Z" id="Rectangle-2" fill="#020202"></path>
                <path d="M17.6437531,31.5077746 L18.0203419,36.8011634 L8.96912028,37.5352095 L8.45357623,40.9456542 L41.4876653,41.064471 L39.8906871,37.8916599 L31.9400312,36.6229382 L32.3860976,31.2600718 L17.6437531,31.5077746 Z" id="Path-136" fill="#0E0E0E"></path>
            </g>
            <g id="Group-5" transform="translate(131.818642, 88.648860)">
                <path d="M3.94459972,0 L44.2577395,0 C46.4362817,0 48.2023392,1.76839482 48.2023392,3.9319339 L48.2023392,28.530866 C48.2023392,30.7024131 46.4439973,32.4627999 44.2577395,32.4627999 L3.94459972,32.4627999 C1.76605745,32.4627999 0,30.694405 0,28.530866 L0,3.9319339 C0,1.76038677 1.75834185,0 3.94459972,0 L3.94459972,0 Z M4.91860604,3.9319339 L4.91860604,28.530866 C4.91860604,27.9787045 4.4833081,27.5441938 3.94459972,27.5441938 L44.2577395,27.5441938 C43.7269119,27.5441938 43.2837331,27.9865472 43.2837331,28.530866 L43.2837331,3.9319339 C43.2837331,4.48409539 43.7190311,4.91860604 44.2577395,4.91860604 L3.94459972,4.91860604 C4.47542733,4.91860604 4.91860604,4.47625269 4.91860604,3.9319339 L4.91860604,3.9319339 Z" id="Rectangle-2" fill="#020202"></path>
                <path d="M17.6437531,31.5077746 L18.0203419,36.8011634 L8.96912028,37.5352095 L8.45357623,40.9456542 L41.4876653,41.064471 L39.8906871,37.8916599 L31.9400312,36.6229382 L32.3860976,31.2600718 L17.6437531,31.5077746 Z" id="Path-136" fill="#0E0E0E"></path>
            </g>
            <path d="M51.1535028,40.4465211 C54.4132681,40.4465211 57.0558301,37.8039591 57.0558301,34.5441938 C57.0558301,31.2844285 54.4132681,28.6418666 51.1535028,28.6418666 C47.8937375,28.6418666 45.2511756,31.2844285 45.2511756,34.5441938 C45.2511756,37.8039591 47.8937375,40.4465211 51.1535028,40.4465211 L51.1535028,40.4465211 Z M133.786084,39.4627999 C137.04585,39.4627999 139.688412,36.8202379 139.688412,33.5604726 C139.688412,30.3007073 137.04585,27.6581454 133.786084,27.6581454 C130.526319,27.6581454 127.883757,30.3007073 127.883757,33.5604726 C127.883757,36.8202379 130.526319,39.4627999 133.786084,39.4627999 L133.786084,39.4627999 Z M151.493066,56.1860604 C154.752831,56.1860604 157.395393,53.5434985 157.395393,50.2837331 C157.395393,47.0239678 154.752831,44.3814059 151.493066,44.3814059 C148.233301,44.3814059 145.590739,47.0239678 145.590739,50.2837331 C145.590739,53.5434985 148.233301,56.1860604 151.493066,56.1860604 L151.493066,56.1860604 Z M162.313999,77.827927 C165.573765,77.827927 168.216327,75.185365 168.216327,71.9255997 C168.216327,68.6658344 165.573765,66.0232725 162.313999,66.0232725 C159.054234,66.0232725 156.411672,68.6658344 156.411672,71.9255997 C156.411672,75.185365 159.054234,77.827927 162.313999,77.827927 L162.313999,77.827927 Z M52.137224,156.525624 C55.3969893,156.525624 58.0395513,153.883062 58.0395513,150.623296 C58.0395513,147.363531 55.3969893,144.720969 52.137224,144.720969 C48.8774587,144.720969 46.2348968,147.363531 46.2348968,150.623296 C46.2348968,153.883062 48.8774587,156.525624 52.137224,156.525624 L52.137224,156.525624 Z M70.827927,166.362836 C74.0876923,166.362836 76.7302542,163.720274 76.7302542,160.460508 C76.7302542,157.200743 74.0876923,154.558181 70.827927,154.558181 C67.5681616,154.558181 64.9255997,157.200743 64.9255997,160.460508 C64.9255997,163.720274 67.5681616,166.362836 70.827927,166.362836 L70.827927,166.362836 Z M92.4697935,170.297721 C95.7295589,170.297721 98.3721208,167.655159 98.3721208,164.395393 C98.3721208,161.135628 95.7295589,158.493066 92.4697935,158.493066 C89.2100282,158.493066 86.5674663,161.135628 86.5674663,164.395393 C86.5674663,167.655159 89.2100282,170.297721 92.4697935,170.297721 L92.4697935,170.297721 Z M117.062824,166.362836 C120.322589,166.362836 122.965151,163.720274 122.965151,160.460508 C122.965151,157.200743 120.322589,154.558181 117.062824,154.558181 C113.803058,154.558181 111.160496,157.200743 111.160496,160.460508 C111.160496,163.720274 113.803058,166.362836 117.062824,166.362836 L117.062824,166.362836 Z M136.737248,156.525624 C139.997013,156.525624 142.639575,153.883062 142.639575,150.623296 C142.639575,147.363531 139.997013,144.720969 136.737248,144.720969 C133.477483,144.720969 130.834921,147.363531 130.834921,150.623296 C130.834921,153.883062 133.477483,156.525624 136.737248,156.525624 L136.737248,156.525624 Z M34.4302423,57.1697816 C37.6900076,57.1697816 40.3325695,54.5272197 40.3325695,51.2674544 C40.3325695,48.007689 37.6900076,45.3651271 34.4302423,45.3651271 C31.1704769,45.3651271 28.527915,48.007689 28.527915,51.2674544 C28.527915,54.5272197 31.1704769,57.1697816 34.4302423,57.1697816 L34.4302423,57.1697816 Z M24.5930302,77.827927 C27.8527955,77.827927 30.4953574,75.185365 30.4953574,71.9255997 C30.4953574,68.6658344 27.8527955,66.0232725 24.5930302,66.0232725 C21.3332649,66.0232725 18.6907029,68.6658344 18.6907029,71.9255997 C18.6907029,75.185365 21.3332649,77.827927 24.5930302,77.827927 L24.5930302,77.827927 Z" id="Combined-Shape" fill="#000000"></path>
        </g>
    </g>
</svg>