<?xml version="1.0" encoding="UTF-8"?>
<svg width="180px" height="180px" viewBox="0 0 180 180" version="1.1" xmlns="http://www.w3.org/2000/svg" xmlns:xlink="http://www.w3.org/1999/xlink">
    <!-- Generator: Sketch 40.1 (33804) - http://www.bohemiancoding.com/sketch -->
    <title>inventary</title>
    <desc>Created with Sketch.</desc>
    <defs></defs>
    <g id="iconos" stroke="none" stroke-width="1" fill="none" fill-rule="evenodd">
        <g id="inventary" fill="#000000">
            <path d="M170.5,159 C170.5,161.485281 172.514719,163.5 175,163.5 C177.485281,163.5 179.5,161.485281 179.5,159 L179.5,12 C179.5,9.51471863 177.485281,7.5 175,7.5 C172.514719,7.5 170.5,9.51471863 170.5,12 L170.5,159 Z" id="Line-Copy"></path>
            <path d="M76,42 C76,44.4852814 78.0147186,46.5 80.5,46.5 C82.9852814,46.5 85,44.4852814 85,42 L85,11.5 C85,9.01471863 82.9852814,7 80.5,7 C78.0147186,7 76,9.01471863 76,11.5 L76,42 Z" id="Line-Copy-2"></path>
            <path d="M76.5,159 C76.5,161.485281 78.5147186,163.5 81,163.5 C83.4852814,163.5 85.5,161.485281 85.5,159 L85.5,139 C85.5,136.514719 83.4852814,134.5 81,134.5 C78.5147186,134.5 76.5,136.514719 76.5,139 L76.5,159 Z" id="Line-Copy-3"></path>
            <path d="M13.5,159 C13.5,161.485281 15.5147186,163.5 18,163.5 C20.4852814,163.5 22.5,161.485281 22.5,159 L22.5,11.5 C22.5,9.01471863 20.4852814,7 18,7 C15.5147186,7 13.5,9.01471863 13.5,11.5 L13.5,159 Z" id="Line-Copy-4"></path>
            <path d="M108,36 C108,38.4852814 110.014719,40.5 112.5,40.5 C114.985281,40.5 117,38.4852814 117,36 L117,12 C117,9.51471863 114.985281,7.5 112.5,7.5 C110.014719,7.5 108,9.51471863 108,12 L108,36 Z" id="Line-Copy-6"></path>
            <path d="M109.5,159 C109.5,161.485281 111.514719,163.5 114,163.5 C116.485281,163.5 118.5,161.485281 118.5,159 L118.5,142 C118.5,139.514719 116.485281,137.5 114,137.5 C111.514719,137.5 109.5,139.514719 109.5,142 L109.5,159 Z" id="Line-Copy-9"></path>
            <path d="M45,159 C45,161.485281 47.0147186,163.5 49.5,163.5 C51.9852814,163.5 54,161.485281 54,159 L54,11.5 C54,9.01471863 51.9852814,7 49.5,7 C47.0147186,7 45,9.01471863 45,11.5 L45,159 Z" id="Line-Copy-5"></path>
            <path d="M139,42.5 C139,44.9852814 141.014719,47 143.5,47 C145.985281,47 148,44.9852814 148,42.5 L148,12 C148,9.51471863 145.985281,7.5 143.5,7.5 C141.014719,7.5 139,9.51471863 139,12 L139,42.5 Z" id="Line-Copy-7"></path>
            <path d="M156.509851,91.7940229 C156.509851,70.9209604 139.382538,54 118.254926,54 C97.1273136,54 80,70.9209604 80,91.7940229 C80,112.667085 97.1273136,129.588046 118.254926,129.588046 C139.382538,129.588046 156.509851,112.667085 156.509851,91.7940229 Z M87.2866525,91.7940229 C87.2866525,74.8967819 101.151621,61.1988615 118.254926,61.1988615 C135.358231,61.1988615 149.223199,74.8967819 149.223199,91.7940229 C149.223199,108.691264 135.358231,122.389184 118.254926,122.389184 C101.151621,122.389184 87.2866525,108.691264 87.2866525,91.7940229 Z M156.530291,164.133661 C157.53629,165.904219 159.787134,166.524017 161.557693,165.518018 C163.328251,164.512019 163.948048,162.261175 162.942049,160.490617 L139.896914,119.931177 C138.890915,118.160619 136.64007,117.540822 134.869512,118.546821 C133.098954,119.552819 132.479156,121.803664 133.485155,123.574222 L156.530291,164.133661 Z" id="Combined-Shape"></path>
        </g>
    </g>
</svg>