<?xml version="1.0" encoding="UTF-8" standalone="no"?>
<svg width="180px" height="180px" viewBox="0 0 180 180" version="1.1" xmlns="http://www.w3.org/2000/svg" xmlns:xlink="http://www.w3.org/1999/xlink">
    <!-- Generator: Sketch 3.6 (26304) - http://www.bohemiancoding.com/sketch -->
    <title>kardex</title>
    <desc>Created with Sketch.</desc>
    <defs></defs>
    <g id="iconos" stroke="none" stroke-width="1" fill="none" fill-rule="evenodd">
        <g id="kardex" fill="#000000">
            <path d="M123.88835,171.691319 L114.366908,171.691319 C111.495135,171.6384 108.650219,171.108776 105.940854,170.122684 C101.524056,168.682607 98.3424543,164.686104 97.823755,159.926558 C96.677968,151.539185 98.1749611,142.993178 102.092956,135.554621 C104.842957,130.119128 110.208062,126.634447 116.13638,126.4333 C117.717319,126.37335 119.288605,126.712328 120.714536,127.420959 C121.92227,128.001935 123.101918,128.670057 124.281565,129.309131 C125.882074,130.248931 127.543107,131.073922 129.252937,131.778278 C135.319911,134.066613 142.058625,133.427209 147.621736,130.035351 L148.548602,129.483424 C149.010596,129.139795 149.48865,128.819872 149.981031,128.524813 L151.048331,127.943838 C152.320244,127.07243 153.773604,126.52493 155.289445,126.346154 C158.668035,126.17928 162.00816,127.147361 164.810887,129.105789 C167.94708,131.253475 170.368982,134.346507 171.748338,137.965671 C174.452085,144.580696 175.495519,151.795153 174.781717,158.938899 C173.9911,165.770713 168.53597,171.007044 161.889854,171.313685 C159.755254,171.546075 157.56448,171.575124 155.542227,171.575124 L123.88835,171.575124 L123.88835,171.691319 Z M118.784736,135.01727 L118.635706,135.01727 C114.800865,135.132686 111.345404,137.199693 109.644182,140.395872 C106.592911,145.710943 105.452648,151.794257 106.390344,157.755135 C106.66046,160.204756 108.479065,162.267475 111.010298,162.995232 C112.93679,163.620658 114.956362,163.963334 116.996367,164.010934 L130.756875,164.010934 L153.260521,164.010934 C155.024052,164.010934 156.762745,164.010934 158.45176,163.826261 C162.478145,163.701221 165.797445,160.852147 166.251037,157.131864 C166.805665,151.985392 165.951241,146.792136 163.767191,142.034845 C162.840715,139.808194 161.202354,137.898846 159.072721,136.563906 C157.358553,135.472385 155.312156,134.92206 153.235683,134.994186 C152.562862,135.142201 151.923689,135.400134 151.34796,135.755962 L150.180552,136.356149 C149.83135,136.516479 149.491425,136.6937 149.162175,136.887084 L148.11896,137.441103 C142.107813,140.644763 134.881626,141.219197 128.372383,139.010824 C126.663245,138.388899 125.003257,137.656096 123.40469,136.817832 C122.684375,136.356149 121.591483,135.871383 120.597944,135.548205 C120.03968,135.25632 119.422207,135.075514 118.784736,135.01727 L118.784736,135.01727 Z M136.330823,123.237933 L136.330823,123.237933 C130.472467,123.286689 124.816867,121.021775 120.517928,116.905296 C116.434564,113.080246 114.123956,107.634439 114.16687,101.936669 C114.209784,96.2388992 116.60214,90.8309819 120.742623,87.0721865 C125.015747,83.1122851 130.56546,80.9469147 136.302736,81.0009889 L136.471257,81.0009889 C142.272546,80.9906947 147.862302,83.2533541 152.115631,87.3336256 C156.198273,91.1894759 158.4971,96.6631463 158.435172,102.3809 C158.322825,114.000417 148.380081,123.237933 136.302736,123.237933 L136.330823,123.237933 Z M136.327113,87.7750754 C132.397907,87.7393767 128.597394,89.2223138 125.670144,91.9333602 C122.856231,94.5015198 121.213152,98.1728492 121.140931,102.053523 L121.140931,102.053523 C121.090668,105.971861 122.659011,109.726286 125.45216,112.374085 C128.374686,115.159463 132.207634,116.698619 136.181791,116.68267 L136.181791,116.68267 C144.214306,117.05198 151.034217,110.658011 151.464854,102.354122 C151.546923,98.4425772 150.01423,94.6800384 147.250507,92.00851 C144.339111,89.2177671 140.514628,87.6695862 136.545097,87.6748758 L136.302893,87.6748758 L136.327113,87.7750754 Z" id="e5Cc57"></path>
            <path d="M9.87241186,160.646484 C9.49465909,160.646484 8.09606144,160.243904 7.82233955,159.578178 C7.34724762,158.422695 7.05810902,156.6698 7.058109,154.257812 C7.05810898,146.884379 6.83168265,20.0713553 7.00972073,19.5496984 C7.33855164,18.5862139 8.24747655,17.9999999 11.1127963,18 C20.2993712,18.0000002 20.2993712,18.0000002 34.7361743,18.0000002 C42.9549912,18.0000002 42.9549912,18.0000002 50.2050998,18.0000001 C54.6376175,18.0000001 54.6376175,18.0000001 57.8329933,18 C60.2512785,18 87.051983,57.3173779 87.051983,57.3173779 C87.8036578,58.3615808 89.0117297,58.9804688 90.2983434,58.9804688 L169.709351,58.9804688 L169.709356,84.8339844 C169.709356,87.0431234 171.500217,88.8339844 173.709356,88.8339844 C175.918495,88.8339844 177.709356,87.0431234 177.709356,84.8339844 L177.709351,50.9804688 L92.4556584,50.9804688 L64.0447038,11.6630909 C63.2930289,10.618888 62.084957,9.99999998 60.7983433,10 C60.2512784,10 60.2512784,10 57.8329932,10 C54.6376174,10.0000001 54.6376174,10.0000001 50.2050997,10.0000001 C42.9549911,10.0000002 42.9549911,10.0000002 34.7361742,10.0000002 C20.2993712,10.0000002 20.2993712,10.0000002 11.1127967,10 C4.96835062,9.99999969 0.926103637,12.6070601 -0.561471591,16.9657002 C-1.21941389,18.8934908 -0.941891017,146.884379 -0.941890998,154.257813 C-0.941890963,160.925646 0.873405774,165.340676 4.36500053,167.494825 C6.34179168,168.714411 9.87241186,168.646484 9.87241186,168.646484 L83.1870153,168.646484 C85.3961543,168.646484 87.1870153,166.855623 87.1870153,164.646484 C87.1870153,162.437345 85.3961543,160.646484 83.1870153,160.646484 L9.87241186,160.646484 Z" id="Path-108"></path>
            <path d="M165.910728,36.9813905 L74.0112522,37.1206594 L74,29.1206673 L165.910725,29 C166.375359,29.029875 170.995438,28.8148253 173.691177,31.3573544 C176.887417,34.3719374 176.96208,36.0467635 176.962831,40.9999997 L177,45 L177,58.9021435 L177,58.6532211 L169,58.9021435 L169,56.3132915 L169,45 L169,41 C169.026354,38.6761717 167.420647,36.9813905 165.910728,36.9813905 Z" id="Combined-Shape"></path>
        </g>
    </g>
</svg>