<?xml version="1.0" encoding="utf-8"?>
<!-- Generator: Adobe Illustrator 19.2.0, SVG Export Plug-In . SVG Version: 6.00 Build 0)  -->
<svg version="1.1" id="Capa_1" xmlns="http://www.w3.org/2000/svg" xmlns:xlink="http://www.w3.org/1999/xlink" x="0px" y="0px"
	 viewBox="0 0 32 32" style="enable-background:new 0 0 32 32;" xml:space="preserve">
<path d="M30.1,9.6C29.5,5.3,25.4,1,19.6,2.1c-5.3,1.1-8.2,6.2-6.7,11.3c0.2,0.4,0.1,0.6-0.2,1c-3.4,3.4-7.2,7.1-10.6,10.5l-0.2,3
	c-0.5,2.2,1.7,2,1.7,2L7,29.9c0.2-0.1,0.3-0.2,0.4-0.3c0.8-1.2,1.4-1.1,2.8-1c1,0.1,2.3-1,2.3-2c0-0.5,0-1,0-1.6
	c0.6,0,1.2,0,1.8,0.1c1.1,0,1.7-0.7,1.7-1.8c0-0.5,0-1.2,0-1.7c0-0.2,0.2-0.5,0.3-0.6c0.5-0.5,1.1-1.1,1.6-1.6
	c0.2-0.2,0.3-0.2,0.7-0.1c1.5,0.5,3,0.6,4.6,0.3C26.9,18.8,30.8,14.8,30.1,9.6z M22.4,18c-1.5,0.2-2.8-0.1-4.2-0.8
	c-0.3-0.2-0.5-0.1-0.8,0.1c-1,1-1.9,1.9-2.7,2.7c-0.3,0.4-0.5,0.7-0.5,1.2c0,0.7-0.1,1.7-0.1,1.7c-0.7,0-1.2,0-1.7,0
	c-0.1,0.1-0.1,0.1-0.2,0.2L11,24.4c0,0.1,0,0.3,0,0.5c0,0.5,0,1.5,0,2.1c-0.7,0-1.8,0.1-2.5,0.1c-0.7,0-1.3,0.2-1.6,0.8
	c-0.2,0.3-0.5,0.5-0.7,0.7l-2.9,0l0.1-2.4c0,0,0.1-0.1,0.1-0.1c3.8-3.7,7.5-7.4,11.3-11.3c0.1-0.1,0.3-0.2,0.4-0.3
	c-0.8-1.4-1.2-2.7-1.1-4.3c0.2-3.3,3-6.2,6.2-6.7c3.9-0.4,7.4,2,8.3,5.7C29.4,13.2,26.5,17.6,22.4,18z M23.9,13l1.7-1.2l1.2-1.7
	c0,0-0.3-1-2.1-2.9c-1.8-1.8-2.9-2.1-2.9-2.1l-1.7,1.2L19,8c0,0,0.3,1,2.1,2.9C22.9,12.7,23.9,13,23.9,13z M19.9,8.2l0.9-1.2L22,6.1
	c0,0,0.8,0.2,2.2,1.6c1.4,1.4,1.6,2.2,1.6,2.2L25,11.1L23.7,12c0,0-0.8-0.2-2.2-1.6C20.1,8.9,19.9,8.2,19.9,8.2z"/>
</svg>
