<?xml version="1.0" encoding="UTF-8" standalone="no"?>
<svg width="180px" height="180px" viewBox="0 0 180 180" version="1.1" xmlns="http://www.w3.org/2000/svg" xmlns:xlink="http://www.w3.org/1999/xlink">
    <!-- Generator: Sketch 3.6 (26304) - http://www.bohemiancoding.com/sketch -->
    <title>level-page</title>
    <desc>Created with Sketch.</desc>
    <defs></defs>
    <g id="iconos" stroke="none" stroke-width="1" fill="none" fill-rule="evenodd">
        <g id="level-page" fill="#1D1C1B">
            <path d="M153.046875,119.53125 C153.046875,120.039375 152.6175,120.46875 152.109375,120.46875 L140.625,120.46875 L140.625,36.09375 C140.625,30.4073438 135.998906,25.78125 130.3125,25.78125 L67.265625,25.78125 L67.265625,10.3125 C67.265625,9.804375 67.695,9.375 68.203125,9.375 L152.109375,9.375 C152.6175,9.375 153.046875,9.804375 153.046875,10.3125 L153.046875,119.53125 L153.046875,119.53125 Z M131.25,145.3125 C131.25,145.820625 130.820625,146.25 130.3125,146.25 L119.53125,146.25 L119.53125,60.46875 C119.53125,54.7823438 114.905156,50.15625 109.21875,50.15625 L45.46875,50.15625 L45.46875,36.09375 C45.46875,35.585625 45.898125,35.15625 46.40625,35.15625 L130.3125,35.15625 C130.820625,35.15625 131.25,35.585625 131.25,36.09375 L131.25,145.3125 L131.25,145.3125 Z M110.15625,169.6875 C110.15625,170.195625 109.726875,170.625 109.21875,170.625 L25.3125,170.625 C24.804375,170.625 24.375,170.195625 24.375,169.6875 L24.375,60.46875 C24.375,59.960625 24.804375,59.53125 25.3125,59.53125 L109.21875,59.53125 C109.726875,59.53125 110.15625,59.960625 110.15625,60.46875 L110.15625,169.6875 L110.15625,169.6875 Z M152.109375,0 L68.203125,0 C62.5167187,0 57.890625,4.62609375 57.890625,10.3125 L57.890625,25.78125 L46.40625,25.78125 C40.7198437,25.78125 36.09375,30.4073438 36.09375,36.09375 L36.09375,50.15625 L25.3125,50.15625 C19.6260937,50.15625 15,54.7823438 15,60.46875 L15,169.6875 C15,175.373906 19.6260937,180 25.3125,180 L109.21875,180 C114.905156,180 119.53125,175.373906 119.53125,169.6875 L119.53125,155.625 L130.3125,155.625 C135.998906,155.625 140.625,150.998906 140.625,145.3125 L140.625,129.84375 L152.109375,129.84375 C157.795781,129.84375 162.421875,125.217656 162.421875,119.53125 L162.421875,10.3125 C162.421875,4.62609375 157.795781,0 152.109375,0 L152.109375,0 L152.109375,0 Z" id="Page-1"></path>
        </g>
    </g>
</svg>