<?xml version="1.0" encoding="UTF-8" standalone="no"?>
<svg width="180px" height="180px" viewBox="0 0 180 180" version="1.1" xmlns="http://www.w3.org/2000/svg" xmlns:xlink="http://www.w3.org/1999/xlink">
    <!-- Generator: Sketch 3.6 (26304) - http://www.bohemiancoding.com/sketch -->
    <title>like-o</title>
    <desc>Created with Sketch.</desc>
    <defs></defs>
    <g id="iconos" stroke="none" stroke-width="1" fill="none" fill-rule="evenodd">
        <g id="like-o">
            <path d="M114.692206,11 L114.692206,7 L113.720738,10.8802385 C114.058372,10.9725716 114.178132,11.0038587 114.322867,11.0373075 C120.104517,12.0447865 123.850421,14.8414368 126.079188,19.7672332 C127.274596,22.4180586 127.865651,25.4382543 128.019952,29.2311525 C128.103629,31.2303965 127.982267,33.3089971 127.666178,35.4984574 C127.23653,38.5103173 126.571182,40.9978868 125.560466,43.1872828 C124.839639,44.7768982 124.213337,46.0635598 122.827904,48.8432266 C122.312343,49.8778179 122.093653,50.3179861 121.872232,50.7663991 C119.784705,54.9474254 118.740933,57.1716688 117.693687,59.8435243 C116.382471,63.1929278 115.647013,65.7372893 115.356344,68.5026564 C115.13728,70.6524003 115.311343,72.5698781 116.050497,74.4304477 C116.237009,74.8875209 116.301794,75.0349224 116.473619,75.3327587 C117.068258,76.3634895 118.028284,77.1404269 119.292226,77.4276894 C119.665878,77.5126114 119.979457,77.5401869 120.320771,77.5451918 C120.458914,77.5472175 120.475099,77.5469549 120.761969,77.5408424 C121.466951,77.5203261 122.016112,77.5026057 123.196745,77.4632969 C125.574867,77.3841181 126.601543,77.3538977 127.892546,77.3310822 C140.096767,77.1542578 146.473833,77.1824931 153.694758,77.5777789 C156.518991,77.7365162 159.082843,77.9890106 161.512092,78.3632836 C163.038655,78.6087286 164.224087,79.1769565 165.214003,80.1431053 C165.303801,80.2335025 165.393808,80.318937 165.580692,80.4931855 C167.979132,82.9220507 169.715484,85.4061543 170.971214,88.1466702 C171.141279,88.51481 171.271153,88.8722659 171.559616,89.7420418 C171.723932,90.2373044 171.805148,90.4769987 171.902737,90.7506445 L175.670322,89.4070285 L171.843157,90.5701299 C171.945508,91.0576155 171.959978,91.1298328 171.977886,91.2159177 L175.894044,90.401234 L171.894044,90.401234 L171.894044,92.3476362 L175.894044,92.3476362 L172.110177,91.0505795 C171.947347,91.5255997 171.675229,92.0221792 171.273918,92.5676058 C171.205719,92.6558733 171.129948,92.760303 170.973587,92.9795267 C170.64543,93.4217155 170.502107,93.6070975 170.288517,93.881882 C169.420433,94.9982179 169.061224,95.4713323 168.649148,96.0508328 C168.157619,96.7273269 167.755258,97.4036983 167.202158,98.4262887 C166.320755,100.119896 166.080989,101.960775 166.694684,103.770389 C167.170184,105.236481 167.457304,105.982509 167.88022,106.785755 C168.308386,107.615013 168.707098,108.295741 169.499173,109.589744 C169.85754,110.175659 169.962291,110.348075 170.061391,110.512818 C170.315878,110.927767 170.315878,110.927767 170.341118,110.968832 C171.41084,112.709377 171.798889,113.468281 172.018488,114.327958 L175.894044,113.337974 L171.894044,113.337974 L171.894044,114.72426 L175.894044,114.72426 L172.098761,113.460999 C171.893027,114.079096 171.451218,114.735208 170.53526,115.770432 C170.316714,116.023167 170.131154,116.233152 169.828022,116.57263 C169.016725,117.481085 168.672749,117.876352 168.291721,118.343594 C167.519095,119.275036 166.808664,120.210764 166.156727,121.167314 C164.884382,123.050839 164.518529,125.241816 165.016402,127.430096 C165.097842,127.801016 165.116753,127.887236 165.138027,127.98233 C165.280446,128.618929 165.40762,129.091599 165.596165,129.604106 C165.840111,130.269834 166.040183,130.790656 166.490656,131.945324 C166.921087,133.048622 167.107867,133.534842 167.32825,134.136257 C167.735684,135.220043 168.079273,136.223364 168.374887,137.19784 C168.447621,137.445462 168.423142,137.654692 168.257986,137.957331 C167.953973,138.522583 167.624031,139.027042 167.280253,139.455061 C166.844778,139.997773 166.354702,140.52822 165.485657,141.41559 C165.179103,141.727156 164.877933,142.022977 164.333596,142.550358 C163.425948,143.429652 163.039417,143.810739 162.605277,144.258488 C161.902066,144.993875 161.230272,145.780076 160.53043,146.668969 C159.504524,147.945969 158.952182,149.52534 158.867407,151.195004 C158.813579,152.095321 158.792348,153.055646 158.792348,154.240426 C158.796591,154.661133 158.801352,154.95993 158.813172,155.627506 C158.835807,156.906015 158.841754,157.465848 158.834521,158.146753 C158.834296,158.463842 158.79094,158.62573 158.731934,158.715922 C157.899702,159.965852 157.525664,160.49891 157.054266,161.07485 C155.522255,162.920397 153.651921,164.615934 151.44154,166.187714 C149.773422,167.376653 148.769366,167.931492 147.754742,168.189308 C146.448588,168.529329 145.166892,168.791086 143.89788,168.976162 C141.195168,169.377132 138.348399,169.606515 135.248278,169.691963 C134.727496,169.720681 134.475298,169.762093 134.04698,169.848882 C133.970163,169.864428 134.67334,173.802468 134.67334,173.802468 L134.67334,169.802468 L120.662776,169.802468 L120.662776,173.802468 L121.3213,169.857047 C121.067587,169.8122 120.995987,169.799901 120.890204,169.783716 C120.561959,169.733495 120.252573,169.704448 119.907715,169.704448 L119.907715,173.704448 L120.065302,169.707553 C119.461058,169.683729 118.97367,169.666824 117.908109,169.631579 C116.315713,169.578907 115.623021,169.553605 114.753928,169.512807 C111.369868,169.366143 108.679255,169.230122 106.091094,169.068127 C103.521406,168.907288 101.597901,168.767702 96.7327288,168.399577 C96.3796803,168.371384 96.08586,168.351084 95.4512846,168.30953 C95.1180118,168.287707 94.9795568,168.278511 94.8026559,168.266243 C93.7291867,168.191804 93.0282146,168.118292 92.3809983,168.00255 C89.2814703,167.466989 86.7823552,167.004501 81.2812642,165.96351 C79.6426158,165.653423 78.9777376,165.527809 78.0975495,165.362372 C70.8577697,164.019078 65.6312489,163.045073 60.4513765,162.071667 C59.1000574,161.821814 58.5118871,161.710377 57.7973495,161.565025 L57,165.484749 L61,165.484749 L61,97.1226229 L57,97.1226229 L57,101.122623 C57.2105663,101.122623 57.3570042,101.115802 57.5969794,101.100297 C57.8816583,101.094617 58.0531533,101.092975 58.4392298,101.088071 C59.1070218,101.079588 59.3931754,101.079588 59.7153782,101.091764 C61.780813,101.194439 63.7660169,100.670696 65.6849177,99.6325436 C67.1058676,98.8517217 68.4024651,97.8931128 69.6342765,96.7502194 C71.4339375,95.1067131 73.0666043,93.1917046 74.7856082,90.8094286 C77.4405044,87.1219206 79.7640838,83.1088712 82.3193294,78.0077979 C84.8094982,72.993614 87.1326684,67.6574765 89.5405935,61.5349753 C90.1377624,60.0116838 90.9202466,58.7188428 91.9019512,57.645426 C92.7943637,56.6890669 93.7456212,55.7651035 94.7130485,54.9204812 C95.4611403,54.2750011 96.1637609,53.7113627 97.5838425,52.6026349 C97.7550162,52.4690101 97.7550162,52.4690101 97.9274112,52.3344048 C98.210273,52.1134941 98.4186697,51.9503159 98.6247807,51.7881365 C102.265657,48.9036469 105.099347,45.3340321 107.080937,41.1392267 C108.043554,39.1208853 108.851494,36.9825167 109.511759,34.7312058 C111.276459,28.7667412 112.24604,22.647558 112.985787,14.2692324 C113.11753,12.8447165 113.232167,11.331391 113.342653,9.60846876 C113.292439,10.3018864 112.83299,10.9770106 112.27668,11.2614961 C112.629481,11.1418319 112.691342,11.1219143 112.84168,11.0736514 C112.84168,11.0736514 113.052587,11.0081215 113.292872,10.9503193 C113.422989,10.9190631 109.117114,3.89686303 108.664547,4.12347474 C106.73314,5.11099514 105.518754,6.89543736 105.361359,9.06276162 C105.253036,10.7497246 105.143884,12.1906325 105.018276,13.5491665 C104.319855,21.4590456 103.425197,27.1053781 101.837788,32.4706587 C101.291987,34.3316391 100.63456,36.0716457 99.8537587,37.7088211 C98.3913962,40.8044166 96.3329329,43.3974737 93.6673248,45.5093266 C93.4807246,45.6561256 93.2791719,45.8139448 93.0032976,46.0293984 C92.8325364,46.1627281 92.8325364,46.1627281 92.6606508,46.2969087 C91.1407428,47.4835759 90.3638069,48.1068296 89.4690486,48.8789638 C88.2744819,49.9218042 87.1274666,51.0359086 86.0253233,52.2173798 C84.3289098,54.0719859 83.036177,56.2078728 82.0940761,58.6110465 C79.766302,64.5297457 77.5323433,69.6609711 75.1604025,74.4371432 C72.786258,79.1766286 70.6631523,82.8434403 68.2957192,86.1316809 C66.8752129,88.1002813 65.5827719,89.6162276 64.2161343,90.8644101 C63.4215145,91.6015026 62.6493631,92.1723746 61.8550244,92.6089249 C61.1740139,92.977262 60.6083851,93.126488 60.0644968,93.0995238 C59.5162706,93.078529 59.1395454,93.078529 58.3376108,93.0887163 C57.9856566,93.0931873 57.8363026,93.0946171 57.6571822,93.0946171 C57.453082,93.0946171 57.339175,93.1002736 57.0811767,93.1169428 C57.0050869,93.1218589 53,93.1226229 53,93.1226229 L53,97.1226229 L53,165.484749 L53,168.75299 L56.2026505,169.404473 C56.9795902,169.562518 57.5985843,169.679795 58.9854152,169.936197 C64.1609394,170.908803 69.3928282,171.883808 76.6289509,173.226413 C77.495602,173.389316 78.1584551,173.514547 79.7937944,173.824008 C85.3364356,174.872862 87.8638406,175.340586 90.9958748,175.881692 C91.9642342,176.054934 92.9125573,176.154387 94.2492266,176.247078 C94.4398786,176.260298 94.5848863,176.26993 94.9285439,176.292433 C95.5255373,176.331526 95.793781,176.350059 96.1128942,176.375512 C101.029932,176.747594 102.974761,176.888728 105.591346,177.052502 C108.23827,177.218175 110.976634,177.356611 114.393197,177.504657 C115.297123,177.547116 116.014259,177.573311 117.643636,177.627206 C118.692402,177.661896 119.168331,177.678404 119.750129,177.701342 C119.89322,177.728938 120.331251,177.802468 120.331251,177.802468 L134.67334,177.802468 L135.411528,177.733763 C135.704339,177.675635 135.358488,173.690445 135.358488,173.690445 L135.468697,177.688926 C138.871822,177.595126 142.032804,177.340425 145.06217,176.890979 C146.616076,176.664366 148.184931,176.343963 149.747739,175.937043 C151.937155,175.380785 153.671482,174.422399 156.081216,172.704874 C158.830547,170.749857 161.213093,168.589977 163.227493,166.163122 C163.938826,165.294186 164.413065,164.618327 165.40892,163.122376 C166.383586,161.632802 166.834296,159.949862 166.834296,158.189242 C166.842373,157.450111 166.835891,156.839925 166.811918,155.48589 C166.800433,154.837193 166.795872,154.550981 166.792122,154.197937 C166.792348,153.201079 166.810317,152.388279 166.855172,151.635876 C167.368002,150.916753 167.877977,150.319929 168.368242,149.807131 C168.708136,149.456725 169.049525,149.120143 169.693471,148.496291 C170.487974,147.72658 170.824543,147.395989 171.194775,147.019686 C172.243043,145.949328 172.875808,145.264437 173.518691,144.463244 C174.177946,143.64244 174.77519,142.729295 175.292208,141.767724 C176.449217,139.647733 176.729638,137.2509 176.0399,134.907321 C175.681962,133.726923 175.282461,132.560333 174.828018,131.351957 C174.594105,130.713202 174.394033,130.192381 173.943561,129.037712 C173.513129,127.934414 173.326349,127.448194 173.105967,126.846779 C173.064966,126.735321 173.016526,126.555283 172.945041,126.235753 C172.849941,125.802685 172.849941,125.802685 172.819438,125.665865 C173.271295,124.933418 173.830995,124.196222 174.470623,123.42494 C174.776018,123.05066 175.059214,122.725236 175.588895,122.132071 C176.126142,121.530495 176.336234,121.292749 176.558999,121.034667 C178.096661,119.297241 179.067645,117.855273 179.689326,115.987521 L179.894044,115.372478 L179.894044,114.72426 L179.894044,113.337974 L179.769599,112.347989 C179.287271,110.459789 178.638074,109.190163 177.156801,106.779981 C177.002137,106.528343 177.002137,106.528343 176.901232,106.363639 C176.806464,106.205881 176.692697,106.018625 176.549804,105.784803 C175.628146,104.278999 175.300391,103.719418 174.973569,103.086645 C174.798679,102.75421 174.64775,102.36205 174.420005,101.662048 C174.324778,102.035149 174.294506,102.126326 174.269235,102.174916 C174.636293,101.497395 174.888876,101.0728 175.145569,100.719335 C175.494737,100.228647 175.803453,99.8220359 176.430738,99.0153602 C176.83044,98.5012362 176.985039,98.3012684 177.142168,98.0957404 C177.25451,97.9486201 177.33028,97.8441904 177.486642,97.6249667 C178.574391,96.1443292 179.233147,94.942186 179.67791,93.6446928 L179.894044,93.0141721 L179.894044,92.3476362 L179.894044,90.401234 L179.810201,89.5865502 C179.668515,88.8745362 179.610032,88.6142538 179.497487,88.2439272 C179.365769,87.861132 179.299243,87.6647935 179.179084,87.3026411 C178.77017,86.0696927 178.571387,85.5225743 178.238822,84.8027617 C176.594035,81.2131171 174.323629,77.9649725 171.463105,75.0520166 C171.313166,74.9016616 171.223159,74.8162271 171.036274,74.6419785 C168.590115,72.2594421 165.887426,70.9639288 162.755943,70.4606158 C160.027389,70.0401435 157.211132,69.7627916 154.137859,69.5900617 C146.672127,69.1813704 140.158126,69.1525288 127.763911,69.3321266 C126.404488,69.356131 125.350523,69.3871547 122.930535,69.4677274 C121.760467,69.5066844 121.218644,69.524168 120.559679,69.5434639 C120.60586,69.5485122 120.794475,69.5650986 121.065212,69.6266306 C122.113801,69.8649488 122.941443,70.5347494 123.403143,71.3350465 C123.277047,70.9526506 123.216297,70.2834257 123.313825,69.3262676 C123.513443,67.4273348 124.070737,65.4993436 125.142588,62.7613771 C126.075931,60.3801251 127.044956,58.3151662 129.037553,54.3241893 C129.261591,53.8705648 129.47661,53.4377831 129.797718,52.7933597 C131.416488,49.5455137 132.072169,48.1984942 132.835203,46.5155647 C134.193602,43.573246 135.05436,40.3550865 135.585046,36.634889 C135.968168,33.9811571 136.118208,31.4113679 136.013147,28.901285 C135.820615,24.1685668 135.039199,20.1756541 133.369877,16.4739331 C130.024025,9.07925904 124.032274,4.60588478 115.906057,3.19868701 L115.223544,7.14002894 L116.124222,3.24275035 C115.879783,3.17610109 115.775346,3.14772037 115.663673,3.1197615 L111.5,3.1197615 L108.664547,4.12347472 L112.608798,11 L114.692206,11 Z" id="Fill-1" fill="#000000"></path>
            <path d="M12.2028778,99.0852168 L8.25168679,98.4622487 L12.1748924,99.2422858 C12.4377218,97.9203821 13.5023121,97.0322056 14.8473382,97.0147878 C15.6880086,97.0089285 16.5746884,97.0077591 17.7738006,97.0098659 C18.0496056,97.0103504 18.2699781,97.0108345 18.7675852,97.0120004 C19.7673676,97.0143434 20.2104933,97.0151231 20.7661133,97.0151231 C21.9314075,97.0151231 22.8619622,97.0132299 24.9579797,97.0075469 C26.3499087,97.0037729 26.9696367,97.0022795 27.742463,97.0011157 C30.4977485,96.9969664 32.6109106,97.0041293 34.6585058,97.0288349 C36.0116983,97.0418152 36.7106536,97.5041482 37.2808025,98.7722469 C37.3942445,99.0175765 37.446378,99.2764472 37.446378,99.6244889 L37.446378,102.537091 C37.446378,132.595232 37.4487085,145.954613 37.4603616,162.654304 C37.4603606,163.229489 37.421089,163.593279 37.3394934,163.874171 C37.0151331,164.963986 36.0100592,165.731707 34.9111351,165.737024 C28.1741265,165.750977 21.4260601,165.750977 14.6779935,165.736985 C13.4869649,165.731673 12.4400199,164.841773 12.1935217,163.561566 C12.1161229,163.154578 12.0346261,162.891188 11.8777761,162.447168 C11.8410207,162.343119 8,163.463681 8,163.463681 L12,163.463681 L12,99.2464108 L4,99.2464108 L4,163.463681 L4,164.049941 L4.16823664,164.611544 C4.21966933,164.783235 4.25194247,164.877852 4.33458462,165.1118 C5.29941435,170.068274 9.58899099,173.714403 14.6518966,173.736937 C21.420531,173.750983 28.1796556,173.750983 34.9387802,173.736968 C39.6038406,173.714414 43.6858538,170.596385 45.0145914,166.13076 C45.3444704,164.995458 45.4603606,163.921918 45.4603606,162.651513 C45.4487083,145.951512 45.446378,132.593371 45.446378,102.537091 L45.446378,99.6244889 C45.446378,98.1597393 45.1636802,96.7559951 44.5579898,95.4495377 C42.7340999,91.3922714 39.2267022,89.0722581 34.7450964,89.0293097 C32.6651046,89.0042008 30.5187962,88.9969256 27.7304154,89.0011248 C26.9533047,89.0022951 26.3314305,89.0037936 24.936289,89.0075763 C22.8475071,89.0132397 21.9217629,89.0151231 20.7661133,89.0151231 C20.2188343,89.0151231 19.7798551,89.0143507 18.786333,89.0120224 C18.2879388,89.0108545 18.0657447,89.0103664 17.7878561,89.0098782 C16.5672651,89.0077337 15.6594459,89.008931 14.7673342,89.0152226 C9.61587936,89.0818634 5.32702846,92.6600068 4.3284812,97.6822116 C4.27083367,97.7902884 4.04609467,99.3615152 4,99.4999999 L11.7952829,100.509672 C12.0240699,99.902185 12.1234884,99.5887466 12.2028778,99.0852168 Z" id="Fill-4" fill="#121212"></path>
        </g>
    </g>
</svg>