<?xml version="1.0" encoding="UTF-8" standalone="no"?>
<svg width="180px" height="180px" viewBox="0 0 180 180" version="1.1" xmlns="http://www.w3.org/2000/svg" xmlns:xlink="http://www.w3.org/1999/xlink">
    <!-- Generator: Sketch 3.6 (26304) - http://www.bohemiancoding.com/sketch -->
    <title>like</title>
    <desc>Created with Sketch.</desc>
    <defs></defs>
    <g id="iconos" stroke="none" stroke-width="1" fill="none" fill-rule="evenodd">
        <g id="like">
            <path d="M106.608798,7 L108.692206,7 C108.859997,7.04200868 109.041771,7.09802025 109.223544,7.14002894 C115.935192,8.3022691 120.885032,11.8450012 123.7235,18.1182975 C125.289551,21.5910151 125.862838,25.287779 126.016646,29.0685602 C126.114525,31.4070435 125.960716,33.7455267 125.625134,36.070007 C125.191673,39.1086349 124.47856,42.0772483 123.192161,44.8638242 C122.017623,47.4543595 120.717241,49.9888832 119.458807,52.5374098 C118.018599,55.4220059 116.592374,58.306602 115.417836,61.3032212 C114.453037,63.7677304 113.614081,66.2602455 113.334429,68.9207953 C113.194603,70.2930788 113.250533,71.6513595 113.767889,72.9536286 C114.019576,73.5697559 114.019576,73.555753 114.676758,73.5417501 C117.067783,73.4717357 119.444825,73.3737154 121.821866,73.3317067 C130.519043,73.2056807 139.21622,73.1076604 147.913397,73.5837588 C150.653987,73.7377907 153.394576,73.9898427 156.121183,74.4099295 C158.386364,74.7740048 160.357911,75.67019 162.007857,77.2805227 C162.203614,77.4765632 162.413353,77.6586008 162.609109,77.8546414 C165.098012,80.3891651 167.125489,83.2457554 168.607644,86.4804238 C169.041105,87.4186176 169.320757,88.426826 169.670322,89.4070285 C169.7682,89.7290951 169.824131,90.0651645 169.894044,90.401234 L169.894044,92.3476362 C169.572444,93.28583 169.083053,94.1400066 168.495784,94.9381715 C168.31401,95.1762207 168.146219,95.4282728 167.964445,95.6663219 C167.279297,96.5625071 166.566185,97.4446894 165.909003,98.3688804 C165.46156,98.9850077 165.084029,99.6571466 164.720482,100.329286 C164.370917,101.001424 164.231091,101.743578 164.482778,102.485731 C164.748447,103.311902 165.014116,104.152075 165.419612,104.922235 C166.048829,106.140486 166.789906,107.288724 167.489036,108.450964 C168.439853,110.005285 169.432618,111.5316 169.894044,113.337974 L169.894044,114.72426 C169.418635,116.152555 168.509766,117.314795 167.530984,118.421024 C166.817872,119.247195 166.076794,120.031357 165.391647,120.87153 C164.706499,121.697701 164.0633,122.537875 163.462048,123.420057 C162.818848,124.372254 162.66504,125.436474 162.916726,126.542702 C163.04257,127.102818 163.154431,127.690939 163.350187,128.223049 C163.909491,129.749365 164.524725,131.233672 165.084029,132.759987 C165.489525,133.83821 165.867055,134.930435 166.202637,136.036664 C166.59415,137.366939 166.426359,138.669208 165.769177,139.873457 C165.377664,140.601607 164.916238,141.315755 164.398882,141.959888 C163.769665,142.74405 163.056552,143.486203 162.34344,144.214354 C161.406606,145.166551 160.413841,146.076739 159.477007,147.042938 C158.84779,147.701074 158.246538,148.415222 157.673252,149.143372 C157.155895,149.787506 156.904209,150.571668 156.862261,151.397838 C156.80633,152.336032 156.792348,153.288229 156.792348,154.240426 C156.80633,155.556698 156.848278,156.87297 156.834296,158.189242 C156.834296,159.155441 156.610574,160.093635 156.079235,160.905803 C155.464001,161.829994 154.848766,162.754185 154.149637,163.608361 C152.289951,165.848824 150.122648,167.767221 147.759589,169.447568 C146.20752,170.553797 144.613504,171.590011 142.739835,172.066109 C141.341575,172.430184 139.91535,172.724245 138.475142,172.934289 C135.454901,173.382381 132.406694,173.606427 129.358488,173.690445 C129.120783,173.704448 128.897062,173.760459 128.67334,173.802468 L114.662776,173.802468 C114.411089,173.760459 114.159402,173.704448 113.907715,173.704448 C112.131925,173.634433 110.356135,173.592425 108.566362,173.508407 C105.657981,173.382381 102.749601,173.242352 99.8412201,173.060315 C96.7091178,172.864274 93.5770155,172.626225 90.4309306,172.388176 C88.8508968,172.26215 87.2428979,172.220141 85.6768468,171.940083 C80.8947977,171.113912 76.1267313,170.189721 71.3586649,169.293536 C65.4719905,168.201311 59.5992987,167.109085 53.7126243,166.002856 C52.8037553,165.834822 51.8948864,165.666787 51,165.484749 L51,97.1226229 C51.2377042,97.1226229 51.4474432,97.0946171 51.6571822,97.0946171 C52.3842774,97.0946171 53.1253551,97.0666113 53.8664329,97.0946171 C55.2786754,97.1646316 56.5650746,96.7725505 57.7815608,96.1144145 C58.9281339,95.4842843 59.9628463,94.7001223 60.913663,93.81794 C62.661488,92.2216101 64.1576261,90.3872311 65.5419035,88.4688347 C68.3244408,84.604036 70.6175871,80.4591796 72.7429422,76.2163028 C75.3576883,70.9512148 77.6648172,65.5460979 79.8181376,60.0709665 C80.5592153,58.1805759 81.5799451,56.4442171 82.9502399,54.9459075 C83.9430044,53.8816876 84.9916994,52.8594764 86.0823421,51.9072796 C87.3967065,50.7730452 88.7809838,49.7228282 90.1512786,48.6446054 C93.2973635,46.1520904 95.7443184,43.0714538 97.4641781,39.4307015 C98.3590645,37.5543137 99.0861597,35.6079115 99.6734289,33.6054977 C101.575062,27.1781696 102.414018,20.5688038 103.001288,13.9174294 C103.141114,12.4051169 103.252974,10.8788015 103.350853,9.35248612 C103.406783,8.58232697 103.798296,8.03621412 104.455478,7.70014468 C104.819025,7.51810706 105.224521,7.39208102 105.616034,7.26605498 C105.937633,7.15403183 106.273216,7.08401736 106.608798,7" id="Fill-1" fill="#000000"></path>
            <path d="M10,100.246411 C10.0838956,99.9943587 10.209739,99.7283037 10.2516868,99.4622487 C10.8809038,96.2975948 13.5515803,94.0571318 16.7955434,94.0151231 C18.7810725,94.0011202 20.7805842,94.0151231 22.7661133,94.0151231 C27.4083364,94.0151231 32.064542,93.9731144 36.706765,94.029126 C39.6291283,94.0571318 41.7265183,95.4574212 42.9290218,98.1319738 C43.2925694,98.9161359 43.446378,99.7563095 43.446378,100.624489 L43.446378,103.537091 C43.446378,123.575231 43.446378,143.613372 43.4603606,163.651513 C43.4603606,164.449678 43.4044302,165.219837 43.1807086,165.989996 C42.3557352,168.762569 39.8248847,170.722974 36.9304866,170.736977 C30.1768911,170.75098 23.4232955,170.75098 16.6697,170.736977 C13.5236151,170.722974 10.8669212,168.440502 10.2656694,165.317857 C10.209739,165.023796 10.0838956,164.743738 10,164.463681 L10,100.246411" id="Fill-4" fill="#070707"></path>
        </g>
    </g>
</svg>