<?xml version="1.0" encoding="UTF-8"?>
<svg width="180px" height="180px" viewBox="0 0 180 180" version="1.1" xmlns="http://www.w3.org/2000/svg" xmlns:xlink="http://www.w3.org/1999/xlink">
    <!-- Generator: Sketch 47.1 (45422) - http://www.bohemiancoding.com/sketch -->
    <title>lock</title>
    <desc>Created with Sketch.</desc>
    <defs></defs>
    <g id="iconos" stroke="none" stroke-width="1" fill="none" fill-rule="evenodd">
        <g id="lock" fill-rule="nonzero" fill="#000000">
            <path d="M143,67.0759303 L143,67.0759303 C147.026123,67.2949629 149.772795,68.0117915 152.617041,69.5329111 C155.97805,71.3303983 158.669602,74.02195 160.467089,77.3829589 C162.349238,80.9022712 163,84.2721948 163,90.1013686 L163,156.898631 C163,162.727805 162.349238,166.097729 160.467089,169.617041 C158.669602,172.97805 155.97805,175.669602 152.617041,177.467089 C149.097729,179.349238 145.727805,180 139.898631,180 L47.1013686,180 C41.2721948,180 37.9022712,179.349238 34.3829589,177.467089 C31.02195,175.669602 28.3303983,172.97805 26.5329111,169.617041 C24.6507623,166.097729 24,162.727805 24,156.898631 L24,90.1013686 C24,84.2721948 24.6507623,80.9022712 26.5329111,77.3829589 C28.3303983,74.02195 31.02195,71.3303983 34.3829589,69.5329111 C37.2272052,68.0117915 39.9738769,67.2949629 44,67.0759303 L44,49.5 C44,22.1619049 66.1619049,4.34220561e-15 93.5,0 C120.838095,-4.34220561e-15 143,22.1619049 143,49.5 L143,67.0759303 Z M47.1013686,85 C45.236799,85 44.073012,85.0827103 43.4042771,85.2118489 C43.1572386,85.2595543 43.1169326,85.2744174 42.8717384,85.4055487 C42.647562,85.5254395 42.5254395,85.647562 42.4055487,85.8717384 C42.2744174,86.1169326 42.2595543,86.1572386 42.2118489,86.4042771 C42.0827103,87.073012 42,88.236799 42,90.1013686 L42,156.898631 C42,158.763201 42.0827103,159.926988 42.2118489,160.595723 C42.2595543,160.842761 42.2744174,160.883067 42.4055487,161.128262 C42.5254395,161.352438 42.647562,161.474561 42.8717384,161.594451 C43.1169326,161.725583 43.1572386,161.740446 43.4042771,161.788151 C44.073012,161.91729 45.236799,162 47.1013686,162 L139.898631,162 C141.763201,162 142.926988,161.91729 143.595723,161.788151 C143.842761,161.740446 143.883067,161.725583 144.128262,161.594451 C144.352438,161.474561 144.474561,161.352438 144.594451,161.128262 C144.725583,160.883067 144.740446,160.842761 144.788151,160.595723 C144.91729,159.926988 145,158.763201 145,156.898631 L145,90.1013686 C145,88.236799 144.91729,87.073012 144.788151,86.4042771 C144.740446,86.1572386 144.725583,86.1169326 144.594451,85.8717384 C144.474561,85.647562 144.352438,85.5254395 144.128262,85.4055487 C143.883067,85.2744174 143.842761,85.2595543 143.595723,85.2118489 C142.926988,85.0827103 141.763201,85 139.898631,85 L47.1013686,85 Z M125,67.1601562 L125,49.5 C125,32.1030304 110.89697,18 93.5,18 C76.1030304,18 62,32.1030304 62,49.5 L62,67.1601562 L125,67.1601562 Z" id="Combined-Shape"></path>
        </g>
    </g>
</svg>