<?xml version="1.0" encoding="UTF-8"?>
<svg width="128px" height="128px" viewBox="0 0 128 128" version="1.1" xmlns="http://www.w3.org/2000/svg" xmlns:xlink="http://www.w3.org/1999/xlink">
    <!-- Generator: Sketch 47.1 (45422) - http://www.bohemiancoding.com/sketch -->
    <title>lock</title>
    <desc>Created with Sketch.</desc>
    <defs></defs>
    <g id="iconos" stroke="none" stroke-width="1" fill="none" fill-rule="evenodd">
        <g id="lock" fill-rule="nonzero" fill="#000000">
            <path d="M99.7553957,47.6984393 L99.7553957,47.6984393 C102.622922,47.8541959 104.579185,48.3639406 106.604943,49.4456257 C108.998755,50.7238388 110.915759,52.6378311 112.195984,55.0278819 C113.536507,57.530504 114,59.9268941 114,64.0720843 L114,111.57236 C114,115.71755 113.536507,118.11394 112.195984,120.616563 C110.915759,123.006613 108.998755,124.920606 106.604943,126.198819 C104.098382,127.537236 101.698221,128 97.5465073,128 L31.4534927,128 C27.301779,128 24.9016176,127.537236 22.3950571,126.198819 C20.001245,124.920606 18.0842405,123.006613 16.8040158,120.616563 C15.4634925,118.11394 15,115.71755 15,111.57236 L15,64.0720843 C15,59.9268941 15.4634925,57.530504 16.8040158,55.0278819 C18.0842405,52.6378311 20.001245,50.7238388 22.3950571,49.4456257 C24.4208152,48.3639406 26.3770778,47.8541959 29.2446043,47.6984393 L29.2446043,35.2 C29.2446043,15.7595768 45.0289826,3.08779065e-15 64.5,0 C83.9710174,-3.08779065e-15 99.7553957,15.7595768 99.7553957,35.2 L99.7553957,47.6984393 Z M30.7641166,59 C29.3883177,59 28.5296011,59.0612271 28.0361656,59.1568232 C27.8538848,59.1921376 27.8241444,59.2031401 27.6432244,59.3002113 C27.4778128,59.3889617 27.3877029,59.4793641 27.2992398,59.6453128 C27.2024827,59.8268202 27.1915158,59.8566572 27.1563157,60.0395298 C27.0610289,60.5345673 27,61.396072 27,62.7763378 L27,112.223662 C27,113.603928 27.0610289,114.465433 27.1563157,114.96047 C27.1915158,115.143343 27.2024827,115.17318 27.2992398,115.354687 C27.3877029,115.520636 27.4778128,115.611038 27.6432244,115.699789 C27.8241444,115.79686 27.8538848,115.807862 28.0361656,115.843177 C28.5296011,115.938773 29.3883177,116 30.7641166,116 L99.2358834,116 C100.611682,116 101.470399,115.938773 101.963834,115.843177 C102.146115,115.807862 102.175856,115.79686 102.356776,115.699789 C102.522187,115.611038 102.612297,115.520636 102.70076,115.354687 C102.797517,115.17318 102.808484,115.143343 102.843684,114.96047 C102.938971,114.465433 103,113.603928 103,112.223662 L103,62.7763378 C103,61.396072 102.938971,60.5345673 102.843684,60.0395298 C102.808484,59.8566572 102.797517,59.8268202 102.70076,59.6453128 C102.612297,59.4793641 102.522187,59.3889617 102.356776,59.3002113 C102.175856,59.2031401 102.146115,59.1921376 101.963834,59.1568232 C101.470399,59.0612271 100.611682,59 99.2358834,59 L30.7641166,59 Z M88,47 L88,34.0674613 C88,21.3276542 77.4786916,11 64.5,11 C51.5213084,11 41,21.3276542 41,34.0674613 L41,47 L88,47 Z" id="Combined-Shape"></path>
        </g>
    </g>
</svg>