<?xml version="1.0" encoding="UTF-8"?>
<svg width="128px" height="128px" viewBox="0 0 128 128" version="1.1" xmlns="http://www.w3.org/2000/svg" xmlns:xlink="http://www.w3.org/1999/xlink">
    <!-- Generator: Sketch 47.1 (45422) - http://www.bohemiancoding.com/sketch -->
    <title>lock</title>
    <desc>Created with Sketch.</desc>
    <defs></defs>
    <g id="iconos" stroke="none" stroke-width="1" fill="none" fill-rule="evenodd">
        <g id="lock" fill-rule="nonzero" fill="#000000">
            <path d="M100.155762,35.2067871 L100.155762,48 C103.023288,48.1557565 104.579185,48.3639406 106.604943,49.4456257 C108.998755,50.7238388 110.915759,52.6378311 112.195984,55.0278819 C113.536507,57.530504 114,59.9268941 114,64.0720843 L114,111.57236 C114,115.71755 113.536507,118.11394 112.195984,120.616563 C110.915759,123.006613 108.998755,124.920606 106.604943,126.198819 C104.098382,127.537236 101.698221,128 97.5465073,128 L31.4534927,128 C27.301779,128 24.9016176,127.537236 22.3950571,126.198819 C20.001245,124.920606 18.0842405,123.006613 16.8040158,120.616563 C15.4634925,118.11394 15,115.71755 15,111.57236 L15,64.0720843 C15,59.9268941 15.4634925,57.530504 16.8040158,55.0278819 C18.0842405,52.6378311 20.001245,50.7238388 22.3950571,49.4456257 C24.4208152,48.3639406 26.6618652,48.1120605 28.9343262,48.0827637 L28.9343262,34.9118652 C28.9343262,15.471442 45.0289826,3.08779065e-15 64.5,0 C83.9710174,-3.08779065e-15 100.155762,15.7663639 100.155762,35.2067871 Z M32,58 C28.1340068,58 25,61.1340068 25,65 L25,111 C25,114.865993 28.1340068,118 32,118 L97,118 C100.865993,118 104,114.865993 104,111 L104,65 C104,61.1340068 100.865993,58 97,58 L32,58 Z M90,48 L90,34.3489869 C90,20.9014128 78.5832611,10 64.5,10 C50.4167389,10 39,20.9014128 39,34.3489869 L39,48 L90,48 Z" id="Combined-Shape"></path>
        </g>
    </g>
</svg>