<?xml version="1.0" encoding="UTF-8"?>
<svg width="128px" height="128px" viewBox="0 0 128 128" version="1.1" xmlns="http://www.w3.org/2000/svg" xmlns:xlink="http://www.w3.org/1999/xlink">
    <!-- Generator: Sketch 47.1 (45422) - http://www.bohemiancoding.com/sketch -->
    <title>logistics</title>
    <desc>Created with Sketch.</desc>
    <defs></defs>
    <g id="iconos" stroke="none" stroke-width="1" fill="none" fill-rule="evenodd">
        <g id="logistics" fill-rule="nonzero" fill="#000000">
            <path d="M20.9318423,88.9998917 L20.9645297,89.0528434 L20.9968372,88.9999998 C20.9751645,88.9999966 20.9534996,88.9999605 20.9318423,88.9998917 Z M38.1165475,80.169373 L25.2509856,101.212895 C23.3060761,104.394082 18.6890299,104.404017 16.7304474,101.231231 L2.7186702,78.5329919 C2.4788793,78.1445451 2.29865061,77.7361217 2.17546,77.3183892 C0.782866734,74.5105346 0,71.3466915 0,68 C0,56.4020203 9.40202025,47 21,47 C32.5979797,47 42,56.4020203 42,68 C42,72.5360683 40.561812,76.7362299 38.1165475,80.169373 Z M21,79 C27.0751322,79 32,74.0751322 32,68 C32,61.9248678 27.0751322,57 21,57 C14.9248678,57 10,61.9248678 10,68 C10,74.0751322 14.9248678,79 21,79 Z" id="Combined-Shape"></path>
            <path d="M106.931842,41.9998917 L106.96453,42.0528434 L106.996837,41.9999998 C106.975165,41.9999966 106.9535,41.9999605 106.931842,41.9998917 Z M124.116547,33.169373 L111.250986,54.2128954 C109.306076,57.3940815 104.68903,57.4040169 102.730447,54.2312307 L88.7186702,31.5329919 C88.4788793,31.1445451 88.2986506,30.7361217 88.17546,30.3183892 C86.7828667,27.5105346 86,24.3466915 86,21 C86,9.40202025 95.4020203,0 107,0 C118.59798,0 128,9.40202025 128,21 C128,25.5360683 126.561812,29.7362299 124.116547,33.169373 Z M107,32 C113.075132,32 118,27.0751322 118,21 C118,14.9248678 113.075132,10 107,10 C100.924868,10 96,14.9248678 96,21 C96,27.0751322 100.924868,32 107,32 Z" id="Combined-Shape-Copy"></path>
            <path d="M29.2482607,123 L49.5344532,123 C58.6413787,123 64.4156603,119.406169 67.0636525,112.724682 C68.8878351,108.121853 69.1800354,103.853828 69.0831614,92.8421644 C69.0665238,90.9509701 69.0607086,90.0592406 69.0607086,88.9769833 C69.0607086,80.2585968 73.5664797,76.4593496 84.0329436,76.4593496 L98.9765229,76.4593496 C100.400422,79.1594306 103.235267,81 106.5,81 C111.19442,81 115,77.1944204 115,72.5 C115,67.8055796 111.19442,64 106.5,64 C102.861629,64 99.7571751,66.2859717 98.5445536,69.5 L84.0329436,69.5 C69.2030941,69.5 61.0607086,76.3656252 61.0607086,88.9769833 C61.0607086,90.0826712 61.0666044,90.986765 61.0833956,92.8954229 C61.1722583,102.996435 60.9039733,106.915141 59.500521,110.456371 C57.9633457,114.335014 55.2228656,116.04065 49.5344532,116.04065 L29.2665231,116.04065 C27.9414985,113.070347 24.962527,111 21.5,111 C16.8055796,111 13,114.80558 13,119.5 C13,124.19442 16.8055796,128 21.5,128 C24.9467095,128 27.9142713,125.948525 29.2482607,123 Z" id="Combined-Shape"></path>
        </g>
    </g>
</svg>