<?xml version="1.0" encoding="UTF-8"?>
<svg width="180px" height="180px" viewBox="0 0 180 180" version="1.1" xmlns="http://www.w3.org/2000/svg" xmlns:xlink="http://www.w3.org/1999/xlink">
    <!-- Generator: Sketch 43.2 (39069) - http://www.bohemiancoding.com/sketch -->
    <title>logistics</title>
    <desc>Created with Sketch.</desc>
    <defs>
        <polygon id="path-1" points="0.0256097561 0.171513479 0.0256097561 175 174.82894 175 174.82894 0.171513479"></polygon>
    </defs>
    <g id="iconos" stroke="none" stroke-width="1" fill="none" fill-rule="evenodd">
        <g id="logistics">
            <g id="003-arrows" transform="translate(2.000000, 3.000000)">
                <mask id="mask-2" fill="white">
                    <use xlink:href="#path-1"></use>
                </mask>
                <g id="Clip-2"></g>
                <path d="M172.04378,3.01597561 C172.033963,3.00615854 172.025427,2.99591463 172.01561,2.98439024 C172.005366,2.97457317 171.993841,2.96603659 171.984024,2.95792683 C169.262988,0.258231707 165.359634,-0.551890244 161.788354,0.845121951 L6.07378049,61.7301829 C1.95743902,63.3389024 -0.453292683,67.3707317 0.0717073171,71.7589634 C0.598414634,76.1471951 3.89481707,79.4918293 8.27493902,80.0821341 L84.3790244,90.3460976 C84.5207317,90.3661585 84.6355488,90.4792683 84.6539024,90.6226829 L94.9178659,166.726768 C95.5081707,171.10689 98.8545122,174.402866 103.242744,174.928293 C103.642683,174.976524 104.041341,175 104.433171,175 C108.346341,175 111.8075,172.665671 113.269817,168.925793 L174.156159,13.2116463 C175.55189,9.64036585 174.741768,5.7370122 172.04378,3.01597561 Z M9.50847561,70.9403049 C9.33859756,70.9168293 9.26176829,70.9070122 9.23189024,70.6603049 C9.2020122,70.4135976 9.275,70.3832927 9.43378049,70.3218293 L155.120854,13.3567683 L86.9796951,81.4975 C86.5362195,81.3694512 9.50847561,70.9403049 9.50847561,70.9403049 Z M104.678171,165.56622 C104.616707,165.72628 104.591524,165.799695 104.341402,165.76811 C104.092988,165.739939 104.083171,165.661402 104.061402,165.492805 C104.061402,165.492805 93.6305488,88.4654878 93.5020732,88.0215854 L161.643232,19.8808537 L104.678171,165.56622 Z" id="Fill-1" fill="#000000" mask="url(#mask-2)"></path>
            </g>
        </g>
    </g>
</svg>