<?xml version="1.0" encoding="UTF-8" standalone="no"?>
<svg width="180px" height="180px" viewBox="0 0 180 180" version="1.1" xmlns="http://www.w3.org/2000/svg" xmlns:xlink="http://www.w3.org/1999/xlink">
    <!-- Generator: Sketch 3.6 (26304) - http://www.bohemiancoding.com/sketch -->
    <title>marca</title>
    <desc>Created with Sketch.</desc>
    <defs></defs>
    <g id="iconos" stroke="none" stroke-width="1" fill="none" fill-rule="evenodd">
        <g id="marca">
            <path d="M91.4077718,172.832031 C137.17037,172.832031 174.268285,135.734116 174.268285,89.9715179 C174.268285,44.2089201 137.17037,7.1110046 91.4077718,7.1110046 C45.6451739,7.1110046 8.54725844,44.2089201 8.54725844,89.9715179 C8.54725844,135.734116 45.6451739,172.832031 91.4077718,172.832031 L91.4077718,172.832031 Z M91.4077718,164.333517 C50.3387737,164.333517 17.0457726,131.040516 17.0457726,89.9715179 C17.0457726,48.9025198 50.3387737,15.6095188 91.4077718,15.6095188 C132.47677,15.6095188 165.769771,48.9025198 165.769771,89.9715179 C165.769771,131.040516 132.47677,164.333517 91.4077718,164.333517 L91.4077718,164.333517 Z" id="Oval-1" fill="#000000"></path>
            <path d="M126.296466,128.767039 L107.664058,96.506356 C116.075259,92.8863453 121.292333,86.6045621 121.292333,74.5733502 L121.292333,73.8280539 C121.292333,52.9597572 105.53464,49.1268047 86.4763483,49.1268047 C78.4910307,49.1268047 71.3574803,49.3397465 64.3304007,49.6591592 L64.3304007,128.767039 L78.8104434,128.767039 L78.8104434,99.5940121 L86.1569356,99.5940121 C88.6057663,99.5940121 90.9481262,99.5940121 93.0775442,99.4875412 L110.538772,128.767039 L126.296466,128.767039 Z M106.70582,74.6798211 C106.70582,84.9010277 100.636978,87.775742 87.0087028,87.775742 C84.2404594,87.775742 81.5786868,87.775742 78.8104434,87.6692711 L78.8104434,61.6903711 C98.1881475,61.6903711 106.70582,61.796842 106.70582,74.0409957 L106.70582,74.6798211 Z" id="R" fill="#0F0F0F"></path>
        </g>
    </g>
</svg>