<?xml version="1.0" encoding="UTF-8"?>
<svg width="152px" height="152px" viewBox="0 0 152 152" version="1.1" xmlns="http://www.w3.org/2000/svg" xmlns:xlink="http://www.w3.org/1999/xlink">
    <!-- Generator: Sketch 43.1 (39012) - http://www.bohemiancoding.com/sketch -->
    <title>media-reload</title>
    <desc>Created with Sketch.</desc>
    <defs></defs>
    <g id="Page-1" stroke="none" stroke-width="1" fill="none" fill-rule="evenodd">
        <g id="media-reload" fill-rule="nonzero" fill="#000000">
            <path d="M54.5435707,122.845874 L13.6585749,122.845874 C13.4021771,122.850907 13.1211271,122.834184 12.7560187,122.772878 C12.1774524,122.675729 11.6130335,122.496691 11.1157331,122.230194 C9.65521518,121.44752 8.79596648,119.990538 8.79596632,116.953508 C8.79596623,111.065603 8.79596623,111.065603 8.79596615,98.4281494 L8.79596615,66.4036896 C8.79596623,52.0656002 8.79596623,52.0656002 8.79596623,39.0451948 C8.79596632,29.0512096 8.79596632,29.0512096 8.79596632,21.7462095 L8.79596632,14.9135113 C8.79596632,14.7785406 8.78919,14.6436549 8.77566285,14.5093636 C8.75487791,14.1184471 8.76211897,13.6413726 8.81914699,13.1030458 C8.89904236,12.348858 9.06438677,11.6235715 9.32147804,10.982157 C10.0828759,9.08255272 11.4865126,8.08275234 14.5661237,8.08275234 L33.6703355,8.08275234 L66.8384407,8.08275234 L95.5716915,8.08275234 L113.12397,8.08275234 L120.041334,8.08275234 C120.932557,8.04300145 121.758961,8.14404477 122.450996,8.44713761 C123.517687,8.9143198 124.063696,9.72870939 124.063697,11.8212035 L124.063697,29.0353778 C124.063697,35.4004377 124.063697,54.7412198 124.063697,60.3098564 L124.063697,63.1405121 L124.063697,65.2773903 C124.063696,67.5044818 125.86911,69.3098963 128.096202,69.3098964 C130.323294,69.3098964 132.128708,67.5044821 132.128708,65.2773907 L132.128708,63.1405125 C132.128708,60.8332465 132.128708,63.5215837 132.128708,60.3098565 C132.128708,54.74122 132.128708,35.4004378 132.128709,29.0353779 C132.128709,18.7462059 132.128709,18.7462059 132.128708,11.8212023 C132.128707,6.48820264 129.65414,2.79730629 125.68654,1.05960284 C123.669459,0.176174946 121.680382,-0.0670269305 119.968261,0.0149065721 C118.755115,0.0177406503 118.755115,0.0177406503 113.12397,0.0177406503 L95.5716915,0.0177406503 L66.8384407,0.0177406503 L33.6703355,0.0177406503 L14.5661237,0.0177406503 C8.11093348,0.0177406503 3.79539966,3.09166458 1.83541927,7.98160084 C0.863051814,10.407551 0.606725824,12.8271887 0.721727309,14.919614 C0.730901239,15.0865316 0.741436783,15.220157 0.751258123,15.317659 L0.730954677,14.9135113 C0.730954668,16.1855905 0.730954668,16.1855905 0.730954643,21.7462094 C0.730954609,29.0512095 0.730954609,29.0512095 0.730954566,39.0451948 C0.730954524,52.0656002 0.730954524,52.0656002 0.73095449,66.4036896 C0.730954456,83.5408448 0.730954456,83.5408448 0.730954481,98.4281494 C0.730954532,111.065603 0.730954532,111.065603 0.730954677,116.953509 C0.730954948,122.943131 3.20737404,127.14226 7.30630229,129.338826 C8.63582243,130.0513 10.0267677,130.492519 11.4204995,130.726544 C12.3241632,130.87828 13.1055999,130.924776 13.7180983,130.910812 C13.7886651,130.908924 54.5435707,130.910887 54.5435707,130.910887 C56.7706622,130.910887 58.7954058,129.999239 58.7954058,126.386061 C58.7954058,122.772883 54.5435707,122.845874 54.5435707,122.845874 Z" id="Path-120"></path>
            <path d="M29.862033,59.2696668 C29.9632536,59.1526335 30.0567876,59.029167 30.1420476,58.9000425 C30.1532368,58.8830966 30.3038363,58.705499 30.5314445,58.519447 C30.8744234,58.2390884 31.1702301,58.125597 31.4591675,58.1521043 C32.1426804,58.2148102 33.1632421,58.8425614 34.5243898,60.4678584 C36.953641,63.368539 43.2546761,70.5656135 52.2885242,80.790227 C52.3872351,80.9019474 52.3872351,80.9019474 52.4859488,81.0136637 C56.633473,85.7074307 53.4343685,82.2305973 57.8776634,87.2361381 C59.4327708,88.9880255 60.8768135,90.6136468 62.172787,92.0716971 C62.6264137,92.5820562 63.029143,93.0350281 63.3763487,93.4254515 C63.728261,93.8211288 63.728261,93.8211288 63.8025482,93.9046243 C65.1180446,95.3831835 67.3830741,95.5153717 68.8616333,94.1998754 C70.3401925,92.8843791 70.4723811,90.6193498 69.1568847,89.1407906 C69.0831176,89.0578793 69.0831176,89.0578793 68.731772,88.6628389 C68.3849731,88.272874 67.9826572,87.8203658 67.5294513,87.3104813 C66.2344745,85.853552 64.7914584,84.2290864 63.2374255,82.478409 C58.7974623,77.4766219 62.0000161,80.9573478 57.8564995,76.2681168 C57.7578981,76.1565274 57.7578981,76.1565274 57.6593003,76.0449351 C48.6799684,65.8820236 42.3888799,58.6963101 40.0188671,55.8663639 C35.2716514,50.1978864 29.9814137,49.7125569 25.9956804,52.9705844 C25.5009848,53.3749596 25.0724907,53.8042557 24.7037935,54.2390497 C24.4655045,54.5200571 24.285459,54.7631217 24.1613745,54.951045 L24.4413891,54.5814208 L5.1189462,76.9224162 C3.82432281,78.4192857 3.98827567,80.6822378 5.48514517,81.9768612 C6.98201467,83.2714847 9.24496676,83.1075317 10.5395902,81.6106622 L29.862033,59.2696668 Z" id="Path-124"></path>
            <path d="M103.173184,35.2402235 C103.173184,25.8606389 95.5695287,18.2569832 86.1899441,18.2569832 C76.8103596,18.2569832 69.2067039,25.8606389 69.2067039,35.2402235 C69.2067039,44.619808 76.8103596,52.2234637 86.1899441,52.2234637 C95.5695287,52.2234637 103.173184,44.619808 103.173184,35.2402235 Z M75.150838,35.2402235 C75.150838,29.1434935 80.0932142,24.2011173 86.1899441,24.2011173 C92.2866743,24.2011173 97.2290503,29.1434935 97.2290503,35.2402235 C97.2290503,41.3369534 92.2866743,46.2793296 86.1899441,46.2793296 C80.0932142,46.2793296 75.150838,41.3369534 75.150838,35.2402235 Z" id="Oval-3-Copy"></path>
            <g id="sync" transform="translate(67.000000, 76.000000)">
                <path d="M83.6279087,27.9422561 C84.9958365,29.3194108 84.9958365,31.5515267 83.6279086,32.9286814 L75.5519096,41.0591247 C74.8829682,41.7257064 73.9893092,42.0896875 73.0647243,42.0896875 C72.1359912,42.0896875 71.240907,41.7269954 70.5721043,41.0536814 L62.5015398,32.9286814 C61.133612,31.5515267 61.133612,29.3194108 62.5015398,27.9422561 C63.8749716,26.5595605 66.109313,26.5595605 67.4827447,27.9422561 L69.0938922,29.5642708 C66.7822966,17.0392005 55.8410651,7.5625 42.7960729,7.5625 C32.8513239,7.5625 23.7862149,13.065313 19.133497,21.9293089 C18.2268313,23.6558096 16.0927798,24.3163634 14.37302,23.4010134 C12.6588134,22.4886193 12.00686,20.3538438 12.9104589,18.6331831 C18.7824377,7.45174487 30.2372261,0.5 42.7960729,0.5 C51.8196546,0.5 60.3093688,4.03987117 66.6874324,10.4609548 C72.062331,15.8684081 75.4089417,22.7914728 76.3243941,30.276167 L78.6426683,27.9422561 C79.849174,26.7276124 81.7200377,26.5799854 83.0880348,27.499375 L83.6279087,27.9422561 Z" id="Shape"></path>
                <path d="M70.7807301,50.1896897 C72.4950325,51.102084 73.1470224,53.2368596 72.2433728,54.95752 C66.3710657,66.1389582 54.9156364,73.0907031 42.3560873,73.0907031 C33.3320008,73.0907031 24.8418117,69.550832 18.4633913,63.1297483 C13.0881922,57.7222951 9.7413944,50.7992304 8.82589072,43.314536 L6.50748671,45.648447 C5.13397804,47.0311427 2.89951205,47.0311427 1.52600339,45.648447 C0.15799887,44.2712924 0.15799887,42.0391763 1.52600339,40.6620217 L9.59701909,32.5370217 C10.9705278,31.1543261 13.2049937,31.1543261 14.5785024,32.5370217 L22.6495181,40.6620217 C24.0175226,42.0391763 24.0175226,44.2712924 22.644083,45.6538905 C21.975104,46.3204721 21.0813952,46.6844531 20.1567587,46.6844531 C19.2279738,46.6844531 18.3328397,46.3217611 17.6639993,45.6484471 L16.0527614,44.0264322 C18.3644863,56.5515026 29.3063298,66.0282031 42.3520518,66.0282031 C52.2973569,66.0282031 61.3629732,60.52539 66.0159512,51.6613945 C66.8563032,50.0612591 68.7510066,49.3767442 70.393042,50.0138281 L70.7807301,50.1896897 Z" id="Shape"></path>
            </g>
        </g>
    </g>
</svg>