<?xml version="1.0" encoding="UTF-8"?>
<svg width="180px" height="180px" viewBox="0 0 180 180" version="1.1" xmlns="http://www.w3.org/2000/svg" xmlns:xlink="http://www.w3.org/1999/xlink">
    <!-- Generator: Sketch 43.2 (39069) - http://www.bohemiancoding.com/sketch -->
    <title>media-plus</title>
    <desc>Created with Sketch.</desc>
    <defs></defs>
    <g id="iconos" stroke="none" stroke-width="1" fill="none" fill-rule="evenodd">
        <g id="media-plus" fill-rule="nonzero" fill="#000000">
            <path d="M71.1203892,146.667181 L17.0847691,146.667181 C16.782827,146.673107 16.4518536,146.653414 16.0218904,146.581218 C15.3405525,146.466813 14.675875,146.255972 14.0902383,145.942136 C12.3702863,145.020435 11.3584079,143.304647 11.3584077,139.728144 C11.3584076,132.794362 11.3584076,132.794362 11.3584075,117.912097 C11.3584075,100.380337 11.3584075,100.380337 11.3584075,80.1990818 C11.3584076,63.314095 11.3584076,63.314095 11.3584076,47.9808544 C11.3584077,36.2116218 11.3584077,36.2116218 11.3584077,27.609023 C11.3584077,21.0606626 11.3584077,21.0606626 11.3584077,19.5626219 C11.3584077,19.4036761 11.3504277,19.2448304 11.3344977,19.0866848 C11.3100207,18.6263292 11.318548,18.0645112 11.385706,17.4305605 C11.4797933,16.5424052 11.6745081,15.6882848 11.9772669,14.9329349 C12.8739131,12.6959009 14.52688,11.5185044 18.1535273,11.5185044 C25.2618676,11.5185044 25.2618676,11.5185044 40.6512504,11.5185044 C58.8009806,11.5185044 58.8009806,11.5185044 79.7110584,11.5185044 C97.4760188,11.5185044 97.4760188,11.5185044 113.548242,11.5185044 C125.49961,11.5185044 125.49961,11.5185044 134.218359,11.5185044 C140.849773,11.5185044 140.849773,11.5185044 142.364466,11.5185044 C143.413998,11.4716925 144.387198,11.5906843 145.20216,11.947616 C146.458329,12.4977845 147.101326,13.4568354 147.101327,15.9210225 C147.101327,24.0761242 147.101327,24.0761242 147.101327,36.1929778 C147.101327,43.6886733 147.101327,54.6886733 147.101327,61.2464756 C147.101327,65.0287068 147.101327,61.862836 147.101327,64.5799452 C147.101327,66.6332402 147.101327,66.6332402 147.101327,67.0964004 C147.101326,69.7190937 149.227439,71.8452068 151.850133,71.8452069 C154.472826,71.845207 156.598939,69.7190941 156.598939,67.0964009 C156.598939,66.6332406 156.598939,66.6332406 156.598939,64.5799456 C156.598939,61.8628363 156.598939,65.0287071 156.598939,61.2464758 C156.598939,54.6886735 156.598939,43.6886735 156.59894,36.1929779 C156.59894,24.0761241 156.59894,24.0761241 156.598939,15.9210211 C156.598938,9.64071232 153.68481,5.29419622 149.012439,3.24782176 C146.63706,2.20746918 144.29466,1.92106697 142.278413,2.01755445 C140.849773,2.02089195 140.849773,2.02089195 134.218359,2.02089195 C125.49961,2.02089195 125.49961,2.02089195 113.548242,2.02089195 C97.4760188,2.02089195 97.4760188,2.02089195 79.7110584,2.02089195 C58.8009806,2.02089195 58.8009806,2.02089195 40.6512504,2.02089195 C25.2618676,2.02089195 25.2618676,2.02089195 18.1535273,2.02089195 C10.5516914,2.02089195 5.4695825,5.64084184 3.16144769,11.3993852 C2.01635707,14.2562607 1.71449949,17.1057025 1.84992887,19.5698086 C1.86073238,19.766376 1.87313937,19.9237375 1.88470529,20.038559 L1.86079531,19.5626219 C1.8607953,21.0606625 1.8607953,21.0606625 1.86079527,27.6090229 C1.86079523,36.2116217 1.86079523,36.2116217 1.86079518,47.9808544 C1.86079513,63.314095 1.86079513,63.314095 1.86079509,80.1990818 C1.86079505,100.380337 1.86079505,100.380337 1.86079508,117.912097 C1.86079514,132.794362 1.86079514,132.794362 1.86079531,139.728145 C1.86079563,146.781713 4.77710496,151.72674 9.6041323,154.313486 C11.1698172,155.152518 12.8078383,155.672111 14.4491408,155.947706 C15.5133238,156.126396 16.4335683,156.181151 17.1548658,156.164706 C17.2379674,156.162483 71.1203892,156.164794 71.1203892,156.164794 C73.7430825,156.164794 76.1274845,155.091209 76.1274845,150.836216 C76.1274845,146.581224 71.1203892,146.667181 71.1203892,146.667181 Z" id="Path-120"></path>
            <path d="M36.1664731,71.7978313 C36.2856737,71.6600092 36.3958222,71.5146111 36.4962271,71.3625501 C36.5094039,71.342594 36.6867546,71.1334495 36.9547932,70.9143488 C37.358696,70.5841896 37.7070473,70.4505386 38.0473091,70.4817544 C38.8522355,70.5555988 40.0540811,71.2948585 41.6570117,73.2088596 C44.5177746,76.6247926 51.9380725,85.1002948 62.5766173,97.1411226 C62.6928624,97.2726881 62.6928624,97.2726881 62.8091107,97.4042487 C67.6933662,102.931777 63.9259998,98.8373481 69.1585641,104.732031 C70.9899077,106.795109 72.690458,108.709492 74.2166373,110.426538 C74.7508425,111.027553 75.2251092,111.560987 75.6339896,112.020762 C76.0484126,112.486724 76.0484126,112.486724 76.1358956,112.585051 C77.6850657,114.326249 80.352436,114.481918 82.093634,112.932748 C83.834832,111.383578 83.9905014,108.716208 82.4413313,106.97501 C82.3544609,106.877371 82.3544609,106.877371 81.9407052,106.412159 C81.5323039,105.952924 81.0585239,105.420036 80.5248144,104.81958 C78.9998088,103.103854 77.3004674,101.190832 75.4703892,99.129179 C70.2417484,93.2389166 74.0131768,97.3379293 69.1336409,91.8157428 C69.0175247,91.6843316 69.0175247,91.6843316 68.9014129,91.552917 C58.3270681,79.5847515 50.9184836,71.1226283 48.1274816,67.7899943 C42.5370105,61.1146162 36.3070596,60.5430769 31.6133341,64.379833 C31.030765,64.856038 30.5261568,65.3615906 30.0919674,65.8736177 C29.8113507,66.2045409 29.5993234,66.4907815 29.4531976,66.7120859 L29.7829516,66.2768047 L7.0282327,92.5862664 C5.50364331,94.3490272 5.69671937,97.0139511 7.45948017,98.5385405 C9.22224096,100.06313 11.8871648,99.8700538 13.4117542,98.107293 L36.1664731,71.7978313 Z" id="Path-124"></path>
            <path d="M122.5,43.5 C122.5,32.454305 113.545695,23.5 102.5,23.5 C91.454305,23.5 82.5,32.454305 82.5,43.5 C82.5,54.545695 91.454305,63.5 102.5,63.5 C113.545695,63.5 122.5,54.545695 122.5,43.5 Z M89.5,43.5 C89.5,36.3202983 95.3202983,30.5 102.5,30.5 C109.679702,30.5 115.5,36.3202983 115.5,43.5 C115.5,50.6797017 109.679702,56.5 102.5,56.5 C95.3202983,56.5 89.5,50.6797017 89.5,43.5 Z" id="Oval-3-Copy"></path>
            <path d="M139.5,174.583739 L139.5,93.583739 C139.5,91.0984576 137.485281,89.083739 135,89.083739 C132.514719,89.083739 130.5,91.0984576 130.5,93.583739 L130.5,174.583739 C130.5,177.06902 132.514719,179.083739 135,179.083739 C137.485281,179.083739 139.5,177.06902 139.5,174.583739 Z" id="Line" transform="translate(135.000000, 134.083739) rotate(90.000000) translate(-135.000000, -134.083739) "></path>
            <path d="M140,175.083739 L140,94.083739 C140,91.5984576 137.985281,89.583739 135.5,89.583739 C133.014719,89.583739 131,91.5984576 131,94.083739 L131,175.083739 C131,177.56902 133.014719,179.583739 135.5,179.583739 C137.985281,179.583739 140,177.56902 140,175.083739 Z" id="Line"></path>
        </g>
    </g>
</svg>