<?xml version="1.0" encoding="UTF-8"?>
<svg width="180px" height="180px" viewBox="0 0 180 180" version="1.1" xmlns="http://www.w3.org/2000/svg" xmlns:xlink="http://www.w3.org/1999/xlink">
    <!-- Generator: Sketch 40.1 (33804) - http://www.bohemiancoding.com/sketch -->
    <title>media</title>
    <desc>Created with Sketch.</desc>
    <defs></defs>
    <g id="iconos" stroke="none" stroke-width="1" fill="none" fill-rule="evenodd">
        <g id="media" fill="#000000">
            <g id="music-note" transform="translate(76.000000, 68.000000)" stroke="#000000" stroke-width="2">
                <path d="M95.1160738,0.4361724 L41.3479578,12.5041835 C40.1846113,12.7636457 39.3389855,14.0126849 39.3389855,15.4729142 L39.3389855,84.2545433 C38.6742161,83.6994148 37.9410145,83.1744563 37.1491568,82.6857019 C33.1214361,80.1996916 27.8277207,78.8299723 22.2309486,78.8299723 C16.6341765,78.8299723 11.3404611,80.1996916 7.31274045,82.6857019 C2.7473386,85.5035824 0.234901186,89.4920601 0.234901186,93.9149862 C0.234901186,98.3379122 2.7473386,102.332424 7.31274045,105.14427 C11.3404611,107.630281 16.6341765,109 22.2309486,109 C27.8277207,109 33.1214361,107.630281 37.1491568,105.14427 C41.7145586,102.32639 44.226996,98.3379122 44.226996,93.9149862 L44.226996,43.0680743 L93.1071014,31.9232661 L93.1071014,72.1865322 C92.442332,71.6314037 91.7091304,71.1064452 90.9172727,70.6176908 C86.889552,68.1316805 81.5958366,66.7619612 75.9990646,66.7619612 C70.4022925,66.7619612 65.1085771,68.1316805 61.0808564,70.6176908 C56.5154545,73.4355714 54.0030171,77.424049 54.0030171,81.8469751 C54.0030171,86.2699011 56.5154545,90.2644128 61.0808564,93.0762594 C65.1085771,95.5622697 70.4022925,96.9319889 75.9990646,96.9319889 C81.5958366,96.9319889 86.889552,95.5622697 90.9172727,93.0762594 C95.4826746,90.2583788 97.995112,86.2699011 97.995112,81.8469751 L97.995112,3.40490312 C97.995112,2.5118703 97.6725033,1.66107552 97.1152701,1.087845 C96.5629249,0.514614472 95.8297233,0.273254251 95.1160738,0.4361724 Z M22.2358366,102.965994 C12.4451515,102.965994 5.12779974,98.1870621 5.12779974,93.9149862 C5.12779974,89.6429102 12.4451515,84.8639779 22.2358366,84.8639779 C32.0265217,84.8639779 39.3438735,89.6429102 39.3438735,93.9149862 C39.3438735,98.1870621 32.0265217,102.965994 22.2358366,102.965994 L22.2358366,102.965994 Z M44.2318841,36.9314907 L44.2318841,18.9890945 L93.1119895,8.01927244 L93.1119895,26.7866825 L45.2318841,37.9314907 L44.2318841,36.9314907 Z M76.0039526,90.8979834 C66.2132675,90.8979834 58.8959157,86.119051 58.8959157,81.8469751 C58.8959157,77.5748992 66.2132675,72.7959668 76.0039526,72.7959668 C85.7946377,72.7959668 93.1119895,77.5748992 93.1119895,81.8469751 C93.1119895,86.119051 85.7946377,90.8979834 76.0039526,90.8979834 L76.0039526,90.8979834 Z" id="Shape"></path>
            </g>
            <path d="M59.1203892,146.667181 L17.0847691,146.667181 C16.782827,146.673107 16.4518536,146.653414 16.0218904,146.581218 C15.3405525,146.466813 14.675875,146.255972 14.0902383,145.942136 C12.3702863,145.020435 11.3584079,143.304647 11.3584077,139.728144 C11.3584076,132.794362 11.3584076,132.794362 11.3584075,117.912097 C11.3584075,100.380337 11.3584075,100.380337 11.3584075,80.1990818 C11.3584076,63.314095 11.3584076,63.314095 11.3584076,47.9808544 C11.3584077,36.2116218 11.3584077,36.2116218 11.3584077,27.609023 C11.3584077,21.0606626 11.3584077,21.0606626 11.3584077,19.5626219 C11.3584077,19.4036761 11.3504277,19.2448304 11.3344977,19.0866848 C11.3100207,18.6263292 11.318548,18.0645112 11.385706,17.4305605 C11.4797933,16.5424052 11.6745081,15.6882848 11.9772669,14.9329349 C12.8739131,12.6959009 14.52688,11.5185044 18.1535273,11.5185044 C25.2618676,11.5185044 25.2618676,11.5185044 40.6512504,11.5185044 C58.8009806,11.5185044 58.8009806,11.5185044 79.7110584,11.5185044 C97.4760188,11.5185044 97.4760188,11.5185044 113.548242,11.5185044 C125.49961,11.5185044 125.49961,11.5185044 134.218359,11.5185044 C140.849773,11.5185044 140.849773,11.5185044 142.364466,11.5185044 C143.413998,11.4716925 144.387198,11.5906843 145.20216,11.947616 C146.458329,12.4977845 147.101326,13.4568354 147.101327,15.9210225 C147.101327,24.0761242 147.101327,24.0761242 147.101327,36.1929778 C147.101327,43.6886733 147.101327,39.6886733 147.101327,46.2464756 C147.101327,50.0287068 147.101327,46.862836 147.101327,49.5799452 C147.101327,51.6332402 147.101327,51.6332402 147.101327,52.0964004 C147.101326,54.7190937 149.227439,56.8452068 151.850133,56.8452069 C154.472826,56.845207 156.598939,54.7190941 156.598939,52.0964009 C156.598939,51.6332406 156.598939,51.6332406 156.598939,49.5799456 C156.598939,46.8628363 156.598939,50.0287071 156.598939,46.2464758 C156.598939,39.6886735 156.598939,43.6886735 156.59894,36.1929779 C156.59894,24.0761241 156.59894,24.0761241 156.598939,15.9210211 C156.598938,9.64071232 153.68481,5.29419622 149.012439,3.24782176 C146.63706,2.20746918 144.29466,1.92106697 142.278413,2.01755445 C140.849773,2.02089195 140.849773,2.02089195 134.218359,2.02089195 C125.49961,2.02089195 125.49961,2.02089195 113.548242,2.02089195 C97.4760188,2.02089195 97.4760188,2.02089195 79.7110584,2.02089195 C58.8009806,2.02089195 58.8009806,2.02089195 40.6512504,2.02089195 C25.2618676,2.02089195 25.2618676,2.02089195 18.1535273,2.02089195 C10.5516914,2.02089195 5.4695825,5.64084184 3.16144769,11.3993852 C2.01635707,14.2562607 1.71449949,17.1057025 1.84992887,19.5698086 C1.86073238,19.766376 1.87313937,19.9237375 1.88470529,20.038559 L1.86079531,19.5626219 C1.8607953,21.0606625 1.8607953,21.0606625 1.86079527,27.6090229 C1.86079523,36.2116217 1.86079523,36.2116217 1.86079518,47.9808544 C1.86079513,63.314095 1.86079513,63.314095 1.86079509,80.1990818 C1.86079505,100.380337 1.86079505,100.380337 1.86079508,117.912097 C1.86079514,132.794362 1.86079514,132.794362 1.86079531,139.728145 C1.86079563,146.781713 4.77710496,151.72674 9.6041323,154.313486 C11.1698172,155.152518 12.8078383,155.672111 14.4491408,155.947706 C15.5133238,156.126396 16.4335683,156.181151 17.1548658,156.164706 C17.2379674,156.162483 59.1203892,156.164794 59.1203892,156.164794 C61.7430825,156.164794 64.1274845,155.091209 64.1274845,150.836216 C64.1274845,146.581224 59.1203892,146.667181 59.1203892,146.667181 Z" id="Path-120"></path>
            <path d="M36.1664731,71.7978313 C36.2856737,71.6600092 36.3958222,71.5146111 36.4962271,71.3625501 C36.5094039,71.342594 36.6867546,71.1334495 36.9547932,70.9143488 C37.358696,70.5841896 37.7070473,70.4505386 38.0473091,70.4817544 C38.8522355,70.5555988 40.0540811,71.2948585 41.6570117,73.2088596 C44.5177746,76.6247926 51.9380725,85.1002948 62.5766173,97.1411226 C62.6928624,97.2726881 62.6928624,97.2726881 62.8091107,97.4042487 C67.6933662,102.931777 72.9259998,108.837348 78.1585641,114.732031 C79.9899077,116.795109 81.690458,118.709492 83.2166373,120.426538 C83.7508425,121.027553 84.2251092,121.560987 84.6339896,122.020762 C85.0484126,122.486724 85.0484126,122.486724 85.1358956,122.585051 C86.6850657,124.326249 89.352436,124.481918 91.093634,122.932748 C92.834832,121.383578 92.9905014,118.716208 91.4413313,116.97501 C91.3544609,116.877371 91.3544609,116.877371 90.9407052,116.412159 C90.5323039,115.952924 90.0585239,115.420036 89.5248144,114.81958 C87.9998088,113.103854 86.3004674,111.190832 84.4703892,109.129179 C79.2417484,103.238917 74.0131768,97.3379293 69.1336409,91.8157428 C69.0175247,91.6843316 69.0175247,91.6843316 68.9014129,91.552917 C58.3270681,79.5847515 50.9184836,71.1226283 48.1274816,67.7899943 C42.5370105,61.1146162 36.3070596,60.5430769 31.6133341,64.379833 C31.030765,64.856038 30.5261568,65.3615906 30.0919674,65.8736177 C29.8113507,66.2045409 29.5993234,66.4907815 29.4531976,66.7120859 L29.7829516,66.2768047 L7.0282327,92.5862664 C5.50364331,94.3490272 5.69671937,97.0139511 7.45948017,98.5385405 C9.22224096,100.06313 11.8871648,99.8700538 13.4117542,98.107293 L36.1664731,71.7978313 Z" id="Path-124"></path>
            <path d="M122.5,43.5 C122.5,32.454305 113.545695,23.5 102.5,23.5 C91.454305,23.5 82.5,32.454305 82.5,43.5 C82.5,54.545695 91.454305,63.5 102.5,63.5 C113.545695,63.5 122.5,54.545695 122.5,43.5 Z M89.5,43.5 C89.5,36.3202983 95.3202983,30.5 102.5,30.5 C109.679702,30.5 115.5,36.3202983 115.5,43.5 C115.5,50.6797017 109.679702,56.5 102.5,56.5 C95.3202983,56.5 89.5,50.6797017 89.5,43.5 Z" id="Oval-3-Copy"></path>
        </g>
    </g>
</svg>