<?xml version="1.0" encoding="UTF-8"?>
<svg width="180px" height="180px" viewBox="0 0 180 180" version="1.1" xmlns="http://www.w3.org/2000/svg" xmlns:xlink="http://www.w3.org/1999/xlink">
    <!-- Generator: Sketch 43.2 (39069) - http://www.bohemiancoding.com/sketch -->
    <title>marketing</title>
    <desc>Created with Sketch.</desc>
    <defs>
        <polygon id="path-1" points="0.0261959305 0.218926829 0.0261959305 175.523989 160.289842 175.523989 160.289842 0.218926829"></polygon>
    </defs>
    <g id="iconos" stroke="none" stroke-width="1" fill="none" fill-rule="evenodd">
        <g id="marketing">
            <g id="001-loudspeaker">
                <path d="M169.137857,37.8113821 C167.734192,35.5849106 164.944326,35.0259079 162.908029,36.5593496 C160.869985,38.0946992 160.358291,41.1405962 161.761957,43.3670678 C167.717165,52.8042927 170.865479,64.1880108 170.865479,76.2852683 C170.865479,88.338168 167.572214,100.124444 161.594739,109.471523 C160.179286,111.687024 160.673516,114.738645 162.701517,116.286873 C163.482593,116.883079 164.378057,117.170211 165.263043,117.170211 C166.67675,117.170211 168.068627,116.439978 168.940078,115.077767 C176.061878,103.943501 179.826234,90.5288672 179.826234,76.2852683 C179.826234,62.1942981 176.130424,48.8898428 169.137857,37.8113821 Z" id="Fill-1" fill="#000000"></path>
                <g id="Group-5">
                    <mask id="mask-2" fill="white">
                        <use xlink:href="#path-1"></use>
                    </mask>
                    <g id="Clip-3"></g>
                    <path d="M153.41996,51.6376369 C152.016731,49.4130732 149.226428,48.8521626 147.188384,50.3875122 C145.152087,51.9209539 144.640393,54.9692358 146.044059,57.1937995 C149.502795,62.6731707 151.330834,69.2948726 151.330834,76.3410732 C151.330834,83.3615176 149.418968,90.2159783 145.948444,95.6452683 C144.531244,97.8602927 145.02591,100.91239 147.053475,102.45871 C147.834551,103.054916 148.730015,103.342049 149.617184,103.342049 C151.030891,103.342049 152.420585,102.613247 153.292036,101.249604 C157.871521,94.0913171 160.289842,85.4782873 160.289842,76.3410732 C160.289842,67.3011599 157.913871,58.7606287 153.41996,51.6376369 Z" id="Fill-2" fill="#000000" mask="url(#mask-2)"></path>
                    <path d="M135.749931,0.218926829 C133.531136,0.218926829 131.479558,1.5677832 129.664617,4.21541463 C129.516173,4.42766396 114.550875,25.4680108 77.2028999,38.0460488 C73.6572807,39.2403686 69.7379329,40.0845962 69.6990756,40.0917507 C68.8136531,40.2820596 67.9574828,40.5839783 67.1423528,40.9822439 C65.5719068,38.1485962 62.7305215,36.2445528 59.4830993,36.2445528 L21.7871554,36.2445528 C16.8466029,36.2445528 12.8285837,40.6359675 12.8285837,46.0333008 L12.8285837,51.4067859 C12.1990082,51.2985149 11.5545883,51.2388943 10.8944509,51.2388943 C4.88772403,51.2388943 0,55.900748 0,61.6314797 L0,88.690168 C0,94.4194688 4.88772403,99.0827534 10.8927045,99.0827534 C11.5545883,99.0827534 12.1990082,99.0231328 12.8268374,98.9148618 L12.8268374,103.308184 C12.8268374,108.705995 16.8466029,113.097409 21.7871554,113.097409 L22.9982806,113.097409 L34.3734268,164.639176 C35.7207708,170.742894 41.2773642,175.523989 47.023005,175.523989 L59.0617814,175.523989 C62.2052931,175.523989 65.0497345,174.077832 66.8642393,171.560889 C68.6809271,169.043946 69.3000243,165.684683 68.561299,162.34593 L57.6926075,113.097409 L59.4813529,113.097409 C62.7305215,113.097409 65.5732165,111.191458 67.1440992,108.355425 C67.9574828,108.754168 68.8119068,109.056087 69.6973292,109.246396 C69.7366231,109.25355 73.6555343,110.097778 77.1994071,111.294005 C114.550875,123.899707 129.516173,144.920022 129.654575,145.117485 C131.479558,147.776087 133.52939,149.123035 135.748185,149.123035 C137.941221,149.123035 139.860073,147.76464 140.879968,145.489995 C141.46501,144.184065 141.749673,142.620575 141.749673,140.712715 L141.749673,8.62876965 C141.749673,0.455501355 136.363789,0.218926829 135.749931,0.218926829 Z M9.39645691,89.2940054 C7.4396688,89.2940054 6.27194561,88.7946233 5.96685083,88.5594797 L5.96685083,61.7602602 C6.27194561,61.5255935 7.4396688,61.0262114 9.39645691,61.0262114 C11.3540194,61.0262114 12.5240656,61.5255935 12.8268374,61.7602602 L12.8268374,88.5594797 C12.5240656,88.7946233 11.3540194,89.2940054 9.39645691,89.2940054 Z M59.8515887,164.639176 C59.9489503,165.078938 59.9096564,165.389919 59.8258294,165.505821 C59.742439,165.619339 59.4748039,165.734764 59.0617814,165.734764 L47.023005,165.734764 C45.3822665,165.734764 43.4686538,164.087805 43.0835736,162.34593 L32.2144455,113.097409 L48.4760059,113.097409 L59.8515887,164.639176 Z M21.7871554,103.308184 L21.7871554,46.0333008 L59.4830993,46.0333008 L59.4830993,95.6934417 L59.4830993,95.7292141 L59.4830993,103.308184 L21.7871554,103.308184 Z M132.790664,134.344759 C125.810322,126.716661 109.349236,111.899274 79.8447595,101.942634 C75.8319795,100.588054 71.5952244,99.6770515 71.4162188,99.6398482 C69.8881229,99.3116965 68.4421075,97.3947751 68.4421075,95.6934417 L68.4421075,53.6423198 C68.4421075,51.9414634 69.8881229,50.024065 71.4162188,49.6982981 C71.593478,49.6610949 75.8302331,48.752 79.8430131,47.3993279 C109.343997,37.4631978 125.806829,22.6396098 132.790664,15.0048347 L132.790664,134.344759 Z" id="Fill-4" fill="#000000" mask="url(#mask-2)"></path>
                </g>
            </g>
        </g>
    </g>
</svg>