<?xml version="1.0" encoding="UTF-8"?>
<svg width="128px" height="128px" viewBox="0 0 128 128" version="1.1" xmlns="http://www.w3.org/2000/svg" xmlns:xlink="http://www.w3.org/1999/xlink">
    <!-- Generator: Sketch 47.1 (45422) - http://www.bohemiancoding.com/sketch -->
    <title>minus-circle</title>
    <desc>Created with Sketch.</desc>
    <defs></defs>
    <g id="iconos" stroke="none" stroke-width="1" fill="none" fill-rule="evenodd">
        <g id="minus-circle" fill-rule="nonzero">
            <path d="M64.5,126 C29.9822031,126 2,98.0177969 2,63.5 C2,28.9822031 29.9822031,1 64.5,1 C99.0177969,1 127,28.9822031 127,63.5 C127,98.0177969 99.0177969,126 64.5,126 Z M64.5,116 C93.4949494,116 117,92.4949494 117,63.5 C117,34.5050506 93.4949494,11 64.5,11 C35.5050506,11 12,34.5050506 12,63.5 C12,92.4949494 35.5050506,116 64.5,116 Z" id="Oval" fill="#000000"></path>
            <path d="M38.5,70 L91.5,70 C94.5375661,70 97,67.5375661 97,64.5 C97,61.4624339 94.5375661,59 91.5,59 L38.5,59 C35.4624339,59 33,61.4624339 33,64.5 C33,67.5375661 35.4624339,70 38.5,70 Z" id="Line" fill="#121212"></path>
        </g>
    </g>
</svg>