<?xml version="1.0" encoding="UTF-8" standalone="no"?>
<svg width="180px" height="180px" viewBox="0 0 180 180" version="1.1" xmlns="http://www.w3.org/2000/svg" xmlns:xlink="http://www.w3.org/1999/xlink">
    <!-- Generator: Sketch 3.6 (26304) - http://www.bohemiancoding.com/sketch -->
    <title>move</title>
    <desc>Created with Sketch.</desc>
    <defs></defs>
    <g id="iconos" stroke="none" stroke-width="1" fill="none" fill-rule="evenodd">
        <g id="move" fill="#000000">
            <g transform="translate(2.000000, 1.000000)" id="Shape">
                <path d="M175.676,85.5345263 L146.307579,56.1661053 C144.398632,54.2571579 141.295368,54.2571579 139.386421,56.1661053 C137.477474,58.0750526 137.477474,61.1783158 139.386421,63.0872632 L160.394632,84.0954737 L93.8947368,84.0954737 L93.8947368,17.5955789 L114.902947,38.6037895 C115.862316,39.5631579 117.115368,40.0330526 118.368421,40.0330526 C119.621474,40.0330526 120.874526,39.5533684 121.833895,38.6037895 C123.742842,36.6948421 123.742842,33.5915789 121.833895,31.6826316 L92.4654737,2.31421053 C90.5565263,0.405263158 87.4532632,0.405263158 85.5443158,2.31421053 L56.1758947,31.6826316 C54.2669474,33.5915789 54.2669474,36.6948421 56.1758947,38.6037895 C58.0848421,40.5127368 61.1881053,40.5127368 63.0970526,38.6037895 L84.1052632,17.5955789 L84.1052632,84.0954737 L17.6053684,84.0954737 L38.6135789,63.0872632 C40.5225263,61.1783158 40.5225263,58.0750526 38.6135789,56.1661053 C36.7046316,54.2571579 33.6013684,54.2571579 31.6924211,56.1661053 L2.324,85.5345263 C0.415052632,87.4434737 0.415052632,90.5467368 2.324,92.4556842 L31.6924211,121.824105 C32.6517895,122.783474 33.9048421,123.253368 35.1578947,123.253368 C36.4109474,123.253368 37.664,122.773684 38.6233684,121.824105 C40.5323158,119.915158 40.5323158,116.811895 38.6233684,114.902947 L17.6151579,93.8947368 L84.1150526,93.8947368 L84.1150526,160.394632 L63.1068421,139.386421 C61.1978947,137.477474 58.0946316,137.477474 56.1856842,139.386421 C54.2767368,141.295368 54.2767368,144.398632 56.1856842,146.307579 L85.5541053,175.676 C86.5134737,176.635368 87.7665263,177.105263 89.0195789,177.105263 C90.2726316,177.105263 91.5256842,176.625579 92.4850526,175.676 L121.853474,146.307579 C123.762421,144.398632 123.762421,141.295368 121.853474,139.386421 C119.944526,137.477474 116.841263,137.477474 114.932316,139.386421 L93.9241053,160.394632 L93.9241053,93.8947368 L160.424,93.8947368 L139.415789,114.902947 C137.506842,116.811895 137.506842,119.915158 139.415789,121.824105 C140.375158,122.783474 141.628211,123.253368 142.881263,123.253368 C144.134316,123.253368 145.387368,122.773684 146.346737,121.824105 L175.715158,92.4556842 C177.624105,90.5467368 177.624105,87.4434737 175.715158,85.5345263 L175.676,85.5345263 Z"></path>
            </g>
        </g>
    </g>
</svg>