<?xml version="1.0" encoding="UTF-8"?>
<svg width="180px" height="180px" viewBox="0 0 180 180" version="1.1" xmlns="http://www.w3.org/2000/svg" xmlns:xlink="http://www.w3.org/1999/xlink">
    <!-- Generator: Sketch 40.1 (33804) - http://www.bohemiancoding.com/sketch -->
    <title>movil</title>
    <desc>Created with Sketch.</desc>
    <defs></defs>
    <g id="iconos" stroke="none" stroke-width="1" fill="none" fill-rule="evenodd">
        <g id="movil" fill="#000000">
            <path d="M50.0069347,0 L129.993065,0 C138.281166,0 145,6.71416254 145,14.9985859 L145,165.001414 C145,173.284904 138.284594,180 129.993065,180 L50.0069347,180 C41.7188335,180 35,173.285837 35,165.001414 L35,14.9985859 C35,6.71509563 41.7154063,0 50.0069347,0 Z M42,165.001414 C42,169.418582 45.5835653,173 50.0069347,173 L129.993065,173 C134.418041,173 138,169.419469 138,165.001414 L138,14.9985859 C138,10.5814177 134.416435,7 129.993065,7 L50.0069347,7 C45.5819586,7 42,10.5805306 42,14.9985859 L42,165.001414 Z" id="Combined-Shape"></path>
            <path d="M95.5,19 C97.4329966,19 99,17.4329966 99,15.5 C99,13.5670034 97.4329966,12 95.5,12 L84.5,12 C82.5670034,12 81,13.5670034 81,15.5 C81,17.4329966 82.5670034,19 84.5,19 L95.5,19 Z M134.859813,148 L138,148 L138,141 L134.859813,141 L45.1401869,141 L42,141 L42,148 L45.1401869,148 L134.859813,148 Z M134.8,30 L138,30 L138,23 L134.8,23 L45.2,23 L42,23 L42,30 L45.2,30 L134.8,30 Z" id="Line-Copy"></path>
            <path d="M99,160 C99,155.029437 94.9705627,151 90,151 C85.0294373,151 81,155.029437 81,160 C81,164.970563 85.0294373,169 90,169 C94.9705627,169 99,164.970563 99,160 Z M87,160 C87,158.343146 88.3431458,157 90,157 C91.6568542,157 93,158.343146 93,160 C93,161.656854 91.6568542,163 90,163 C88.3431458,163 87,161.656854 87,160 Z" id="Oval"></path>
        </g>
    </g>
</svg>