<?xml version="1.0" encoding="UTF-8"?>
<svg width="152px" height="152px" viewBox="0 0 152 152" version="1.1" xmlns="http://www.w3.org/2000/svg" xmlns:xlink="http://www.w3.org/1999/xlink">
    <!-- Generator: Sketch 43.1 (39012) - http://www.bohemiancoding.com/sketch -->
    <title>music</title>
    <desc>Created with Sketch.</desc>
    <defs></defs>
    <g id="Page-1" stroke="none" stroke-width="1" fill="none" fill-rule="evenodd">
        <g id="music" stroke="#000000" stroke-width="2" fill="#000000" fill-rule="nonzero">
            <g id="music-note" transform="translate(4.000000, 2.000000)">
                <path d="M129.226175,0.596226148 L56.1759777,17.0926018 C54.5954371,17.4472739 53.4465567,19.1546488 53.4465567,21.1507102 L53.4465567,115.171803 C52.5433907,114.41297 51.5472516,113.695378 50.4714214,113.027274 C44.9992975,109.629021 37.8071736,107.756682 30.2033121,107.756682 C22.5994506,107.756682 15.4073266,109.629021 9.93520276,113.027274 C3.73257689,116.879178 0.3191404,122.33123 0.3191404,128.377152 C0.3191404,134.423074 3.73257689,139.883374 9.93520276,143.727029 C15.4073266,147.125283 22.5994506,148.997621 30.2033121,148.997621 C37.8071736,148.997621 44.9992975,147.125283 50.4714214,143.727029 C56.6740472,139.875126 60.0874837,134.423074 60.0874837,128.377152 L60.0874837,58.8719324 L126.496754,43.6375295 L126.496754,98.6754275 C125.593588,97.9165943 124.597449,97.1990019 123.521619,96.5308988 C118.049495,93.1326453 110.857371,91.2603067 103.25351,91.2603067 C95.6496481,91.2603067 88.4575241,93.1326453 82.9854002,96.5308988 C76.7827743,100.382802 73.3693378,105.834855 73.3693378,111.880776 C73.3693378,117.926698 76.7827743,123.386998 82.9854002,127.230654 C88.4575241,130.628907 95.6496481,132.501246 103.25351,132.501246 C110.857371,132.501246 118.049495,130.628907 123.521619,127.230654 C129.724245,123.37875 133.137681,117.926698 133.137681,111.880776 L133.137681,4.65433455 C133.137681,3.43360275 132.69938,2.27060827 131.942314,1.48703044 C131.19189,0.70345259 130.195751,0.373525078 129.226175,0.596226148 Z M30.209953,140.749433 C16.9081761,140.749433 6.96670837,134.216869 6.96670837,128.377152 C6.96670837,122.537435 16.9081761,116.00487 30.209953,116.00487 C43.5117298,116.00487 53.4531976,122.537435 53.4531976,128.377152 C53.4531976,134.216869 43.5117298,140.749433 30.209953,140.749433 L30.209953,140.749433 Z M60.0941248,50.4835254 L60.0941248,25.9571552 L126.503395,10.9619497 L126.503395,36.6160732 L61.4527403,51.8504761 L60.0941248,50.4835254 Z M103.260151,124.253058 C89.9583737,124.253058 80.0169059,117.720493 80.0169059,111.880776 C80.0169059,106.041059 89.9583737,99.5084946 103.260151,99.5084946 C116.561927,99.5084946 126.503395,106.041059 126.503395,111.880776 C126.503395,117.720493 116.561927,124.253058 103.260151,124.253058 L103.260151,124.253058 Z" id="Shape"></path>
            </g>
        </g>
    </g>
</svg>