<?xml version="1.0" encoding="UTF-8"?>
<svg width="180px" height="180px" viewBox="0 0 180 180" version="1.1" xmlns="http://www.w3.org/2000/svg" xmlns:xlink="http://www.w3.org/1999/xlink">
    <!-- Generator: Sketch 40.1 (33804) - http://www.bohemiancoding.com/sketch -->
    <title>newspaper</title>
    <desc>Created with Sketch.</desc>
    <defs></defs>
    <g id="iconos" stroke="none" stroke-width="1" fill="none" fill-rule="evenodd">
        <g id="newspaper" fill="#000000">
            <path d="M36.6791111,147.122389 L36.6791111,21.1093156 L36.6739615,20.9064121 C36.67578,20.9458157 36.67578,20.9458157 36.6760918,20.9569447 C36.674676,20.903283 36.6763434,20.7938416 36.6860588,20.6384937 C36.7021997,20.3804006 36.7357212,20.0933386 36.7907022,19.7871831 C36.9400007,18.9558308 37.2179377,18.1398075 37.6434922,17.401109 C38.9645836,15.1078932 41.5417718,13.6994728 46.4047517,13.6994728 C52.2463168,13.6994729 72.3858426,13.6545996 102.321765,13.5782819 C104.361167,13.5730827 106.435298,13.567764 108.541461,13.5623337 C120.17599,13.532337 132.306243,13.5001977 144.212971,13.4680585 C148.380324,13.4568097 152.222071,13.4463645 155.648303,13.4369905 C157.555214,13.4317678 157.555214,13.4317678 158.821838,13.4282861 C159.745843,13.4257417 159.745843,13.4257417 159.939655,13.4252059 C159.907952,13.4252212 159.971864,13.4280175 160.1067,13.4406592 C160.388605,13.4670893 160.717273,13.5168666 161.079168,13.5960359 C162.132019,13.8263608 163.184754,14.2408999 164.151179,14.8751546 C166.893446,16.6748751 168.625372,19.9534522 168.755817,25.6229824 L168.754776,25.5194724 L168.38421,154.391615 L168.384193,154.403368 C168.385151,154.426113 168.379196,154.631237 168.362332,154.902093 C168.331928,155.390428 168.276259,155.943784 168.189049,156.543843 C167.941008,158.250531 167.496518,159.949439 166.823791,161.492151 C165.052006,165.555251 162.142586,167.778915 157.228525,167.778916 C150.998999,167.778918 127.936952,167.848128 93.3644513,167.965653 C91.2270013,167.972919 89.0558869,167.980335 86.8535007,167.987893 C73.5338963,168.033603 59.6181664,168.082577 45.9392653,168.131551 C41.1516523,168.148692 36.7356125,168.164609 32.7952667,168.178893 C30.6020398,168.186851 30.6020398,168.186851 29.1448128,168.192157 C28.0816159,168.196034 28.0816159,168.196034 27.8585401,168.19685 L27.7497609,168.198728 C27.7730126,168.198081 27.7730126,168.198081 27.7733012,168.19809 C27.3188375,168.205298 26.546217,168.157835 25.5780591,167.999497 C24.0381824,167.747656 22.5176067,167.284287 21.1310605,166.573378 C17.098197,164.505652 14.7389816,160.731154 14.7389814,154.097849 C14.738981,135.154189 14.738981,135.154189 14.7389811,102.923454 C14.7389811,86.3424375 14.7389811,86.3424375 14.7389812,71.5704777 C14.7389813,61.8545497 14.7389813,61.8545497 14.7389813,54.819445 C14.7389814,49.4853157 14.7389814,49.4853157 14.7389814,48.2742643 C14.7386427,48.2216293 14.7386427,48.2216293 14.7387612,48.2335258 C14.737314,48.0662482 14.7713697,47.6520327 14.885941,47.087211 C15.0791179,46.1348739 15.4296997,45.1891735 15.9647973,44.3265585 C17.9156031,41.1817224 21.9440216,39.4933308 29.5617703,40.3841799 L30.490989,32.4383286 C19.9405287,31.2045168 12.8459672,34.1779909 9.16655125,40.1094682 C8.0949639,41.8369424 7.41708773,43.665525 7.04561463,45.4968392 C6.81211142,46.6479798 6.73306228,47.6094443 6.73906065,48.302739 C6.73928482,48.3248374 6.73928482,48.3248374 6.73956457,48.3425671 C6.73898136,49.4853156 6.73898136,49.4853156 6.73898132,54.8194449 C6.73898127,61.8545496 6.73898127,61.8545496 6.73898121,71.5704776 C6.73898113,86.3424375 6.73898113,86.3424375 6.73898108,102.923454 C6.73898104,135.154189 6.73898104,135.154189 6.73898137,154.097849 C6.73898173,163.763946 10.8050899,170.269293 17.4810988,173.692211 C19.6684767,174.813721 21.9744292,175.516421 24.2868441,175.894607 C25.7584071,176.135276 26.9975896,176.2114 27.9001702,176.197084 C27.9609742,176.195948 27.9609742,176.195948 27.9965949,176.194919 L27.8878157,176.196797 C28.1108296,176.195981 28.1108296,176.195981 29.1739593,176.192104 C30.6311165,176.186798 30.6311165,176.186798 32.8242673,176.17884 C36.7644975,176.164556 41.1804183,176.14864 45.9679073,176.1315 C59.6464401,176.082527 73.5617871,176.033554 86.8809545,175.987846 C89.0832556,175.980289 91.2542838,175.972872 93.391646,175.965606 C127.947216,175.84814 151.01304,175.778918 157.228527,175.778916 C165.577102,175.778914 171.193051,171.486654 174.156902,164.689882 C175.141342,162.43234 175.762141,160.059556 176.105875,157.694434 C176.313293,156.267265 176.384227,155.127959 176.384193,154.40293 L176.384193,154.402867 L176.754743,25.542476 L176.753701,25.438966 C176.56411,17.198819 173.53501,11.4646604 168.540614,8.18689177 C166.699472,6.97856975 164.744098,6.20859523 162.78884,5.78085707 C161.584841,5.5174665 160.600951,5.42522122 159.928598,5.42522122 C159.723781,5.42577208 159.723781,5.42577208 158.799831,5.42831633 C157.533264,5.43179796 157.533264,5.43179796 155.626416,5.43702044 C152.200278,5.44639415 148.358629,5.45683914 144.191377,5.46808761 C132.28495,5.50022607 120.155008,5.53236451 108.520835,5.56236033 C106.414748,5.56779035 104.340694,5.57310887 102.30137,5.57830786 C72.3772496,5.65459554 52.2358881,5.69947295 46.4047518,5.69947284 C38.7507156,5.6994727 33.4985708,8.56974337 30.7114997,13.4076795 C29.7927231,15.0025373 29.2199972,16.6840607 28.9166667,18.3731233 C28.7188691,19.4745371 28.6593187,20.4267448 28.6788749,21.1679464 C28.6816283,21.2567918 28.6816283,21.2567918 28.6842606,21.3122191 L28.6791111,21.1093156 L28.6791111,147.122389 L36.6791111,147.122389 L36.6791111,147.122389 Z" id="Path-163"></path>
            <path d="M148.5,120 C150.432997,120 152,118.432997 152,116.5 C152,114.567003 150.432997,113 148.5,113 L55.5,113 C53.5670034,113 52,114.567003 52,116.5 C52,118.432997 53.5670034,120 55.5,120 L148.5,120 Z" id="Line-Copy-3"></path>
            <path d="M149.5,147 C151.432997,147 153,145.432997 153,143.5 C153,141.567003 151.432997,140 149.5,140 L56.5,140 C54.5670034,140 53,141.567003 53,143.5 C53,145.432997 54.5670034,147 56.5,147 L149.5,147 Z" id="Line-Copy-4"></path>
            <path d="M60,86.9999617 C60,86.444211 59.5563461,86 58.9982596,86 L148.00174,86 C147.451653,86 147,86.4521846 147,86.9999617 L147,39.0000383 C147,39.555789 147.443654,40 148.00174,40 L58.9982596,40 C59.5483474,40 60,39.5478154 60,39.0000383 L60,86.9999617 Z M58.9982596,33 L148.00174,33 C151.314488,33 154,35.6946371 154,39.0000383 L154,86.9999617 C154,90.3136914 151.322132,93 148.00174,93 L58.9982596,93 C55.6855123,93 53,90.3053629 53,86.9999617 L53,39.0000383 C53,35.6863086 55.6778684,33 58.9982596,33 Z" id="Rectangle-15"></path>
        </g>
    </g>
</svg>