<?xml version="1.0" encoding="UTF-8"?>
<svg width="128px" height="128px" viewBox="0 0 128 128" version="1.1" xmlns="http://www.w3.org/2000/svg" xmlns:xlink="http://www.w3.org/1999/xlink">
    <!-- Generator: Sketch 47.1 (45422) - http://www.bohemiancoding.com/sketch -->
    <title>newspaper</title>
    <desc>Created with Sketch.</desc>
    <defs></defs>
    <g id="iconos" stroke="none" stroke-width="1" fill="none" fill-rule="evenodd">
        <g id="newspaper" fill-rule="nonzero" fill="#000000">
            <path d="M9.06595199,49.8148524 C9.06595199,50.4774495 9.06595199,67.1189695 9.06595199,99.7394125 C9.06595199,112.37811 16.2247545,118 30.5480152,118 L110.64686,118 C114.512854,118 117.64686,114.865993 117.64686,111 L117.64686,17 C117.64686,13.1340068 114.512854,10 110.64686,10 L41.6468603,10 C37.7808671,10 34.6468603,13.1340068 34.6468603,17 L34.6468603,96.3814423 C34.6468603,101.418864 34.7177242,104.560799 29.009285,104.560799 C23.3008457,104.560799 23.4900575,99.142866 23.4900575,96.3814423 C23.4900575,94.5001171 23.4900575,92.7929839 23.4900575,91.2600428 C23.4900575,83.9273282 23.4900575,62.9712469 23.4900575,59.8163899 C23.4900575,56.6202391 24.4970614,36.3474595 23.4900575,36.422544 C15.0161344,37.0543785 9.06595199,38.3629808 9.06595199,49.8148524 Z M24.6468603,17 C24.6468603,7.61115925 32.2580196,1.25825276e-15 41.6468603,0 L110.64686,0 C120.035701,-1.25825276e-15 127.64686,7.61115925 127.64686,17 L127.64686,111 C127.64686,120.388841 120.035701,128 110.64686,128 C76.089826,128 50.1720503,128 32.8935332,128 C32.372307,128 31.5904677,128 30.5480152,128 C10.8951917,128 0.0659519942,118.114832 0.0659519942,99.7394125 C0.0659519942,76.5106644 0.0659519942,76.4670746 0.0659519942,53.2782789 C-0.831652502,35.7190226 7.86535535,25.9846465 24.5482899,26.3556068 C24.5702494,26.3560951 24.6031062,23.2375595 24.6468603,17 Z" id="Rectangle-2"></path>
            <path d="M51,21 L102,21 C105.313708,21 108,23.6862915 108,27 L108,58 C108,61.3137085 105.313708,64 102,64 L51,64 C47.6862915,64 45,61.3137085 45,58 L45,27 C45,23.6862915 47.6862915,21 51,21 Z M55,27 C52.790861,27 51,28.790861 51,31 L51,31 L51,54 C51,56.209139 52.790861,58 55,58 L98,58 C100.209139,58 102,56.209139 102,54 L102,31 C102,28.790861 100.209139,27 98,27 L55,27 Z" id="Rectangle-3"></path>
            <path d="M50,80.5 L104,80.5 C106.761424,80.5 109,78.9329966 109,77 C109,75.0670034 106.761424,73.5 104,73.5 L50,73.5 C47.2385763,73.5 45,75.0670034 45,77 C45,78.9329966 47.2385763,80.5 50,80.5 Z" id="Line"></path>
            <path d="M50,98.5 L104,98.5 C106.761424,98.5 109,96.9329966 109,95 C109,93.0670034 106.761424,91.5 104,91.5 L50,91.5 C47.2385763,91.5 45,93.0670034 45,95 C45,96.9329966 47.2385763,98.5 50,98.5 Z" id="Line"></path>
        </g>
    </g>
</svg>