<?xml version="1.0" encoding="UTF-8"?>
<svg width="128px" height="128px" viewBox="0 0 128 128" version="1.1" xmlns="http://www.w3.org/2000/svg" xmlns:xlink="http://www.w3.org/1999/xlink">
    <!-- Generator: Sketch 47.1 (45422) - http://www.bohemiancoding.com/sketch -->
    <title>off</title>
    <desc>Created with Sketch.</desc>
    <defs></defs>
    <g id="iconos" stroke="none" stroke-width="1" fill="none" fill-rule="evenodd">
        <g id="off" fill-rule="nonzero" fill="#000000">
            <path d="M59,6.36476961 L59,68.2444742 C59,71.7596394 61.2385763,74.6092438 64,74.6092438 C66.7614237,74.6092438 69,71.7596394 69,68.2444742 L69,6.36476961 C69,2.84960442 66.7614237,0 64,0 C61.2385763,0 59,2.84960442 59,6.36476961 Z" id="Line"></path>
            <path d="M35.8134498,27.9318713 C19.9065961,37.6832675 10,54.9908472 10,74 C10,103.823376 34.1766235,128 64,128 C93.8233765,128 118,103.823376 118,74 C118,54.5931461 107.672686,36.9764888 91.228122,27.3578821 C88.8445008,25.9636758 85.7819666,26.7657551 84.3877603,29.1493762 C82.993554,31.5329974 83.7956332,34.5955317 86.1792544,35.989738 C99.5879174,43.8326127 108,58.1822081 108,74 C108,98.300529 88.300529,118 64,118 C39.699471,118 20,98.300529 20,74 C20,58.5058984 28.0688227,44.4090492 41.0398629,36.457398 C43.3941221,35.0141638 44.1326538,31.9356872 42.6894197,29.581428 C41.2461855,27.2271689 38.1677089,26.4886371 35.8134498,27.9318713 Z" id="Oval-14"></path>
        </g>
    </g>
</svg>