<?xml version="1.0" encoding="UTF-8"?>
<svg width="128px" height="128px" viewBox="0 0 128 128" version="1.1" xmlns="http://www.w3.org/2000/svg" xmlns:xlink="http://www.w3.org/1999/xlink">
    <!-- Generator: Sketch 47.1 (45422) - http://www.bohemiancoding.com/sketch -->
    <title>off</title>
    <desc>Created with Sketch.</desc>
    <defs></defs>
    <g id="iconos" stroke="none" stroke-width="1" fill="none" fill-rule="evenodd">
        <g id="off" fill-rule="nonzero" fill="#000000">
            <path d="M57.9098439,6.36476961 L57.9098439,68.2444742 C57.9098439,71.7596394 60.6661956,74.6092438 64.0663277,74.6092438 C67.4664599,74.6092438 70.2228116,71.7596394 70.2228116,68.2444742 L70.2228116,6.36476961 C70.2228116,2.84960442 67.4664599,0 64.0663277,0 C60.6661956,0 57.9098439,2.84960442 57.9098439,6.36476961 Z" id="Line"></path>
            <path d="M32.0314785,31.0130595 C17.6969137,40.9820958 9,57.0458271 9,74.5288313 C9,104.089389 33.6531771,128 64,128 C94.3468229,128 119,104.089389 119,74.5288313 C119,55.6649004 108.868349,38.5081237 92.6344208,28.8677344 C89.721623,27.1379926 85.9448845,28.0750006 84.1988392,30.9606005 C82.4527939,33.8462004 83.3986336,37.587674 86.3114314,39.3174159 C98.8930079,46.7888853 106.701863,60.0122765 106.701863,74.5288313 C106.701863,97.3022422 87.6124262,115.816696 64,115.816696 C40.3875738,115.816696 21.2981366,97.3022422 21.2981366,74.5288313 C21.2981366,61.0758773 27.9953863,48.7056478 39.0975642,40.9845892 C41.8770795,39.0515631 42.5485247,35.2523328 40.597279,32.4987709 C38.6460333,29.745209 34.8109938,29.0800333 32.0314785,31.0130595 Z" id="Oval-12"></path>
        </g>
    </g>
</svg>