<?xml version="1.0" encoding="UTF-8"?>
<svg width="180px" height="180px" viewBox="0 0 180 180" version="1.1" xmlns="http://www.w3.org/2000/svg" xmlns:xlink="http://www.w3.org/1999/xlink">
    <!-- Generator: Sketch 47.1 (45422) - http://www.bohemiancoding.com/sketch -->
    <title>off</title>
    <desc>Created with Sketch.</desc>
    <defs></defs>
    <g id="iconos" stroke="none" stroke-width="1" fill="none" fill-rule="evenodd">
        <g id="off" fill-rule="nonzero" fill="#000000">
            <path d="M81.5,9.5 L81.5,97 C81.5,101.970563 85.5294373,106 90.5,106 C95.4705627,106 99.5,101.970563 99.5,97 L99.5,9.5 C99.5,4.52943725 95.4705627,0.5 90.5,0.5 C85.5294373,0.5 81.5,4.52943725 81.5,9.5 Z" id="Line"></path>
            <path d="M43.7097095,36.7084191 C22.7291192,51.4369894 10,75.1700553 10,101 C10,144.673706 46.0832865,180 90.5,180 C134.916714,180 171,144.673706 171,101 C171,73.1298304 156.170947,47.7818645 132.41038,33.5388478 C128.147103,30.9832724 122.619331,32.3676378 120.063756,36.6309145 C117.50818,40.8941912 118.892546,46.4219631 123.155822,48.9775385 C141.570675,60.0161242 153,79.5527817 153,101 C153,134.646159 125.060006,162 90.5,162 C55.9399943,162 28,134.646159 28,101 C28,81.1241793 37.8023381,62.84801 54.0518895,51.4406733 C58.1200891,48.5847591 59.1028407,42.9716558 56.2469265,38.9034562 C53.3910124,34.8352565 47.7779091,33.8525049 43.7097095,36.7084191 Z" id="Oval-12"></path>
        </g>
    </g>
</svg>