<?xml version="1.0" encoding="utf-8"?>
<!-- Generator: Adobe Illustrator 19.2.0, SVG Export Plug-In . SVG Version: 6.00 Build 0)  -->
<svg version="1.1" id="Capa_1" xmlns="http://www.w3.org/2000/svg" xmlns:xlink="http://www.w3.org/1999/xlink" x="0px" y="0px"
	 viewBox="0 0 256 256" style="enable-background:new 0 0 256 256;" xml:space="preserve">
<style type="text/css">
	.st0{fill:#020304;}
</style>
<g>
	<path class="st0" d="M197,67.5c-5.5-5.5-12-10.6-19.3-15.1l-1.9-1.1l-0.2-0.1c-0.7-0.2-1.7-0.6-3-0.6c-4.8,0-8.7,3.9-8.7,8.7
		c0,3.1,1.7,6,4.5,7.5l0.5,0.3c25.6,15.6,40.9,42.7,40.9,72.5c0,46.8-38.1,84.9-84.9,84.9S40,186.5,40,139.6
		c0-29.8,15.3-56.9,41-72.5l0.3-0.2c2.8-1.5,4.6-4.4,4.6-7.6c0-4.8-3.9-8.7-8.7-8.7c-1.3,0-2.4,0.4-3.3,0.7L72,52.5
		c-7.2,4.4-13.6,9.4-19.2,15c-19.3,19.3-29.9,44.9-29.9,72.1c0,27.3,10.6,52.9,29.9,72.1c19.3,19.3,44.9,29.9,72.1,29.9
		c27.3,0,52.9-10.6,72.1-29.9c19.3-19.3,29.9-44.9,29.9-72.1C226.9,112.4,216.3,86.8,197,67.5z"/>
	<path class="st0" d="M116.7,135.6c0,0.3,0.1,0.5,0.2,0.6c0.8,7.5,5.8,8.6,8.8,8.6c3.8,0,6.5-1.7,7.8-4.9c1-2.4,1-5.2,1-6.6V21.3
		c0-1.5,0-4.2-1-6.6c-1.4-3.2-4.1-4.9-7.8-4.9c-3,0-8,1.1-8.8,8.9l0,0.2c0,0.2,0,0.4,0,0.6h-0.3v113.8c0,0.4,0.1,0.8,0.1,1.3
		C116.6,134.9,116.7,135.2,116.7,135.6z"/>
</g>
</svg>
