<?xml version="1.0" encoding="UTF-8"?>
<svg width="180px" height="180px" viewBox="0 0 180 180" version="1.1" xmlns="http://www.w3.org/2000/svg" xmlns:xlink="http://www.w3.org/1999/xlink">
    <!-- Generator: Sketch 40.1 (33804) - http://www.bohemiancoding.com/sketch -->
    <title>order</title>
    <desc>Created with Sketch.</desc>
    <defs></defs>
    <g id="iconos" stroke="none" stroke-width="1" fill="none" fill-rule="evenodd">
        <g id="order" fill="#000000">
            <path d="M112,28.3137255 L153.006999,28.3137255 C154.654809,28.3137255 156,29.6748112 156,31.33869 L156,169.891002 C156,171.562128 154.661108,172.915966 153.006999,172.915966 L29.9930009,172.915966 C28.3451914,172.915966 27,171.554881 27,169.891002 L27,31.33869 C27,29.6675639 28.3388922,28.3137255 29.9930009,28.3137255 L65,28.3137255 L65,35.438443 C65,38.2371669 67.2385905,40.4929972 70.0000319,40.4929972 L109.999968,40.4929972 C112.754469,40.4929972 115,38.2299962 115,35.438443 L115,28.3137255 L112,28.3137255 Z M153.006999,19.7184874 C159.078266,19.7184874 164,24.7066655 164,30.8330878 L164,169.3854 C164,175.523824 159.079865,180.5 153.006999,180.5 L28.9930009,180.5 C22.9217341,180.5 18,175.511822 18,169.3854 L18,30.8330878 C18,24.6946635 22.9201353,19.7184874 28.9930009,19.7184874 L65,19.7184874 L65,15.166599 C65,13.9570114 65.4216013,12.8466601 66.1235291,11.976648 C66.4611302,11.4852341 66.9187232,11.0844594 67.4534169,10.8176955 C68.1999893,10.3694392 69.0710654,10.1120448 70.0000319,10.1120448 L76.0871408,10.1120448 C76.2762414,9.50933834 76.7069467,8.22161779 77.2441403,7.15736474 C79.4845201,2.71886919 83.7697046,8.98129999e-16 90,0 C96.2302954,0 100.51548,2.71886919 102.75586,7.15736474 C103.163632,7.96521628 103.633587,9.42761629 103.844164,10.1120448 L109.999968,10.1120448 C110.94475,10.1120448 111.82833,10.376102 112.581993,10.8356156 C113.087074,11.0948578 113.521606,11.4743615 113.848731,11.9368553 C114.567712,12.8116944 115,13.9367283 115,15.166599 L115,19.7184874 L153.006999,19.7184874 Z M71,17.1862733 C71,16.6301217 71.4532303,16.1792717 71.9968754,16.1792717 L108.003125,16.1792717 C108.553684,16.1792717 109,16.6303113 109,17.1862733 L109,33.4187687 C109,33.9749203 108.54677,34.4257703 108.003125,34.4257703 L71.9968754,34.4257703 C71.4463163,34.4257703 71,33.9747308 71,33.4187687 L71,17.1862733 Z" id="Combined-Shape"></path>
            <path d="M136.27065,74.1600036 C138.388662,74.1600036 140.105651,72.4430151 140.105651,70.3250026 C140.105651,68.20699 138.388662,66.4900016 136.27065,66.4900016 L85.5690562,66.4900016 C83.4510436,66.4900016 81.7340552,68.20699 81.7340552,70.3250026 C81.7340552,72.4430151 83.4510436,74.1600036 85.5690562,74.1600036 L136.27065,74.1600036 Z" id="Line"></path>
            <path d="M87.7038775,112.510013 C90.2682433,112.510013 92.3470726,110.793025 92.3470726,108.675012 C92.3470726,106.557 90.2682433,104.840011 87.7038775,104.840011 L86.3772503,104.840011 C83.8128844,104.840011 81.7340552,106.557 81.7340552,108.675012 C81.7340552,110.793025 83.8128844,112.510013 86.3772503,112.510013 L87.7038775,112.510013 Z M103.623404,112.510013 C106.187769,112.510013 108.266599,110.793025 108.266599,108.675012 C108.266599,106.557 106.187769,104.840011 103.623404,104.840011 L102.296776,104.840011 C99.7324105,104.840011 97.6535813,106.557 97.6535813,108.675012 C97.6535813,110.793025 99.7324105,112.510013 102.296776,112.510013 L103.623404,112.510013 Z M119.54293,112.510013 C122.107295,112.510013 124.186125,110.793025 124.186125,108.675012 C124.186125,106.557 122.107295,104.840011 119.54293,104.840011 L118.216302,104.840011 C115.651937,104.840011 113.573107,106.557 113.573107,108.675012 C113.573107,110.793025 115.651937,112.510013 118.216302,112.510013 L119.54293,112.510013 Z M135.462456,112.510013 C138.026822,112.510013 140.105651,110.793025 140.105651,108.675012 C140.105651,106.557 138.026822,104.840011 135.462456,104.840011 L134.135829,104.840011 C131.571463,104.840011 129.492633,106.557 129.492633,108.675012 C129.492633,110.793025 131.571463,112.510013 134.135829,112.510013 L135.462456,112.510013 Z" id="Line-Copy"></path>
            <path d="M135.256821,150.860023 C137.374833,150.860023 139.091822,149.143035 139.091822,147.025022 C139.091822,144.90701 137.374833,143.190021 135.256821,143.190021 L84.555227,143.190021 C82.4372145,143.190021 80.7202261,144.90701 80.7202261,147.025022 C80.7202261,149.143035 82.4372145,150.860023 84.555227,150.860023 L135.256821,150.860023 Z" id="Line-Copy-2"></path>
            <path d="M55.105044,81.0410161 C56.4620664,82.8826893 59.2385277,82.809549 60.4967049,80.8989836 L75.2888515,58.4368351 C76.287326,56.920633 75.8676249,54.8820849 74.3514229,53.8836104 C72.8352208,52.8851359 70.7966727,53.3048369 69.7981982,54.821039 L55.0060516,77.2831876 L60.3977124,77.1411551 L52.7277105,66.7318668 C51.6507936,65.2703367 49.5929758,64.9585461 48.1314458,66.035463 C46.6699157,67.1123799 46.3581252,69.1701977 47.435042,70.6317277 L55.105044,81.0410161 Z" id="Path-7"></path>
            <path d="M55.105044,119.391026 C56.4620664,121.232699 59.2385277,121.159559 60.4967049,119.248993 L75.2888515,96.7868448 C76.287326,95.2706428 75.8676249,93.2320947 74.3514229,92.2336202 C72.8352208,91.2351456 70.7966727,91.6548467 69.7981982,93.1710488 L55.0060516,115.633197 L60.3977124,115.491165 L52.7277105,105.081877 C51.6507936,103.620347 49.5929758,103.308556 48.1314458,104.385473 C46.6699157,105.46239 46.3581252,107.520207 47.435042,108.981737 L55.105044,119.391026 Z" id="Path-7-Copy"></path>
            <path d="M54.0093294,157.741036 C55.3663518,159.582709 58.1428131,159.509569 59.4009903,157.599003 L74.1931369,135.136855 C75.1916114,133.620653 74.7719104,131.582104 73.2557083,130.58363 C71.7395063,129.585155 69.7009582,130.004857 68.7024836,131.521059 L53.910337,153.983207 L59.3019979,153.841175 L51.6319959,143.431886 C50.555079,141.970356 48.4972612,141.658566 47.0357312,142.735483 C45.5742012,143.812399 45.2624106,145.870217 46.3393275,147.331747 L54.0093294,157.741036 Z" id="Path-7-Copy-2"></path>
        </g>
    </g>
</svg>