<?xml version="1.0" encoding="UTF-8"?>
<svg width="180px" height="180px" viewBox="0 0 180 180" version="1.1" xmlns="http://www.w3.org/2000/svg" xmlns:xlink="http://www.w3.org/1999/xlink">
    <!-- Generator: Sketch 40.1 (33804) - http://www.bohemiancoding.com/sketch -->
    <title>order-ok</title>
    <desc>Created with Sketch.</desc>
    <defs></defs>
    <g id="iconos" stroke="none" stroke-width="1" fill="none" fill-rule="evenodd">
        <g id="order-ok" fill="#000000">
            <path d="M115,28.3137255 L143.006999,28.3137255 C144.654809,28.3137255 146,29.6748112 146,31.33869 L146,169.891002 C146,171.562128 144.661108,172.915966 143.006999,172.915966 L37.9930009,172.915966 C36.3451914,172.915966 35,171.554881 35,169.891002 L35,31.33869 C35,29.6675639 36.3388922,28.3137255 37.9930009,28.3137255 L65,28.3137255 L65,39.438443 C65,42.2371669 67.2385905,44.4929972 70.0000319,44.4929972 L109.999968,44.4929972 C112.754469,44.4929972 115,42.2299962 115,39.438443 L115,28.3137255 L115,28.3137255 Z M115,19.7184874 L143.006999,19.7184874 C149.078266,19.7184874 154,24.7066655 154,30.8330878 L154,169.3854 C154,175.523824 149.079865,180.5 143.006999,180.5 L37.9930009,180.5 C31.9217341,180.5 27,175.511822 27,169.3854 L27,30.8330878 C27,24.6946635 31.9201353,19.7184874 37.9930009,19.7184874 L65,19.7184874 L65,15.166599 C65,13.9570114 65.4216013,12.8466601 66.1235291,11.976648 C66.4611302,11.4852341 66.9187232,11.0844594 67.4534169,10.8176955 C68.1999893,10.3694392 69.0710654,10.1120448 70.0000319,10.1120448 L76.0871408,10.1120448 C76.2762414,9.50933834 76.7069467,8.22161779 77.2441403,7.15736474 C79.4845201,2.71886919 83.7697046,8.98129999e-16 90,0 C96.2302954,0 100.51548,2.71886919 102.75586,7.15736474 C103.163632,7.96521628 103.633587,9.42761629 103.844164,10.1120448 L109.999968,10.1120448 C110.94475,10.1120448 111.82833,10.376102 112.581993,10.8356156 C113.087074,11.0948578 113.521606,11.4743615 113.848731,11.9368553 C114.567712,12.8116944 115,13.9367283 115,15.166599 L115,19.7184874 L115,19.7184874 Z M71,17.1783757 C71,16.6265858 71.4532303,16.1792717 71.9968754,16.1792717 L108.003125,16.1792717 C108.553684,16.1792717 109,16.623654 109,17.1783757 L109,37.4266663 C109,37.9784562 108.54677,38.4257703 108.003125,38.4257703 L71.9968754,38.4257703 C71.4463163,38.4257703 71,37.9813881 71,37.4266663 L71,17.1783757 Z" id="Combined-Shape"></path>
            <path d="M66,123.00145 C66,124.661679 67.3391869,126 68.9985496,126 L113.00145,126 C114.661679,126 116,124.660813 116,123.00145 L116,78.9985496 C116,77.3383214 114.660813,76 113.00145,76 L68.9985496,76 C67.3383214,76 66,77.3391869 66,78.9985496 L66,123.00145 Z M68.9985496,71 L113.00145,71 C117.418927,71 121,74.5735893 121,78.9985496 L121,123.00145 C121,127.418927 117.426411,131 113.00145,131 L68.9985496,131 C64.5810726,131 61,127.426411 61,123.00145 L61,78.9985496 C61,74.5810726 64.5735893,71 68.9985496,71 Z" id="Rectangle-9"></path>
            <path d="M85.4813269,118.051757 C86.5430918,119.392934 88.6079598,119.295592 89.5388447,117.860478 L109.322628,87.3604778 C110.074,86.202114 109.744067,84.6539679 108.585703,83.9025968 C107.427339,83.1512257 105.879193,83.4811584 105.127822,84.6395222 L85.3440382,115.139522 L89.401556,114.948243 L78.9601146,101.759053 C78.1031026,100.676512 76.530784,100.493684 75.4482426,101.350696 C74.3657013,102.207708 74.1828735,103.780027 75.0398854,104.862568 L85.4813269,118.051757 Z" id="Path-8"></path>
        </g>
    </g>
</svg>