<?xml version="1.0" encoding="UTF-8"?>
<svg width="152px" height="152px" viewBox="0 0 152 152" version="1.1" xmlns="http://www.w3.org/2000/svg" xmlns:xlink="http://www.w3.org/1999/xlink">
    <!-- Generator: Sketch 43.1 (39012) - http://www.bohemiancoding.com/sketch -->
    <title>paid-credit</title>
    <desc>Created with Sketch.</desc>
    <defs></defs>
    <g id="Page-1" stroke="none" stroke-width="1" fill="none" fill-rule="evenodd">
        <g id="paid-credit" fill-rule="nonzero" fill="#000000">
            <path d="M135.858407,24 C140.342183,24 144.377581,25.8025751 147.516224,28.5064378 C150.20649,31.6609442 152,35.7167382 152,40.6738197 L152,115.030043 C152,122.690987 145.722714,129 138.100295,129 L13.899705,129 C6.27728614,129 0,122.690987 0,115.030043 L0,37.9699571 C0,30.3090129 6.27728614,24 13.899705,24 L135.858407,24 C135.410029,24 135.858407,24 135.858407,24 Z M5.90918442,50.7316033 L145.54556,50.7316033 C145.54556,50.7316033 146.119585,52.5299675 145.54556,40.728406 C144.971536,28.9268445 134.744359,30.4384007 134.744359,30.4384007 C134.744359,30.4384007 23.6553842,30.1214023 15.1543597,30.2034057 C6.65333515,30.2854092 6.11276513,37.4401084 6.11276513,37.4401084 L5.90918442,50.7316033 Z M5.82890855,77.0413971 L5.82890855,115.480687 C5.82890855,119.536481 9.4159292,123.141631 13.4513274,123.141631 L137.651917,123.141631 C141.687316,123.141631 145.274336,119.536481 145.274336,115.480687 L145.274336,77.7767999 M60.2796535,105.61819 C60.2796535,104.266258 59.3828984,103.364971 58.0377656,103.364971 L17.2354057,103.364971 C15.890273,103.364971 14.9935178,104.266258 14.9935178,105.61819 C14.9935178,106.970121 15.890273,107.871409 17.2354057,107.871409 L58.0377656,107.871409 C59.3828984,107.420765 60.2796535,106.519477 60.2796535,105.61819 Z M108.69872,105.61819 C108.69872,104.266258 107.801965,103.364971 106.456833,103.364971 L78.209045,103.364971 C76.8639122,103.364971 75.9671571,104.266258 75.9671571,105.61819 C75.9671571,106.970121 76.8639122,107.871409 78.209045,107.871409 L106.456833,107.871409 C107.353588,107.420765 108.69872,106.519477 108.69872,105.61819 Z" id="Combined-Shape"></path>
        </g>
    </g>
</svg>