<?xml version="1.0" encoding="UTF-8"?>
<svg width="152px" height="152px" viewBox="0 0 152 152" version="1.1" xmlns="http://www.w3.org/2000/svg" xmlns:xlink="http://www.w3.org/1999/xlink">
    <!-- Generator: Sketch 43.1 (39012) - http://www.bohemiancoding.com/sketch -->
    <title>pdf</title>
    <desc>Created with Sketch.</desc>
    <defs></defs>
    <g id="Page-1" stroke="none" stroke-width="1" fill="none" fill-rule="evenodd">
        <g id="pdf" fill="#000000">
            <path d="M113.339356,42.1842145 L113.339356,15.8691406 L106.989063,8.96894531 C106.989063,8.96894531 104.046875,8.96894531 104.046875,8.96894531 L104.339356,46.6842145 C104.339356,49.1694959 106.354075,51.1842145 108.839356,51.1842145 L143.017285,51.1842145 L143.017285,48.059375 L137.61123,42.1842145 L113.339356,42.1842145 Z" id="Path"></path>
            <path d="M137.249622,41.8550574 L106.944611,9 C103.689376,9 103.458732,9 98.8884806,9 L11.9986164,9 C10.3385333,9 9,10.3380229 9,11.9906395 L9,140.009361 C9,141.662811 10.3374418,143 11.9906395,143 L140.009361,143 C141.661632,143 143,141.660597 143,140.002349 L143,48.0893071 C140.512861,45.3928852 140.511817,45.3917534 137.249622,41.8550574 Z M0,11.9906395 C0,5.36839215 5.3670376,0 11.9986164,0 L110.887097,0 L152,44.5723914 L152,140.002349 C152,146.628469 146.634886,152 140.009361,152 L11.9906395,152 C5.36839215,152 0,146.634886 0,140.009361 L0,11.9906395 Z" id="Rectangle-10" fill-rule="nonzero"></path>
            <path d="M110.875029,93.53 C108.295678,88.8740741 96.9980718,85.9033333 87.0250623,85.3472222 C86.1219282,84.3794444 85.2115689,83.3635185 84.269901,82.3018519 C75.6889223,72.5037037 72.2184787,58.2566667 70.9300073,50.7142593 C70.7686474,49.1157407 70.6000623,47.7892593 70.4579692,46.7925926 C70.3471848,46.0125926 70.1015323,44.3659259 68.3891899,44.3659259 C67.844901,44.3659259 67.3174707,44.6018519 66.9417669,45.0159259 C66.330044,45.7116667 66.4239699,46.4627778 66.5275293,47.327037 C66.6479472,48.3164815 66.8382075,49.6405556 67.091085,51.1548148 C67.8256342,58.8103704 68.1724377,73.3968519 62.2743695,84.9812963 C61.6530132,86.185 61.0412903,87.342963 60.4392009,88.4527778 C49.4041056,91.6594444 40.4955902,97.3842593 39.1878519,102.124444 C38.7182221,103.845741 39.1324597,105.492407 40.346272,106.770741 C41.7647947,108.246481 43.4410117,109 45.3315726,109 C50.5528922,109 56.508761,103.188519 63.0185521,91.7340741 C65.9254399,90.9709259 68.8034274,90.4364815 71.587489,90.1548148 C72.6688416,90.0416667 74.4293512,89.8153704 75.5010704,89.6468519 C78.4753922,89.1942593 81.8422764,89.0064815 85.2958614,89.1196296 C93.3012427,97.4324074 99.839934,101.64537 104.740942,101.64537 C107.375685,101.64537 109.548024,100.367037 110.875029,98.0342593 C111.684238,96.5946296 111.693871,94.9961111 110.875029,93.53 Z M45.3315726,105.143333 C44.5127309,105.143333 43.8167155,104.813519 43.1303336,104.100926 C42.8485557,103.807222 42.7907551,103.564074 42.9039479,103.15 C43.5806965,100.704074 49.2258871,96.52 57.4865543,93.4722222 C52.8191569,100.836481 48.3516532,105.143333 45.3315726,105.143333 Z M74.9086144,85.8455556 C73.8922874,86.0068519 72.2281122,86.2235185 71.1925183,86.327037 C69.3212243,86.5148148 67.4017632,86.8061111 65.4630352,87.2105556 C65.5401026,87.0492593 65.6243952,86.8903704 65.7086877,86.7314815 C68.5963087,81.05 70.3833101,74.2418519 71.0528336,66.437037 C73.7044355,73.8566667 77.167654,80.0268519 81.3630132,84.832037 C81.4858394,84.9716667 81.6158908,85.1233333 81.738717,85.262963 C79.3110924,85.3207407 77.0255609,85.5277778 74.9086144,85.8455556 Z M107.51537,96.1444444 C106.877155,97.2735185 105.964388,97.7983333 104.65665,97.7983333 C101.598035,97.7983333 96.884879,94.9022222 91.2396884,89.5890741 C99.9699853,90.6796296 106.359359,93.322963 107.505737,95.3909259 C107.67673,95.6918519 107.67673,95.8531481 107.51537,96.1444444 Z" id="Fill-1" stroke="#000000" stroke-width="2"></path>
        </g>
    </g>
</svg>