<?xml version="1.0" encoding="UTF-8"?>
<svg width="128px" height="128px" viewBox="0 0 128 128" version="1.1" xmlns="http://www.w3.org/2000/svg" xmlns:xlink="http://www.w3.org/1999/xlink">
    <!-- Generator: Sketch 47.1 (45422) - http://www.bohemiancoding.com/sketch -->
    <title>pencial</title>
    <desc>Created with Sketch.</desc>
    <defs></defs>
    <g id="iconos" stroke="none" stroke-width="1" fill="none" fill-rule="evenodd">
        <g id="pencial" fill="#000000">
            <path d="M92.0819848,7.24396774 C95.8194135,2.81238781 101.395648,0 107.624753,0 C118.877691,0 128,9.17816263 128,20.5 C128,25.6833298 126.087997,30.4173531 122.934889,34.0270628 L122.895512,34.0720107 C122.336598,34.7081238 121.739029,35.3090523 121.106505,35.8710736 L43.625,113.788086 L5.1484375,127.458984 C3.06892755,128.034849 1.65022638,127.929055 0.892333984,127.141602 C0.134441586,126.354148 0.0467137216,124.894757 0.629150391,122.763428 L13.3251953,85.6337891 L91.9921875,7.16601562 L92.0819848,7.24396774 Z M95.8945312,17.8427734 L111.074228,32.3461914 L115.274414,28.2333984 C119.653971,22.4593099 119.653971,17.4858398 115.274414,13.3129883 C110.438477,8.77392578 105.389974,8.77392578 100.128906,13.3129883 L95.8945312,17.8427734 Z M103.557617,39.53125 L88.53125,24.6123047 L20.3227539,92.5395508 L13.1948242,114.408203 C27.4301758,110.139323 35.054362,107.846354 36.0673828,107.529297 C37.0804036,107.21224 59.5771484,84.546224 103.557617,39.53125 Z" id="Combined-Shape"></path>
        </g>
    </g>
</svg>