<?xml version="1.0" encoding="UTF-8"?>
<svg width="180px" height="180px" viewBox="0 0 180 180" version="1.1" xmlns="http://www.w3.org/2000/svg" xmlns:xlink="http://www.w3.org/1999/xlink">
    <!-- Generator: Sketch 40.1 (33804) - http://www.bohemiancoding.com/sketch -->
    <title>phone</title>
    <desc>Created with Sketch.</desc>
    <defs></defs>
    <g id="iconos" stroke="none" stroke-width="1" fill="none" fill-rule="evenodd">
        <g id="phone" fill="#000000">
            <path d="M139.83174,105.699739 C133.422938,103.411 129.411812,103.868453 125.760411,109.293579 C123.650585,112.398921 117.173019,120.121853 112.871649,124.926305 C111.696824,126.25256 111.212789,126.310443 108.600206,125.032722 C109.22093,125.338215 100.231276,121.424236 96.314542,119.368453 C89.4500899,115.765496 82.7087688,111.225783 75.918122,105.270174 C66.5104946,97.0089448 59.0333317,87.1197673 53.4900057,77.8322701 C52.6661389,76.4370036 52.7037492,76.3375803 54.71063,74.3245818 C55.8361409,73.2257285 56.9057557,72.0088196 58.9961524,69.5208758 C60.2555965,68.0214679 60.631952,67.5765562 61.1729949,66.9535625 C62.100737,65.885297 62.847125,64.8733515 63.5128498,63.7961362 C63.9061958,63.1596593 64.2651972,62.5126897 64.6613244,61.7412663 C64.9251321,61.2275238 65.8434613,59.3656642 65.8965044,59.2595934 C67.7581257,55.5717462 67.3765881,52.076014 65.507002,48.4626592 C65.0855857,47.616098 63.0509885,42.8056949 58.5031742,31.9422728 C54.8558887,23.2299199 53.911402,20.9791076 52.7726655,18.3023778 C50.6821521,13.3514031 48.341223,10.5478057 45.2913664,9.38834778 C44.0859335,8.93008076 43.2470097,8.82141067 41.7254553,8.76075704 C41.3493132,8.74576291 41.2134743,8.73624368 41.1425703,8.72470361 C39.5339879,8.46289659 38.2667641,8.46289659 35.1485137,8.59616581 C34.6680734,8.61669909 34.4244672,8.62672923 34.146457,8.63699412 C33.5000679,8.66086056 32.9799426,8.67275419 32.5,8.67275419 C27.4669463,8.67275419 21.7037472,10.7382569 17.6735639,15.0856416 C17.4429311,15.3327002 16.3048341,16.525897 16.3974438,16.4283862 C15.7648679,17.0944392 15.2438802,17.6554337 14.7085852,18.2530503 C13.2553069,19.8755265 11.9424082,21.5025222 10.692255,23.286046 C5.19798462,31.1244147 2,40.4622847 2,52.0029844 C2,61.6447264 5.04278152,71.6383408 10.178951,81.5853413 C12.0313479,85.1727996 14.0588602,88.5554106 16.1668195,91.6988766 C17.5659005,93.7852374 18.6686886,95.294993 19.8579241,96.8410524 C19.9181969,96.9211769 21.5557798,99.3159614 22.3441857,100.442103 C24.1512871,103.023327 26.0657043,105.63762 28.2287797,108.430865 C34.3680481,116.358689 41.2586692,124.107748 48.9826037,131.375598 C62.461786,144.058858 77.1010094,153.965097 92.8500795,160.055555 C122.423936,171.50327 132.444387,173.338581 141.633324,171.137858 C141.900204,171.073822 142.033644,171.041828 142.15524,171.01291 C143.293672,170.742173 143.957645,170.617168 144.726343,170.547004 C155.212216,169.663908 172.589716,158.6185 176.293174,148.462199 C179.687288,139.129153 180.575986,129.071662 178.394715,125.50672 C177.617286,124.236134 176.525414,123.278336 175.043732,122.375276 C174.265297,121.900833 173.412029,121.456445 172.127917,120.835336 C172.390003,120.962104 169.606485,119.629915 168.764489,119.212913 C158.016979,113.956632 143.032661,106.850691 139.83174,105.699739 Z M167.059761,127.278163 C167.249626,127.369033 167.484438,127.481162 167.886753,127.673281 C168.199319,127.822663 168.42855,127.932676 168.6445,128.037128 C169.712643,128.553776 170.377164,128.899863 170.880232,129.206474 C171.372886,129.506738 171.568429,129.67827 171.570757,129.682075 C171.467598,129.625588 171.5119,129.936138 171.542881,130.326383 C171.620175,131.299982 171.601893,132.577948 171.473444,134.031622 C171.160866,137.569094 170.258618,141.648167 168.776083,145.724804 C166.245465,152.664722 151.661262,161.934668 144.027032,162.577677 C142.772615,162.692076 141.7816,162.878654 140.304334,163.229971 C140.174362,163.26088 140.032269,163.294949 139.77004,163.357873 C136.313898,164.185609 134.190779,164.285985 129.2749,163.385609 C122.276098,162.103733 111.617609,158.74182 95.7367799,152.594526 C81.0449557,146.912924 67.2440153,137.573944 54.4648269,125.549344 C47.0686921,118.589938 40.4515421,111.14842 34.5539521,103.532682 C32.474517,100.847445 30.6349299,98.3353387 28.8977496,95.8539881 C28.2148698,94.8785774 26.4360276,92.2772169 26.2210489,91.9924115 C25.1067786,90.5435388 24.100187,89.1654795 22.8111832,87.24327 C20.8644751,84.3402676 18.9915884,81.2156269 17.2872656,77.9149376 C12.6871594,69.006108 10,60.1804875 10,52.0029844 C10,42.1780663 12.6563671,34.4216779 17.2431987,27.8779014 C18.2971955,26.3742231 19.4141507,24.9900483 20.6676145,23.59065 C21.1437826,23.059044 21.6148614,22.5517909 22.1981973,21.9375839 C22.3731536,21.7533686 22.5531559,21.5647463 22.8907012,21.2112566 C23.1657422,20.9228998 23.3531056,20.7251081 23.5311268,20.5343819 C25.9055043,17.9731597 29.5339168,16.6727542 32.5,16.6727542 C33.0923915,16.6727542 33.7049602,16.6587467 34.4416376,16.6315465 C34.7398244,16.6205367 34.9947049,16.6100423 35.4901095,16.5888695 C38.0040135,16.4814291 39.0010843,16.4814291 39.8574297,16.6208048 C40.3560641,16.7019607 40.705635,16.7264577 41.4068048,16.7544084 C42.102923,16.7821577 42.2918285,16.8066276 42.4485265,16.8661992 C42.645967,16.9412597 42.894909,17.1251541 43.2745069,17.5797768 C43.9214087,18.3545342 44.6398469,19.6075344 45.4069327,21.4242145 C46.5408414,24.0896332 47.485381,26.3405716 51.1083332,34.9947989 C55.949555,46.5590873 57.7959506,50.9245249 58.3743797,52.0850957 C59.1969843,53.6759398 59.2959443,54.5826337 58.7480592,55.6680056 C58.6625872,55.8388612 57.7735205,57.6413926 57.5447542,58.0868951 C57.2381353,58.6840089 56.977933,59.152929 56.7075558,59.5904288 C56.2701129,60.2982593 55.7799562,60.9628088 55.1328358,61.7079474 C54.5516149,62.3772048 54.1610507,62.8389134 52.9878011,64.2357219 C50.9590242,66.6503513 49.9889439,67.754019 49.0829302,68.6389707 C47.0959235,70.631535 46.2340958,71.6928903 45.5459203,73.5120856 C44.5399023,76.171499 44.9001344,79.018984 46.6109746,81.9162116 C52.5539239,91.8733388 60.4885221,102.367513 70.6412836,111.283074 C77.9282389,117.673963 85.192396,122.565761 92.596583,126.45201 C96.8316412,128.674872 105.951578,132.645575 105.076492,132.214876 C110.729798,134.979721 115.118533,134.454902 118.846076,130.246622 C123.374663,125.188463 129.998458,117.291188 132.387421,113.774921 C133.543079,112.057953 133.774854,112.03152 137.133021,113.230798 C139.895717,114.224187 155.026444,121.399559 165.231904,126.390687 C165.78694,126.665627 166.343329,126.93528 167.059761,127.278163 Z" id="Fill-1"></path>
            <path d="M91.0054349,39.4791263 C93.0873948,39.3981448 96.0065031,39.5739391 99.4501856,40.228943 C104.705168,41.2284645 109.894904,43.1389373 114.732281,46.1695529 C125.584982,52.9687671 133.46251,64.5702969 137.080784,82.29984 L144.919216,80.70016 C140.868625,60.8522631 131.712045,47.367025 118.979582,39.39014 C113.246387,35.7982952 107.127496,33.5457769 100.945022,32.3698423 C96.8642535,31.5936617 93.3485282,31.381938 90.694496,31.4851712 C90.4750687,31.4937063 90.3108053,31.5030555 90.2045133,31.510929 L90.7954867,39.489071 C90.8096906,39.4880189 90.8806578,39.4839797 91.0054349,39.4791263 Z" id="Path-2"></path>
            <path d="M97.6682901,9.02313577 C100.852189,8.89929247 105.268511,9.16525177 110.462932,10.1532542 C118.379105,11.6589461 126.200056,14.5380357 133.496922,19.1095207 C149.837261,29.3467382 161.67817,46.7852882 167.080784,73.2580971 L174.919216,71.6584171 C169.084285,43.0672545 155.964323,23.7449961 137.744223,12.3301078 C129.551539,7.19739359 120.801433,3.97625852 111.957768,2.29415346 C106.126261,1.1849744 101.113322,0.883085688 97.3573512,1.02918074 C97.0578367,1.04083088 96.8388414,1.05329525 96.7045133,1.06324549 L97.2954867,9.04138752 C97.3377268,9.03825863 97.4634259,9.03110432 97.6682901,9.02313577 Z" id="Path-2"></path>
        </g>
    </g>
</svg>