<?xml version="1.0" encoding="UTF-8"?>
<svg width="180px" height="180px" viewBox="0 0 180 180" version="1.1" xmlns="http://www.w3.org/2000/svg" xmlns:xlink="http://www.w3.org/1999/xlink">
    <!-- Generator: Sketch 42 (36781) - http://www.bohemiancoding.com/sketch -->
    <title>photo</title>
    <desc>Created with Sketch.</desc>
    <defs>
        <polygon id="path-1" points="0.0404494382 141.998654 179.955506 141.998654 179.955506 0.0646066351 0.0404494382 0.0646066351"></polygon>
    </defs>
    <g id="iconos" stroke="none" stroke-width="1" fill="none" fill-rule="evenodd">
        <g id="photo">
            <g id="photo-camera" transform="translate(0.000000, 18.000000)">
                <mask id="mask-2" fill="white">
                    <use xlink:href="#path-1"></use>
                </mask>
                <g id="Clip-2"></g>
                <path d="M159.156404,141.998654 L20.7964045,141.998654 C9.32764045,141.998654 0,132.687223 0,121.239062 L0,37.0418104 C0,25.5936493 9.32764045,16.282218 20.7964045,16.282218 L49.0294382,16.282218 L51.4995506,7.9614218 C52.5080899,3.40598104 56.6791011,0.0646066351 61.5829213,0.0646066351 L118.372584,0.0646066351 C123.138876,0.0646066351 127.357753,3.38982938 128.474157,8.00112796 L128.540225,8.28512796 L130.79191,16.282218 L159.159101,16.282218 C170.627865,16.282218 179.955506,25.5936493 179.955506,37.0418104 L179.955506,121.239062 C179.952809,132.687223 170.622472,141.998654 159.156404,141.998654 Z M23.0745391,24.7788568 C15.6813523,24.7788568 9.66574962,30.7807517 9.66574962,38.161091 L9.66574962,119.585627 C9.66574962,126.967919 15.6813523,132.970465 23.0745391,132.970465 L156.878181,132.970465 C164.271368,132.970465 170.284363,126.965967 170.284363,119.585627 L170.284363,38.161091 C170.284363,30.7807517 164.271368,24.7788568 156.878181,24.7788568 L124.369674,24.7788568 L120.699811,11.7116213 C120.360793,10.1912974 118.991033,9.09010393 117.434812,9.09010393 L62.5153,9.09010393 C60.9362614,9.09010393 59.5938829,10.1685186 59.2503018,11.7142245 L55.3744204,24.7788568 L23.0745391,24.7788568 Z M89.9817978,121.083602 C65.7222472,121.083602 45.9849438,101.385981 45.9849438,77.1712796 C45.9849438,52.9545592 65.7222472,33.2535735 89.9817978,33.2535735 C114.235281,33.2535735 133.967865,52.9572512 133.967865,77.1712796 C133.967865,101.380597 114.232584,121.083602 89.9817978,121.083602 Z M89.9814568,42.5089425 C70.8374731,42.5089425 55.2610796,58.0557462 55.2610796,77.1658319 C55.2610796,96.2790699 70.8374731,111.82083 89.9814568,111.82083 C107.342022,111.82083 121.764651,99.031509 124.297328,82.3954414 C124.557044,80.6894752 124.691729,78.9430576 124.691729,77.1658319 C124.691729,58.0557462 109.119757,42.5089425 89.9814568,42.5089425 Z M149.594478,35.1237221 C144.988645,35.1237221 141.261453,38.8549627 141.261453,43.4457745 C141.261453,48.0400948 144.988645,51.7643186 149.594478,51.7643186 C154.201189,51.7643186 157.928381,48.0400948 157.928381,43.4457745 C157.921352,38.8549627 154.19416,35.1237221 149.594478,35.1237221 Z" id="Fill-1" fill="#000000" mask="url(#mask-2)"></path>
            </g>
        </g>
    </g>
</svg>