<?xml version="1.0" encoding="UTF-8"?>
<svg width="180px" height="180px" viewBox="0 0 180 180" version="1.1" xmlns="http://www.w3.org/2000/svg" xmlns:xlink="http://www.w3.org/1999/xlink">
    <!-- Generator: Sketch 40.1 (33804) - http://www.bohemiancoding.com/sketch -->
    <title>picture</title>
    <desc>Created with Sketch.</desc>
    <defs></defs>
    <g id="iconos" stroke="none" stroke-width="1" fill="none" fill-rule="evenodd">
        <g id="picture" fill="#000000">
            <g transform="translate(15.000000, 12.000000)" id="Group">
                <g>
                    <path d="M142.45,154 L11.55,154 C5.1821,154 0,148.8179 0,142.45 L0,11.55 C0,5.1821 5.1821,0 11.55,0 L142.45,0 C148.8179,0 154,5.1821 154,11.55 L154,142.45 C154,148.8179 148.8179,154 142.45,154 L142.45,154 Z M11.8416667,7.7 C9.72106667,7.7 8,9.42106667 8,11.5416667 L8,142.158333 C8,144.278933 9.72106667,146 11.8416667,146 L142.458333,146 C144.578933,146 146.3,144.278933 146.3,142.158333 L146.3,11.5416667 C146.3,9.42106667 144.578933,7.7 142.458333,7.7 L11.8416667,7.7 L11.8416667,7.7 Z" id="Shape"></path>
                </g>
            </g>
            <path d="M142.5,59 C142.5,47.1258779 132.874122,37.5 121,37.5 C109.125878,37.5 99.5,47.1258779 99.5,59 C99.5,70.8741221 109.125878,80.5 121,80.5 C132.874122,80.5 142.5,70.8741221 142.5,59 Z M106.5,59 C106.5,50.9918711 112.991871,44.5 121,44.5 C129.008129,44.5 135.5,50.9918711 135.5,59 C135.5,67.0081289 129.008129,73.5 121,73.5 C112.991871,73.5 106.5,67.0081289 106.5,59 Z" id="Oval-3"></path>
            <path d="M68.3284271,74.8691408 L62.4041708,74.5719049 L131,158 L140.595829,158 L68.5958292,69.4758275 C67.0972798,67.6333573 64.3449324,67.4952646 62.6715729,69.1785915 L23,109.747235 L23,114.777018 L23,120.309778 L68.3284271,74.8691408 Z" id="Path-9"></path>
        </g>
    </g>
</svg>