<?xml version="1.0" encoding="utf-8"?>
<!-- Generator: Adobe Illustrator 19.2.0, SVG Export Plug-In . SVG Version: 6.00 Build 0)  -->
<svg version="1.1" id="Capa_1" xmlns="http://www.w3.org/2000/svg" xmlns:xlink="http://www.w3.org/1999/xlink" x="0px" y="0px"
	 viewBox="0 0 32 32" style="enable-background:new 0 0 32 32;" xml:space="preserve">
<style type="text/css">
	.st0{fill:#010202;}
</style>
<g>
	<path class="st0" d="M16.2,31.7c-0.6,0-1-0.4-1-1V17L1.5,17l0,0c-0.6,0-1-0.4-1-1s0.4-1,1-1l13.7,0V1.3c0-0.6,0.4-1,1-1s1,0.4,1,1
		V15l13.7,0l0,0c0.6,0,1,0.4,1,1s-0.4,1-1,1l-13.7,0v13.7C17.2,31.2,16.7,31.7,16.2,31.7z"/>
</g>
</svg>
