<?xml version="1.0" encoding="UTF-8"?>
<svg width="128px" height="128px" viewBox="0 0 128 128" version="1.1" xmlns="http://www.w3.org/2000/svg" xmlns:xlink="http://www.w3.org/1999/xlink">
    <!-- Generator: Sketch 47.1 (45422) - http://www.bohemiancoding.com/sketch -->
    <title>plus</title>
    <desc>Created with Sketch.</desc>
    <defs></defs>
    <g id="iconos" stroke="none" stroke-width="1" fill="none" fill-rule="evenodd">
        <g id="plus" fill-rule="nonzero" fill="#000000">
            <path d="M6.45378151,70 L121.546218,70 C125.110544,70 128,67.3137085 128,64 C128,60.6862915 125.110544,58 121.546218,58 L6.45378151,58 C2.8894564,58 0,60.6862915 0,64 C0,67.3137085 2.8894564,70 6.45378151,70 Z" id="Line-2" transform="translate(64.000000, 64.000000) rotate(90.000000) translate(-64.000000, -64.000000) "></path>
            <path d="M6.45378151,70 L121.546218,70 C125.110544,70 128,67.3137085 128,64 C128,60.6862915 125.110544,58 121.546218,58 L6.45378151,58 C2.8894564,58 0,60.6862915 0,64 C0,67.3137085 2.8894564,70 6.45378151,70 Z" id="Line-2-Copy-2"></path>
        </g>
    </g>
</svg>