<?xml version="1.0" encoding="UTF-8" standalone="no"?>
<svg width="180px" height="180px" viewBox="0 0 180 180" version="1.1" xmlns="http://www.w3.org/2000/svg" xmlns:xlink="http://www.w3.org/1999/xlink">
    <!-- Generator: Sketch 3.6 (26304) - http://www.bohemiancoding.com/sketch -->
    <title>point-2</title>
    <desc>Created with Sketch.</desc>
    <defs></defs>
    <g id="iconos" stroke="none" stroke-width="1" fill="none" fill-rule="evenodd">
        <g id="point-2" fill="#000000">
            <path d="M14.5,98 L15.5,98 C19.0898509,98 22,95.0898509 22,91.5 C22,87.9101491 19.0898509,85 15.5,85 L14.5,85 C10.9101491,85 8,87.9101491 8,91.5 C8,95.0898509 10.9101491,98 14.5,98 L14.5,98 Z M38.5,98 L39.5,98 C43.0898509,98 46,95.0898509 46,91.5 C46,87.9101491 43.0898509,85 39.5,85 L38.5,85 C34.9101491,85 32,87.9101491 32,91.5 C32,95.0898509 34.9101491,98 38.5,98 L38.5,98 Z M62.5,98 L63.5,98 C67.0898509,98 70,95.0898509 70,91.5 C70,87.9101491 67.0898509,85 63.5,85 L62.5,85 C58.9101491,85 56,87.9101491 56,91.5 C56,95.0898509 58.9101491,98 62.5,98 L62.5,98 Z M86.5,98 L87.5,98 C91.0898509,98 94,95.0898509 94,91.5 C94,87.9101491 91.0898509,85 87.5,85 L86.5,85 C82.9101491,85 80,87.9101491 80,91.5 C80,95.0898509 82.9101491,98 86.5,98 L86.5,98 Z" id="Line"></path>
        </g>
    </g>
</svg>