<?xml version="1.0" encoding="UTF-8" standalone="no"?>
<svg width="180px" height="180px" viewBox="0 0 180 180" version="1.1" xmlns="http://www.w3.org/2000/svg" xmlns:xlink="http://www.w3.org/1999/xlink">
    <!-- Generator: Sketch 3.6 (26304) - http://www.bohemiancoding.com/sketch -->
    <title>point-4</title>
    <desc>Created with Sketch.</desc>
    <defs></defs>
    <g id="iconos" stroke="none" stroke-width="1" fill="none" fill-rule="evenodd">
        <g id="point-4" fill="#000000">
            <path d="M94.5,98 L95.5,98 C99.0898509,98 102,95.0898509 102,91.5 C102,87.9101491 99.0898509,85 95.5,85 L94.5,85 C90.9101491,85 88,87.9101491 88,91.5 C88,95.0898509 90.9101491,98 94.5,98 L94.5,98 Z M118.5,98 L119.5,98 C123.089851,98 126,95.0898509 126,91.5 C126,87.9101491 123.089851,85 119.5,85 L118.5,85 C114.910149,85 112,87.9101491 112,91.5 C112,95.0898509 114.910149,98 118.5,98 L118.5,98 Z M142.5,98 L143.5,98 C147.089851,98 150,95.0898509 150,91.5 C150,87.9101491 147.089851,85 143.5,85 L142.5,85 C138.910149,85 136,87.9101491 136,91.5 C136,95.0898509 138.910149,98 142.5,98 L142.5,98 Z M166.5,98 L167.5,98 C171.089851,98 174,95.0898509 174,91.5 C174,87.9101491 171.089851,85 167.5,85 L166.5,85 C162.910149,85 160,87.9101491 160,91.5 C160,95.0898509 162.910149,98 166.5,98 L166.5,98 Z" id="Line"></path>
            <path d="M71,48.5 L72,48.5 C75.5898509,48.5 78.5,45.5898509 78.5,42 C78.5,38.4101491 75.5898509,35.5 72,35.5 L71,35.5 C67.4101491,35.5 64.5,38.4101491 64.5,42 C64.5,45.5898509 67.4101491,48.5 71,48.5 L71,48.5 Z M95,48.5 L96,48.5 C99.5898509,48.5 102.5,45.5898509 102.5,42 C102.5,38.4101491 99.5898509,35.5 96,35.5 L95,35.5 C91.4101491,35.5 88.5,38.4101491 88.5,42 C88.5,45.5898509 91.4101491,48.5 95,48.5 L95,48.5 Z M119,48.5 L120,48.5 C123.589851,48.5 126.5,45.5898509 126.5,42 C126.5,38.4101491 123.589851,35.5 120,35.5 L119,35.5 C115.410149,35.5 112.5,38.4101491 112.5,42 C112.5,45.5898509 115.410149,48.5 119,48.5 L119,48.5 Z" id="Line-Copy" transform="translate(95.500000, 42.000000) rotate(-270.000000) translate(-95.500000, -42.000000) "></path>
        </g>
    </g>
</svg>