<?xml version="1.0" encoding="UTF-8" standalone="no"?>
<svg width="180px" height="180px" viewBox="0 0 180 180" version="1.1" xmlns="http://www.w3.org/2000/svg" xmlns:xlink="http://www.w3.org/1999/xlink">
    <!-- Generator: Sketch 3.6 (26304) - http://www.bohemiancoding.com/sketch -->
    <title>point-3</title>
    <desc>Created with Sketch.</desc>
    <defs></defs>
    <g id="iconos" stroke="none" stroke-width="1" fill="none" fill-rule="evenodd">
        <g id="point-3" fill="#000000">
            <path d="M94.5,98 L95.5,98 C99.0898509,98 102,95.0898509 102,91.5 C102,87.9101491 99.0898509,85 95.5,85 L94.5,85 C90.9101491,85 88,87.9101491 88,91.5 C88,95.0898509 90.9101491,98 94.5,98 L94.5,98 Z" id="Line"></path>
            <path d="M70.5,147 L71.5,147 C75.0898509,147 78,144.089851 78,140.5 C78,136.910149 75.0898509,134 71.5,134 L70.5,134 C66.9101491,134 64,136.910149 64,140.5 C64,144.089851 66.9101491,147 70.5,147 L70.5,147 Z M94.5,147 L95.5,147 C99.0898509,147 102,144.089851 102,140.5 C102,136.910149 99.0898509,134 95.5,134 L94.5,134 C90.9101491,134 88,136.910149 88,140.5 C88,144.089851 90.9101491,147 94.5,147 L94.5,147 Z M118.5,147 L119.5,147 C123.089851,147 126,144.089851 126,140.5 C126,136.910149 123.089851,134 119.5,134 L118.5,134 C114.910149,134 112,136.910149 112,140.5 C112,144.089851 114.910149,147 118.5,147 L118.5,147 Z" id="Line" transform="translate(95.000000, 140.500000) rotate(-270.000000) translate(-95.000000, -140.500000) "></path>
            <path d="M71,48.5 L72,48.5 C75.5898509,48.5 78.5,45.5898509 78.5,42 C78.5,38.4101491 75.5898509,35.5 72,35.5 L71,35.5 C67.4101491,35.5 64.5,38.4101491 64.5,42 C64.5,45.5898509 67.4101491,48.5 71,48.5 L71,48.5 Z M95,48.5 L96,48.5 C99.5898509,48.5 102.5,45.5898509 102.5,42 C102.5,38.4101491 99.5898509,35.5 96,35.5 L95,35.5 C91.4101491,35.5 88.5,38.4101491 88.5,42 C88.5,45.5898509 91.4101491,48.5 95,48.5 L95,48.5 Z M119,48.5 L120,48.5 C123.589851,48.5 126.5,45.5898509 126.5,42 C126.5,38.4101491 123.589851,35.5 120,35.5 L119,35.5 C115.410149,35.5 112.5,38.4101491 112.5,42 C112.5,45.5898509 115.410149,48.5 119,48.5 L119,48.5 Z" id="Line-Copy" transform="translate(95.500000, 42.000000) rotate(-270.000000) translate(-95.500000, -42.000000) "></path>
        </g>
    </g>
</svg>