<?xml version="1.0" encoding="UTF-8"?>
<svg width="152px" height="152px" viewBox="0 0 152 152" version="1.1" xmlns="http://www.w3.org/2000/svg" xmlns:xlink="http://www.w3.org/1999/xlink">
    <!-- Generator: Sketch 43.1 (39012) - http://www.bohemiancoding.com/sketch -->
    <title>point-map</title>
    <desc>Created with Sketch.</desc>
    <defs></defs>
    <g id="Page-1" stroke="none" stroke-width="1" fill="none" fill-rule="evenodd">
        <g id="point-map" fill="#000000">
            <path d="M79.420993,33.8407273 C68.3647125,33.8407273 59.373655,42.5185455 59.373655,53.1792727 C59.373655,63.8503636 68.3647125,72.5281818 79.420993,72.5281818 C90.4665358,72.5281818 99.4575933,63.8503636 99.4575933,53.1792727 C99.4575933,42.5185455 90.4665358,33.8407273 79.420993,33.8407273 Z M79.420993,66.9974545 C71.5216045,66.9974545 65.1040224,60.8034545 65.1040224,53.1792727 C65.1040224,45.5654545 71.5216045,39.3610909 79.420993,39.3610909 C87.3096438,39.3610909 93.7379635,45.5654545 93.7379635,53.1792727 C93.7379635,60.8034545 87.3096438,66.9974545 79.420993,66.9974545 Z" id="Fill-1"></path>
            <path d="M117.743944,16.1914545 C107.371299,6.19054545 93.5840561,0.670181818 78.919899,0.670181818 C64.2378457,0.670181818 50.4541823,6.19054545 40.0779579,16.1914545 C20.8967966,34.7181818 18.5058626,69.5607273 34.9202693,90.6783636 L78.919899,151.996545 L122.833627,90.7612727 C139.319619,69.5607273 136.928684,34.7181818 117.743944,16.1914545 Z M118.191349,87.5347273 L78.919899,142.292727 L39.562547,87.4518182 C24.6836353,68.2929091 26.8097055,36.822 44.1332398,20.102 C53.4321122,11.1443636 65.7769201,6.20436364 78.919899,6.20436364 C92.048561,6.20436364 104.393369,11.1443636 113.692241,20.102 C131.012196,36.822 133.152583,68.2929091 118.191349,87.5347273 Z" id="Fill-3"></path>
        </g>
    </g>
</svg>