<?xml version="1.0" encoding="UTF-8"?>
<svg width="152px" height="152px" viewBox="0 0 152 152" version="1.1" xmlns="http://www.w3.org/2000/svg" xmlns:xlink="http://www.w3.org/1999/xlink">
    <!-- Generator: Sketch 43.1 (39012) - http://www.bohemiancoding.com/sketch -->
    <title>post</title>
    <desc>Created with Sketch.</desc>
    <defs></defs>
    <g id="Page-1" stroke="none" stroke-width="1" fill="none" fill-rule="evenodd">
        <g id="post" fill-rule="nonzero" fill="#000000">
            <g id="pencil" transform="translate(68.000000, 53.000000)">
                <path d="M80.2368,3.6288 C77.8764,1.3527 74.739,0.10125 71.4,0.10125 C68.061,0.10125 64.9236,1.3527 62.5632,3.6288 L9.0132,55.2663 C8.7948,55.4769 8.631,55.728 8.526,56.00745 L0.126,78.28245 C-0.1512,79.0236 0.0378,79.8498 0.6132,80.40465 C1.0122,80.7894 1.5498,80.99595 2.1,80.99595 C2.3394,80.99595 2.583,80.95545 2.8182,80.87445 L25.9182,72.77445 C26.208,72.6732 26.4684,72.5112 26.6868,72.30465 L80.2368,20.66715 C82.5972,18.39105 83.895,15.3657 83.895,12.14595 C83.895,8.9262 82.5972,5.90085 80.2368,3.62475 L80.2368,3.6288 Z M21.7193926,67.5981318 L9.429,71.90775 L13.8982337,60.0563 L56.6369751,18.6225031 L64.458134,26.1643349 L21.7193926,67.5981318 Z M75.1481777,16.1817797 L72.6028826,18.6361714 L64.6687204,10.9853721 L67.2140155,8.53098039 C68.2736082,7.50923026 69.6826109,6.94767857 71.1796763,6.94767857 C72.6767416,6.94767857 74.0857443,7.50923026 75.145337,8.53098039 C76.2049297,9.55273053 76.7872796,10.9114117 76.7872796,12.3550104 C76.7872796,13.7986091 76.2049297,15.1572903 75.145337,16.1790404 L75.1481777,16.1817797 Z" id="Shape"></path>
            </g>
            <path d="M136,17.9923568 L136,45.6901161 L126.208,45.6901161 L126.208,17.9923568 C126.208,13.0324384 121.817908,9 116.405925,9 L19.5940752,9 C14.1753088,9 9.792,13.0266347 9.792,17.9957464 L9.792,134.004254 C9.792,138.966399 14.1825237,143 19.5940752,143 L116.405925,143 C121.824253,143 126.208,138.972156 126.208,134.000652 L126.208,105.010661 L136,105.010661 L136,134.000652 C136,143.941417 127.233643,152 116.405925,152 L19.5940752,152 C8.77256626,152 0,143.935139 0,134.004254 L0,17.9957464 C0,8.05697012 8.76635744,0 19.5940752,0 L116.405925,0 C127.227434,0 136,8.06330092 136,17.9923568 Z" id="Rectangle-11"></path>
            <path d="M33,58 L96,58 L96,31 L33,31 L33,58 Z M25,29.0015877 C25,25.6870024 27.6851109,23 31.0026812,23 L97.9973188,23 C101.312508,23 104,25.6898426 104,29.0015877 L104,59.9984123 C104,63.3129976 101.314889,66 97.9973188,66 L31.0026812,66 C27.6874919,66 25,63.3101574 25,59.9984123 L25,29.0015877 Z" id="Rectangle-12"></path>
            <path d="M31,89 L78,89 C80.209139,89 82,87.209139 82,85 C82,82.790861 80.209139,81 78,81 L31,81 C28.790861,81 27,82.790861 27,85 C27,87.209139 28.790861,89 31,89 Z" id="Line"></path>
            <path d="M31,112 L56,112 C58.209139,112 60,110.209139 60,108 C60,105.790861 58.209139,104 56,104 L31,104 C28.790861,104 27,105.790861 27,108 C27,110.209139 28.790861,112 31,112 Z" id="Line"></path>
        </g>
    </g>
</svg>