<?xml version="1.0" encoding="UTF-8"?>
<svg width="152px" height="152px" viewBox="0 0 152 152" version="1.1" xmlns="http://www.w3.org/2000/svg" xmlns:xlink="http://www.w3.org/1999/xlink">
    <!-- Generator: Sketch 43.1 (39012) - http://www.bohemiancoding.com/sketch -->
    <title>powerpoint</title>
    <desc>Created with Sketch.</desc>
    <defs></defs>
    <g id="Page-1" stroke="none" stroke-width="1" fill="none" fill-rule="evenodd">
        <g id="powerpoint" fill="#000000">
            <path d="M113.292481,42.2152692 L113.292481,15.9001953 L106.942188,9 C106.942188,9 104,9 104,9 L104.292481,46.7152692 C104.292481,49.2005505 106.3072,51.2152692 108.792481,51.2152692 L142.97041,51.2152692 L142.97041,48.0904297 L137.564355,42.2152692 L113.292481,42.2152692 Z" id="Path"></path>
            <path d="M137.249622,41.8550574 L106.944611,9 C103.689376,9 103.458732,9 98.8884806,9 L11.9986164,9 C10.3385333,9 9,10.3380229 9,11.9906395 L9,140.009361 C9,141.662811 10.3374418,143 11.9906395,143 L140.009361,143 C141.661632,143 143,141.660597 143,140.002349 L143,48.0893071 C140.512861,45.3928852 140.511817,45.3917534 137.249622,41.8550574 Z M0,11.9906395 C0,5.36839215 5.3670376,0 11.9986164,0 L110.887097,0 L152,44.5723914 L152,140.002349 C152,146.628469 146.634886,152 140.009361,152 L11.9906395,152 C5.36839215,152 0,146.634886 0,140.009361 L0,11.9906395 Z" id="Rectangle-10" fill-rule="nonzero"></path>
            <path d="M54,55.5 L54,105.5 C54,107.985281 56.0147186,110 58.5,110 C60.9852814,110 63,107.985281 63,105.5 L63,55.5 C63,53.0147186 60.9852814,51 58.5,51 C56.0147186,51 54,53.0147186 54,55.5 Z" id="Line" fill-rule="nonzero"></path>
            <path d="M74.1791985,87.2259689 C77.3860759,87.3807432 81.1045289,87.0946667 84.7762288,85.9768303 C92.4663548,83.635598 97.4829466,78.173783 97.4829466,69.4437978 C97.4829466,60.8382441 92.7851322,55.2614921 85.4914939,52.6452215 C83.3553794,51.8789848 81.1204318,51.4117342 78.8694922,51.1748998 C77.3696564,51.0170934 76.0538859,50.9790315 75.0098643,51.0098156 C74.9553458,51.0114232 74.9059567,51.0131211 74.8618316,51.0148393 L57.313513,51.0148393 L57.313513,60.0148393 L75.0860274,60.0148393 L75.2105895,60.0079275 C75.9386256,59.9863417 76.8579771,60.0129362 77.9277485,60.125493 C79.508582,60.2918216 81.0536655,60.6148454 82.4527264,61.1166967 C86.4226337,62.5407256 88.4829466,64.9865128 88.4829466,69.4437978 C88.4829466,73.7766511 86.3615379,76.0863351 82.1549964,77.3670022 C79.6379396,78.1333114 76.8771976,78.3457071 74.6130627,78.2364326 C74.4567329,78.2288876 74.3636366,78.2224706 74.341443,78.2205241 L74.0525004,78.1951824 L57,78.8990388 L57.3711666,87.891382 L73.8829459,87.2098442 C73.97104,87.2152461 74.0699311,87.2206953 74.1791985,87.2259689 Z" id="Path-6" fill-rule="nonzero"></path>
        </g>
    </g>
</svg>