<?xml version="1.0" encoding="UTF-8"?>
<svg width="152px" height="152px" viewBox="0 0 152 152" version="1.1" xmlns="http://www.w3.org/2000/svg" xmlns:xlink="http://www.w3.org/1999/xlink">
    <!-- Generator: Sketch 43.1 (39012) - http://www.bohemiancoding.com/sketch -->
    <title>project-plan</title>
    <desc>Created with Sketch.</desc>
    <defs></defs>
    <g id="Page-1" stroke="none" stroke-width="1" fill="none" fill-rule="evenodd">
        <g id="project-plan" fill="#000000">
            <g id="pencil" transform="translate(68.000000, 53.000000)" fill-rule="nonzero">
                <path d="M80.2368,3.6288 C77.8764,1.3527 74.739,0.10125 71.4,0.10125 C68.061,0.10125 64.9236,1.3527 62.5632,3.6288 L9.0132,55.2663 C8.7948,55.4769 8.631,55.728 8.526,56.00745 L0.126,78.28245 C-0.1512,79.0236 0.0378,79.8498 0.6132,80.40465 C1.0122,80.7894 1.5498,80.99595 2.1,80.99595 C2.3394,80.99595 2.583,80.95545 2.8182,80.87445 L25.9182,72.77445 C26.208,72.6732 26.4684,72.5112 26.6868,72.30465 L80.2368,20.66715 C82.5972,18.39105 83.895,15.3657 83.895,12.14595 C83.895,8.9262 82.5972,5.90085 80.2368,3.62475 L80.2368,3.6288 Z M21.7193926,67.5981318 L9.429,71.90775 L13.8982337,60.0563 L56.6369751,18.6225031 L64.458134,26.1643349 L21.7193926,67.5981318 Z M75.1481777,16.1817797 L72.6028826,18.6361714 L64.6687204,10.9853721 L67.2140155,8.53098039 C68.2736082,7.50923026 69.6826109,6.94767857 71.1796763,6.94767857 C72.6767416,6.94767857 74.0857443,7.50923026 75.145337,8.53098039 C76.2049297,9.55273053 76.7872796,10.9114117 76.7872796,12.3550104 C76.7872796,13.7986091 76.2049297,15.1572903 75.145337,16.1790404 L75.1481777,16.1817797 Z" id="Shape"></path>
            </g>
            <path d="M149,17.9923568 C149,8.06330092 140.227434,0 129.405925,0 L19.5940752,0 C8.76635744,0 0,8.05697012 0,17.9957464 L0,134.004254 C0,143.935139 8.77256626,152 19.5940752,152 L129.405925,152 C140.233643,152 149,143.941417 149,134.000652 L149,98.0106609 L139.208,98.0106609 L139.208,134.000652 C139.208,138.972156 134.824253,143 129.405925,143 L19.5940752,143 C14.1825237,143 9.792,138.966399 9.792,134.004254 L9.792,17.9957464 C9.792,13.0266347 14.1753088,9 19.5940752,9 L129.405925,9 C134.817908,9 139.208,13.0324384 139.208,17.9923568 L139.208,41.6901161 L149,41.6901161 L149,17.9923568 Z" id="Rectangle-11" fill-rule="nonzero"></path>
            <path d="M102.933229,26.6204549 L112.228398,18.1703014 C114.067357,16.4985202 116.913374,16.6340449 118.585155,18.4730042 C120.256937,20.3119635 120.121412,23.1579809 118.282453,24.8297621 L109.293035,33.0019596 C110.26875,34.7249396 110.957768,36.648861 111.28576,38.719721 C112.754498,47.9929696 106.427692,56.7010704 97.1544436,58.1698087 C96.5053203,58.2726198 95.8589663,58.3372331 95.2176706,58.365312 L55.9693921,100.570318 L32.8136013,110.317674 L84.3498014,55.0200013 C82.6173492,53.7316975 81.1281108,52.1149199 79.9840297,50.2437347 L17,95.1641884 L29.7718393,74.8533674 L77.5142178,40.5021805 C77.9120597,32.6447122 83.7552807,25.8682134 91.8356718,24.5884051 C95.8146602,23.9581953 99.6895982,24.7632368 102.933229,26.6204549 Z M95.9029679,50.268302 C100.812335,49.4907347 104.16182,44.8805636 103.384253,39.9711968 C102.606685,35.0618299 97.9965144,31.7123445 93.0871475,32.4899119 C88.1777807,33.2674792 84.8282953,37.8776503 85.6058627,42.7870171 C86.38343,47.696384 90.993601,51.0458693 95.9029679,50.268302 Z" id="Combined-Shape"></path>
        </g>
    </g>
</svg>