<?xml version="1.0" encoding="UTF-8"?>
<svg width="180px" height="180px" viewBox="0 0 180 180" version="1.1" xmlns="http://www.w3.org/2000/svg" xmlns:xlink="http://www.w3.org/1999/xlink">
    <!-- Generator: Sketch 43.2 (39069) - http://www.bohemiancoding.com/sketch -->
    <title>proyect</title>
    <desc>Created with Sketch.</desc>
    <defs></defs>
    <g id="iconos" stroke="none" stroke-width="1" fill="none" fill-rule="evenodd">
        <g id="proyect" fill-rule="nonzero" fill="#000000">
            <path d="M94,30.485892 L94,80.0089949 C94,81.6608814 92.6609799,83 90.9983345,83 L89.0016655,83 C87.3438914,83 86,81.6572461 86,80.0089949 L86,30.476442 L65.0705781,30.198788 C62.9112258,30.2824747 61.7042563,31.0144413 61,32.5058969 L61,69.1814151 C61,70.8394741 59.6609799,72.1835965 57.9983345,72.1835965 L56.0016655,72.1835965 C54.3438914,72.1835965 53,70.8373534 53,69.1754268 L53,45.8620552 C38.9142196,52.2387915 29.590193,64.1848483 24.1691396,80.3375403 C19.6849637,93.698691 18.4509801,107.775342 19.0117096,119.469915 C19.0342634,119.940298 19.0582402,120.349731 19.1100016,121.070958 L19.3941325,124.311916 L8,128.161378 L8,136.256865 C8.79586186,136.612686 9.69577254,136.994967 10.7001037,137.398974 C14.9316661,139.101182 20.0613403,140.812132 26.0985606,142.415017 C43.3863952,147.004945 65.5688679,149.775302 90.3561672,149.801596 C115.143467,149.775302 137.325939,147.004945 154.613774,142.415017 C160.650994,140.812132 165.780668,139.101182 170.012231,137.398974 C171.016562,136.994967 171.916473,136.612686 172.712334,136.256865 L172.712334,128.161378 L161.318202,124.311916 L161.602333,121.070958 C161.654094,120.349731 161.678071,119.940298 161.700625,119.469915 C162.261354,107.775342 161.027371,93.698691 156.543195,80.3375403 C151.15913,64.2950613 141.925173,52.4020081 128,45.9933619 L128,69.1739879 C128,70.8361488 126.66098,72.1835965 124.998335,72.1835965 L123.001665,72.1835965 C121.343891,72.1835965 120,70.8371442 120,69.1814151 L120,33.238387 C119.352728,31.2517296 118.129061,30.2951846 115.641756,30.198788 L94,30.485892 Z M90.3561672,22.3369661 L115.616321,22 C122.568209,22.2092921 126.649214,26.2220803 128.007117,32.1662093 C128.400467,33.8880702 128.544599,35.6311442 128.51298,37.3258107 C146.169341,44.3843288 157.70667,58.5968705 164.108273,77.6712294 C168.806921,91.6714286 170.199992,106.168355 169.747804,118.527577 L180.712334,122.2319 L180.712334,141.33485 L178.581958,142.489118 C178.300698,142.641508 177.800268,142.895056 177.079586,143.234992 C175.920978,143.781491 174.539935,144.384852 172.935396,145.030301 C168.406658,146.852053 162.970994,148.665062 156.620179,150.351207 C138.763657,155.092122 116.036304,157.946686 90.7123344,157.999261 C90.5935555,158 90.474833,157.999938 90.3561672,157.999815 C90.2375014,157.999938 90.1187789,158 90,158 C64.6760309,157.946686 41.9486776,155.092122 24.0921551,150.351207 C17.7413403,148.665062 12.3056763,146.852053 7.7769383,145.030301 C6.17239924,144.384852 4.79135661,143.781491 3.63274856,143.234992 C2.91206594,142.895056 2.41163617,142.641508 2.1303764,142.489118 L0,141.33485 L4.4408921e-16,122.2319 L10.9645302,118.527577 C10.5123429,106.168355 11.905413,91.6714286 16.6040619,77.6712294 C23.0056647,58.5968705 34.5429932,44.3843288 52.199354,37.3258107 C52.1677358,35.6311442 52.3118679,33.8880702 52.7052174,32.1662093 C54.0631204,26.2220803 58.1441251,22.2092921 65.0960139,22 L90.3561672,22.3369661 Z M40,122 C40,119.790861 41.7815346,118 44.0035328,118 L134.996467,118 C137.207557,118 139,119.795356 139,122 C139,124.209139 137.218465,126 134.996467,126 L44.0035328,126 C41.7924427,126 40,124.204644 40,122 Z" id="Combined-Shape"></path>
        </g>
    </g>
</svg>