<?xml version="1.0" encoding="UTF-8"?>
<svg width="128px" height="128px" viewBox="0 0 128 128" version="1.1" xmlns="http://www.w3.org/2000/svg" xmlns:xlink="http://www.w3.org/1999/xlink">
    <!-- Generator: Sketch 47.1 (45422) - http://www.bohemiancoding.com/sketch -->
    <title>proyect</title>
    <desc>Created with Sketch.</desc>
    <defs></defs>
    <g id="iconos" stroke="none" stroke-width="1" fill="none" fill-rule="evenodd">
        <g id="proyect" fill-rule="nonzero" fill="#000000">
            <path d="M68.5809561,23.9842691 L68.5809561,56.3700819 C68.5809561,59.0400206 66.4151617,61.2067906 63.7477239,61.2067906 C61.0789772,61.2067906 58.9144917,59.0371313 58.9144917,56.3700819 L58.9144917,23.9775756 L46.1180019,23.8078148 C45.6134104,23.8300917 45.3646977,23.8854333 45.2067906,24.0211635 L45.2067906,48.712973 C45.2067906,51.3812429 43.0403273,53.545445 40.3735585,53.545445 C37.7060272,53.545445 35.5403263,51.3833583 35.5403263,48.7190218 L35.5403263,36.1677065 C27.877474,40.5629185 22.4057024,47.8550607 19.0152619,57.9572933 C16.1744858,66.4217332 15.0318896,75.9339371 15.4638518,84.9429394 C15.4802543,85.2850304 15.4972072,85.5637883 15.5281261,85.9980888 L15.8666873,89.8599102 L7.66646435,92.6303226 L7.66646435,95.6130403 C7.88004482,95.7018925 8.09976126,95.7917655 8.32537206,95.8825207 C11.3860679,97.1137306 14.9701764,98.2882298 18.9990407,99.3578952 C31.4600358,102.666295 47.1080567,104.504979 63.9978784,104.5229 C80.8919433,104.504979 96.5399642,102.666295 109.000959,99.3578952 C113.029824,98.2882298 116.613932,97.1137306 119.674628,95.8825207 C119.900239,95.7917655 120.119955,95.7018925 120.333536,95.6130403 L120.333536,92.6303226 L112.133313,89.8599102 L112.270622,88.2936856 L112.469363,86.0295876 C112.502793,85.5637883 112.519746,85.2850304 112.536148,84.9429394 C112.96811,75.9339371 111.825514,66.4217332 108.984738,57.9572933 C105.624364,47.9446463 100.219239,40.6924942 92.6634295,36.2855404 L92.6634295,48.7057035 C92.6634295,51.3768381 90.4981141,53.545445 87.8301974,53.545445 C85.1603926,53.545445 82.9969652,51.383946 82.9969652,48.712973 L82.9969652,24.3147331 C82.8252185,23.9270245 82.6001107,23.8389714 81.882338,23.8078103 L68.5809561,23.9842691 Z M64.0001053,14.2384993 L81.9521541,14.0009057 C87.5923365,14.1707079 91.4073187,17.4546611 92.6182414,22.7553936 C92.8230158,23.6517796 92.9490819,24.5728514 93.0015234,25.51234 C105.024449,30.7402135 113.416378,40.7355033 118.135275,54.7960352 C121.130766,63.721467 122.461296,73.4619073 122.274449,82.9496497 L130,85.5596961 L130,101.716904 L127.443804,103.101887 C127.176235,103.246859 126.772042,103.448557 126.280114,103.680592 C125.387107,104.101811 124.36701,104.544665 123.237935,104.998853 C119.807448,106.378816 115.852489,107.675975 111.448553,108.845222 C98.2362582,112.353092 81.8663472,114.292806 64.2647208,114.329332 C63.8749392,114.329872 63.8749392,114.329872 63.7435134,114.329889 C46.1331285,114.292815 29.7632933,112.352973 16.5514469,108.845222 C12.1475111,107.675975 8.19255192,106.378816 4.76206544,104.998853 C3.63298976,104.544665 2.61289284,104.101811 1.71988571,103.680592 C1.22795837,103.448557 0.823765027,103.246859 0.556196195,103.101887 L-2,101.716904 L-2,85.5596961 L5.72555105,82.9496497 C5.53870398,73.4619073 6.86923374,63.721467 9.86472467,54.7960352 C14.583622,40.7355033 22.9755511,30.7402135 34.9984766,25.51234 C35.0509181,24.5728514 35.1769842,23.6517796 35.3817586,22.7553936 C36.5926813,17.4546611 40.4076635,14.1707079 46.1347075,14.0001779 L64.0001053,14.2384993 Z M43.1526767,82.9987861 C43.1526767,80.7908221 44.9452442,78.998875 47.1510517,78.998875 L82.9253522,78.998875 C85.1329638,78.998875 86.9237272,80.7920613 86.9237272,82.9987861 C86.9237272,85.20675 85.1311597,86.9986971 82.9253522,86.9986971 L47.1510517,86.9986971 C44.94344,86.9986971 43.1526767,85.2055108 43.1526767,82.9987861 Z" id="Combined-Shape"></path>
        </g>
    </g>
</svg>