<?xml version="1.0" encoding="UTF-8"?>
<svg width="180px" height="180px" viewBox="0 0 180 180" version="1.1" xmlns="http://www.w3.org/2000/svg" xmlns:xlink="http://www.w3.org/1999/xlink">
    <!-- Generator: Sketch 47.1 (45422) - http://www.bohemiancoding.com/sketch -->
    <title>reorder</title>
    <desc>Created with Sketch.</desc>
    <defs></defs>
    <g id="iconos" stroke="none" stroke-width="1" fill="none" fill-rule="evenodd">
        <g id="reorder" fill-rule="nonzero" fill="#000000">
            <path d="M10,45 L170.5,45 C175.470563,45 179.5,40.9705627 179.5,36 C179.5,31.0294373 175.470563,27 170.5,27 L10,27 C5.02943725,27 1,31.0294373 1,36 C1,40.9705627 5.02943725,45 10,45 Z" id="Line-2"></path>
            <path d="M10,163 L170.5,163 C175.470563,163 179.5,158.970563 179.5,154 C179.5,149.029437 175.470563,145 170.5,145 L10,145 C5.02943725,145 1,149.029437 1,154 C1,158.970563 5.02943725,163 10,163 Z" id="Line-2-Copy"></path>
            <path d="M10,104 L170.5,104 C175.470563,104 179.5,99.9705627 179.5,95 C179.5,90.0294373 175.470563,86 170.5,86 L10,86 C5.02943725,86 1,90.0294373 1,95 C1,99.9705627 5.02943725,104 10,104 Z" id="Line-2-Copy-2"></path>
        </g>
    </g>
</svg>