<?xml version="1.0" encoding="UTF-8"?>
<svg width="128px" height="128px" viewBox="0 0 128 128" version="1.1" xmlns="http://www.w3.org/2000/svg" xmlns:xlink="http://www.w3.org/1999/xlink">
    <!-- Generator: Sketch 47.1 (45422) - http://www.bohemiancoding.com/sketch -->
    <title>reorder</title>
    <desc>Created with Sketch.</desc>
    <defs></defs>
    <g id="iconos" stroke="none" stroke-width="1" fill="none" fill-rule="evenodd">
        <g id="reorder" fill-rule="nonzero" fill="#000000">
            <path d="M6.45378151,30 L121.546218,30 C125.110544,30 128,27.3137085 128,24 C128,20.6862915 125.110544,18 121.546218,18 L6.45378151,18 C2.8894564,18 0,20.6862915 0,24 C0,27.3137085 2.8894564,30 6.45378151,30 Z" id="Line-2"></path>
            <path d="M6.45378151,70.5 L121.546218,70.5 C125.110544,70.5 128,67.8137085 128,64.5 C128,61.1862915 125.110544,58.5 121.546218,58.5 L6.45378151,58.5 C2.8894564,58.5 0,61.1862915 0,64.5 C0,67.8137085 2.8894564,70.5 6.45378151,70.5 Z" id="Line-2-Copy-2"></path>
            <path d="M6.45378151,111 L121.546218,111 C125.110544,111 128,108.313708 128,105 C128,101.686292 125.110544,99 121.546218,99 L6.45378151,99 C2.8894564,99 4.54747351e-13,101.686292 4.54747351e-13,105 C4.54747351e-13,108.313708 2.8894564,111 6.45378151,111 Z" id="Line-2-Copy"></path>
        </g>
    </g>
</svg>