<?xml version="1.0" encoding="UTF-8"?>
<svg width="128px" height="128px" viewBox="0 0 128 128" version="1.1" xmlns="http://www.w3.org/2000/svg" xmlns:xlink="http://www.w3.org/1999/xlink">
    <!-- Generator: Sketch 47.1 (45422) - http://www.bohemiancoding.com/sketch -->
    <title>reorder</title>
    <desc>Created with Sketch.</desc>
    <defs></defs>
    <g id="iconos" stroke="none" stroke-width="1" fill="none" fill-rule="evenodd">
        <g id="reorder" fill-rule="nonzero" fill="#000000">
            <path d="M6.45378151,28 L121.546218,28 C125.110544,28 128,25.7614237 128,23 C128,20.2385763 125.110544,18 121.546218,18 L6.45378151,18 C2.8894564,18 0,20.2385763 0,23 C0,25.7614237 2.8894564,28 6.45378151,28 Z" id="Line-2"></path>
            <path d="M6.45378151,68.5 L121.546218,68.5 C125.110544,68.5 128,66.2614237 128,63.5 C128,60.7385763 125.110544,58.5 121.546218,58.5 L6.45378151,58.5 C2.8894564,58.5 0,60.7385763 0,63.5 C0,66.2614237 2.8894564,68.5 6.45378151,68.5 Z" id="Line-2-Copy-2"></path>
            <path d="M6.45378151,109 L121.546218,109 C125.110544,109 128,106.761424 128,104 C128,101.238576 125.110544,99 121.546218,99 L6.45378151,99 C2.8894564,99 4.54747351e-13,101.238576 4.54747351e-13,104 C4.54747351e-13,106.761424 2.8894564,109 6.45378151,109 Z" id="Line-2-Copy"></path>
        </g>
    </g>
</svg>