<?xml version="1.0" encoding="UTF-8"?>
<svg width="128px" height="128px" viewBox="0 0 128 128" version="1.1" xmlns="http://www.w3.org/2000/svg" xmlns:xlink="http://www.w3.org/1999/xlink">
    <!-- Generator: Sketch 47.1 (45422) - http://www.bohemiancoding.com/sketch -->
    <title>reorder</title>
    <desc>Created with Sketch.</desc>
    <defs></defs>
    <g id="iconos" stroke="none" stroke-width="1" fill="none" fill-rule="evenodd">
        <g id="reorder" fill-rule="nonzero" fill="#000000">
            <path d="M6.45378151,29 L121.546218,29 C125.110544,29 128,26.5375661 128,23.5 C128,20.4624339 125.110544,18 121.546218,18 L6.45378151,18 C2.8894564,18 0,20.4624339 0,23.5 C0,26.5375661 2.8894564,29 6.45378151,29 Z" id="Line-2"></path>
            <path d="M6.45378151,69 L121.546218,69 C125.110544,69 128,66.5375661 128,63.5 C128,60.4624339 125.110544,58 121.546218,58 L6.45378151,58 C2.8894564,58 0,60.4624339 0,63.5 C0,66.5375661 2.8894564,69 6.45378151,69 Z" id="Line-2-Copy-2"></path>
            <path d="M6.45378151,110 L121.546218,110 C125.110544,110 128,107.537566 128,104.5 C128,101.462434 125.110544,99 121.546218,99 L6.45378151,99 C2.8894564,99 4.54747351e-13,101.462434 4.54747351e-13,104.5 C4.54747351e-13,107.537566 2.8894564,110 6.45378151,110 Z" id="Line-2-Copy"></path>
        </g>
    </g>
</svg>