<?xml version="1.0" encoding="UTF-8"?>
<svg width="128px" height="128px" viewBox="0 0 128 128" version="1.1" xmlns="http://www.w3.org/2000/svg" xmlns:xlink="http://www.w3.org/1999/xlink">
    <!-- Generator: Sketch 47.1 (45422) - http://www.bohemiancoding.com/sketch -->
    <title>reservation</title>
    <desc>Created with Sketch.</desc>
    <defs></defs>
    <g id="iconos" stroke="none" stroke-width="1" fill="none" fill-rule="evenodd">
        <g id="reservation">
            <path d="M31,4.42647059 L31,32.5735294 C31,35.0588108 33.0147186,37.0735294 35.5,37.0735294 C37.9852814,37.0735294 40,35.0588108 40,32.5735294 L40,4.42647059 C40,1.94118921 37.9852814,-0.0735294118 35.5,-0.0735294118 C33.0147186,-0.0735294118 31,1.94118921 31,4.42647059 Z" id="Line" fill="#020202" fill-rule="nonzero"></path>
            <path d="M90,4.42647059 L90,32.5735294 C90,35.0588108 92.0147186,37.0735294 94.5,37.0735294 C96.9852814,37.0735294 99,35.0588108 99,32.5735294 L99,4.42647059 C99,1.94118921 96.9852814,-0.0735294118 94.5,-0.0735294118 C92.0147186,-0.0735294118 90,1.94118921 90,4.42647059 Z" id="Line-Copy" fill="#020202" fill-rule="nonzero"></path>
            <path d="M14,16.5 L114,16.5 C122.008129,16.5 128.5,22.9918711 128.5,31 L128.5,114 C128.5,122.008129 122.008129,128.5 114,128.5 L14,128.5 C5.99187113,128.5 -0.5,122.008129 -0.5,114 L-0.5,31 C-0.5,22.9918711 5.99187113,16.5 14,16.5 Z M119.5,50 L119.5,31 C119.5,27.9624339 117.037566,25.5 114,25.5 L14,25.5 C10.9624339,25.5 8.5,27.9624339 8.5,31 L8.5,50 L119.5,50 Z M119.5,59 L8.5,59 L8.5,114 C8.5,117.037566 10.9624339,119.5 14,119.5 L114,119.5 C117.037566,119.5 119.5,117.037566 119.5,114 L119.5,59 Z" id="Combined-Shape" fill="#000000"></path>
            <path d="M81.5,99.5 L99.5,99.5 L99.5,79.5 L81.5,79.5 L81.5,99.5 Z M81,70.5 L100,70.5 C104.69442,70.5 108.5,74.3055796 108.5,79 L108.5,100 C108.5,104.69442 104.69442,108.5 100,108.5 L81,108.5 C76.3055796,108.5 72.5,104.69442 72.5,100 L72.5,79 C72.5,74.3055796 76.3055796,70.5 81,70.5 Z" id="Rectangle" fill="#000000" fill-rule="nonzero"></path>
        </g>
    </g>
</svg>