<?xml version="1.0" encoding="UTF-8" standalone="no"?>
<svg width="180px" height="180px" viewBox="0 0 180 180" version="1.1" xmlns="http://www.w3.org/2000/svg" xmlns:xlink="http://www.w3.org/1999/xlink">
    <!-- Generator: Sketch 3.6 (26304) - http://www.bohemiancoding.com/sketch -->
    <title>rocket</title>
    <desc>Created with Sketch.</desc>
    <defs></defs>
    <g id="iconos" stroke="none" stroke-width="1" fill="none" fill-rule="evenodd">
        <g id="rocket" fill="#000000">
            <g transform="translate(3.000000, 2.000000)" id="Group">
                <g>
                    <path d="M118.132919,79.2380952 C106.077098,79.2380952 96.2609649,69.4072381 96.2609649,57.3333333 C96.2609649,45.2594286 106.077098,35.4285714 118.132919,35.4285714 C130.18874,35.4285714 140.004873,45.2594286 140.004873,57.3333333 C140.004873,69.4072381 130.18874,79.2380952 118.132919,79.2380952 L118.132919,79.2380952 Z M118.132919,44.1904762 C110.897677,44.1904762 105.009747,50.0872381 105.009747,57.3333333 C105.009747,64.5794286 110.897677,70.4761905 118.132919,70.4761905 C125.368162,70.4761905 131.256092,64.5794286 131.256092,57.3333333 C131.256092,50.0872381 125.368162,44.1904762 118.132919,44.1904762 L118.132919,44.1904762 Z" id="Shape"></path>
                    <path d="M4.39875731,175.619048 C3.26141569,175.619048 2.14157164,175.17219 1.3016886,174.33981 C0.103105507,173.139429 -0.29933845,171.343238 0.286829922,169.748571 C13.7512049,132.676952 27.9067337,113.873905 42.3509722,113.873905 C47.1190582,113.873905 51.5721881,115.92419 55.6053765,119.954667 C61.9744895,126.333333 62.2019578,132.685714 61.274587,136.891429 C58.3524939,150.104381 39.7175889,163.045714 5.89479898,175.364952 C5.4048672,175.54019 4.89743787,175.62781 4.39875731,175.62781 L4.39875731,175.619048 Z M42.359721,122.627048 C38.0290741,122.627048 32.9285344,126.429714 27.6180239,133.623238 C22.3950012,140.694095 17.1457322,150.770286 11.9752022,163.650286 C23.6548258,158.945143 33.0422685,154.169905 39.9625548,149.41219 C49.2975049,142.989714 52.0621199,138.021714 52.7357761,134.990095 C53.4094323,131.958476 52.3245833,129.058286 49.4199878,126.149333 C47.0578168,123.783619 44.7481384,122.63581 42.3509722,122.63581 L42.359721,122.627048 Z" id="Shape"></path>
                    <path d="M170.625609,0.380952381 C147.922521,0.380952381 127.695337,4.23619048 110.486484,11.8415238 C96.3047088,18.1150476 84.1613999,26.912 74.3890107,38.0045714 C72.5692641,40.072381 70.8807493,42.1664762 69.3147173,44.2693333 C61.7732675,44.7687619 54.0568421,47.7740952 46.3579142,53.2064762 C39.8400719,57.7977143 33.2959832,64.1588571 26.891875,72.1059048 C16.1308735,85.4590476 9.51679459,98.6281905 9.23683358,99.1801905 C8.28321637,101.099048 8.85188718,103.429714 10.584146,104.682667 C11.3540387,105.243429 12.2551633,105.515048 13.147539,105.515048 C14.267383,105.515048 15.3872271,105.085714 16.2358589,104.244571 C16.2796028,104.200762 20.4615205,100.082667 27.5917775,96.0434286 C33.4709588,92.7139048 42.5346966,88.7973333 53.4969201,88.1051429 C56.2702839,95.2110476 64.2054288,103.710095 68.0111489,107.521524 C71.8168689,111.332952 80.3031871,119.28 87.3984491,122.057524 C86.7072953,133.03619 82.7965899,142.113524 79.4720529,148.001524 C75.4301157,155.151238 71.3269371,159.330667 71.291942,159.365714 C69.7784028,160.881524 69.5859296,163.282286 70.8370054,165.025905 C71.6856372,166.2 73.015452,166.848381 74.3890107,166.848381 C75.0539181,166.848381 75.7188255,166.699429 76.339989,166.384 C76.8911623,166.103619 90.0405811,159.479619 103.373724,148.702476 C111.308869,142.288762 117.660485,135.734857 122.244846,129.207238 C127.669091,121.488 130.661174,113.768762 131.168604,106.216 C133.259563,104.656381 135.350521,102.965333 137.423983,101.134095 C148.49994,91.3470476 157.283717,79.1855238 163.547845,64.9824762 C171.141787,47.7565714 174.991251,27.4902857 174.991251,4.75314286 L174.991251,0.372190476 L170.61686,0.372190476 L170.625609,0.380952381 Z M27.2068311,86.3177143 C35.5444201,74.2 48.291395,59.1733333 62.6568945,54.4506667 C56.9789352,64.4129524 54.0393445,73.560381 52.980742,79.3607619 C42.840904,79.9828571 34.1008711,82.935619 27.2068311,86.3177143 L27.2068311,86.3177143 Z M89.2006981,148.369524 C92.5777278,141.465143 95.5260673,132.720762 96.138482,122.574476 C101.921427,121.514286 111.063904,118.570286 121.002519,112.892571 C116.278177,127.253333 101.282766,140.019429 89.1919493,148.369524 L89.2006981,148.369524 Z M131.641038,94.5714286 C113.443572,110.649524 94.5986964,114.285714 91.8865741,114.285714 C91.8690765,114.285714 90.0755763,114.250667 85.2462488,110.842286 C81.8779678,108.46781 77.9497649,105.085714 74.2052863,101.335619 C70.4608077,97.5855238 67.083778,93.6514286 64.7128582,90.2780952 C61.3095821,85.4415238 61.274587,83.6453333 61.274587,83.6278095 C61.274587,80.911619 64.9053314,62.0384762 80.9593458,43.8137143 C100.17167,22.0140952 129.576326,10.0891429 166.207474,9.20419048 C165.323847,45.8902857 153.425504,75.3390476 131.649787,94.5801905 L131.641038,94.5714286 Z" id="Shape"></path>
                </g>
            </g>
        </g>
    </g>
</svg>