<?xml version="1.0" encoding="UTF-8" standalone="no"?>
<svg width="180px" height="180px" viewBox="0 0 180 180" version="1.1" xmlns="http://www.w3.org/2000/svg" xmlns:xlink="http://www.w3.org/1999/xlink">
    <!-- Generator: Sketch 3.6 (26304) - http://www.bohemiancoding.com/sketch -->
    <title>rrhh</title>
    <desc>Created with Sketch.</desc>
    <defs></defs>
    <g id="iconos" stroke="none" stroke-width="1" fill="none" fill-rule="evenodd">
        <g id="rrhh" fill="#000000">
            <path d="M24.4169087,179 L15.9839542,179 C13.4404805,178.952736 10.9207941,178.479708 8.52116267,177.59899 C4.60929102,176.312801 1.79140861,172.743366 1.33200682,168.492427 C0.317205685,161.001333 1.64306317,153.368557 5.11315453,146.724887 C7.54877708,141.870233 12.3005457,138.757928 17.5511404,138.578275 C18.9513473,138.524731 20.3430052,138.827486 21.6059239,139.460393 C22.6755906,139.979285 23.7203815,140.576012 24.7651723,141.146793 C26.1827113,141.986166 27.6538559,142.722998 29.1682193,143.352086 C34.5416187,145.395889 40.5099661,144.824811 45.4371049,141.795409 L46.2580119,141.302461 C46.6671914,140.995553 47.0905942,140.709817 47.5266865,140.446288 L48.4719734,139.927396 C49.5984813,139.149107 50.8856942,138.660113 52.2282452,138.500442 C55.2205965,138.3514 58.1788794,139.216031 60.6611996,140.965181 C63.438865,142.883364 65.5838961,145.645873 66.8055647,148.878291 C69.2002206,154.786432 70.12437,161.229948 69.4921696,167.61031 C68.7919352,173.712073 63.9604331,178.388847 58.0740986,178.66272 C56.1835247,178.870277 54.2431989,178.896222 52.4521289,178.896222 L24.4169087,178.896222 L24.4169087,179 Z M19.8967382,146.244958 L19.7647445,146.244958 C16.3683012,146.34804 13.3078672,148.194166 11.8011283,151.048799 C9.09867652,155.7959 8.08876824,161.229148 8.9192671,166.553044 C9.15850361,168.740897 10.7692069,170.583193 13.01107,171.233181 C14.7173263,171.791774 16.5060223,172.097832 18.3128145,172.140345 L30.5002273,172.140345 L50.431267,172.140345 C51.9931917,172.140345 53.5331175,172.140345 55.0290455,171.975406 C58.5951356,171.863728 61.5349752,169.319107 61.9367126,165.996375 C62.4279359,161.399858 61.6711896,156.761556 59.7368186,152.512631 C58.9162574,150.523921 57.4651924,148.818607 55.579019,147.62632 C54.0608133,146.651439 52.2483597,146.159922 50.409268,146.22434 C49.8133638,146.356538 49.2472603,146.586909 48.7373486,146.904713 L47.7033984,147.440764 C47.3941171,147.583961 47.0930524,147.742244 46.8014419,147.914963 L45.8774864,148.409779 C40.5535314,151.271094 34.1534383,151.784144 28.3883291,149.811759 C26.8745793,149.256293 25.4043605,148.601798 23.988541,147.853111 C23.3505718,147.440764 22.3826184,147.0078 21.5026608,146.719157 C21.0082176,146.458463 20.4613335,146.296978 19.8967382,146.244958 L19.8967382,146.244958 Z M35.4369642,135.724367 L35.4369642,135.724367 C30.2483324,135.767913 25.2392781,133.745028 21.4317921,130.068439 C17.8152367,126.652135 15.7687762,121.78827 15.8067843,116.699366 C15.8447924,111.610463 17.9636549,106.780438 21.6307998,103.42331 C25.4154221,99.8865653 30.3306952,97.9525875 35.4120882,98.0008832 L35.561344,98.0008832 C40.6994324,97.991689 45.6501695,100.01256 49.4172604,103.656811 C53.0331757,107.100624 55.069202,111.989375 55.014354,117.096127 C54.9148501,127.473976 46.1087561,135.724367 35.4120882,135.724367 L35.4369642,135.724367 Z M35.4336785,104.051088 C31.9536572,104.019204 28.5876171,105.343673 25.9950088,107.765016 C23.5027813,110.058741 22.0475382,113.33775 21.9835741,116.803733 L21.9835741,116.803733 C21.9390567,120.303356 23.3281076,123.656581 25.8019451,126.021435 C28.3903695,128.509166 31.7851358,129.883847 35.3049693,129.869602 L35.3049693,129.869602 C42.4192108,130.199447 48.4594731,124.488741 48.8408798,117.07221 C48.9135666,113.578655 47.5560906,110.218183 45.1083149,107.832135 C42.5297482,105.339612 39.1424781,103.956871 35.6267422,103.961595 L35.412227,103.961595 L35.4336785,104.051088 Z" id="e5Cc57"></path>
            <path d="M134.416909,179 L125.983954,179 C123.44048,178.952736 120.920794,178.479708 118.521163,177.59899 C114.609291,176.312801 111.791409,172.743366 111.332007,168.492427 C110.317206,161.001333 111.643063,153.368557 115.113155,146.724887 C117.548777,141.870233 122.300546,138.757928 127.55114,138.578275 C128.951347,138.524731 130.343005,138.827486 131.605924,139.460393 C132.675591,139.979285 133.720381,140.576012 134.765172,141.146793 C136.182711,141.986166 137.653856,142.722998 139.168219,143.352086 C144.541619,145.395889 150.509966,144.824811 155.437105,141.795409 L156.258012,141.302461 C156.667191,140.995553 157.090594,140.709817 157.526686,140.446288 L158.471973,139.927396 C159.598481,139.149107 160.885694,138.660113 162.228245,138.500442 C165.220597,138.3514 168.178879,139.216031 170.6612,140.965181 C173.438865,142.883364 175.583896,145.645873 176.805565,148.878291 C179.200221,154.786432 180.12437,161.229948 179.49217,167.61031 C178.791935,173.712073 173.960433,178.388847 168.074099,178.66272 C166.183525,178.870277 164.243199,178.896222 162.452129,178.896222 L134.416909,178.896222 L134.416909,179 Z M129.896738,146.244958 L129.764745,146.244958 C126.368301,146.34804 123.307867,148.194166 121.801128,151.048799 C119.098677,155.7959 118.088768,161.229148 118.919267,166.553044 C119.158504,168.740897 120.769207,170.583193 123.01107,171.233181 C124.717326,171.791774 126.506022,172.097832 128.312815,172.140345 L140.500227,172.140345 L160.431267,172.140345 C161.993192,172.140345 163.533118,172.140345 165.029045,171.975406 C168.595136,171.863728 171.534975,169.319107 171.936713,165.996375 C172.427936,161.399858 171.67119,156.761556 169.736819,152.512631 C168.916257,150.523921 167.465192,148.818607 165.579019,147.62632 C164.060813,146.651439 162.24836,146.159922 160.409268,146.22434 C159.813364,146.356538 159.24726,146.586909 158.737349,146.904713 L157.703398,147.440764 C157.394117,147.583961 157.093052,147.742244 156.801442,147.914963 L155.877486,148.409779 C150.553531,151.271094 144.153438,151.784144 138.388329,149.811759 C136.874579,149.256293 135.40436,148.601798 133.988541,147.853111 C133.350572,147.440764 132.382618,147.0078 131.502661,146.719157 C131.008218,146.458463 130.461334,146.296978 129.896738,146.244958 L129.896738,146.244958 Z M145.436964,135.724367 L145.436964,135.724367 C140.248332,135.767913 135.239278,133.745028 131.431792,130.068439 C127.815237,126.652135 125.768776,121.78827 125.806784,116.699366 C125.844792,111.610463 127.963655,106.780438 131.6308,103.42331 C135.415422,99.8865653 140.330695,97.9525875 145.412088,98.0008832 L145.561344,98.0008832 C150.699432,97.991689 155.650169,100.01256 159.41726,103.656811 C163.033176,107.100624 165.069202,111.989375 165.014354,117.096127 C164.91485,127.473976 156.108756,135.724367 145.412088,135.724367 L145.436964,135.724367 Z M145.433678,104.051088 C141.953657,104.019204 138.587617,105.343673 135.995009,107.765016 C133.502781,110.058741 132.047538,113.33775 131.983574,116.803733 L131.983574,116.803733 C131.939057,120.303356 133.328108,123.656581 135.801945,126.021435 C138.390369,128.509166 141.785136,129.883847 145.304969,129.869602 L145.304969,129.869602 C152.419211,130.199447 158.459473,124.488741 158.84088,117.07221 C158.913567,113.578655 157.556091,110.218183 155.108315,107.832135 C152.529748,105.339612 149.142478,103.956871 145.626742,103.961595 L145.412227,103.961595 L145.433678,104.051088 Z" id="e5Cc57-Copy"></path>
            <path d="M80.4169087,81 L71.9839542,81 C69.4404805,80.9527356 66.9207941,80.4797082 64.5211627,79.5989903 C60.609291,78.3128008 57.7914086,74.7433658 57.3320068,70.4924272 C56.3172057,63.0013334 57.6430632,55.3685568 61.1131545,48.7248875 C63.5487771,43.8702334 68.3005457,40.7579276 73.5511404,40.5782755 C74.9513473,40.5247313 76.3430052,40.8274861 77.6059239,41.4603927 C78.6755906,41.9792852 79.7203815,42.5760115 80.7651723,43.1467933 C82.1827113,43.986166 83.6538559,44.7229977 85.1682193,45.3520863 C90.5416187,47.3958888 96.5099661,46.8248115 101.437105,43.7954089 L102.258012,43.302461 C102.667191,42.995553 103.090594,42.709817 103.526686,42.4462884 L104.471973,41.9273959 C105.598481,41.1491071 106.885694,40.6601131 108.228245,40.5004416 C111.220597,40.3513997 114.178879,41.216031 116.6612,42.9651809 C119.438865,44.8833636 121.583896,47.6458733 122.805565,50.8782913 C125.200221,56.7864317 126.12437,63.2299481 125.49217,69.61031 C124.791935,75.7120726 119.960433,80.3888468 114.074099,80.6627199 C112.183525,80.8702769 110.243199,80.8962215 108.452129,80.8962215 L80.4169087,80.8962215 L80.4169087,81 Z M75.8967382,48.2449578 L75.7647445,48.2449578 C72.3683012,48.3480401 69.3078672,50.1941663 67.8011283,53.0487995 C65.0986765,57.7959001 64.0887682,63.2291475 64.9192671,68.5530438 C65.1585036,70.7408967 66.7692069,72.583193 69.01107,73.2331814 C70.7173263,73.791774 72.5060223,74.0978316 74.3128145,74.1403447 L86.5002273,74.1403447 L106.431267,74.1403447 C107.993192,74.1403447 109.533118,74.1403447 111.029045,73.9754059 C114.595136,73.8637276 117.534975,71.3191073 117.936713,67.9963755 C118.427936,63.3998577 117.67119,58.7615556 115.736819,54.5126311 C114.916257,52.5239213 113.465192,50.818607 111.579019,49.62632 C110.060813,48.6514392 108.24836,48.1599217 106.409268,48.2243405 C105.813364,48.3565384 105.24726,48.5869091 104.737349,48.9047129 L103.703398,49.4407639 C103.394117,49.5839609 103.093052,49.7422441 102.801442,49.9149628 L101.877486,50.4097792 C96.5535314,53.2710943 90.1534383,53.7841436 84.3883291,51.8117587 C82.8745793,51.256293 81.4043605,50.6017976 79.988541,49.8531108 C79.3505718,49.4407639 78.3826184,49.0077996 77.5026608,48.7191568 C77.0082176,48.458463 76.4613335,48.2969783 75.8967382,48.2449578 L75.8967382,48.2449578 Z M91.4369642,37.7243668 L91.4369642,37.7243668 C86.2483324,37.7679128 81.2392781,35.745028 77.4317921,32.0684387 C73.8152367,28.6521349 71.7687762,23.7882699 71.8067843,18.6993664 C71.8447924,13.6104629 73.9636549,8.78043834 77.6307998,5.42330965 C81.4154221,1.88656532 86.3306952,-0.0474125409 91.4120882,0.000883188096 L91.561344,0.000883188096 C96.6994324,-0.00831095008 101.650169,2.01255959 105.41726,5.65681127 C109.033176,9.10062351 111.069202,13.9893748 111.014354,19.0961266 C110.91485,29.4739763 102.108756,37.7243668 91.4120882,37.7243668 L91.4369642,37.7243668 Z M91.4336785,6.05108755 C87.9536572,6.0192036 84.5876171,7.34367332 81.9950088,9.76501597 C79.5027813,12.0587408 78.0475382,15.3377501 77.9835741,18.8037333 L77.9835741,18.8037333 C77.9390567,22.3033557 79.3281076,25.6565808 81.8019451,28.0214352 C84.3903695,30.509166 87.7851358,31.883847 91.3049693,31.869602 L91.3049693,31.869602 C98.4192108,32.1994474 104.459473,26.4887415 104.84088,19.0722101 C104.913567,15.5786548 103.556091,12.2181828 101.108315,9.83213516 C98.5297482,7.33961242 95.1424781,5.95687096 91.6267422,5.9615953 L91.412227,5.9615953 L91.4336785,6.05108755 Z" id="e5Cc57-Copy-2"></path>
            <path d="M93.1260324,98.878611 C92.3585101,97.7071297 90.6414899,97.7071297 89.8739676,98.878611 L79.3211365,114.985564 C78.4741167,116.278383 79.4015864,117.994838 80.9471689,117.994838 L102.052831,117.994838 C103.598414,117.994838 104.525883,116.278383 103.678863,114.985564 L93.1260324,98.878611 L93.1260324,98.878611 L93.1260324,98.878611 L93.1260324,98.878611 Z" id="Triangle-1"></path>
        </g>
    </g>
</svg>