<?xml version="1.0" encoding="UTF-8"?>
<svg width="128px" height="128px" viewBox="0 0 128 128" version="1.1" xmlns="http://www.w3.org/2000/svg" xmlns:xlink="http://www.w3.org/1999/xlink">
    <!-- Generator: Sketch 47.1 (45422) - http://www.bohemiancoding.com/sketch -->
    <title>rrhh</title>
    <desc>Created with Sketch.</desc>
    <defs></defs>
    <g id="iconos" stroke="none" stroke-width="1" fill="none" fill-rule="evenodd">
        <g id="rrhh">
            <path d="M63,94 C55.2680135,94 49,87.7319865 49,80 C49,72.2680135 55.2680135,66 63,66 C70.7319865,66 77,72.2680135 77,80 C77,87.7319865 70.7319865,94 63,94 Z M63,86 C66.3137085,86 69,83.3137085 69,80 C69,76.6862915 66.3137085,74 63,74 C59.6862915,74 57,76.6862915 57,80 C57,83.3137085 59.6862915,86 63,86 Z" id="Oval-4" fill="#000000" fill-rule="nonzero"></path>
            <path d="" id="Path-7" stroke="#979797"></path>
            <g id="Group" transform="translate(37.000000, 1.000000)" fill-rule="nonzero" fill="#000000">
                <path d="M25.9799405,27.411826 C18.614322,27.411826 12.6433084,21.2754797 12.6433084,13.705913 C12.6433084,6.13634627 18.614322,0 25.9799405,0 C33.345559,0 39.3165726,6.13634627 39.3165726,13.705913 C39.3165726,21.2754797 33.345559,27.411826 25.9799405,27.411826 Z M25.9799405,20.2696666 C29.5073308,20.2696666 32.3668457,17.330974 32.3668457,13.705913 C32.3668457,10.080852 29.5073308,7.14215942 25.9799405,7.14215942 C22.4525502,7.14215942 19.5930353,10.080852 19.5930353,13.705913 C19.5930353,17.330974 22.4525502,20.2696666 25.9799405,20.2696666 Z" id="Oval-16"></path>
                <path d="M46.438056,32.1262583 L46.5166999,32.2518863 L46.5787542,32.3869699 C49.7779368,39.3511481 51.0853142,44.9202377 50.3928318,49.2051688 C49.6303375,53.923318 46.4821422,56.9256161 41.3918852,57.9824527 L41.1905876,58.024246 L40.9852465,58.0274292 C26.3109525,58.2549115 15.8160391,58.2549115 9.47946343,58.0262825 C3.83267893,57.8225417 0.580719878,53.3080312 0.0696233543,46.8918254 C-0.359083668,41.5099213 1.21941192,35.4194676 4.04923871,31.9056985 C7.89973536,27.1245732 12.2253057,26.828203 16.3599013,29.233541 C16.7043535,29.4339292 17.0220017,29.6370944 17.3795877,29.8794528 C17.3744462,29.875968 17.8830796,30.2248471 17.9576447,30.2725119 C22.6015433,33.2410626 27.3342135,33.2513503 32.4936514,30.2574926 C38.2223595,26.465297 43.2345509,27.0088848 46.438056,32.1262583 Z M33.7679282,35.9951959 L33.6693104,36.0513577 C27.8469016,39.152088 22.0926275,39.152088 16.709216,36.0138821 C16.8164451,36.0763903 15.7829587,35.4376204 15.4330779,35.2520002 C13.2909058,34.1155261 11.5545917,34.2240141 9.49795075,36.5528235 C7.68942437,38.6006837 6.56161236,42.5689891 6.86222208,46.0104313 C7.16996952,49.5335876 8.74977457,51.5335931 11.4138492,51.6212498 C16.9207868,51.802446 26.10684,51.8033266 38.9536274,51.6229784 C41.8249643,51.0406889 43.2678312,49.7502338 43.6530337,47.5766001 C44.1044335,45.0294268 43.1358808,41.234155 40.6537764,36.2784126 C39.1117457,34.1091413 37.1285522,33.9527157 33.7679282,35.9951959 Z" id="Path-27"></path>
            </g>
            <g id="Group-Copy" transform="translate(0.000000, 70.000000)" fill-rule="nonzero" fill="#000000">
                <path d="M25.9799405,27.411826 C18.614322,27.411826 12.6433084,21.2754797 12.6433084,13.705913 C12.6433084,6.13634627 18.614322,0 25.9799405,0 C33.345559,0 39.3165726,6.13634627 39.3165726,13.705913 C39.3165726,21.2754797 33.345559,27.411826 25.9799405,27.411826 Z M25.9799405,20.2696666 C29.5073308,20.2696666 32.3668457,17.330974 32.3668457,13.705913 C32.3668457,10.080852 29.5073308,7.14215942 25.9799405,7.14215942 C22.4525502,7.14215942 19.5930353,10.080852 19.5930353,13.705913 C19.5930353,17.330974 22.4525502,20.2696666 25.9799405,20.2696666 Z" id="Oval-16"></path>
                <path d="M46.438056,32.1262583 L46.5166999,32.2518863 L46.5787542,32.3869699 C49.7779368,39.3511481 51.0853142,44.9202377 50.3928318,49.2051688 C49.6303375,53.923318 46.4821422,56.9256161 41.3918852,57.9824527 L41.1905876,58.024246 L40.9852465,58.0274292 C26.3109525,58.2549115 15.8160391,58.2549115 9.47946343,58.0262825 C3.83267893,57.8225417 0.580719878,53.3080312 0.0696233543,46.8918254 C-0.359083668,41.5099213 1.21941192,35.4194676 4.04923871,31.9056985 C7.89973536,27.1245732 12.2253057,26.828203 16.3599013,29.233541 C16.7043535,29.4339292 17.0220017,29.6370944 17.3795877,29.8794528 C17.3744462,29.875968 17.8830796,30.2248471 17.9576447,30.2725119 C22.6015433,33.2410626 27.3342135,33.2513503 32.4936514,30.2574926 C38.2223595,26.465297 43.2345509,27.0088848 46.438056,32.1262583 Z M33.7679282,35.9951959 L33.6693104,36.0513577 C27.8469016,39.152088 22.0926275,39.152088 16.709216,36.0138821 C16.8164451,36.0763903 15.7829587,35.4376204 15.4330779,35.2520002 C13.2909058,34.1155261 11.5545917,34.2240141 9.49795075,36.5528235 C7.68942437,38.6006837 6.56161236,42.5689891 6.86222208,46.0104313 C7.16996952,49.5335876 8.74977457,51.5335931 11.4138492,51.6212498 C16.9207868,51.802446 26.10684,51.8033266 38.9536274,51.6229784 C41.8249643,51.0406889 43.2678312,49.7502338 43.6530337,47.5766001 C44.1044335,45.0294268 43.1358808,41.234155 40.6537764,36.2784126 C39.1117457,34.1091413 37.1285522,33.9527157 33.7679282,35.9951959 Z" id="Path-27"></path>
            </g>
            <g id="Group-Copy-2" transform="translate(77.000000, 70.000000)" fill-rule="nonzero" fill="#000000">
                <path d="M25.9799405,27.411826 C18.614322,27.411826 12.6433084,21.2754797 12.6433084,13.705913 C12.6433084,6.13634627 18.614322,0 25.9799405,0 C33.345559,0 39.3165726,6.13634627 39.3165726,13.705913 C39.3165726,21.2754797 33.345559,27.411826 25.9799405,27.411826 Z M25.9799405,20.2696666 C29.5073308,20.2696666 32.3668457,17.330974 32.3668457,13.705913 C32.3668457,10.080852 29.5073308,7.14215942 25.9799405,7.14215942 C22.4525502,7.14215942 19.5930353,10.080852 19.5930353,13.705913 C19.5930353,17.330974 22.4525502,20.2696666 25.9799405,20.2696666 Z" id="Oval-16"></path>
                <path d="M46.438056,32.1262583 L46.5166999,32.2518863 L46.5787542,32.3869699 C49.7779368,39.3511481 51.0853142,44.9202377 50.3928318,49.2051688 C49.6303375,53.923318 46.4821422,56.9256161 41.3918852,57.9824527 L41.1905876,58.024246 L40.9852465,58.0274292 C26.3109525,58.2549115 15.8160391,58.2549115 9.47946343,58.0262825 C3.83267893,57.8225417 0.580719878,53.3080312 0.0696233543,46.8918254 C-0.359083668,41.5099213 1.21941192,35.4194676 4.04923871,31.9056985 C7.89973536,27.1245732 12.2253057,26.828203 16.3599013,29.233541 C16.7043535,29.4339292 17.0220017,29.6370944 17.3795877,29.8794528 C17.3744462,29.875968 17.8830796,30.2248471 17.9576447,30.2725119 C22.6015433,33.2410626 27.3342135,33.2513503 32.4936514,30.2574926 C38.2223595,26.465297 43.2345509,27.0088848 46.438056,32.1262583 Z M33.7679282,35.9951959 L33.6693104,36.0513577 C27.8469016,39.152088 22.0926275,39.152088 16.709216,36.0138821 C16.8164451,36.0763903 15.7829587,35.4376204 15.4330779,35.2520002 C13.2909058,34.1155261 11.5545917,34.2240141 9.49795075,36.5528235 C7.68942437,38.6006837 6.56161236,42.5689891 6.86222208,46.0104313 C7.16996952,49.5335876 8.74977457,51.5335931 11.4138492,51.6212498 C16.9207868,51.802446 26.10684,51.8033266 38.9536274,51.6229784 C41.8249643,51.0406889 43.2678312,49.7502338 43.6530337,47.5766001 C44.1044335,45.0294268 43.1358808,41.234155 40.6537764,36.2784126 C39.1117457,34.1091413 37.1285522,33.9527157 33.7679282,35.9951959 Z" id="Path-27"></path>
            </g>
        </g>
    </g>
</svg>