<?xml version="1.0" encoding="UTF-8" standalone="no"?>
<svg width="180px" height="180px" viewBox="0 0 180 180" version="1.1" xmlns="http://www.w3.org/2000/svg" xmlns:xlink="http://www.w3.org/1999/xlink">
    <!-- Generator: Sketch 3.6 (26304) - http://www.bohemiancoding.com/sketch -->
    <title>save</title>
    <desc>Created with Sketch.</desc>
    <defs>
        <path id="path-1" d="M0.419851117,0.860215054 L0.419851117,179.798925 L179.150471,179.798925 L179.150471,0.860215054 L89.7851613,0.860215054 L0.419851117,0.860215054 Z"></path>
    </defs>
    <g id="iconos" stroke="none" stroke-width="1" fill="none" fill-rule="evenodd">
        <g id="save">
            <g id="Group-3">
                <mask id="mask-2" fill="white">
                    <use xlink:href="#path-1"></use>
                </mask>
                <g id="Clip-2"></g>
                <path d="M16.7800496,179.798925 C7.54332506,179.798925 0,172.257527 0,163.003763 L0,17.6204301 C0,8.39462366 7.54332506,0.860215054 16.7800496,0.860215054 L131.532357,0.860215054 C133.036824,0.860215054 134.45732,1.46129032 135.492953,2.49569892 L177.478065,44.4311828 C178.520695,45.4725806 179.122481,46.8913978 179.122481,48.366129 L179.150471,163.003763 C179.150471,172.257527 171.600149,179.798925 162.335434,179.798925 L16.7800496,179.798925 Z M15.2935152,10.4586022 C12.1445929,10.4586022 9.60974613,12.9904526 9.60974613,16.1356528 L9.60974613,164.487827 C9.60974613,167.640159 12.1445929,170.200538 15.2935152,170.200538 L163.821254,170.200538 C166.977317,170.200538 169.540725,167.640159 169.540725,164.487827 L169.512164,49.877018 L130.018537,10.4586022 L15.2935152,10.4586022 Z" id="Fill-1" fill="#000000" mask="url(#mask-2)"></path>
            </g>
            <path d="M35.5,129.788172 C35.5,122.351942 40.5106054,116.5 46.3836578,116.5 L123.586351,116.5 C129.471358,116.5 134.5,122.357822 134.5,129.788172 L134.5,170.512366 L141.5,170.512366 L141.5,129.788172 C141.5,118.708831 133.594688,109.5 123.586351,109.5 L46.3836578,109.5 C36.3826333,109.5 28.5,118.706215 28.5,129.788172 L28.5,170.512366 L35.5,170.512366 L35.5,129.788172 Z" id="Combined-Shape" fill="#000000"></path>
            <g id="Group" transform="translate(27.000000, 10.000000)" fill="#000000">
                <path d="M0.962084367,3.10862447e-15 L0.962084367,40.3715054 C0.962084367,49.5973118 8.50540943,57.1317204 17.7701241,57.1317204 L79.3552854,57.1317204 C88.62,57.1317204 96.1423325,49.5973118 96.1423325,40.3715054 L96.1423325,8.8817842e-16 L87.4611911,0 L87.4611911,41.5172137 C87.4611911,44.8112753 84.7764573,47.4629576 81.471019,47.4629576 L15.6539096,47.4629576 C12.3559497,47.4629576 9.67121588,44.8112753 9.67121588,41.5172137 L9.67121588,-6.9388939e-18 L0.962084367,0 Z" id="Combined-Shape"></path>
            </g>
            <path d="M91,23.0042577 L91,23.0042577 L91,46.9957423 C91,45.8944217 90.1045457,45 89.0062943,45 L103.993706,45 C102.896697,45 102,45.8974867 102,46.9957423 L102,23.0042577 C102,24.1055783 102.895454,25 103.993706,25 L89.0062943,25 C90.1033025,25 91,24.1025133 91,23.0042577 L91,23.0042577 Z M85,23.0042577 C85,20.7927672 86.7856329,19 89.0062943,19 L103.993706,19 C106.206321,19 108,20.7890275 108,23.0042577 L108,46.9957423 C108,49.2072328 106.214367,51 103.993706,51 L89.0062943,51 C86.793679,51 85,49.2109725 85,46.9957423 L85,23.0042577 L85,23.0042577 Z" id="Rectangle-1" fill="#000000"></path>
        </g>
    </g>
</svg>