<?xml version="1.0" encoding="UTF-8"?>
<svg width="128px" height="128px" viewBox="0 0 128 128" version="1.1" xmlns="http://www.w3.org/2000/svg" xmlns:xlink="http://www.w3.org/1999/xlink">
    <!-- Generator: Sketch 47.1 (45422) - http://www.bohemiancoding.com/sketch -->
    <title>search</title>
    <desc>Created with Sketch.</desc>
    <defs></defs>
    <g id="iconos" stroke="none" stroke-width="1" fill="none" fill-rule="evenodd">
        <g id="search" fill-rule="nonzero" fill="#040404">
            <path d="M77.3670461,84.8237052 C74.919011,82.1958523 85.5155291,76.9323584 85.5791555,77.0006583 C94.2706374,86.3305637 107.625109,100.176158 125.642571,118.53744 C128.553622,121.283736 128.54581,124.506037 126.267933,126.762784 C123.990057,129.019531 120.413533,127.693644 118.64169,126.042969 L77.3670461,84.8237052 Z M48.0491231,96.8207895 C21.4996615,96.8207895 0,75.1341745 0,48.4103947 C0,21.686615 21.4996615,0 48.0491231,0 C74.5985848,0 96.0982463,21.686615 96.0982463,48.4103947 C96.0982463,75.1341745 74.5985848,96.8207895 48.0491231,96.8207895 Z M48.0491231,85.8179007 C68.4845259,85.8179007 85.0749198,69.0832424 85.0749198,48.4103947 C85.0749198,27.7375471 68.4845259,11.0028888 48.0491231,11.0028888 C27.6137204,11.0028888 11.0233265,27.7375471 11.0233265,48.4103947 C11.0233265,69.0832424 27.6137204,85.8179007 48.0491231,85.8179007 Z" id="Combined-Shape"></path>
        </g>
    </g>
</svg>