<?xml version="1.0" encoding="UTF-8"?>
<svg width="128px" height="128px" viewBox="0 0 128 128" version="1.1" xmlns="http://www.w3.org/2000/svg" xmlns:xlink="http://www.w3.org/1999/xlink">
    <!-- Generator: Sketch 47.1 (45422) - http://www.bohemiancoding.com/sketch -->
    <title>search</title>
    <desc>Created with Sketch.</desc>
    <defs></defs>
    <g id="iconos" stroke="none" stroke-width="1" fill="none" fill-rule="evenodd">
        <g id="search" fill-rule="nonzero">
            <path d="M48.0491231,96.8207895 C21.4996615,96.8207895 0,75.1341745 0,48.4103947 C0,21.686615 21.4996615,0 48.0491231,0 C74.5985848,0 96.0982463,21.686615 96.0982463,48.4103947 C96.0982463,75.1341745 74.5985848,96.8207895 48.0491231,96.8207895 Z M48.0491231,86.8193451 C69.0316064,86.8193451 86.0661454,69.6366797 86.0661454,48.4103947 C86.0661454,27.1841098 69.0316064,10.0014444 48.0491231,10.0014444 C27.0666398,10.0014444 10.0321009,27.1841098 10.0321009,48.4103947 C10.0321009,69.6366797 27.0666398,86.8193451 48.0491231,86.8193451 Z" id="Combined-Shape" fill="#040404"></path>
            <path d="M75.9644661,83.0355339 L119.464466,126.535534 C121.417088,128.488155 124.582912,128.488155 126.535534,126.535534 C128.488155,124.582912 128.488155,121.417088 126.535534,119.464466 L83.0355339,75.9644661 C81.0829124,74.0118446 77.9170876,74.0118446 75.9644661,75.9644661 C74.0118446,77.9170876 74.0118446,81.0829124 75.9644661,83.0355339 Z" id="Line" fill="#000000"></path>
        </g>
    </g>
</svg>