<?xml version="1.0" encoding="UTF-8"?>
<svg width="180px" height="180px" viewBox="0 0 180 180" version="1.1" xmlns="http://www.w3.org/2000/svg" xmlns:xlink="http://www.w3.org/1999/xlink">
    <!-- Generator: Sketch 40.1 (33804) - http://www.bohemiancoding.com/sketch -->
    <title>search</title>
    <desc>Created with Sketch.</desc>
    <defs></defs>
    <g id="iconos" stroke="none" stroke-width="1" fill="none" fill-rule="evenodd">
        <g id="search" fill="#000000">
            <path d="M135.301774,62.7218842 C135.301774,30.0145407 108.463885,3.5 75.3576716,3.5 C42.2514581,3.5 15.4135693,30.0145407 15.4135693,62.7218842 C15.4135693,95.4292276 42.2514581,121.943768 75.3576716,121.943768 C108.463885,121.943768 135.301774,95.4292276 135.301774,62.7218842 Z M26.8314936,62.7218842 C26.8314936,36.2445109 48.5574035,14.7803589 75.3576716,14.7803589 C102.15794,14.7803589 123.88385,36.2445109 123.88385,62.7218842 C123.88385,89.1992575 102.15794,110.663409 75.3576716,110.663409 C48.5574035,110.663409 26.8314936,89.1992575 26.8314936,62.7218842 Z M136.534498,175.599608 C138.206727,178.317305 141.765466,179.164824 144.483163,177.492595 C147.20086,175.820365 148.048379,172.261627 146.376149,169.54393 L108.069198,107.287706 C106.396969,104.570009 102.83823,103.72249 100.120533,105.394719 C97.4028363,107.066949 96.5553173,110.625687 98.2275467,113.343384 L136.534498,175.599608 Z" id="Combined-Shape-Copy"></path>
        </g>
    </g>
</svg>