<?xml version="1.0" encoding="UTF-8"?>
<svg width="180px" height="180px" viewBox="0 0 180 180" version="1.1" xmlns="http://www.w3.org/2000/svg" xmlns:xlink="http://www.w3.org/1999/xlink">
    <!-- Generator: Sketch 3.6 (26304) - http://www.bohemiancoding.com/sketch -->
    <title>settings</title>
    <desc>Created with Sketch.</desc>
    <defs></defs>
    <g id="iconos" stroke="none" stroke-width="1" fill="none" fill-rule="evenodd">
        <g id="settings">
            <path d="M25,10.2568978 L25,48.3008405 C25,50.5099795 26.790861,52.3008405 29,52.3008405 C31.209139,52.3008405 33,50.5099795 33,48.3008405 L33,10.2568978 C33,8.04775877 31.209139,6.25689777 29,6.25689777 C26.790861,6.25689777 25,8.04775877 25,10.2568978 L25,10.2568978 Z" id="Line" fill="#000000"></path>
            <path d="M25,89.0239341 L25,162.432669 C25,164.641808 26.790861,166.432669 29,166.432669 C31.209139,166.432669 33,164.641808 33,162.432669 L33,89.0239341 C33,86.8147951 31.209139,85.0239341 29,85.0239341 C26.790861,85.0239341 25,86.8147951 25,89.0239341 L25,89.0239341 Z" id="Line" fill="#000000"></path>
            <path d="M85,132.962009 L85,162.432669 C85,164.641808 86.790861,166.432669 89,166.432669 C91.209139,166.432669 93,164.641808 93,162.432669 L93,132.962009 C93,130.75287 91.209139,128.962009 89,128.962009 C86.790861,128.962009 85,130.75287 85,132.962009 L85,132.962009 Z" id="Line-Copy" fill="#000000"></path>
            <path d="M85,10.2568978 L85,93.3105755 C85,95.5197145 86.790861,97.3105755 89,97.3105755 C91.209139,97.3105755 93,95.5197145 93,93.3105755 L93,10.2568978 C93,8.04775877 91.209139,6.25689777 89,6.25689777 C86.790861,6.25689777 85,8.04775877 85,10.2568978 L85,10.2568978 Z" id="Line-Copy" fill="#000000"></path>
            <path d="M147,68.6623873 L147,162.432669 C147,164.641808 148.790861,166.432669 151,166.432669 C153.209139,166.432669 155,164.641808 155,162.432669 L155,68.6623873 C155,66.4532483 153.209139,64.6623873 151,64.6623873 C148.790861,64.6623873 147,66.4532483 147,68.6623873 L147,68.6623873 Z" id="Line-Copy-2" fill="#000000"></path>
            <path d="M147,10.2568978 L147,27.9392937 C147,30.1484327 148.790861,31.9392937 151,31.9392937 C153.209139,31.9392937 155,30.1484327 155,27.9392937 L155,10.2568978 C155,8.04775877 153.209139,6.25689777 151,6.25689777 C148.790861,6.25689777 147,8.04775877 147,10.2568978 L147,10.2568978 Z" id="Line-Copy-2" fill="#000000"></path>
            <path d="M151.981925,71.5907269 C164.844574,71.5907269 175.271811,61.1634896 175.271811,48.3008405 C175.271811,35.4381914 164.844574,25.010954 151.981925,25.010954 C139.119276,25.010954 128.692038,35.4381914 128.692038,48.3008405 C128.692038,61.1634896 139.119276,71.5907269 151.981925,71.5907269 L151.981925,71.5907269 Z M151.981925,63.5907269 C143.537553,63.5907269 136.692038,56.7452116 136.692038,48.3008405 C136.692038,39.8564694 143.537553,33.010954 151.981925,33.010954 C160.426296,33.010954 167.271811,39.8564694 167.271811,48.3008405 C167.271811,56.7452116 160.426296,63.5907269 151.981925,63.5907269 L151.981925,63.5907269 Z" id="Oval-1" fill="#040404"></path>
            <path d="M87.8638402,135.890348 C100.726489,135.890348 111.153727,125.463111 111.153727,112.600462 C111.153727,99.7378128 100.726489,89.3105755 87.8638402,89.3105755 C75.0011911,89.3105755 64.5739538,99.7378128 64.5739538,112.600462 C64.5739538,125.463111 75.0011911,135.890348 87.8638402,135.890348 L87.8638402,135.890348 Z M87.8638402,127.890348 C79.4194691,127.890348 72.5739538,121.044833 72.5739538,112.600462 C72.5739538,104.156091 79.4194691,97.3105755 87.8638402,97.3105755 C96.3082113,97.3105755 103.153727,104.156091 103.153727,112.600462 C103.153727,121.044833 96.3082113,127.890348 87.8638402,127.890348 L87.8638402,127.890348 Z" id="Oval-1-Copy" fill="#040404"></path>
            <path d="M28.8014958,90.8806134 C41.6641449,90.8806134 52.0913822,80.453376 52.0913822,67.5907269 C52.0913822,54.7280778 41.6641449,44.3008405 28.8014958,44.3008405 C15.9388467,44.3008405 5.51160936,54.7280778 5.51160936,67.5907269 C5.51160936,80.453376 15.9388467,90.8806134 28.8014958,90.8806134 L28.8014958,90.8806134 Z M28.8014958,82.8806134 C20.3571247,82.8806134 13.5116094,76.035098 13.5116094,67.5907269 C13.5116094,59.1463558 20.3571247,52.3008405 28.8014958,52.3008405 C37.2458669,52.3008405 44.0913822,59.1463558 44.0913822,67.5907269 C44.0913822,76.035098 37.2458669,82.8806134 28.8014958,82.8806134 L28.8014958,82.8806134 Z" id="Oval-1-Copy-2" fill="#040404"></path>
        </g>
    </g>
</svg>