<?xml version="1.0" encoding="UTF-8"?>
<svg width="180px" height="180px" viewBox="0 0 180 180" version="1.1" xmlns="http://www.w3.org/2000/svg" xmlns:xlink="http://www.w3.org/1999/xlink">
    <!-- Generator: Sketch 40.1 (33804) - http://www.bohemiancoding.com/sketch -->
    <title>shop</title>
    <desc>Created with Sketch.</desc>
    <defs></defs>
    <g id="iconos" stroke="none" stroke-width="1" fill="none" fill-rule="evenodd">
        <g id="shop" fill="#000000">
            <g transform="translate(1.000000, 11.000000)">
                <path d="M133.501837,86.3082216 L110.837977,86.3082216 C104.633842,86.3082216 99.5901862,91.3479883 99.5901862,97.5451137 L99.5901862,114.911878 C99.5901862,121.110706 104.633842,126.150472 110.837977,126.150472 L133.501837,126.150472 C139.704268,126.150472 144.748349,121.110706 144.748349,114.911878 L144.748349,97.5451137 C144.748349,91.3479883 139.704268,86.3082216 133.501837,86.3082216 L133.501837,86.3082216 Z M136.568758,114.911878 C136.568758,116.614501 135.170985,117.976601 133.501837,117.976601 L110.837977,117.976601 C109.133895,117.976601 107.771056,116.5813 107.771056,114.911878 L107.771056,97.5451137 C107.771056,95.8424898 109.167125,94.4803907 110.837977,94.4803907 L133.501837,94.4803907 C135.205918,94.4803907 136.568758,95.8773936 136.568758,97.5451137 L136.568758,114.911878 Z" id="Fill-1"></path>
                <path d="M177.943376,48.8031384 L151.427678,2.2195031 C150.662776,0.874335922 149.206275,0 147.639591,0 L31.1204058,0 C29.5532669,0 28.0967657,0.837033349 27.3318636,2.2195031 L0.851679194,48.8031384 C0.486984771,49.4572982 0.268441296,50.1856082 0.268441296,50.949856 C0.268441296,61.3950314 6.56977815,70.3476489 15.5673951,74.3135493 L15.5673951,153.138199 C15.5673951,155.54103 17.5342864,157.506239 19.9368987,157.506239 L158.820822,157.506239 C161.22571,157.506239 163.192602,155.54103 163.192602,153.138199 L163.192602,74.8594407 C163.192602,74.6779318 163.192602,74.5323608 163.157088,74.3867898 C172.190219,70.4204345 178.527069,61.4305143 178.527069,50.949856 C178.527069,50.1856082 178.345405,49.4572982 177.943376,48.8031384 Z M33.6687137,8.77110869 L145.089007,8.77110869 L165.816034,45.1993459 L12.9812973,45.1993459 L33.6687137,8.77110869 Z M127.133384,53.8976691 C125.74973,61.7594138 118.8647,67.7264608 110.596472,67.7264608 C102.328244,67.7264608 95.4436693,61.7594138 94.0600159,53.8976691 L127.133384,53.8976691 Z M84.7728288,53.8976691 C83.3873542,61.7594138 76.5041454,67.7264608 68.2359173,67.7264608 C59.9676891,67.7264608 53.0831144,61.7594138 51.6621265,53.8976691 L84.7728288,53.8976691 Z M42.4104527,53.8976691 C41.0267993,61.7594138 34.106256,67.7264608 25.8380278,67.7264608 C17.5697997,67.7637634 10.685225,61.7594138 9.30157159,53.8976691 L42.4104527,53.8976691 Z M48.5656386,148.772433 L48.5656386,101.642906 C48.5656386,98.2224423 51.3347666,95.4197453 54.7959489,95.4197453 L67.5069837,95.4197453 C70.9303762,95.4197453 73.7350174,98.1865045 73.7350174,101.642906 L73.7350174,148.772433 L48.5656386,148.772433 Z M154.451318,148.772433 L82.4407878,148.772433 C82.4407878,148.772433 82.4407878,123.142179 82.4407878,110.5 L82.4407878,101.642906 C82.4407878,93.4190537 75.7396985,86.6859392 67.4714704,86.6859392 L54.7586143,86.6859392 C46.5277207,86.6859392 39.7888416,93.3817511 39.7888416,101.642906 L39.7888416,148.807916 L24.3086788,148.807916 L24.3086788,76.4602669 C24.8190689,76.4975695 25.3276378,76.4975695 25.8380278,76.4975695 C34.6526147,76.4975695 42.4477872,72.0212607 47.0362896,65.2153608 C51.6266132,72.0212607 59.4217857,76.4975695 68.2359173,76.4975695 C77.0505041,76.4975695 84.8083421,72.0212607 89.434179,65.2153608 C94.0245026,72.0212607 101.817854,76.4975695 110.596472,76.4975695 C119.411059,76.4975695 127.168897,72.0212607 131.759221,65.2153608 C136.347723,72.0212607 144.142896,76.4975695 152.957027,76.4975695 C153.467417,76.4975695 153.940928,76.4602669 154.451318,76.4602669 L154.451318,148.772433 Z M136.420571,53.9336069 L169.531273,53.9336069 C168.110285,61.7594138 161.22571,67.7637634 152.957027,67.7637634 C144.688799,67.7637634 137.804224,61.7948968 136.420571,53.9336069 Z" id="Fill-3"></path>
            </g>
        </g>
    </g>
</svg>