<?xml version="1.0" encoding="utf-8"?>
<!-- Generator: Adobe Illustrator 19.2.0, SVG Export Plug-In . SVG Version: 6.00 Build 0)  -->
<svg version="1.1" id="Capa_1" xmlns="http://www.w3.org/2000/svg" xmlns:xlink="http://www.w3.org/1999/xlink" x="0px" y="0px"
	 viewBox="0 0 32 32" style="enable-background:new 0 0 32 32;" xml:space="preserve">
<path d="M29.7,7.3c0,0.5-0.2,0.9-0.7,1.3l-5.9,4.9c-0.5,0.4-1.4,0.4-1.9,0c-0.3-0.2-0.4-0.6-0.4-0.9c0-0.3,0.2-0.7,0.4-0.9l3.9-3.3
	c-6.5,0.2-11.5,1.9-15.1,5.1c-6.6,6-5.8,15.5-5.8,15.6c0,0.3-0.1,0.6-0.3,0.9c-0.2,0.3-0.6,0.4-0.9,0.5l-0.1,0
	c-0.7,0-1.3-0.5-1.3-1.1c0-0.4-1-10.7,6.5-17.6c3.9-3.6,9.3-5.5,16.2-5.8l-4-2.7C20.2,3,20,2.7,20,2.4c0-0.3,0.1-0.7,0.3-0.9
	c0.4-0.5,1.3-0.6,1.8-0.2l6.5,4.4C29.2,6,29.7,6.6,29.7,7.3z"/>
</svg>
