<?xml version="1.0" encoding="UTF-8"?>
<svg width="180px" height="180px" viewBox="0 0 180 180" version="1.1" xmlns="http://www.w3.org/2000/svg" xmlns:xlink="http://www.w3.org/1999/xlink">
    <!-- Generator: Sketch 43.2 (39069) - http://www.bohemiancoding.com/sketch -->
    <title>skip</title>
    <desc>Created with Sketch.</desc>
    <defs></defs>
    <g id="iconos" stroke="none" stroke-width="1" fill="none" fill-rule="evenodd">
        <g id="skip" fill="#000000">
            <path d="M179.181499,73.0211866 L99.2462878,7.1424948 C97.763018,5.92026939 95.6853276,5.65922503 93.9410134,6.47620576 C92.1990177,7.29133181 91.0848266,9.07134827 91.0848266,11.0006654 L91.0848266,45.7209551 C52.285661,47.1300382 25.6155525,60.8174791 11.7417175,86.4494378 C-0.20140927,108.557066 -0.0905929293,134.744961 0.0216144117,152.067549 L0.0216144117,156.073629 C0.0216144117,158.335859 1.54105018,160.339363 3.767114,160.93332 C4.17653169,161.043673 4.62026072,161.079839 5.02967842,161.079839 C6.81015854,161.079839 8.47796765,160.152505 9.36913504,158.558883 C36.4463429,110.819296 58.7408287,108.519045 91.0486606,108.408693 L91.0486606,143.016775 C91.0486606,144.945628 92.160997,146.726109 93.9410134,147.541235 C95.7214936,148.358215 97.763018,148.097171 99.2824538,146.874946 L179.181499,80.7732301 C180.331856,79.8097307 181,78.4006476 181,76.9155232 C181,75.4317898 180.331856,73.984686 179.181499,73.0211866 Z M101.100955,132.370524 L101.100955,103.400629 C101.100955,102.065732 100.581184,100.803168 99.6176848,99.8758344 C98.6903514,98.948501 97.391621,98.3925646 96.0928906,98.3925646 C75.9145796,98.3925646 60.4466585,98.948501 45.4229302,105.959605 C32.4402626,112.005355 21.2019092,122.280673 10.1100744,138.416274 C10.5556581,123.691611 12.4845116,106.108442 20.5333018,91.2349418 C33.2934093,67.6421892 57.9980347,55.9577884 96.0928906,55.6248758 C98.8387248,55.5868551 101.062934,53.3626459 101.062934,50.6168117 L101.062934,21.6102868 L168.091519,76.9155232 L101.100955,132.370524 Z" id="next"></path>
        </g>
    </g>
</svg>