<?xml version="1.0" encoding="UTF-8"?>
<svg width="152px" height="152px" viewBox="0 0 152 152" version="1.1" xmlns="http://www.w3.org/2000/svg" xmlns:xlink="http://www.w3.org/1999/xlink">
    <!-- Generator: Sketch 43.1 (39012) - http://www.bohemiancoding.com/sketch -->
    <title>slide</title>
    <desc>Created with Sketch.</desc>
    <defs></defs>
    <g id="Page-1" stroke="none" stroke-width="1" fill="none" fill-rule="evenodd">
        <g id="slide" fill="#000000">
            <path d="M8,30.0079447 L8,120.992055 C8,129.28335 14.7159504,136 23.0029641,136 L128.997036,136 C137.282847,136 144,129.281295 144,120.992055 L144,30.0079447 C144,21.7166501 137.28405,15 128.997036,15 L23.0029641,15 C14.7171533,15 8,21.7187052 8,30.0079447 Z M0,30.0079447 C0,17.3010077 10.2982947,7 23.0029641,7 L128.997036,7 C141.701222,7 152,17.2972666 152,30.0079447 L152,120.992055 C152,133.698992 141.701705,144 128.997036,144 L23.0029641,144 C10.2987778,144 0,133.702733 0,120.992055 L0,30.0079447 Z" id="Rectangle-4" fill-rule="nonzero"></path>
            <path d="M20.4729948,72.488528 C19.8423351,71.861212 19.8423351,70.7636802 20.4729948,70.1363642 L31.261425,59.4051325 C32.1758569,58.4955488 33.6274908,59.2171011 33.6274908,60.5812145 L33.6274908,82.0436778 C33.6274908,83.4077911 32.1758569,84.1293434 31.261425,83.2197597 L20.4729948,72.488528 Z" id="Triangle-2" fill-rule="nonzero"></path>
            <path d="M131.154496,72.488528 C131.785156,71.861212 131.785156,70.7636802 131.154496,70.1363642 L120.366066,59.4051325 C119.451634,58.4955488 118,59.2171011 118,60.5812145 L118,82.0436778 C118,83.4077911 119.451634,84.1293434 120.366066,83.2197597" id="Triangle-2" fill-rule="nonzero"></path>
            <g id="Group" transform="translate(49.000000, 111.000000)">
                <path d="M5.5,11 C2.46243388,11 0,8.53756612 0,5.5 C0,2.46243388 2.46243388,0 5.5,0 C8.53756612,0 11,2.46243388 11,5.5 C11,8.53756612 8.53756612,11 5.5,11 Z M27,11 C23.9624339,11 21.5,8.53756612 21.5,5.5 C21.5,2.46243388 23.9624339,0 27,0 C30.0375661,0 32.5,2.46243388 32.5,5.5 C32.5,8.53756612 30.0375661,11 27,11 Z M47.5,11 C44.4624339,11 42,8.53756612 42,5.5 C42,2.46243388 44.4624339,0 47.5,0 C50.5375661,0 53,2.46243388 53,5.5 C53,8.53756612 50.5375661,11 47.5,11 Z" id="Combined-Shape"></path>
            </g>
        </g>
    </g>
</svg>