<?xml version="1.0" encoding="UTF-8"?>
<svg width="180px" height="180px" viewBox="0 0 180 180" version="1.1" xmlns="http://www.w3.org/2000/svg" xmlns:xlink="http://www.w3.org/1999/xlink">
    <!-- Generator: Sketch 40.1 (33804) - http://www.bohemiancoding.com/sketch -->
    <title>sort</title>
    <desc>Created with Sketch.</desc>
    <defs></defs>
    <g id="iconos" stroke="none" stroke-width="1" fill="none" fill-rule="evenodd">
        <g id="sort" fill="#000000">
            <path d="M126,164.183486 C126,166.843573 128.238576,169 131,169 C133.761424,169 136,166.843573 136,164.183486 L136,16.3165138 C136,13.6564267 133.761424,11.5 131,11.5 C128.238576,11.5 126,13.6564267 126,16.3165138 L126,164.183486 Z" id="Line"></path>
            <path d="M45.2918905,167.626889 C47.2102462,169.747774 50.5134157,169.830533 52.535573,167.808376 L86.8083756,133.535573 C88.7609971,131.582952 88.7609971,128.417127 86.8083756,126.464505 C84.8557541,124.511884 81.6899292,124.511884 79.7373078,126.464505 L45.4645052,160.737308 L52.7081876,160.918794 L21.7081876,126.645992 C19.8557984,124.598038 16.6939455,124.439501 14.6459916,126.29189 C12.5980377,128.14428 12.4395012,131.306133 14.2918905,133.354087 L45.2918905,167.626889 Z" id="Path-14"></path>
            <path d="M54,11 C54,8.23857625 51.7614237,6 49,6 C46.2385763,6 44,8.23857625 44,11 L44,164.5 C44,167.261424 46.2385763,169.5 49,169.5 C51.7614237,169.5 54,167.261424 54,164.5 L54,11 Z" id="Line"></path>
            <path d="M134.980951,6.64596376 C133.062596,4.52507906 129.759426,4.44231997 127.737269,6.46447729 L93.4644661,40.7372799 C91.5118446,42.6899014 91.5118446,45.8557263 93.4644661,47.8083477 C95.4170876,49.7609692 98.5829124,49.7609692 100.535534,47.8083477 L134.808337,13.5355451 L127.564654,13.3540586 L158.564654,47.6268613 C160.417043,49.6748152 163.578896,49.8333516 165.62685,47.9809624 C167.674804,46.1285731 167.83334,42.9667203 165.980951,40.9187664 L134.980951,6.64596376 Z" id="Path-14"></path>
        </g>
    </g>
</svg>