<?xml version="1.0" encoding="UTF-8"?>
<svg width="180px" height="180px" viewBox="0 0 180 180" version="1.1" xmlns="http://www.w3.org/2000/svg" xmlns:xlink="http://www.w3.org/1999/xlink">
    <!-- Generator: Sketch 40.1 (33804) - http://www.bohemiancoding.com/sketch -->
    <title>sort-desc</title>
    <desc>Created with Sketch.</desc>
    <defs></defs>
    <g id="iconos" stroke="none" stroke-width="1" fill="none" fill-rule="evenodd">
        <g id="sort-desc" fill="#000000">
            <path d="M45.2918905,167.626889 C47.2102462,169.747774 50.5134157,169.830533 52.535573,167.808376 L86.8083756,133.535573 C88.7609971,131.582952 88.7609971,128.417127 86.8083756,126.464505 C84.8557541,124.511884 81.6899292,124.511884 79.7373078,126.464505 L45.4645052,160.737308 L52.7081876,160.918794 L21.7081876,126.645992 C19.8557984,124.598038 16.6939455,124.439501 14.6459916,126.29189 C12.5980377,128.14428 12.4395012,131.306133 14.2918905,133.354087 L45.2918905,167.626889 Z" id="Path-14"></path>
            <path d="M54,11 C54,8.23857625 51.7614237,6 49,6 C46.2385763,6 44,8.23857625 44,11 L44,164.5 C44,167.261424 46.2385763,169.5 49,169.5 C51.7614237,169.5 54,167.261424 54,164.5 L54,11 Z" id="Line"></path>
            <path d="M166,24 C168.761424,24 171,21.7614237 171,19 C171,16.2385763 168.761424,14 166,14 L87,14 C84.2385763,14 82,16.2385763 82,19 C82,21.7614237 84.2385763,24 87,24 L166,24 Z" id="Line"></path>
            <path d="M150.5,61 C153.261424,61 155.5,58.7614237 155.5,56 C155.5,53.2385763 153.261424,51 150.5,51 L86.5,51 C83.7385763,51 81.5,53.2385763 81.5,56 C81.5,58.7614237 83.7385763,61 86.5,61 L150.5,61 Z" id="Line-Copy"></path>
            <path d="M129,98 C131.761424,98 134,95.7614237 134,93 C134,90.2385763 131.761424,88 129,88 L87,88 C84.2385763,88 82,90.2385763 82,93 C82,95.7614237 84.2385763,98 87,98 L129,98 Z" id="Line-Copy-2"></path>
        </g>
    </g>
</svg>