<?xml version="1.0" encoding="UTF-8"?>
<svg width="128px" height="128px" viewBox="0 0 128 128" version="1.1" xmlns="http://www.w3.org/2000/svg" xmlns:xlink="http://www.w3.org/1999/xlink">
    <!-- Generator: Sketch 47.1 (45422) - http://www.bohemiancoding.com/sketch -->
    <title>stadistics</title>
    <desc>Created with Sketch.</desc>
    <defs></defs>
    <g id="iconos" stroke="none" stroke-width="1" fill="none" fill-rule="evenodd">
        <g id="stadistics">
            <path d="" id="Path-29" stroke="#979797"></path>
            <path d="M12,116.239243 L12,7 C12,4.23857625 9.76142375,2 7,2 C4.23857625,2 2,4.23857625 2,7 L2,121.239243 C2,124.000667 4.23857625,126.239243 7,126.239243 L123,126.239243 C125.761424,126.239243 128,124.000667 128,121.239243 C128,118.47782 125.761424,116.239243 123,116.239243 L12,116.239243 Z" id="Path-33" fill="#000000" fill-rule="nonzero"></path>
            <path d="M32,73 L32,97 L39,97 L39,73 L32,73 Z M29,63 L42,63 C45.8659932,63 49,66.1340068 49,70 L49,100 C49,103.865993 45.8659932,107 42,107 L29,107 C25.1340068,107 22,103.865993 22,100 L22,70 C22,66.1340068 25.1340068,63 29,63 Z" id="Rectangle-19" fill="#000000" fill-rule="nonzero"></path>
            <path d="M66,25 L66,97 L73,97 L73,25 L66,25 Z M63,15 L76,15 C79.8659932,15 83,18.1340068 83,22 L83,100 C83,103.865993 79.8659932,107 76,107 L63,107 C59.1340068,107 56,103.865993 56,100 L56,22 C56,18.1340068 59.1340068,15 63,15 Z" id="Rectangle-19-Copy" fill="#000000" fill-rule="nonzero"></path>
            <path d="M101,97 L108,97 L108,51 L101,51 L101,97 Z M98,41 L111,41 C114.865993,41 118,44.1340068 118,48 L118,100 C118,103.865993 114.865993,107 111,107 L98,107 C94.1340068,107 91,103.865993 91,100 L91,48 C91,44.1340068 94.1340068,41 98,41 Z" id="Rectangle-19-Copy-2" fill="#000000" fill-rule="nonzero"></path>
        </g>
    </g>
</svg>