<?xml version="1.0" encoding="UTF-8"?>
<svg width="128px" height="128px" viewBox="0 0 128 128" version="1.1" xmlns="http://www.w3.org/2000/svg" xmlns:xlink="http://www.w3.org/1999/xlink">
    <!-- Generator: Sketch 47.1 (45422) - http://www.bohemiancoding.com/sketch -->
    <title>suitcase</title>
    <desc>Created with Sketch.</desc>
    <defs></defs>
    <g id="iconos" stroke="none" stroke-width="1" fill="none" fill-rule="evenodd">
        <g id="suitcase" fill-rule="nonzero" fill="#000000">
            <path d="M19,31 L109,31 C119.49341,31 128,39.5065898 128,50 L128,100 C128,110.49341 119.49341,119 109,119 L19,119 C8.50658975,119 1.205385e-15,110.49341 0,100 L0,50 C-1.205385e-15,39.5065898 8.50658975,31 19,31 Z M118,75.2183989 L118,50 C118,45.0294373 113.970563,41 109,41 L19,41 C14.0294373,41 10,45.0294373 10,50 L10,73.5057898 C12.8161724,77.3286054 16.596707,79.1600089 21.3416036,79 L107.29337,79 C111.924086,78.5136746 115.492963,77.2531409 118,75.2183989 Z M118,84.2016111 C115.597856,85.4633669 111.983761,86.3961632 107.157716,87 L21.3416036,87 C16.559479,86.9452703 12.7789445,85.832369 10,83.6612962 L10,100 C10,104.970563 14.0294373,109 19,109 L109,109 C113.970563,109 118,104.970563 118,100 L118,84.2016111 Z" id="Rectangle-4"></path>
            <path d="M47,34.4550781 L47,22 C47,19.2385763 49.2385763,17 52,17 L76,17 C78.7614237,17 81,19.2385763 81,22 L81,33.984375 L91,33.984375 L91,22 C91,13.7157288 84.2842712,7 76,7 L52,7 C43.7157288,7 37,13.7157288 37,22 L37,34.4550781 L47,34.4550781 Z" id="Rectangle-5"></path>
            <path d="M54.0540541,66.5 L75.9459459,66.5 C78.1849382,66.5 80,64.8210678 80,62.75 C80,60.6789322 78.1849382,59 75.9459459,59 L54.0540541,59 C51.8150618,59 50,60.6789322 50,62.75 C50,64.8210678 51.8150618,66.5 54.0540541,66.5 Z" id="Line"></path>
        </g>
    </g>
</svg>