<?xml version="1.0" encoding="UTF-8"?>
<svg width="180px" height="180px" viewBox="0 0 180 180" version="1.1" xmlns="http://www.w3.org/2000/svg" xmlns:xlink="http://www.w3.org/1999/xlink">
    <!-- Generator: Sketch 40.1 (33804) - http://www.bohemiancoding.com/sketch -->
    <title>suitcase</title>
    <desc>Created with Sketch.</desc>
    <defs></defs>
    <g id="iconos" stroke="none" stroke-width="1" fill="none" fill-rule="evenodd">
        <g id="suitcase">
            <path d="M121,45 L121,33.0007241 C121,26.9251792 116.07424,22 109.998008,22 L68.0019922,22 C61.9157038,22 57,26.9251919 57,33.0007241 L57,45 L64,45 L64,33.0007241 C64,30.7869016 65.7859793,29 68.0019922,29 L109.998008,29 C112.208433,29 114,30.7913587 114,33.0007241 L114,45 L121,45 L121,45 Z" id="Combined-Shape" fill="#000000"></path>
            <path d="M8,145.002148 C8,146.652806 9.34757271,148 11.0056975,148 L168.994303,148 C170.653429,148 172,146.654724 172,145.002148 L172,55.9978519 C172,54.3471945 170.652427,53 168.994303,53 L11.0056975,53 C9.34657129,53 8,54.3452765 8,55.9978519 L8,145.002148 Z M11.0056975,45 L168.994303,45 C175.072581,45 180,49.9307917 180,55.9978519 L180,145.002148 C180,151.076094 175.068615,156 168.994303,156 L11.0056975,156 C4.92741859,156 0,151.069208 0,145.002148 L0,55.9978519 C0,49.923906 4.93138521,45 11.0056975,45 Z" id="Rectangle-7" fill="#030303"></path>
            <path d="M63,101.982668 L62.1741051,101.558948 L4.67410515,72.0589476 L1.11515755,70.2330527 L4.76694726,63.1151576 L8.32589485,64.9410524 L63.0431526,93.0133846 C63.5389878,87.4008812 68.2466879,83 73.9960774,83 L104.003923,83 C109.92186,83 114.747899,87.6807217 114.990438,93.532645 L171.211146,65.4222912 L174.788854,63.6334369 L178.366563,70.7888544 L174.788854,72.5777088 L116.788854,101.577709 L115,102.472136 L115,103.005108 C115,109.077419 110.084549,114 104.003923,114 L73.9960774,114 C67.9231115,114 63,109.07083 63,103.005108 L63,101.982668 Z M71,103.005108 C71,104.655376 72.3442129,106 73.9960774,106 L104.003923,106 C105.662956,106 107,104.662457 107,103.005108 L107,93.9948918 C107,92.3446244 105.655787,91 104.003923,91 L73.9960774,91 C72.3370437,91 71,92.3375432 71,93.9948918 L71,103.005108 Z" id="Combined-Shape" fill="#000000"></path>
        </g>
    </g>
</svg>