<?xml version="1.0" encoding="UTF-8" standalone="no"?>
<svg width="180px" height="180px" viewBox="0 0 180 180" version="1.1" xmlns="http://www.w3.org/2000/svg" xmlns:xlink="http://www.w3.org/1999/xlink">
    <!-- Generator: Sketch 3.6 (26304) - http://www.bohemiancoding.com/sketch -->
    <title>sync</title>
    <desc>Created with Sketch.</desc>
    <defs></defs>
    <g id="iconos" stroke="none" stroke-width="1" fill="none" fill-rule="evenodd">
        <g id="sync" fill="#000000">
            <g transform="translate(0.000000, 15.000000)" id="Group">
                <g>
                    <path d="M179.035754,59.814 C177.277319,58.059 174.418734,58.059 172.660299,59.814 L162.299058,70.155 C161.83916,51.615 154.381591,34.245 141.188818,21.087 C127.5632,7.488 109.446809,0 90.176163,0 C63.3577721,0 38.9019967,14.715 26.3584924,38.394 C25.1952199,40.59 26.0338582,43.317 28.2341566,44.478 C30.434455,45.639 33.1667927,44.802 34.3300652,42.606 C45.3045043,21.879 66.7033077,9 90.176163,9 C124.343911,9 152.262451,36.243 153.272424,70.101 L142.965289,59.814 C141.206854,58.059 138.348269,58.059 136.589834,59.814 C134.831399,61.569 134.831399,64.422 136.589834,66.177 L154.625067,84.177 C155.508793,85.059 156.663048,85.491 157.817303,85.491 C158.971558,85.491 160.125813,85.05 161.009539,84.177 L179.044772,66.177 C180.803207,64.422 180.803207,61.569 179.044772,59.814 L179.035754,59.814 Z" id="Shape"></path>
                    <path d="M152.118169,99.522 C149.917871,98.361 147.185533,99.198 146.022261,101.394 C135.047822,122.121 113.649018,135 90.176163,135 C56.0084148,135 28.0898748,107.757 27.0799017,73.899 L37.3870372,84.186 C38.2707636,85.068 39.4250184,85.5 40.5792733,85.5 C41.7335282,85.5 42.8877831,85.059 43.7715095,84.186 C45.5299447,82.431 45.5299447,79.578 43.7715095,77.823 L25.7362769,59.823 C23.9778417,58.068 21.1192574,58.068 19.3608222,59.823 L1.3255896,77.823 C-0.432845582,79.578 -0.432845582,82.431 1.3255896,84.186 C3.08402477,85.941 5.94260914,85.941 7.70104432,84.186 L18.0622854,73.845 C18.5221839,92.385 25.9797525,109.755 39.1725252,122.913 C52.7981434,136.512 70.9145345,144 90.1851806,144 C117.003571,144 141.459347,129.285 154.002851,105.606 C155.166124,103.41 154.327485,100.683 152.127187,99.522 L152.118169,99.522 Z" id="Shape"></path>
                </g>
            </g>
        </g>
    </g>
</svg>