<?xml version="1.0" encoding="UTF-8"?>
<svg width="128px" height="128px" viewBox="0 0 128 128" version="1.1" xmlns="http://www.w3.org/2000/svg" xmlns:xlink="http://www.w3.org/1999/xlink">
    <!-- Generator: Sketch 47.1 (45422) - http://www.bohemiancoding.com/sketch -->
    <title>system</title>
    <desc>Created with Sketch.</desc>
    <defs></defs>
    <g id="iconos" stroke="none" stroke-width="1" fill="none" fill-rule="evenodd">
        <g id="system" fill-rule="nonzero" fill="#000000">
            <path d="M46.5997554,55.5533804 L44.5664043,54.8923724 C43.503117,54.5465 42.3591037,55.1298218 42.0135692,56.193109 C41.6676968,57.2580851 42.2496675,58.4017606 43.3143058,58.747633 L45.3422526,59.4059388 C45.0612314,60.7279548 44.9095745,62.0962446 44.9095745,63.5 C44.9095745,64.9037554 45.0612314,66.2720452 45.3422526,67.5927101 L43.3143058,68.252367 C42.2496675,68.5982394 41.6676968,69.7409016 42.0135692,70.8055396 C42.2918883,71.6617764 43.0863138,72.2065932 43.9398484,72.2065932 C44.14825,72.2065932 44.3593537,72.1751809 44.5664043,72.1062764 L46.5997554,71.4466196 C47.7292446,73.9798642 49.3772048,76.2320877 51.4142713,78.063455 L50.1540665,79.7972073 C49.4957606,80.70242 49.6977446,81.9703936 50.6026196,82.6273486 C50.963016,82.8884417 51.3784681,83.015104 51.7915558,83.015104 C52.4181117,83.015104 53.0368989,82.7249627 53.4327606,82.180146 L54.6916144,80.4477446 C57.0255771,81.8028618 59.6604894,82.6945637 62.4734043,82.9860559 L62.4734043,85.117021 C62.4734043,86.2357019 63.3799681,87.1436172 64.5,87.1436172 C65.6186808,87.1436172 66.5265957,86.2357019 66.5265957,85.117021 L66.5265957,82.9860559 C69.3395106,82.6959146 71.9744231,81.803875 74.3083858,80.4477446 L75.5658882,82.180146 C75.9631009,82.7263137 76.5805373,83.015104 77.2070932,83.015104 C77.6201809,83.015104 78.0369837,82.8897927 78.3973804,82.6286995 C79.3022554,81.9703936 79.5028882,80.70242 78.8445823,79.7972073 L77.585729,78.063455 C79.6217818,76.2320877 81.2694045,73.9798642 82.3988936,71.4466196 L84.4322446,72.1076274 C84.640646,72.1751809 84.85175,72.2065932 85.0588005,72.2065932 C85.9126731,72.2065932 86.7081118,71.6631274 86.98508,70.8068913 C87.3323035,69.7419149 86.7489814,68.5982394 85.6843432,68.252367 L83.656396,67.5940612 C83.9387686,66.2720452 84.0904255,64.9037554 84.0904255,63.5 C84.0904255,62.0962446 83.9387686,60.7266037 83.656396,59.4059388 L85.6843432,58.747633 C86.7489814,58.4004096 87.3323035,57.2580851 86.98508,56.193109 C86.639545,55.1284707 85.4955318,54.5465 84.4322446,54.8923724 L82.3988936,55.5533804 C81.2694045,53.0201356 79.6217818,50.7679123 77.585729,48.9351942 L78.8445823,47.2014415 C79.5028882,46.2962287 79.3022554,45.0282554 78.3973804,44.3713005 C77.4921677,43.7143457 76.2241941,43.9136276 75.5658882,44.8198537 L74.3070349,46.5522554 C71.9744231,45.196125 69.3381596,44.3040851 66.5265957,44.0139442 L66.5265957,41.8829787 C66.5265957,40.7642979 65.6186808,39.856383 64.5,39.856383 C63.3799681,39.856383 62.4734043,40.7642979 62.4734043,41.8829787 L62.4734043,44.0139442 C59.6604894,44.3040851 57.0255771,45.196125 54.6916144,46.5522554 L53.4327606,44.8198537 C52.7758058,43.9149787 51.5078325,43.7143457 50.6026196,44.3713005 C49.6963936,45.0296064 49.4957606,46.2962287 50.1540665,47.2027925 L51.4129202,48.9365452 C49.3772048,50.7679123 47.7292446,53.0201356 46.5997554,55.5533804 L46.5997554,55.5533804 Z M64.5042013,51.356383 C71.1704938,51.356383 76.5946266,56.7805158 76.5946266,63.4468085 C76.5946266,70.113101 71.1704938,75.5372337 64.5042013,75.5372337 C57.8379086,75.5372337 52.4137758,70.113101 52.4137758,63.4468085 C52.4137758,56.7805158 57.8379086,51.356383 64.5042013,51.356383 L64.5042013,51.356383 Z" id="Fill-1"></path>
            <path d="M122.005389,91.0771819 C125.935439,82.671425 128,73.4770217 128,64 C128,28.653776 99.346224,0 64,0 C28.653776,0 0,28.653776 0,64 C0,99.346224 28.653776,128 64,128 C74.0890693,128 83.8539727,125.659802 92.6807728,121.228141 C95.1486197,119.989112 96.1447736,116.984096 94.9057447,114.516249 C93.6667158,112.048402 90.6616992,111.052248 88.1938522,112.291277 C80.7516795,116.02776 72.522146,118 64,118 C34.1766235,118 10,93.8233765 10,64 C10,34.1766235 34.1766235,10 64,10 C93.8233765,10 118,34.1766235 118,64 C118,72.0057502 116.259899,79.7551904 112.946601,86.8418114 C111.777036,89.3433266 112.856794,92.3193253 115.35831,93.4888905 C117.859825,94.6584558 120.835823,93.578697 122.005389,91.0771819 Z" id="Oval-17"></path>
            <path d="M106.5,116.5 C99.872583,116.5 94.5,111.127417 94.5,104.5 C94.5,97.872583 99.872583,92.5 106.5,92.5 C113.127417,92.5 118.5,97.872583 118.5,104.5 C118.5,111.127417 113.127417,116.5 106.5,116.5 Z M106.5,109.5 C109.261424,109.5 111.5,107.261424 111.5,104.5 C111.5,101.738576 109.261424,99.5 106.5,99.5 C103.738576,99.5 101.5,101.738576 101.5,104.5 C101.5,107.261424 103.738576,109.5 106.5,109.5 Z" id="Oval"></path>
            <path d="M38.5,45.5 C32.4248678,45.5 27.5,40.5751322 27.5,34.5 C27.5,28.4248678 32.4248678,23.5 38.5,23.5 C44.5751322,23.5 49.5,28.4248678 49.5,34.5 C49.5,40.5751322 44.5751322,45.5 38.5,45.5 Z M38.5,40.5 C41.8137085,40.5 44.5,37.8137085 44.5,34.5 C44.5,31.1862915 41.8137085,28.5 38.5,28.5 C35.1862915,28.5 32.5,31.1862915 32.5,34.5 C32.5,37.8137085 35.1862915,40.5 38.5,40.5 Z" id="Oval-Copy"></path>
            <path d="M24.120157,47.890706 C22.0681778,52.9659754 21,58.4112714 21,64 C21,87.7482442 40.2517558,107 64,107 C87.7482442,107 107,87.7482442 107,64 C107,40.2517558 87.7482442,21 64,21 C60.5658172,21 57.1820121,21.4031952 53.8990934,22.1937433 C52.2882846,22.5816365 51.2969157,24.2019045 51.6848089,25.8127133 C52.072702,27.4235221 53.6929701,28.414891 55.3037789,28.0269979 C58.1275432,27.3470171 61.0398751,27 64,27 C84.4345357,27 101,43.5654643 101,64 C101,84.4345357 84.4345357,101 64,101 C43.5654643,101 27,84.4345357 27,64 C27,59.1853563 27.9184459,54.503355 29.6827129,50.1396997 C30.3037553,48.6036423 29.5619892,46.8549674 28.0259318,46.2339249 C26.4898744,45.6128824 24.7411995,46.3546486 24.120157,47.890706 Z" id="Oval-18"></path>
        </g>
    </g>
</svg>