<?xml version="1.0" encoding="UTF-8" standalone="no"?>
<svg width="180px" height="180px" viewBox="0 0 180 180" version="1.1" xmlns="http://www.w3.org/2000/svg" xmlns:xlink="http://www.w3.org/1999/xlink">
    <!-- Generator: Sketch 3.6 (26304) - http://www.bohemiancoding.com/sketch -->
    <title>solar-system</title>
    <desc>Created with Sketch.</desc>
    <defs>
        <path id="path-1" d="M0.0290425532,182 L182,182 L182,0.0193617021 L0.0290425532,0.0193617021 L0.0290425532,182 L0.0290425532,182 Z"></path>
    </defs>
    <g id="Page-1" stroke="none" stroke-width="1" fill="none" fill-rule="evenodd">
        <g id="system">
            <g id="solar-system">
                <g id="Group-4">
                    <mask id="mask-2" fill="white">
                        <use xlink:href="#path-1"></use>
                    </mask>
                    <g id="Clip-2"></g>
                    <path d="M65.3476809,79.6119309 L62.4337447,78.6646596 C60.9099787,78.169 59.2705266,79.0049415 58.7753511,80.5287074 C58.2796915,82.0548936 59.1136968,83.6938617 60.6393989,84.1895213 L63.5455904,85.1329202 C63.142867,87.0274628 62.9255319,88.9883191 62.9255319,91 C62.9255319,93.0116809 63.142867,94.9725372 63.5455904,96.8651436 L60.6393989,97.8104787 C59.1136968,98.3061383 58.2796915,99.9436543 58.7753511,101.469356 C59.1742021,102.696404 60.3126702,103.477165 61.5358457,103.477165 C61.8345,103.477165 62.1370266,103.432149 62.4337447,103.333404 L65.3476809,102.388069 C66.9663191,106.018388 69.3279628,109.245984 72.2472234,111.870463 L70.4412606,114.355053 C69.4978617,115.652287 69.7873191,117.469383 71.0840691,118.410846 C71.6005426,118.785011 72.1959149,118.966527 72.7878989,118.966527 C73.6857979,118.966527 74.5725638,118.550734 75.1398617,117.769973 L76.9438883,115.287319 C80.2886223,117.229298 84.0646383,118.50717 88.0957447,118.924899 L88.0957447,121.978723 C88.0957447,123.581872 89.3949149,124.882979 91,124.882979 C92.6031489,124.882979 93.9042553,123.581872 93.9042553,121.978723 L93.9042553,118.924899 C97.9353617,118.509106 101.711378,117.23075 105.056112,115.287319 L106.858202,117.769973 C107.427436,118.55267 108.312266,118.966527 109.210165,118.966527 C109.802149,118.966527 110.399457,118.786947 110.915931,118.412782 C112.212681,117.469383 112.500202,115.652287 111.556803,114.355053 L109.752777,111.870463 C112.670585,109.245984 115.031745,106.018388 116.650383,102.388069 L119.564319,103.33534 C119.862973,103.432149 120.1655,103.477165 120.462218,103.477165 C121.685878,103.477165 122.825798,102.69834 123.222713,101.471293 C123.720309,99.9451064 122.884367,98.3061383 121.358665,97.8104787 L118.452473,96.8670798 C118.857133,94.9725372 119.074468,93.0116809 119.074468,91 C119.074468,88.9883191 118.857133,87.0255266 118.452473,85.1329202 L121.358665,84.1895213 C122.884367,83.6919255 123.720309,82.0548936 123.222713,80.5287074 C122.727537,79.0030053 121.088085,78.169 119.564319,78.6646596 L116.650383,79.6119309 C115.031745,75.9816117 112.670585,72.754016 109.752777,70.1276011 L111.556803,67.6430106 C112.500202,66.3457766 112.212681,64.5286809 110.915931,63.5872181 C109.618697,62.6457553 107.801601,62.9313404 106.858202,64.2300266 L105.054176,66.7126809 C101.711378,64.76925 97.9334255,63.4908936 93.9042553,63.0751011 L93.9042553,60.0212766 C93.9042553,58.4181277 92.6031489,57.1170213 91,57.1170213 C89.3949149,57.1170213 88.0957447,58.4181277 88.0957447,60.0212766 L88.0957447,63.0751011 C84.0646383,63.4908936 80.2886223,64.76925 76.9438883,66.7126809 L75.1398617,64.2300266 C74.1983989,62.9332766 72.3813032,62.6457553 71.0840691,63.5872181 C69.785383,64.530617 69.4978617,66.3457766 70.4412606,67.6449468 L72.2452872,70.1295372 C69.3279628,72.754016 66.9663191,75.9816117 65.3476809,79.6119309 L65.3476809,79.6119309 Z M91,68.7340426 C103.276771,68.7340426 113.265957,78.7232287 113.265957,91 C113.265957,103.276771 103.276771,113.265957 91,113.265957 C78.7232287,113.265957 68.7340426,103.276771 68.7340426,91 C68.7340426,78.7232287 78.7232287,68.7340426 91,68.7340426 L91,68.7340426 Z" id="Fill-1" fill="#000000" mask="url(#mask-2)"></path>
                    <path d="M155.347649,26.6523511 C138.15833,9.46545213 115.308133,0 91,0 C66.691867,0 43.8416702,9.46545213 26.6523511,26.6523511 C9.46545213,43.8416702 0,66.691867 0,91 C0,115.308133 9.46545213,138.15833 26.6523511,155.347649 C43.8416702,172.534548 66.691867,182 91,182 C106.564872,182 121.927899,178.00084 135.42591,170.437676 C136.825277,169.653043 137.322388,167.883383 136.539691,166.484016 C135.755059,165.085133 133.985399,164.585601 132.586032,165.370718 C119.953489,172.44984 105.572101,176.191489 91,176.191489 C44.0251223,176.191489 5.80851064,137.974878 5.80851064,91 C5.80851064,44.0251223 44.0251223,5.80851064 91,5.80851064 C137.974878,5.80851064 176.191489,44.0251223 176.191489,91 C176.191489,105.572101 172.447904,119.953489 165.36491,132.589904 C164.580277,133.988787 165.077388,135.758931 166.476755,136.543564 C167.875638,137.326261 169.645782,136.829149 170.430415,135.429782 C177.998904,121.927899 182,106.562936 182,91 C182,66.691867 172.534548,43.8416702 155.347649,26.6523511 L155.347649,26.6523511 Z" id="Fill-3" fill="#000000" mask="url(#mask-2)"></path>
                </g>
                <path d="M153.293856,137.804495 C144.751473,137.804495 137.804495,144.751473 137.804495,153.293856 C137.804495,161.834787 144.751473,168.783218 153.293856,168.783218 C161.834787,168.783218 168.783218,161.834787 168.783218,153.293856 C168.783218,144.751473 161.834787,137.804495 153.293856,137.804495 L153.293856,137.804495 Z M153.293856,162.974707 C147.954383,162.974707 143.613005,158.631878 143.613005,153.293856 C143.613005,147.954383 147.954383,143.613005 153.293856,143.613005 C158.631878,143.613005 162.974707,147.954383 162.974707,153.293856 C162.974707,158.631878 158.631878,162.974707 153.293856,162.974707 L153.293856,162.974707 Z" id="Fill-5" fill="#000000"></path>
                <path d="M46.8461223,135.153878 C59.0212447,147.32658 75.0096543,153.412931 91,153.412931 C106.990346,153.412931 122.978755,147.32658 135.153878,135.153878 C159.49783,110.806053 159.49783,71.1939468 135.153878,46.8461223 C117.55409,29.2487553 91.2212074,23.7785904 68.0646117,32.9071489 C67.6943191,33.0528457 67.3574255,33.2740532 67.0737766,33.555766 C65.941117,34.6903617 65.941117,36.5282713 67.0757128,37.662867 C67.9344043,38.5230106 69.1992074,38.7292128 70.2563564,38.2867979 C91.2458936,30.0391968 115.099995,35.0078936 131.04484,50.9532234 C153.125894,73.0357287 153.125894,108.964271 131.04484,131.04484 C120.002862,142.087303 105.504335,147.606356 91,147.606356 C76.4995372,147.60442 61.993266,142.083431 50.9551596,131.04484 C34.9928883,115.084989 30.0314521,91.1984574 38.3129362,70.1958511 C38.9010479,68.7020957 38.1691755,67.0152074 36.6759043,66.4270957 C35.1840851,65.8394681 33.4971968,66.5727926 32.9090851,68.0646117 C23.7805266,91.2231436 29.2506915,117.556027 46.8461223,135.153878 L46.8461223,135.153878 Z" id="Fill-6" fill="#000000"></path>
                <path d="M48.901367,33.4120053 C44.7628032,33.4120053 40.8730372,35.0228989 37.9479681,37.9479681 C35.0228989,40.8730372 33.4120053,44.7628032 33.4120053,48.901367 C33.4120053,53.0384787 35.0228989,56.9277606 37.9479681,59.8528298 C40.8730372,62.7778989 44.7628032,64.3907287 48.901367,64.3907287 C53.0384787,64.3907287 56.9277606,62.7778989 59.8528298,59.8528298 C65.8922287,53.8139149 65.8922287,43.987367 59.8528298,37.9479681 C56.9277606,35.0228989 53.0384787,33.4120053 48.901367,33.4120053 L48.901367,33.4120053 Z M55.7462128,55.7462128 C53.917984,57.5744415 51.4861543,58.5822181 48.901367,58.5822181 C46.3151277,58.5822181 43.8832979,57.5744415 42.0550691,55.7462128 C40.2263564,53.917984 39.220516,51.4861543 39.220516,48.901367 C39.220516,46.3151277 40.2263564,43.8832979 42.0550691,42.0550691 C43.8832979,40.2263564 46.3151277,39.220516 48.901367,39.220516 C51.4861543,39.220516 53.917984,40.2263564 55.7462128,42.0550691 C59.5202926,45.8291489 59.5202926,51.972133 55.7462128,55.7462128 L55.7462128,55.7462128 Z" id="Fill-7" fill="#000000"></path>
            </g>
        </g>
    </g>
</svg>