<?xml version="1.0" encoding="UTF-8"?>
<svg width="180px" height="180px" viewBox="0 0 180 180" version="1.1" xmlns="http://www.w3.org/2000/svg" xmlns:xlink="http://www.w3.org/1999/xlink">
    <!-- Generator: Sketch 43.2 (39069) - http://www.bohemiancoding.com/sketch -->
    <title>tabs-mobile</title>
    <desc>Created with Sketch.</desc>
    <defs></defs>
    <g id="iconos" stroke="none" stroke-width="1" fill="none" fill-rule="evenodd">
        <g id="tabs-mobile" fill-rule="nonzero" fill="#000000">
            <path d="M8,157.996018 C8,165.728996 14.2706067,172 22.0039823,172 L157.996018,172 C165.728996,172 172,165.729393 172,157.996018 L172,62.0039823 C172,54.2710039 165.729393,48 157.996018,48 L22.0039823,48 C14.2710039,48 8,54.2706067 8,62.0039823 L8,157.996018 Z M22.0039823,40 L157.996018,40 C170.148482,40 180,49.8535363 180,62.0039823 L180,157.996018 C180,170.148482 170.146464,180 157.996018,180 L22.0039823,180 C9.85151844,180 0,170.146464 0,157.996018 L0,62.0039823 C0,49.8515184 9.85353626,40 22.0039823,40 Z" id="Rectangle"></path>
            <path d="M21.5,29 L157.503676,29 C159.988958,29 162.003676,26.9852814 162.003676,24.5 C162.003676,22.0147186 159.988958,20 157.503676,20 L21.5,20 C19.0147186,20 17,22.0147186 17,24.5 C17,26.9852814 19.0147186,29 21.5,29 Z" id="Line"></path>
            <path d="M34.5,9 L143.5,9 C145.985281,9 148,6.98528137 148,4.5 C148,2.01471863 145.985281,-8.8817842e-16 143.5,-8.8817842e-16 L34.5,-8.8817842e-16 C32.0147186,-8.8817842e-16 30,2.01471863 30,4.5 C30,6.98528137 32.0147186,9 34.5,9 Z" id="Line"></path>
        </g>
    </g>
</svg>