<?xml version="1.0" encoding="UTF-8"?>
<svg width="180px" height="180px" viewBox="0 0 180 180" version="1.1" xmlns="http://www.w3.org/2000/svg" xmlns:xlink="http://www.w3.org/1999/xlink">
    <!-- Generator: Sketch 43.2 (39069) - http://www.bohemiancoding.com/sketch -->
    <title>tabs</title>
    <desc>Created with Sketch.</desc>
    <defs></defs>
    <g id="iconos" stroke="none" stroke-width="1" fill="none" fill-rule="evenodd">
        <g id="tabs" fill-rule="nonzero" fill="#000000">
            <path d="M171.767857,55.2857143 L172.142857,158.103161 C172.142857,168.150956 167.977137,172.428571 158.138875,172.428571 L22.1468394,172.428571 C12.2618791,172.428571 8,168.103286 8,158.103161 L8,47 L0,47 L0,158.103161 C0,172.495335 7.81694001,180.428571 22.1468394,180.428571 L158.138875,180.428571 C172.443569,180.428571 180.142857,172.522472 180.142857,158.103161 L180.142857,47.2857143 L59.125,47.2857143 C59.125,47.2857143 60.6272514,54.8331158 67,55.2857143 C67,55.2857143 171.767857,55.2857143 171.767857,55.2857143 Z" id="Rectangle"></path>
            <path d="M67,47.9914846 L67,8.0085154 C67,3.57805502 63.4170037,0 58.9971538,0 L8.00284615,0 C3.58726941,0 0,3.58553448 0,8.0085154 L0,47.9914846 L8,47.9914846 C8.00000021,47.9893174 8.00467947,8 8.00284615,8 C8.00284615,8 59,7.99880369 59,8.0085154 C59,8.0085154 58.9953924,47.2627826 58.9971126,47.9914846 L67,47.9914846 Z" id="Rectangle-20"></path>
            <path d="M126.625,47.9914846 L125,8.0085154 C125,3.57805502 121.91985,0 117.5,0 L67.0028462,0 C62.5872694,0 59,3.58553448 59,8.0085154 L59,47.9914846 L67,47.9914846 C67.0000002,47.9893174 67.0046795,8 67.0028462,8 C67.0028462,8 120.375,7.99028829 120.375,8 C120.375,8 119.25,47.375 118.625,48.25 L126.625,47.9914846 Z" id="Rectangle-20-Copy"></path>
            <path d="M180,47.9914846 L180,8.0085154 C180,3.57805502 176.417004,0 171.997154,0 L127.002846,0 C122.587269,0 119,3.58553448 119,8.0085154 L119,47.9914846 L127,47.9914846 C127,47.9893174 127.004679,8 127.002846,8 C127.002846,8 172,7.99880369 172,8.0085154 C172,8.0085154 171.995392,47.2627826 171.997113,47.9914846 L180,47.9914846 Z" id="Rectangle-20-Copy"></path>
        </g>
    </g>
</svg>