<?xml version="1.0" encoding="UTF-8"?>
<svg width="128px" height="128px" viewBox="0 0 128 128" version="1.1" xmlns="http://www.w3.org/2000/svg" xmlns:xlink="http://www.w3.org/1999/xlink">
    <!-- Generator: Sketch 47.1 (45422) - http://www.bohemiancoding.com/sketch -->
    <title>tag</title>
    <desc>Created with Sketch.</desc>
    <defs></defs>
    <g id="iconos" stroke="none" stroke-width="1" fill="none" fill-rule="evenodd">
        <g id="tag" fill="#111010">
            <path d="M128.168154,5.51291985 L128.168154,61.7985793 C128.168154,66.8051743 126.179292,71.6067123 122.639095,75.1469096 L73.8772606,123.908744 C68.0540658,129.731938 58.6211527,129.758908 52.7647555,123.969106 L4.73968616,76.4901475 C-1.14047245,70.6768543 -1.19467762,61.1974387 4.61861552,55.3172801 C4.65881855,55.2767694 21.5874986,38.5401327 55.4046557,5.10737012 C58.9384459,1.61376397 63.7072397,-0.345580387 68.6764406,-0.345580387 L122.309654,-0.345580387 C125.545214,-0.345580387 128.168154,2.27735951 128.168154,5.51291985 Z M68.7912037,10.0129199 C66.8576565,10.0129199 65.0020888,10.7753131 63.6270688,12.1346972 L11.6536427,63.5171141 C10.3302465,64.8554217 10.3423345,66.9693843 11.6536427,68.2657811 L60.9189914,116.970915 C62.2250007,118.262073 64.3285929,118.256059 65.6271979,116.957454 L115.648339,66.9363132 C117.025852,65.5588002 117.799731,63.6904916 117.799731,61.742394 L117.799731,10.0129199 L68.7912037,10.0129199 Z M81.0109746,34.1544766 C81.0109746,28.0428626 85.9654166,23.0884206 92.0770306,23.0884206 C98.1886446,23.0884206 103.143087,28.0428626 103.143087,34.1544766 C103.143087,40.2660906 98.1886446,45.2205326 92.0770306,45.2205326 C85.9654166,45.2205326 81.0109746,40.2660906 81.0109746,34.1544766 Z" id="Combined-Shape"></path>
        </g>
    </g>
</svg>