<?xml version="1.0" encoding="UTF-8"?>
<svg width="128px" height="128px" viewBox="0 0 128 128" version="1.1" xmlns="http://www.w3.org/2000/svg" xmlns:xlink="http://www.w3.org/1999/xlink">
    <!-- Generator: Sketch 47.1 (45422) - http://www.bohemiancoding.com/sketch -->
    <title>target</title>
    <desc>Created with Sketch.</desc>
    <defs></defs>
    <g id="iconos" stroke="none" stroke-width="1" fill="none" fill-rule="evenodd">
        <g id="target" fill-rule="nonzero" fill="#000000">
            <path d="M81.5083304,18.7085334 C81.1169898,18.536576 80.7236222,18.3691017 80.3282971,18.206149 C73.6200373,15.4410096 66.4061236,14 59,14 C28.072054,14 3,39.072054 3,70 C3,100.927946 28.072054,126 59,126 C89.927946,126 115,100.927946 115,70 C115,62.8056865 113.640292,55.791801 111.026423,49.2449452 C110.634985,48.2645254 110.215897,47.2958581 109.769744,46.3399893 C108.601805,43.8377144 105.626509,42.7560216 103.124234,43.9239606 C100.621959,45.0918997 99.5402661,48.067196 100.708205,50.5694708 C101.074295,51.3538084 101.418142,52.1485646 101.739274,52.9528917 C103.884158,58.3250988 105,64.0810313 105,70 C105,95.4050985 84.4050985,116 59,116 C33.5949015,116 13,95.4050985 13,70 C13,44.5949015 33.5949015,24 59,24 C65.0929745,24 71.012669,25.1824838 76.5173644,27.451515 C76.8416897,27.5852016 77.1644208,27.7226028 77.4855015,27.8636875 C80.0136275,28.9745611 82.9636195,27.8256509 84.074493,25.2975249 C85.1853666,22.7693989 84.0364564,19.8194069 81.5083304,18.7085334 Z" id="Oval-22"></path>
            <path d="M62.3626379,43.2078792 C61.2522375,43.0696692 60.1298039,43 59,43 C44.0883118,43 32,55.0883118 32,70 C32,84.9116882 44.0883118,97 59,97 C73.9116882,97 86,84.9116882 86,70 C86,69.0333026 85.9489946,68.0719216 85.8476637,67.1187633 C85.55574,64.3728133 83.0930567,62.3834319 80.3471066,62.6753556 C77.6011566,62.9672794 75.6117752,65.4299627 75.903699,68.1759127 C75.9677162,68.7780842 76,69.3865889 76,70 C76,79.3888407 68.3888407,87 59,87 C49.6111593,87 42,79.3888407 42,70 C42,60.6111593 49.6111593,53 59,53 C59.7166509,53 60.4265787,53.044065 61.1274823,53.1313056 C63.8677608,53.4723844 66.3656944,51.5274487 66.7067732,48.7871702 C67.047852,46.0468917 65.1029164,43.548958 62.3626379,43.2078792 Z" id="Oval-22"></path>
            <path d="M91.8361346,29.2343749 L55.381825,66.4257289 C53.4918488,68.3574416 53.5475625,71.4344205 55.5062651,73.2983537 C57.4649677,75.162287 60.5849383,75.1073409 62.4749145,73.1756283 L98.1476252,36.7816758 L110.264625,37.4596736 L128,19.382011 L116.911665,17.6382592 L121.686927,12.7664487 C123.576904,10.834736 123.52119,7.75775712 121.562487,5.89382389 C119.603785,4.02989065 116.483814,4.0848367 114.593838,6.01654933 L109.689494,11.0200503 L108.55221,0 L90.8206854,16.5929456 L91.8361346,29.2343749 Z" id="Combined-Shape"></path>
        </g>
    </g>
</svg>