<?xml version="1.0" encoding="UTF-8"?>
<svg width="180px" height="180px" viewBox="0 0 180 180" version="1.1" xmlns="http://www.w3.org/2000/svg" xmlns:xlink="http://www.w3.org/1999/xlink">
    <!-- Generator: Sketch 43.2 (39069) - http://www.bohemiancoding.com/sketch -->
    <title>truck-register</title>
    <desc>Created with Sketch.</desc>
    <defs></defs>
    <g id="iconos" stroke="none" stroke-width="1" fill="none" fill-rule="evenodd">
        <g id="truck-register" fill="#000000">
            <g id="003-delivery-truck" transform="translate(-4.000000, 27.000000)">
                <path d="M179.453295,63.2833448 L148.887853,28.5909301 C147.890706,27.4587797 146.450312,26.8095522 144.940439,26.8095522 L119.486178,26.8095522 L119.486178,5.38440528 C119.486178,2.50093971 117.136772,0.165 114.236683,0.165 L5.82753537,0.165 C2.92744672,0.165 0.577397072,2.50093971 0.577397072,5.38440528 L0.577397072,12.4254853 L0.577397072,22.8642959 L0.577397072,90.5157197 L0.577397072,100.95453 L0.577397072,106.259007 C0.577397072,109.139914 2.92744672,111.475853 5.82753537,111.475853 L16.7839262,111.475853 C19.0908733,119.838415 26.7978525,126 35.9297864,126 C45.0623637,126 52.7693429,119.838415 55.0762901,111.475853 L125.115232,111.475853 C127.424753,119.835857 135.129802,126 144.261736,126 C153.39367,126 161.101292,119.835857 163.410813,111.475853 L175.505237,111.475853 C178.402753,111.475853 180.755376,109.139914 180.755376,106.256448 L180.755376,66.7213721 C180.755376,65.4574573 180.290255,64.2357583 179.453295,63.2833448 Z M35.9297864,115.561189 C30.7709997,115.561189 26.572047,111.388224 26.572047,106.259007 C26.572047,101.126592 30.7709997,96.9542655 35.9297864,96.9542655 C41.0892166,96.9542655 45.2881692,101.126592 45.2881692,106.259007 C45.2881692,111.388224 41.0892166,115.561189 35.9297864,115.561189 Z M55.0762901,101.039601 C52.7667696,92.6789585 45.0597905,86.5154549 35.9278565,86.5154549 C26.7952792,86.5154549 19.0908733,92.6789585 16.7813529,101.039601 L11.0744571,101.039601 L11.0744571,10.601252 L108.987188,10.601252 L108.987188,101.039601 L55.0762901,101.039601 Z M144.261736,115.561189 C139.102306,115.561189 134.903353,111.388224 134.903353,106.259007 C134.903353,101.126592 139.102306,96.9542655 144.261736,96.9542655 C149.421166,96.9542655 153.620119,101.126592 153.620119,106.259007 C153.620119,111.388224 149.423096,115.561189 144.261736,115.561189 Z M170.255742,101.039601 L163.408239,101.039601 C161.101292,92.6789585 153.39367,86.5154549 144.261736,86.5154549 C135.129802,86.5154549 127.424753,92.6789585 125.115232,101.039601 L119.486178,101.039601 L119.486178,37.2483628 L142.558223,37.2483628 L170.255742,68.6856851 L170.255742,101.039601 Z" id="Fill-1"></path>
            </g>
            <path d="M29.3953158,78.0306364 C27.9452425,76.4312523 25.322936,76.1881478 23.5382303,77.4876475 C21.7535247,78.7871471 21.4822516,81.1371567 22.9323249,82.7365409 L39.5079911,101.018967 C41.1562535,102.836947 44.2442632,102.860207 45.9263919,101.067312 L89.023124,55.1327175 C90.5029916,53.5554026 90.2758352,51.2016386 88.515756,49.8754385 C86.7556767,48.5492384 84.1291809,48.7528072 82.6493133,50.3301221 L42.7944156,92.8094118 L29.3953158,78.0306364 Z" id="Path-17" fill-rule="nonzero"></path>
        </g>
    </g>
</svg>