<?xml version="1.0" encoding="UTF-8"?>
<svg width="180px" height="180px" viewBox="0 0 180 180" version="1.1" xmlns="http://www.w3.org/2000/svg" xmlns:xlink="http://www.w3.org/1999/xlink">
    <!-- Generator: Sketch 44 (41411) - http://www.bohemiancoding.com/sketch -->
    <title>upload</title>
    <desc>Created with Sketch.</desc>
    <defs></defs>
    <g id="iconos" stroke="none" stroke-width="1" fill="none" fill-rule="evenodd">
        <g id="upload" fill-rule="nonzero" fill="#000000">
            <g transform="translate(0.000000, 14.000000)">
                <path d="M169.436433,71.1730558 C175.254738,76.9201232 178.488571,84.7240242 178.488571,92.9534979 C178.488571,109.859263 164.705309,123.68618 147.802971,123.68618 L121.890539,123.68618 C119.254227,123.68618 117.117029,121.553205 117.117029,118.923154 C117.117029,116.293118 119.254212,114.160469 121.890539,114.160469 L147.802971,114.160469 C159.446091,114.160469 168.941892,104.651491 168.941892,93.0066851 C168.941892,87.3441293 166.724311,82.0056049 162.720555,78.0493947 C158.723606,74.1009251 153.322038,71.9637083 147.426508,71.9637083 C146.081323,71.9637083 144.791585,71.3043285 143.858771,70.2611775 C142.959349,69.2500772 142.526204,67.7950907 142.685595,66.4371392 C142.913976,64.4901552 143.029461,62.5029013 143.029461,60.5256929 C143.029461,32.8524041 120.468386,10.3399003 92.7388831,10.3399003 C69.3965734,10.3399003 49.2886441,26.1450058 43.8388599,48.7701248 C43.3417865,50.8314698 41.5421854,52.3414466 39.4244768,52.4412784 C22.9678211,53.2196091 10.0581079,66.772331 10.0581079,83.255364 C10.0581079,100.258317 23.9233736,114.160469 40.9143616,114.160469 L63.5875684,114.160469 C66.2238959,114.160469 68.3610789,116.293118 68.3610789,118.923154 C68.3610789,121.553205 66.2238808,123.68618 63.5875684,123.68618 L40.9143616,123.68618 C18.6542108,123.68618 0.511428571,105.509263 0.511428571,83.255364 C0.511428571,62.9409558 15.5378667,45.8599979 35.4596338,43.188387 C43.0623763,18.0073055 66.1911996,0.800550859 92.7388831,0.800550859 C125.735156,0.800550859 152.57614,27.5885047 152.57614,60.518533 C152.57614,61.2215842 152.563922,61.9251818 152.539496,62.6280127 C158.950455,63.6547895 164.819289,66.6113381 169.436433,71.1730558 Z" id="Fill-1"></path>
                <path d="M115.528001,95.9435462 C117.39074,97.8031079 117.371601,100.816634 115.506966,102.677082 C114.602792,103.579957 113.352018,104.073072 112.08951,104.073072 C110.820801,104.073072 109.532338,103.578088 108.636863,102.683857 L97.1769244,91.383158 L97.1769244,147.800034 C97.1769244,150.430085 95.040068,152.562719 92.4037556,152.562719 C89.7674281,152.562719 87.6302451,150.430069 87.6302451,147.800034 L87.6302451,91.4462981 L76.5126525,102.677374 C74.6480129,104.538329 71.7935513,104.538329 69.9295615,102.67752 C68.0653581,100.817502 68.0653581,97.8037742 69.929415,95.9434001 L89.3580271,76.5531858 C89.5792003,76.3309514 89.8241124,76.1315594 90.0948528,75.9507471 C90.202981,75.8791267 90.2745092,75.8403751 90.4048851,75.7748094 C90.6696402,75.6268614 90.7677165,75.5754513 90.9090846,75.5172166 C91.0538545,75.456898 91.1504084,75.4270357 91.3323278,75.3771736 C91.58673,75.2962717 91.6701403,75.2715725 91.8061067,75.2448162 C92.4217812,75.1229278 93.0558242,75.1229278 93.6712948,75.2446765 C93.8028165,75.2706506 93.8900237,75.2961791 94.0303896,75.3424168 C94.3338506,75.4292973 94.4286683,75.4588322 94.5581813,75.5130265 C94.7108195,75.575346 94.8062878,75.625544 94.9807561,75.7248057 C95.2040352,75.840451 95.275932,75.8793357 95.3881522,75.9540043 C95.6533151,76.1311049 95.8976537,76.3299308 96.1183819,76.5514797 L115.528001,95.9435462 Z" id="Fill-3"></path>
            </g>
        </g>
    </g>
</svg>