<?xml version="1.0" encoding="UTF-8"?>
<svg width="152px" height="152px" viewBox="0 0 152 152" version="1.1" xmlns="http://www.w3.org/2000/svg" xmlns:xlink="http://www.w3.org/1999/xlink">
    <!-- Generator: Sketch 43.1 (39012) - http://www.bohemiancoding.com/sketch -->
    <title>user-plus</title>
    <desc>Created with Sketch.</desc>
    <defs></defs>
    <g id="Page-1" stroke="none" stroke-width="1" fill="none" fill-rule="evenodd">
        <g id="user-plus" fill-rule="nonzero" fill="#000000">
            <g id="user" transform="translate(0.552649, 11.000000)">
                <path d="M37.6809714,127.503333 L24.1939445,127.503333 C20.1261057,127.429452 16.0963107,126.690035 12.2585224,125.313333 C6.00217193,123.302815 1.4954648,117.723224 0.760732457,111.078333 C-0.862263406,99.3685676 1.25821237,87.4373294 6.80801297,77.0522222 C10.7033627,69.4636292 18.3029806,64.5986025 26.7003831,64.3177778 C28.9397677,64.2340797 31.1654796,64.7073335 33.1852957,65.6966667 C34.8960396,66.5077778 36.5669987,67.4405556 38.2379578,68.3327778 C40.505062,69.6448502 42.8578989,70.7966349 45.2798568,71.78 C53.8736637,74.9747869 63.4189853,74.0821026 71.2990769,69.3466667 L72.6119733,68.5761111 C73.2663838,68.0963653 73.9435422,67.6497147 74.6409951,67.2377778 L76.1528152,66.4266667 C77.9544663,65.2100779 80.0131369,64.445703 82.160311,64.1961111 C86.9460505,63.9631351 91.6773034,65.3146907 95.6473379,68.0488889 C100.089725,71.0473122 103.520325,75.3655522 105.474169,80.4183333 C109.304,89.6536923 110.782014,99.7259286 109.770921,109.699444 C108.651019,119.237465 100.923881,126.548004 91.5097249,126.976111 C88.4860847,127.300556 85.3828749,127.341111 82.5183736,127.341111 L37.6809714,127.341111 L37.6809714,127.503333 Z M27.2175847,70.3605556 L26.9788763,70.3605556 C20.8364614,70.5633247 15.3017142,74.1947655 12.5768003,79.81 C7.68945846,89.1478314 5.86305509,99.8353547 7.36499933,110.307778 C7.79765483,114.611416 10.7105867,118.235323 14.764961,119.513889 C17.850699,120.612674 21.0855278,121.214708 24.3530834,121.298333 L46.3938295,121.298333 L82.4388041,121.298333 C85.2635207,121.298333 88.0484525,121.298333 90.7538149,120.973889 C97.2030333,120.754211 102.519687,115.74879 103.246223,109.212778 C104.134593,100.171152 102.766029,91.0473336 99.2677493,82.6894444 C97.7837772,78.7775331 95.1595487,75.4230777 91.7484334,73.0777778 C89.0027821,71.1601288 85.724988,70.1932845 82.3990194,70.32 C81.3213359,70.5800413 80.2975464,71.0331942 79.3753791,71.6583333 L77.5054964,72.7127778 C76.9461659,72.9944548 76.4016951,73.3058074 75.874322,73.6455556 L74.2033629,74.6188889 C64.5750733,80.2472673 53.0006046,81.256466 42.5744944,77.3766667 C39.8369016,76.2840324 37.1780337,74.9966007 34.6175464,73.5238889 C33.4637889,72.7127778 31.7132604,71.8611111 30.1218707,71.2933333 C29.2276779,70.780533 28.2386466,70.462883 27.2175847,70.3605556 L27.2175847,70.3605556 Z M55.3056113,59.8566667 L55.3056113,59.8566667 C47.0073076,59.924736 38.9962067,56.7626467 32.9068026,51.0155556 C27.1227585,45.6753318 23.849805,38.0723407 23.9105923,30.1175788 C23.9713797,22.1628169 27.3601273,14.6127237 33.2250805,9.365 C39.277918,3.83650862 47.1390324,0.813395018 55.2658266,0.888888889 L55.504535,0.888888889 C63.7220033,0.874516995 71.6398362,4.03345761 77.6646353,9.73 C83.4476557,15.1132238 86.7039215,22.7551161 86.6162019,30.7377778 C86.4570629,46.96 72.3732649,59.8566667 55.2658266,59.8566667 L55.3056113,59.8566667 Z M55.3056113,7.13444444 C48.8514427,7.07664853 42.6086673,9.47750916 37.8003256,13.8666667 C33.1781538,18.0244918 30.4792091,23.9683381 30.3605792,30.2511111 L30.3605792,30.2511111 C30.2780155,36.5948616 32.8541978,42.6732385 37.4422629,46.96 C42.2428451,51.469499 48.5388969,53.9613774 55.0669029,53.9355556 L55.0669029,53.9355556 C68.261223,54.5334649 79.4637038,44.1816926 80.171074,30.7377778 C80.3058814,24.405025 77.7882591,18.3135117 73.2485292,13.9883333 C68.4662294,9.47014799 62.1840804,6.96365844 55.663674,6.97222222 L55.2658266,6.97222222 L55.3056113,7.13444444 Z" id="e5Cc57"></path>
            </g>
            <path d="M120.577465,57.8806457 L120.577465,78.4356154 C120.577465,80.3579008 122.109786,81.916221 124,81.916221 C125.890214,81.916221 127.422535,80.3579008 127.422535,78.4356154 L127.422535,57.8806457 L147.977505,57.8806457 C149.89979,57.8806457 151.45811,56.3483245 151.45811,54.4581105 C151.45811,52.5678965 149.89979,51.0355753 147.977505,51.0355753 L127.422535,51.0355753 L127.422535,30.4806056 C127.422535,28.5583202 125.890214,27 124,27 C122.109786,27 120.577465,28.5583202 120.577465,30.4806056 L120.577465,51.0355753 L100.022495,51.0355753 C98.1002097,51.0355753 96.5418895,52.5678965 96.5418895,54.4581105 C96.5418895,56.3483245 98.1002097,57.8806457 100.022495,57.8806457 L120.577465,57.8806457 Z" id="Combined-Shape"></path>
        </g>
    </g>
</svg>