<?xml version="1.0" encoding="UTF-8"?>
<svg width="128px" height="128px" viewBox="0 0 128 128" version="1.1" xmlns="http://www.w3.org/2000/svg" xmlns:xlink="http://www.w3.org/1999/xlink">
    <!-- Generator: Sketch 47.1 (45422) - http://www.bohemiancoding.com/sketch -->
    <title>users</title>
    <desc>Created with Sketch.</desc>
    <defs></defs>
    <g id="iconos" stroke="none" stroke-width="1" fill="none" fill-rule="evenodd">
        <g id="users" fill="#000000">
            <path d="M50.1703881,121.764991 L39.3053541,121.764991 C36.0283379,121.704604 32.7819694,121.100244 29.6902798,119.975002 C24.6502172,118.331713 21.0196523,113.771254 20.4277582,108.340077 C19.1202866,98.7691431 20.8285238,89.0171892 25.2993958,80.5289599 C28.4374564,74.3264512 34.5596438,70.3500394 41.3245197,70.1205084 C43.1285489,70.0520981 44.9215634,70.4389103 46.5487101,71.2475382 C47.9268708,71.9104968 49.2729812,72.6728994 50.6190916,73.4021539 C52.4454515,74.4745715 54.3408768,75.4159785 56.2919854,76.2197284 C63.2150831,78.8309758 70.9047128,78.1013435 77.2528474,74.2308523 L78.3105056,73.6010415 C78.8376931,73.208923 79.3832062,72.8438548 79.9450683,72.5071597 L81.1629777,71.844201 C82.6143724,70.8498266 84.2728199,70.2250676 86.0025651,70.0210646 C89.857916,69.8306425 93.6693731,70.9353315 96.8675991,73.1701184 C100.446348,75.6208687 103.21001,79.1503663 104.78401,83.2802385 C107.869289,90.8287254 109.059965,99.0612308 108.245437,107.213047 C107.343254,115.008914 101.118338,120.984156 93.5343733,121.334068 C91.0985545,121.599251 88.5986352,121.632399 86.2910173,121.632399 L50.1703881,121.632399 L50.1703881,121.764991 Z M44.6805884,80.0333925 L44.5077113,80.0333925 C40.0592602,80.1646234 36.0508932,82.5148689 34.0774599,86.1490131 C30.537956,92.1923985 29.2152407,99.109296 30.3029767,105.886982 C30.6163138,108.672269 32.7259133,111.017639 35.6621666,111.845119 C37.8969155,112.556246 40.2396387,112.945878 42.6060633,113 L58.5683817,113 L84.6728231,113 C86.7185353,113 88.7354348,113 90.6947085,112.790022 C95.3653525,112.647848 99.2157724,109.408371 99.7419432,105.178305 C100.385317,99.3266217 99.3941776,93.4217443 96.8606582,88.0125714 C95.785938,85.4808071 93.8854229,83.3098248 91.4150298,81.7919615 C89.4265781,80.5508712 87.0527385,79.9251357 84.6440102,80.0071452 C83.8635317,80.1754422 83.1220844,80.4687199 82.4542337,80.873306 L81.1000298,81.5557358 C80.6949523,81.7380354 80.3006363,81.9395408 79.9187029,82.1594237 L78.7085633,82.7893589 C71.7355768,86.4320097 63.3531312,87.0851568 55.8023482,84.5741752 C53.8197325,83.8670292 51.8941309,83.0338116 50.0397784,82.0806818 C49.2042057,81.5557358 47.9364404,81.0045425 46.7839264,80.6370803 C46.1363353,80.3051992 45.4200604,80.0996181 44.6805884,80.0333925 L44.6805884,80.0333925 Z" id="Combined-Shape"></path>
            <path d="M64.5,66 C49.9163164,66 38,54.6379309 38,40.5 C38,26.3620691 49.9163164,15 64.5,15 C79.0836836,15 91,26.3620691 91,40.5 C91,54.6379309 79.0836836,66 64.5,66 Z M64.5,56 C73.6645606,56 81,49.0057439 81,40.5 C81,31.9942561 73.6645606,25 64.5,25 C55.3354394,25 48,31.9942561 48,40.5 C48,49.0057439 55.3354394,56 64.5,56 Z" id="Oval-15" fill-rule="nonzero"></path>
            <path d="M33.9328512,52.4802108 C34.4842021,54.331132 33.497136,56.2992677 31.7281774,56.8761648 C31.5004714,56.9504249 31.2210932,57.0175656 30.9055915,57.0721309 C27.2594769,57.7027183 23.1293457,56.3083591 19.087393,52.8247688 C15.202722,49.476733 12.0527324,50.9974509 8.72912099,58.4655057 C6.78274846,62.8389462 6.20000542,67.652716 7.16901102,71.1054579 C8.14065656,74.5676065 10.4866717,76.2871187 14.501457,76.2871187 C16.3543473,76.2871187 17.8564117,77.8587795 17.8564117,79.7975213 C17.8564117,81.7362631 16.3543473,83.3079239 14.501457,83.3079239 C7.52882931,83.3079239 2.54831381,79.559221 0.730943753,73.0836033 C-0.718184143,67.9200989 0.0216152492,61.3995156 2.64637986,55.5017486 C7.72911163,44.0810034 15.7472076,40.8501412 23.3534372,47.405633 C24.93042,48.7647687 26.4430986,49.6106522 27.8703049,49.9827485 C28.6532864,50.1868848 29.3213107,50.2300636 29.811362,50.1453103 C31.5763733,49.6387778 33.392698,50.6668809 33.9328512,52.4802108 Z M12.3385676,29.9961608 C11.3763787,25.7155665 11.6904448,21.4816622 13.4578274,17.6253562 C15.1324854,13.9713687 18.0267726,10.9807301 22.0900684,8.75608115 L22.1923985,8.70005555 L22.281397,8.65755205 L22.3888933,8.61336964 C28.9384415,5.92141836 34.9697778,6.65073102 39.9490886,10.4081573 C40.8875189,11.1163039 41.7349854,11.8991378 42.4784184,12.7324495 C42.8839896,13.187053 43.2175623,13.6084385 43.4400161,13.9376982 C44.4120878,15.3764868 44.0853881,17.3673872 42.7103119,18.3844987 C41.3352358,19.4016101 39.4324966,19.0597732 38.4604249,17.6209845 C38.4026787,17.5355127 38.2351794,17.327011 38.0206229,17.0865153 C37.5463652,16.5549214 36.9946214,16.0457166 36.3820008,15.5834284 C33.1232616,13.1243587 29.3075871,12.670327 24.771771,14.4901049 C21.9384695,16.0717036 20.0323156,18.0369547 18.9564689,20.3843773 C17.8264219,22.8500613 17.6281681,25.658608 18.2747902,28.5353063 C18.3473199,28.8579766 18.4262282,29.1560215 18.5074645,29.4192036 C18.5407987,29.5271966 18.5694538,29.613314 18.5758458,29.6301578 L18.6210983,29.7547389 C18.6857662,29.9633861 18.8192778,30.2815611 19.0006997,30.6464261 C19.3913167,31.432012 19.8866883,32.1799724 20.4741868,32.8538541 C22.288814,34.9352962 24.6717331,36.009994 27.774664,36.009994 C29.4586348,36.009994 30.8237629,37.4383736 30.8237629,39.2003692 C30.8237629,40.9623648 29.4586349,42.3907445 27.7746641,42.3907445 C22.9449606,42.3907445 18.9371205,40.5587253 15.9688799,37.1540474 C15.0181506,36.063527 14.2234845,34.8636743 13.5908714,33.5914 C13.273872,32.9538695 13.0274347,32.3628342 12.8734779,31.8918449 C12.6964032,31.406545 12.5073095,30.7468613 12.3385676,29.9961608 Z" id="Combined-Shape" fill-rule="nonzero"></path>
            <path d="M117.932851,52.4802108 C118.484202,54.331132 117.497136,56.2992677 115.728177,56.8761648 C115.500471,56.9504249 115.221093,57.0175656 114.905592,57.0721309 C111.259477,57.7027183 107.129346,56.3083591 103.087393,52.8247688 C99.202722,49.476733 96.0527324,50.9974509 92.729121,58.4655057 C90.7827485,62.8389462 90.2000054,67.652716 91.169011,71.1054579 C92.1406566,74.5676065 94.4866717,76.2871187 98.501457,76.2871187 C100.354347,76.2871187 101.856412,77.8587795 101.856412,79.7975213 C101.856412,81.7362631 100.354347,83.3079239 98.501457,83.3079239 C91.5288293,83.3079239 86.5483138,79.559221 84.7309438,73.0836033 C83.2818159,67.9200989 84.0216152,61.3995156 86.6463799,55.5017486 C91.7291116,44.0810034 99.7472076,40.8501412 107.353437,47.405633 C108.93042,48.7647687 110.443099,49.6106522 111.870305,49.9827485 C112.653286,50.1868848 113.321311,50.2300636 113.811362,50.1453103 C115.576373,49.6387778 117.392698,50.6668809 117.932851,52.4802108 Z M96.3385676,29.9961608 C95.3763787,25.7155665 95.6904448,21.4816622 97.4578274,17.6253562 C99.1324854,13.9713687 102.026773,10.9807301 106.090068,8.75608115 L106.192399,8.70005555 L106.281397,8.65755205 L106.388893,8.61336964 C112.938442,5.92141836 118.969778,6.65073102 123.949089,10.4081573 C124.887519,11.1163039 125.734985,11.8991378 126.478418,12.7324495 C126.88399,13.187053 127.217562,13.6084385 127.440016,13.9376982 C128.412088,15.3764868 128.085388,17.3673872 126.710312,18.3844987 C125.335236,19.4016101 123.432497,19.0597732 122.460425,17.6209845 C122.402679,17.5355127 122.235179,17.327011 122.020623,17.0865153 C121.546365,16.5549214 120.994621,16.0457166 120.382001,15.5834284 C117.123262,13.1243587 113.307587,12.670327 108.771771,14.4901049 C105.938469,16.0717036 104.032316,18.0369547 102.956469,20.3843773 C101.826422,22.8500613 101.628168,25.658608 102.27479,28.5353063 C102.34732,28.8579766 102.426228,29.1560215 102.507465,29.4192036 C102.540799,29.5271966 102.569454,29.613314 102.575846,29.6301578 L102.621098,29.7547389 C102.685766,29.9633861 102.819278,30.2815611 103.0007,30.6464261 C103.391317,31.432012 103.886688,32.1799724 104.474187,32.8538541 C106.288814,34.9352962 108.671733,36.009994 111.774664,36.009994 C113.458635,36.009994 114.823763,37.4383736 114.823763,39.2003692 C114.823763,40.9623648 113.458635,42.3907445 111.774664,42.3907445 C106.944961,42.3907445 102.93712,40.5587253 99.9688799,37.1540474 C99.0181506,36.063527 98.2234845,34.8636743 97.5908714,33.5914 C97.273872,32.9538695 97.0274347,32.3628342 96.8734779,31.8918449 C96.6964032,31.406545 96.5073095,30.7468613 96.3385676,29.9961608 Z" id="Combined-Shape" fill-rule="nonzero" transform="translate(105.999784, 45.153962) scale(-1, 1) translate(-105.999784, -45.153962) "></path>
        </g>
    </g>
</svg>