<?xml version="1.0" encoding="UTF-8" standalone="no"?>
<svg width="180px" height="180px" viewBox="0 0 180 180" version="1.1" xmlns="http://www.w3.org/2000/svg" xmlns:xlink="http://www.w3.org/1999/xlink">
    <!-- Generator: Sketch 3.6 (26304) - http://www.bohemiancoding.com/sketch -->
    <title>users</title>
    <desc>Created with Sketch.</desc>
    <defs></defs>
    <g id="iconos" stroke="none" stroke-width="1" fill="none" fill-rule="evenodd">
        <g id="users" fill="#000000">
            <path d="M69.7901225,173.636875 L53.660194,173.636875 C48.7952265,173.547226 43.9757577,172.650011 39.385921,170.979508 C31.9035836,168.539926 26.5137476,161.769595 25.635038,153.70662 C23.6940018,139.497876 26.2300034,125.020396 32.8673363,112.419006 C37.5260141,103.210933 46.614844,97.3076621 56.6577914,96.9669066 C59.336003,96.8653466 61.9978628,97.4395973 64.4134797,98.6400638 C66.4594588,99.6242739 68.4578571,100.756116 70.4562553,101.838747 C73.1676186,103.430828 75.9815146,104.828415 78.8780764,106.02164 C89.1559154,109.898225 100.571727,108.815033 109.995992,103.069009 L111.566162,102.13401 C112.34881,101.551881 113.158663,101.009911 113.992788,100.510063 L115.800863,99.5258529 C117.955563,98.0496323 120.417648,97.1221323 122.98558,96.8192751 C128.709127,96.5365797 134.367511,98.1765704 139.115509,101.494273 C144.42842,105.132589 148.531276,110.372384 150.867993,116.503478 C155.448313,127.709752 157.215958,139.931502 156.006732,152.033463 C154.667375,163.60699 145.426037,172.477669 134.167094,172.997138 C130.550945,173.390822 126.839634,173.440033 123.413808,173.440033 L69.7901225,173.440033 L69.7901225,173.636875 Z M57.2763432,104.299272 L56.9908577,104.299272 C49.6447827,104.545314 43.025453,108.95174 39.7665683,115.76532 C33.9215088,127.095935 31.7372056,140.06428 33.533469,152.77162 C34.0509072,157.993696 37.5346537,162.390981 42.3835183,163.942405 C46.0739338,165.275682 49.9426558,166.006195 53.8505177,166.107668 L80.2103419,166.107668 L123.318646,166.107668 C126.696891,166.107668 130.027555,166.107668 133.263057,165.713984 C140.976056,165.447424 147.334555,159.373798 148.203462,151.442937 C149.265916,140.47174 147.62917,129.40081 143.445371,119.259266 C141.670602,114.512515 138.532133,110.442186 134.452579,107.596376 C131.168894,105.269482 127.248787,104.096304 123.271066,104.250062 C121.9822,104.565598 120.75779,105.115458 119.654916,105.874008 L117.418614,107.153481 C116.749677,107.495271 116.098513,107.873069 115.467796,108.285323 L113.469398,109.466375 C101.95436,116.295904 88.1117727,117.520476 75.6425745,112.81269 C72.3685262,111.486877 69.1886299,109.924694 66.1263925,108.137691 C64.7465461,107.153481 62.652986,106.120061 60.7497496,105.431114 C59.6803318,104.808877 58.4974911,104.423437 57.2763432,104.299272 L57.2763432,104.299272 Z M90.8684657,91.5537509 L90.8684657,91.5537509 C80.9440364,91.636347 71.3630897,87.799437 64.0804133,80.8258606 C57.162935,74.3459812 53.2486175,65.1204377 53.3213166,55.4680521 C53.3940157,45.8156666 57.4468183,36.65431 64.4610606,30.2866709 C71.7000049,23.5783457 81.1015738,19.9100702 90.8208848,20.0016752 L91.1063703,20.0016752 C100.934124,19.9842362 110.403526,23.8173255 117.608937,30.7295655 C124.525191,37.2616217 128.419551,46.5343682 128.314642,56.2206076 C128.124318,75.90481 111.280676,91.5537509 90.8208848,91.5537509 L90.8684657,91.5537509 Z M90.8684657,27.5800931 C83.149546,27.509963 75.6834438,30.4231907 69.9328653,35.7490371 C64.4049382,40.7941826 61.1771116,48.0065036 61.0352351,55.6300816 L61.0352351,55.6300816 C60.9364924,63.3276502 64.0175002,70.7032119 69.5046371,75.90481 C75.2459355,81.37668 82.7757541,84.4003495 90.5829803,84.3690171 L90.5829803,84.3690171 C106.362843,85.094526 119.760549,72.5335848 120.606535,56.2206076 C120.767759,48.5363837 117.756786,41.1448821 112.327456,35.8966686 C106.608023,30.4142585 99.0948313,27.3728597 91.2966939,27.3832511 L90.8208848,27.3832511 L90.8684657,27.5800931 Z" id="e5Cc57"></path>
            <path d="M48.0034476,72.339153 C48.0705481,72.3182391 48.0453956,72.3242918 47.9342569,72.3426618 C47.0206243,72.4936755 45.7474149,72.4600284 44.1600784,72.0645094 C41.7083948,71.4536198 39.0389191,70.0891442 36.1911862,67.7434853 C24.5884524,58.1863901 12.5602778,62.8429467 4.62980293,79.8733991 C0.539489074,88.657223 -0.713067812,98.4986613 1.57714502,106.297742 C4.31058971,115.606203 11.731871,121.205616 22.6641933,121.205616 C24.8733323,121.205616 26.6641933,119.414755 26.6641933,117.205616 C26.6641933,114.996477 24.8733323,113.205616 22.6641933,113.205616 C15.2944303,113.205616 10.9896753,109.957646 9.25303663,104.043704 C7.55710578,98.2683884 8.56070995,90.3829913 11.8820511,83.2505126 C17.8119886,70.5161533 24.0449211,68.1031518 31.1049248,73.9184303 C37.8650471,79.4866984 44.2078473,81.0671433 49.23887,80.235569 C49.7228386,80.1555742 50.1064517,80.063262 50.3839486,79.9767714 C52.4930187,79.3194142 53.6698645,77.0767818 53.0125073,74.9677117 C52.3551501,72.8586416 50.1125177,71.6817958 48.0034476,72.339153 L48.0034476,72.339153 Z" id="Path-175"></path>
            <path d="M68.5855314,16.1054443 C68.30565,15.7095289 67.8246687,15.1113067 67.140578,14.3784668 C66.0401618,13.1996336 64.7354937,12.0292386 63.2225715,10.9381311 C55.9327848,5.68079444 46.6884973,4.08446926 35.9270601,8.31169917 L35.7513298,8.38072827 L35.5840449,8.46826077 C29.0968465,11.8627151 24.6661975,16.3480005 22.1227491,21.6518791 C19.2089869,27.727977 19.0133647,34.1040029 20.3995557,39.9978186 C20.7080057,41.309288 21.027036,42.2970844 21.2652412,42.8969964 L21.1888852,42.6850502 C21.3787331,43.2704592 21.7440751,44.165277 22.3186232,45.2696066 C23.2512937,47.0622774 24.4604391,48.8481959 25.9858935,50.5204639 C30.3624946,55.3182804 36.4172633,58.2180442 44.1887146,58.2180442 C46.1217112,58.2180441 47.6887146,56.6510408 47.6887146,54.7180441 C47.6887145,52.7850475 46.1217111,51.2180441 44.1887145,51.2180442 C38.4693405,51.2180442 34.2567711,49.2005507 31.1574457,45.8029384 C30.0663259,44.6068063 29.1947216,43.319439 28.5284577,42.038824 C28.1436451,41.2991821 27.9234227,40.7597999 27.8474932,40.525666 L27.8127275,40.4184636 L27.7711372,40.3137198 C27.7542012,40.2710672 27.7023202,40.1275597 27.6264144,39.8925367 C27.4880622,39.4641644 27.346909,38.9618746 27.2136277,38.3951887 C26.1617273,33.9227121 26.3093775,29.1102652 28.4345305,24.6786622 C30.3126396,20.7622223 33.6562818,17.3773481 38.8293913,14.6704964 L38.4863762,14.827058 C46.9105281,11.5179436 53.6805347,12.6870042 59.1279822,16.6156604 C60.2532664,17.4272064 61.2210286,18.2953689 62.0235631,19.1550931 C62.4812428,19.6453876 62.7651453,19.9984923 62.8695576,20.1461922 C63.9853793,21.7246148 66.1694958,22.0996269 67.7479184,20.9838051 C69.326341,19.8679834 69.7013531,17.6838669 68.5855314,16.1054443 L68.5855314,16.1054443 Z" id="Path-173"></path>
            <path d="M174.561714,72.4875229 C174.628814,72.4666089 174.603662,72.4726616 174.492523,72.4910316 C173.578891,72.6420453 172.305681,72.6083982 170.718345,72.2128793 C168.266661,71.6019896 165.597185,70.237514 162.749452,67.8918552 C151.146719,58.33476 139.118544,62.9913165 131.188069,80.0217689 C127.097755,88.8055928 125.845199,98.6470312 128.135411,106.446112 C130.868856,115.754572 138.290137,121.353986 149.22246,121.353986 C151.431599,121.353986 153.22246,119.563125 153.22246,117.353986 C153.22246,115.144847 151.431599,113.353986 149.22246,113.353986 C141.852697,113.353986 137.547942,110.106016 135.811303,104.192074 C134.115372,98.4167583 135.118976,90.5313611 138.440317,83.3988825 C144.370255,70.6645231 150.603187,68.2515217 157.663191,74.0668001 C164.423313,79.6350682 170.766114,81.2155131 175.797136,80.3839389 C176.281105,80.303944 176.664718,80.2116318 176.942215,80.1251413 C179.051285,79.4677841 180.228131,77.2251516 179.570774,75.1160816 C178.913416,73.0070115 176.670784,71.8301657 174.561714,72.4875229 L174.561714,72.4875229 Z" id="Path-175" transform="translate(153.376516, 92.176993) scale(-1, 1) translate(-153.376516, -92.176993) "></path>
            <path d="M163.018787,18.2106245 C162.738906,17.814709 162.257925,17.2164869 161.573834,16.483647 C160.473418,15.3048137 159.16875,14.1344188 157.655827,13.0433113 C150.366041,7.7859746 141.121753,6.18964943 130.360316,10.4168793 L130.184586,10.4859084 L130.017301,10.5734409 C123.530102,13.9678953 119.099453,18.4531807 116.556005,23.7570592 C113.642243,29.8331572 113.44662,36.2091831 114.832812,42.1029988 C115.141261,43.4144682 115.460292,44.4022646 115.698497,45.0021766 L115.622141,44.7902304 C115.811989,45.3756393 116.177331,46.2704572 116.751879,47.3747868 C117.68455,49.1674576 118.893695,50.9533761 120.419149,52.6256441 C124.79575,57.4234606 130.850519,60.3232244 138.62197,60.3232243 C140.554967,60.3232243 142.12197,58.7562209 142.12197,56.8232243 C142.12197,54.8902277 140.554967,53.3232243 138.62197,53.3232243 C132.902596,53.3232244 128.690027,51.3057309 125.590702,47.9081185 C124.499582,46.7119865 123.627977,45.4246192 122.961713,44.1440042 C122.576901,43.4043623 122.356679,42.8649801 122.280749,42.6308462 L122.245983,42.5236438 L122.204393,42.4189 C122.187457,42.3762474 122.135576,42.2327399 122.05967,41.9977169 C121.921318,41.5693445 121.780165,41.0670548 121.646884,40.5003688 C120.594983,36.0278923 120.742633,31.2154453 122.867786,26.7838423 C124.745895,22.8674025 128.089538,19.4825283 133.262647,16.7756766 L132.919632,16.9322382 C141.343784,13.6231238 148.113791,14.7921844 153.561238,18.7208405 C154.686522,19.5323866 155.654284,20.4005491 156.456819,21.2602733 C156.914499,21.7505678 157.198401,22.1036725 157.302813,22.2513724 C158.418635,23.8297949 160.602752,24.204807 162.181174,23.0889853 C163.759597,21.9731636 164.134609,19.789047 163.018787,18.2106245 L163.018787,18.2106245 Z" id="Path-173" transform="translate(138.830543, 34.161612) scale(-1, 1) translate(-138.830543, -34.161612) "></path>
        </g>
    </g>
</svg>