<?xml version="1.0" encoding="UTF-8"?>
<svg width="128px" height="128px" viewBox="0 0 128 128" version="1.1" xmlns="http://www.w3.org/2000/svg" xmlns:xlink="http://www.w3.org/1999/xlink">
    <!-- Generator: Sketch 47.1 (45422) - http://www.bohemiancoding.com/sketch -->
    <title>user</title>
    <desc>Created with Sketch.</desc>
    <defs></defs>
    <g id="iconos" stroke="none" stroke-width="1" fill="none" fill-rule="evenodd">
        <g id="user">
            <path d="M64,60 C47.4314575,60 34,46.5685425 34,30 C34,13.4314575 47.4314575,0 64,0 C80.5685425,0 94,13.4314575 94,30 C94,46.5685425 80.5685425,60 64,60 Z M64,50 C75.045695,50 84,41.045695 84,30 C84,18.954305 75.045695,10 64,10 C52.954305,10 44,18.954305 44,30 C44,41.045695 52.954305,50 64,50 Z" id="Oval-16" fill="#000000" fill-rule="nonzero"></path>
            <path d="" id="Path-25" stroke="#979797"></path>
            <path d="M111.459782,71.5620699 L111.636687,71.8370491 L111.776274,72.1327249 C118.972655,87.376171 121.913526,99.5659966 120.355826,108.945009 C118.640639,119.272266 111.558951,125.843805 100.108706,128.157047 L99.6558981,128.248526 L99.193995,128.255493 C66.1850002,128.753415 42.5772859,128.753415 28.3235171,128.252983 C15.6213946,127.807028 8.30629654,117.925504 7.1566138,103.881479 C6.19226159,92.1013722 9.74299819,78.770366 16.1085336,71.0793005 C24.7700081,60.6142 34.500134,59.965494 43.8006731,65.2303853 C44.5754989,65.6690022 45.2900306,66.1136976 46.0944,66.6441804 C46.0828344,66.6365528 47.2269765,67.4001921 47.3947065,67.5045224 C57.840894,74.0021942 68.486768,74.0247122 80.0926319,67.4716477 C92.9790369,59.1711523 104.253678,60.3609769 111.459782,71.5620699 Z M85.4045456,75.9452821 L85.1542734,76.097363 C70.3781709,84.4938437 55.7749801,84.4938437 42.1129642,75.9958826 C42.3850901,76.1651487 39.7623095,74.435421 38.8743825,73.9327793 C33.4379804,70.8553162 29.0315642,71.1490912 23.8122231,77.4552842 C19.2225468,83.0006938 16.3603867,93.746485 17.1232737,103.065581 C17.9042748,112.605951 21.9135024,118.021775 28.674388,118.259141 C42.6498885,118.749802 65.9622444,118.752187 98.5648076,118.263821 C105.851683,116.687037 109.513389,113.192608 110.490956,107.306616 C111.636518,100.409115 109.178526,90.1318819 102.879444,76.7122058 C98.9660801,70.8380267 93.9331337,70.4144411 85.4045456,75.9452821 Z" id="Path-27" fill="#000000" fill-rule="nonzero"></path>
        </g>
    </g>
</svg>