<svg id="Capa_1" data-name="Capa 1" xmlns="http://www.w3.org/2000/svg" viewBox="0 0 27.54 31.22"><title>Sin título-1</title><path id="e5Cc57" d="M11.06,31.86c-1.13,0-2.26,0-3.39,0a9.55,9.55,0,0,1-3-.54,4.17,4.17,0,0,1-2.89-3.51A13.57,13.57,0,0,1,3.3,19.42a5.86,5.86,0,0,1,5-3.14,3.47,3.47,0,0,1,1.63.34c0.43,0.2.85,0.43,1.27,0.65a14.31,14.31,0,0,0,1.77.85,7.69,7.69,0,0,0,6.54-.6l0.33-.19A6.18,6.18,0,0,1,20.35,17l0.38-.2a3.44,3.44,0,0,1,1.51-.55,5.58,5.58,0,0,1,3.39.95,6.53,6.53,0,0,1,2.47,3.05,14.67,14.67,0,0,1,1.08,7.22,4.84,4.84,0,0,1-4.59,4.26c-0.76.08-1.54,0.09-2.26,0.09H11.06ZM8.43,17.77H8.37A4.19,4.19,0,0,0,4.75,20.1a12.22,12.22,0,0,0-1.31,7.52A2.66,2.66,0,0,0,5.3,29.89a7.91,7.91,0,0,0,2.41.44c1.84,0,3.72,0,5.54,0h9.06c0.71,0,1.41,0,2.09-.08a3.27,3.27,0,0,0,3.14-2.9,13.29,13.29,0,0,0-1-6.54,5.06,5.06,0,0,0-1.89-2.37,3.9,3.9,0,0,0-2.35-.68,2.35,2.35,0,0,0-.76.33l-0.47.26a4.49,4.49,0,0,0-.41.23l-0.42.24a9.46,9.46,0,0,1-7.95.68,15.77,15.77,0,0,1-2-.95C10,18.35,9.56,18.14,9.16,18A1.86,1.86,0,0,0,8.43,17.77Zm7.06-2.59h0A8.19,8.19,0,0,1,9.86,13,6.88,6.88,0,0,1,9.94,2.73,8.19,8.19,0,0,1,15.48.64h0.06a8.17,8.17,0,0,1,5.57,2.18A6.91,6.91,0,0,1,23.36,8C23.32,12,19.78,15.18,15.48,15.18Zm0-13a6.51,6.51,0,0,0-4.4,1.66A5.53,5.53,0,0,0,9.22,7.88h0A5.49,5.49,0,0,0,11,12a6.5,6.5,0,0,0,4.43,1.72h0A6.05,6.05,0,0,0,21.74,8,5.49,5.49,0,0,0,20,3.87a6.49,6.49,0,0,0-4.42-1.73H15.48Z" transform="translate(-1.71 -0.64)"/></svg>