<?xml version="1.0" encoding="UTF-8"?>
<svg width="152px" height="152px" viewBox="0 0 152 152" version="1.1" xmlns="http://www.w3.org/2000/svg" xmlns:xlink="http://www.w3.org/1999/xlink">
    <!-- Generator: Sketch 43.1 (39012) - http://www.bohemiancoding.com/sketch -->
    <title>video-plus</title>
    <desc>Created with Sketch.</desc>
    <defs></defs>
    <g id="Page-1" stroke="none" stroke-width="1" fill="none" fill-rule="evenodd">
        <g id="video-plus" fill-rule="nonzero" fill="#000000">
            <g id="Path-120">
                <path d="M55.5435707,122.845874 L13.6585749,122.845874 C13.4021771,122.850907 13.1211271,122.834184 12.7560187,122.772878 C12.1774524,122.675729 11.6130335,122.496691 11.1157331,122.230194 C9.65521518,121.44752 8.79596648,119.990538 8.79596632,116.953508 C8.79596623,111.065603 8.79596623,111.065603 8.79596615,98.4281494 L8.79596615,66.4036896 C8.79596623,52.0656002 8.79596623,52.0656002 8.79596623,39.0451948 C8.79596632,29.0512096 8.79596632,29.0512096 8.79596632,21.7462095 L8.79596632,14.9135113 C8.79596632,14.7785406 8.78919,14.6436549 8.77566285,14.5093636 C8.75487791,14.1184471 8.76211897,13.6413726 8.81914699,13.1030458 C8.89904236,12.348858 9.06438677,11.6235715 9.32147804,10.982157 C10.0828759,9.08255272 11.4865126,8.08275234 14.5661237,8.08275234 L33.6703355,8.08275234 L66.8384407,8.08275234 L95.5716915,8.08275234 L113.12397,8.08275234 L120.041334,8.08275234 C120.932557,8.04300145 121.758961,8.14404477 122.450996,8.44713761 C123.517687,8.9143198 124.063696,9.72870939 124.063697,11.8212035 L124.063697,29.0353778 C124.063697,35.4004377 124.063697,51.7412198 124.063697,57.3098564 L124.063697,60.1405121 L124.063697,62.2773903 C124.063696,64.5044818 125.86911,66.3098963 128.096202,66.3098964 C130.323294,66.3098964 132.128708,64.5044821 132.128708,62.2773907 L132.128708,60.1405125 C132.128708,57.8332465 132.128708,60.5215837 132.128708,57.3098565 C132.128708,51.74122 132.128708,35.4004378 132.128709,29.0353779 C132.128709,18.7462059 132.128709,18.7462059 132.128708,11.8212023 C132.128707,6.48820264 129.65414,2.79730629 125.68654,1.05960284 C123.669459,0.176174946 121.680382,-0.0670269305 119.968261,0.0149065721 C118.755115,0.0177406503 118.755115,0.0177406503 113.12397,0.0177406503 L95.5716915,0.0177406503 L66.8384407,0.0177406503 L33.6703355,0.0177406503 L14.5661237,0.0177406503 C8.11093348,0.0177406503 3.79539966,3.09166458 1.83541927,7.98160084 C0.863051814,10.407551 0.606725824,12.8271887 0.721727309,14.919614 C0.730901239,15.0865316 0.741436783,15.220157 0.751258123,15.317659 L0.730954677,14.9135113 C0.730954668,16.1855905 0.730954668,16.1855905 0.730954643,21.7462094 C0.730954609,29.0512095 0.730954609,29.0512095 0.730954566,39.0451948 C0.730954524,52.0656002 0.730954524,52.0656002 0.73095449,66.4036896 C0.730954456,83.5408448 0.730954456,83.5408448 0.730954481,98.4281494 C0.730954532,111.065603 0.730954532,111.065603 0.730954677,116.953509 C0.730954948,122.943131 3.20737404,127.14226 7.30630229,129.338826 C8.63582243,130.0513 10.0267677,130.492519 11.4204995,130.726544 C12.3241632,130.87828 13.1055999,130.924776 13.7180983,130.910812 C13.7886651,130.908924 55.5435707,130.910887 55.5435707,130.910887 C57.7706622,130.910887 59.7954058,129.999239 59.7954058,126.386061 C59.7954058,122.772883 55.5435707,122.845874 55.5435707,122.845874 Z"></path>
            </g>
            <path d="M78.75,118.281808 L146.25,118.281808 C148.321068,118.281808 150,116.628828 150,114.589774 C150,112.55072 148.321068,110.89774 146.25,110.89774 L78.75,110.89774 C76.6789325,110.89774 75,112.55072 75,114.589774" id="Line"></path>
            <path d="M116.666667,148.228307 L116.666667,81.7716928 C116.666667,79.7326387 114.987734,78.0796587 112.916667,78.0796587 C110.845599,78.0796587 109.166667,79.7326387 109.166667,81.7716928 L109.166667,148.228307 C109.166667,150.267361 110.845599,151.920341 112.916667,151.920341 C114.987734,151.920341 116.666667,150.267361 116.666667,148.228307 Z" id="Line"></path>
            <path d="M38.8229214,51.5882555 L38.8229214,78.3458326 C38.8229214,79.8725003 40.0594284,81.1082677 41.5868096,81.1082677 L76.4120924,81.1082677 C77.9384689,81.1082677 79.1759806,79.8712055 79.1759806,78.3458326 L79.1759806,51.5882555 C79.1759806,50.0615877 77.9394737,48.8258203 76.4120924,48.8258203 L41.5868096,48.8258203 C40.0604331,48.8258203 38.8229214,50.0628826 38.8229214,51.5882555 Z M82.998902,53.5563926 L97.1012138,45.2665201 C98.3754622,44.5174687 99.981337,45.4362571 99.981337,46.9143596 L99.981337,82.8704853 C99.981337,84.3485878 98.3754622,85.2673762 97.1012138,84.5183248 L82.998902,76.2284523 L82.998902,78.3458326 C82.998902,81.9828576 80.0494993,84.9311891 76.4120924,84.9311891 L41.5868096,84.9311891 C37.948599,84.9311891 35,81.9843537 35,78.3458326 L35,51.5882555 C35,47.9512305 37.9494027,45.0028989 41.5868096,45.0028989 L76.4120924,45.0028989 C80.050303,45.0028989 82.998902,47.9497344 82.998902,51.5882555 L82.998902,53.5563926 Z M82.998902,57.7677104 L82.998902,71.9862461 C83.2581862,72.0150787 83.51573,72.0977514 83.7551799,72.2385092 L96.1584156,79.5296004 L96.1584156,50.2552445 L83.81779,57.5095312 C83.5590743,57.6616141 83.279236,57.745889 82.998902,57.7677104 Z" id="Combined-Shape"></path>
        </g>
    </g>
</svg>