<?xml version="1.0" encoding="UTF-8"?>
<svg width="152px" height="152px" viewBox="0 0 152 152" version="1.1" xmlns="http://www.w3.org/2000/svg" xmlns:xlink="http://www.w3.org/1999/xlink">
    <!-- Generator: Sketch 43.1 (39012) - http://www.bohemiancoding.com/sketch -->
    <title>video</title>
    <desc>Created with Sketch.</desc>
    <defs></defs>
    <g id="Page-1" stroke="none" stroke-width="1" fill="none" fill-rule="evenodd">
        <g id="video" fill-rule="nonzero" fill="#000000">
            <path d="M8.5,42.0033816 L8.5,104.996618 C8.5,108.590731 11.4110101,111.5 15.0068024,111.5 L96.9931976,111.5 C100.586625,111.5 103.5,108.587683 103.5,104.996618 L103.5,42.0033816 C103.5,38.409269 100.58899,35.5 96.9931976,35.5 L15.0068024,35.5 C11.4133754,35.5 8.5,38.4123174 8.5,42.0033816 Z M112.5,46.6368103 L145.699952,27.1206224 C148.699814,25.3571901 152.480397,27.5202207 152.480397,31 L152.480397,115.648649 C152.480397,119.128428 148.699814,121.291459 145.699952,119.528026 L112.5,100.011838 L112.5,104.996618 C112.5,113.558977 105.556456,120.5 96.9931976,120.5 L15.0068024,120.5 C6.44165228,120.5 -0.5,113.5625 -0.5,104.996618 L-0.5,42.0033816 C-0.5,33.4410226 6.44354437,26.5 15.0068024,26.5 L96.9931976,26.5 C105.558348,26.5 112.5,33.4375004 112.5,42.0033816 L112.5,46.6368103 Z M112.5,56.5511809 L112.5,90.0247495 C113.110412,90.0926278 113.716727,90.2872576 114.280445,90.6186324 L143.480397,107.783469 L143.480397,38.8651797 L114.427843,55.9433703 C113.818769,56.3014069 113.159968,56.4998088 112.5,56.5511809 Z" id="Combined-Shape"></path>
        </g>
    </g>
</svg>