<?xml version="1.0" encoding="utf-8"?>
<!-- Generator: Adobe Illustrator 19.2.0, SVG Export Plug-In . SVG Version: 6.00 Build 0)  -->
<svg version="1.1" id="Capa_1" xmlns="http://www.w3.org/2000/svg" xmlns:xlink="http://www.w3.org/1999/xlink" x="0px" y="0px"
	 viewBox="0 0 64 64" style="enable-background:new 0 0 64 64;" xml:space="preserve">
<path d="M32.1,62.8c17,0,30.7-13.8,30.7-30.8c0-17-13.8-30.7-30.7-30.7c-17,0-30.8,13.8-30.8,30.7C1.3,49,15.1,62.8,32.1,62.8
	L32.1,62.8z M32.1,4.4c15.3,0,27.7,12.4,27.7,27.7S47.4,59.8,32.1,59.8S4.4,47.4,4.4,32.1S16.8,4.4,32.1,4.4L32.1,4.4z M32.1,5.1
	 M35.4,42.6c0,1.7-1.4,3.2-3.2,3.2c-1.7,0-3.2-1.4-3.2-3.2c0-1.8,1.4-3.2,3.2-3.2C34,39.5,35.4,40.9,35.4,42.6L35.4,42.6z
	 M35.4,42.6 M32.3,34.8c1,0,1.9-0.8,1.9-1.9V16.8c0-1-0.8-1.9-1.9-1.9c-1,0-1.9,0.8-1.9,1.9v16.1C30.4,33.9,31.2,34.8,32.3,34.8
	L32.3,34.8z M32.3,34.8"/>
</svg>
