<?xml version="1.0" encoding="UTF-8"?>
<svg width="152px" height="152px" viewBox="0 0 152 152" version="1.1" xmlns="http://www.w3.org/2000/svg" xmlns:xlink="http://www.w3.org/1999/xlink">
    <!-- Generator: Sketch 43.1 (39012) - http://www.bohemiancoding.com/sketch -->
    <title>word</title>
    <desc>Created with Sketch.</desc>
    <defs></defs>
    <g id="Page-1" stroke="none" stroke-width="1" fill="none" fill-rule="evenodd">
        <g id="word" fill="#000000">
            <path d="M113.292481,42.2152692 L113.292481,15.9001953 L106.942188,9 C106.942188,9 104,9 104,9 L104.292481,46.7152692 C104.292481,49.2005505 106.3072,51.2152692 108.792481,51.2152692 L142.97041,51.2152692 L142.97041,48.0904297 L137.564355,42.2152692 L113.292481,42.2152692 Z" id="Path"></path>
            <path d="M137.249622,41.8550574 L106.944611,9 C103.689376,9 103.458732,9 98.8884806,9 L11.9986164,9 C10.3385333,9 9,10.3380229 9,11.9906395 L9,140.009361 C9,141.662811 10.3374418,143 11.9906395,143 L140.009361,143 C141.661632,143 143,141.660597 143,140.002349 L143,48.0893071 C140.512861,45.3928852 140.511817,45.3917534 137.249622,41.8550574 Z M0,11.9906395 C0,5.36839215 5.3670376,0 11.9986164,0 L110.887097,0 L152,44.5723914 L152,140.002349 C152,146.628469 146.634886,152 140.009361,152 L11.9906395,152 C5.36839215,152 0,146.634886 0,140.009361 L0,11.9906395 Z" id="Rectangle-10" fill-rule="nonzero"></path>
            <path d="M86.11659,104.776407 C88.4445638,107.732624 93.1568517,106.696018 94.0293392,103.035766 L104.038977,61.0434229 C104.615243,58.6258745 103.122589,56.1989079 100.705041,55.6226414 C98.2874926,55.0463748 95.860526,56.5390287 95.2842594,58.9565771 L87.4317406,91.899395 L76.5090989,78.0290958 C74.6810259,75.7076868 71.1497355,75.7481908 69.3753897,78.1109197 L59.1331662,91.7495226 L50.3477487,58.8393619 C49.706746,56.4381665 47.2405572,55.0112485 44.8393619,55.6522513 C42.4381665,56.293254 41.0112485,58.7594428 41.6522513,61.1606381 L52.8251393,103.01426 C53.7935237,106.641826 58.5165786,107.558138 60.7712067,104.555862 L73.0583692,88.1942071 L86.11659,104.776407 Z" id="Path-5" fill-rule="nonzero"></path>
        </g>
    </g>
</svg>