<?xml version="1.0" encoding="UTF-8"?>
<svg width="180px" height="180px" viewBox="0 0 180 180" version="1.1" xmlns="http://www.w3.org/2000/svg" xmlns:xlink="http://www.w3.org/1999/xlink">
    <!-- Generator: Sketch 43.2 (39069) - http://www.bohemiancoding.com/sketch -->
    <title>zone</title>
    <desc>Created with Sketch.</desc>
    <defs>
        <polygon id="path-1" points="0.025902439 176.999568 176.82818 176.999568 176.82818 0.208946341 0.025902439 0.208946341"></polygon>
    </defs>
    <g id="iconos" stroke="none" stroke-width="1" fill="none" fill-rule="evenodd">
        <g id="zone">
            <g id="009-signs" transform="translate(2.000000, 0.000000)">
                <mask id="mask-2" fill="white">
                    <use xlink:href="#path-1"></use>
                </mask>
                <g id="Clip-2"></g>
                <path d="M106.458161,44.1990585 C106.458161,33.3001756 97.7968171,24.6388317 86.8979341,24.6388317 C75.9990512,24.6388317 67.3377073,32.9038683 67.3377073,43.8381512 C67.3377073,54.7724341 75.9990512,63.398378 86.8979341,63.398378 C97.7968171,63.398378 106.458161,55.0979415 106.458161,44.1990585 Z M96.6575455,44.1990585 C96.6575455,49.6710292 92.408455,53.9201197 86.9350915,53.9201197 C81.4631209,53.9201197 77.2140304,49.3513811 77.2140304,44.1990585 C77.2140304,38.7270879 81.4631209,34.4779974 86.9350915,34.4779974 C92.408455,34.4779974 96.9486411,38.7270879 96.6575455,44.1990585 Z" id="Fill-1" fill="#000000" mask="url(#mask-2)"></path>
                <path d="M112.989461,102.6246 C114.721039,99.3768659 133.559451,65.4908634 133.559451,48.349061 C133.559451,21.644078 112.4835,0.208946341 86.8979341,0.208946341 C61.3123683,0.208946341 40.2364171,22.0421122 40.2364171,48.349061 C40.2364171,60.7995 50.4506122,83.1369 60.9872927,102.840454 C24.1065366,107.784798 0,122.220227 0,139.001122 C0,160.436254 38.7573878,176.999568 88.4140902,176.999568 C138.070361,176.999568 176.82818,160.436254 176.82818,139.001122 C176.82818,121.641739 151.421341,107.027583 112.989461,102.6246 Z M51.2877537,50.3231764 C51.2877537,29.7586931 67.3850973,13.3328081 86.8979341,13.3328081 C106.77311,13.3328081 122.508115,29.7586931 122.508115,50.3231764 C122.508115,68.720309 91.693615,119.835201 86.8979341,127.391258 C77.9958803,112.674102 51.2877537,67.7991359 51.2877537,50.3231764 Z M88.4154384,167.18633 C43.5738189,167.18633 13.7025378,152.584108 13.7025378,139.049145 C13.7025378,127.21358 36.3730127,115.711434 66.7121169,112.210937 C75.4129082,127.913121 77.8345949,141.196724 88,141.196724 C96.92269,141.196724 98.4499043,128.445953 107.518413,112.076931 C139.522617,115.378015 163.161043,126.713452 163.161043,139.049145 C163.126744,152.616812 133.255064,167.18633 88.4154384,167.18633 Z" id="Fill-3" fill="#000000" mask="url(#mask-2)"></path>
            </g>
        </g>
    </g>
</svg>