<?xml version="1.0" encoding="UTF-8"?>
<svg width="180px" height="180px" viewBox="0 0 180 180" version="1.1" xmlns="http://www.w3.org/2000/svg" xmlns:xlink="http://www.w3.org/1999/xlink">
    <!-- Generator: Sketch 47.1 (45422) - http://www.bohemiancoding.com/sketch -->
    <title>zoom</title>
    <desc>Created with Sketch.</desc>
    <defs></defs>
    <g id="iconos" stroke="none" stroke-width="1" fill="none" fill-rule="evenodd">
        <g id="zoom" fill-rule="nonzero" fill="#040404">
            <path d="M105.235412,118.447904 C101.809345,114.77018 102.013354,109.01142 105.691079,105.585353 C109.368803,102.159287 115.127563,102.363296 118.55363,106.041021 L173.558206,165.085899 C176.984273,168.763624 176.780263,174.522384 173.102539,177.94845 C169.424815,181.374516 163.666055,181.170507 160.239988,177.492783 L105.235412,118.447904 Z M68.3059884,135.502324 C31.14957,135.502324 1.06043204,105.151541 1.06043204,67.751162 C1.06043204,30.3507827 31.14957,0 68.3059884,0 C105.462407,0 135.551545,30.3507827 135.551545,67.751162 C135.551545,105.151541 105.462407,135.502324 68.3059884,135.502324 Z M68.3059884,117.300519 C95.3743813,117.300519 117.34974,95.1340706 117.34974,67.751162 C117.34974,40.3682534 95.3743813,18.2018047 68.3059884,18.2018047 C41.2375954,18.2018047 19.2622368,40.3682534 19.2622368,67.751162 C19.2622368,95.1340706 41.2375954,117.300519 68.3059884,117.300519 Z" id="Combined-Shape"></path>
        </g>
    </g>
</svg>