<?xml version="1.0" encoding="utf-8"?>
<!-- Generator: Adobe Illustrator 19.2.0, SVG Export Plug-In . SVG Version: 6.00 Build 0)  -->
<svg version="1.1" id="Capa_1" xmlns="http://www.w3.org/2000/svg" xmlns:xlink="http://www.w3.org/1999/xlink" x="0px" y="0px"
	 viewBox="0 0 32 32" style="enable-background:new 0 0 32 32;" xml:space="preserve">
<path d="M20.6,8.1L9.7,23.7c-0.2-0.1-0.3-0.3-0.4-0.5c-0.3-0.5-0.2-1.1,0.1-1.5l7.6-11h-6.4c-0.8,0-1.5-0.6-1.5-1.4s0.7-1.4,1.5-1.4
	h9.1C20.1,7.8,20.4,7.9,20.6,8.1z M21.8,21.6H15l7.6-11c0.3-0.4,0.3-1,0.1-1.5c-0.1-0.2-0.2-0.4-0.4-0.5L11.3,24.2
	c0.2,0.2,0.6,0.3,0.9,0.3h9.6c0.8,0,1.5-0.6,1.5-1.4S22.6,21.6,21.8,21.6z M24.9,2.3h-18C4.3,2.3,2.2,4.4,2.2,7v18
	c0,2.6,2.1,4.7,4.7,4.7h18c2.6,0,4.7-2.1,4.7-4.7V7C29.6,5,27.5,2.3,24.9,2.3 M24.5,1c3.5,0,6.4,2.9,6.4,6.4v17.7
	c0,3.2-2.7,5.9-5.9,5.9H6.8c-3.2,0-5.9-2.7-5.9-5.9V6.9C0.9,3.7,3.6,1,6.8,1H24.5L24.5,1z"/>
</svg>
