<?xml version="1.0" encoding="utf-8"?>
<!-- Generator: Adobe Illustrator 19.2.0, SVG Export Plug-In . SVG Version: 6.00 Build 0)  -->
<svg version="1.1" id="Capa_1" xmlns="http://www.w3.org/2000/svg" xmlns:xlink="http://www.w3.org/1999/xlink" x="0px" y="0px"
	 viewBox="0 0 32 32" style="enable-background:new 0 0 32 32;" xml:space="preserve">
<path d="M24.8,1H7.1C3.9,1,1,3.7,1,6.9v18.2C1,28.4,3.9,31,7.1,31h18.2c3.2,0,5.7-2.6,5.7-5.9V7.4C31,3.9,28.3,1,24.8,1z M9.3,23.1
	c-0.3-0.5-0.2-0.8,0.1-1.3L17,11h-6.4c-0.8,0-1.5-0.7-1.5-1.5C9.2,8.7,9.8,8,10.7,8h9.1c0.3,0,0.6-0.1,0.9,0.1L9.7,23.6
	C9.6,23.5,9.4,23.3,9.3,23.1z M21.8,24h-9.6c-0.3,0-0.6,0.1-0.9-0.1L22.3,8.4c0.2,0.1,0.3,0.3,0.4,0.5c0.3,0.5,0.2,0.8-0.1,1.3
	L15,21h6.8c0.8,0,1.5,0.7,1.5,1.5C23.3,23.3,22.6,24,21.8,24z"/>
</svg>
